<svg width="16" height="16" viewBox="0 0 16 16" fill="none" xmlns="http://www.w3.org/2000/svg">
<g id="Essential/16">
<g id="trash">
<path id="Vector" d="M14 3.98568C11.78 3.76568 9.54667 3.65234 7.32 3.65234C6 3.65234 4.68 3.71901 3.36 3.85234L2 3.98568" stroke="#A4A4A4" stroke-linecap="round" stroke-linejoin="round"/>
<path id="Vector_2" d="M5.66602 3.31398L5.81268 2.44065C5.91935 1.80732 5.99935 1.33398 7.12602 1.33398H8.87268C9.99935 1.33398 10.086 1.83398 10.186 2.44732L10.3327 3.31398" stroke="#A4A4A4" stroke-linecap="round" stroke-linejoin="round"/>
<path id="Vector_3" d="M12.5669 6.09375L12.1336 12.8071C12.0603 13.8537 12.0003 14.6671 10.1403 14.6671H5.86026C4.00026 14.6671 3.94026 13.8537 3.86693 12.8071L3.43359 6.09375" stroke="#A4A4A4" stroke-linecap="round" stroke-linejoin="round"/>
<path id="Vector_4" d="M6.88672 11H9.10672" stroke="#A4A4A4" stroke-linecap="round" stroke-linejoin="round"/>
<path id="Vector_5" d="M6.33398 8.33398H9.66732" stroke="#A4A4A4" stroke-linecap="round" stroke-linejoin="round"/>
</g>
</g>
</svg>
