<svg width="16" height="16" viewBox="0 0 16 16" fill="none" xmlns="http://www.w3.org/2000/svg">
<path d="M12.027 9.03267C11.747 9.30601 11.587 9.69934 11.627 10.1193C11.687 10.8393 12.347 11.366 13.067 11.366H14.3337V12.1593C14.3337 13.5393 13.207 14.666 11.827 14.666H5.087C5.29366 14.4927 5.47366 14.2793 5.61366 14.0393C5.86032 13.6393 6.00033 13.166 6.00033 12.666C6.00033 11.1927 4.80699 9.99935 3.33366 9.99935C2.70699 9.99935 2.12699 10.2194 1.66699 10.586V7.67269C1.66699 6.29269 2.79366 5.16602 4.17366 5.16602H11.827C13.207 5.16602 14.3337 6.29269 14.3337 7.67269V8.63269H12.987C12.6137 8.63269 12.2737 8.77934 12.027 9.03267Z" stroke="#1C1C1C" stroke-linecap="round" stroke-linejoin="round"/>
<path d="M1.66699 8.27288V5.22625C1.66699 4.43291 2.15366 3.72622 2.89366 3.44622L8.18699 1.44622C9.01366 1.13289 9.90033 1.74624 9.90033 2.6329V5.16623" stroke="#1C1C1C" stroke-linecap="round" stroke-linejoin="round"/>
<path d="M15.0395 9.31376V10.6871C15.0395 11.0538 14.7462 11.3538 14.3729 11.3671H13.0662C12.3462 11.3671 11.6862 10.8404 11.6262 10.1204C11.5862 9.70044 11.7462 9.30711 12.0262 9.03377C12.2729 8.78044 12.6129 8.63379 12.9862 8.63379H14.3729C14.7462 8.64712 15.0395 8.94709 15.0395 9.31376Z" stroke="#1C1C1C" stroke-linecap="round" stroke-linejoin="round"/>
<path d="M4.66699 8H9.33366" stroke="#1C1C1C" stroke-linecap="round" stroke-linejoin="round"/>
<path d="M6.00033 12.6667C6.00033 13.1667 5.86032 13.64 5.61366 14.04C5.47366 14.28 5.29366 14.4933 5.087 14.6667C4.62033 15.0867 4.00699 15.3333 3.33366 15.3333C2.36033 15.3333 1.51366 14.8133 1.05366 14.04C0.806993 13.64 0.666992 13.1667 0.666992 12.6667C0.666992 11.8267 1.05366 11.0733 1.66699 10.5867C2.12699 10.22 2.70699 10 3.33366 10C4.80699 10 6.00033 11.1933 6.00033 12.6667Z" stroke="#1C1C1C" stroke-miterlimit="10" stroke-linecap="round" stroke-linejoin="round"/>
<path d="M2.29492 12.666L2.95492 13.326L4.37492 12.0127" stroke="#1C1C1C" stroke-linecap="round" stroke-linejoin="round"/>
</svg>
