<svg width="40" height="40" viewBox="0 0 40 40" fill="none" xmlns="http://www.w3.org/2000/svg">
<path d="M20.6193 3.58437L35.6193 9.58433C36.2026 9.81767 36.6693 10.5177 36.6693 11.1343V16.6677C36.6693 17.5843 35.9193 18.3343 35.0026 18.3343H5.0026C4.08594 18.3343 3.33594 17.5843 3.33594 16.6677V11.1343C3.33594 10.5177 3.80261 9.81767 4.38595 9.58433L19.3859 3.58437C19.7193 3.45104 20.2859 3.45104 20.6193 3.58437Z" stroke="#1C1C1C" stroke-width="1.5" stroke-miterlimit="10" stroke-linecap="round" stroke-linejoin="round"/>
<path d="M36.6693 36.6667H3.33594V31.6667C3.33594 30.75 4.08594 30 5.0026 30H35.0026C35.9193 30 36.6693 30.75 36.6693 31.6667V36.6667Z" stroke="#1C1C1C" stroke-width="1.5" stroke-miterlimit="10" stroke-linecap="round" stroke-linejoin="round"/>
<path d="M6.66406 30.0007V18.334" stroke="#1C1C1C" stroke-width="1.5" stroke-miterlimit="10" stroke-linecap="round" stroke-linejoin="round"/>
<path d="M13.3359 30.0007V18.334" stroke="#1C1C1C" stroke-width="1.5" stroke-miterlimit="10" stroke-linecap="round" stroke-linejoin="round"/>
<path d="M20 30.0007V18.334" stroke="#1C1C1C" stroke-width="1.5" stroke-miterlimit="10" stroke-linecap="round" stroke-linejoin="round"/>
<path d="M26.6641 30.0007V18.334" stroke="#1C1C1C" stroke-width="1.5" stroke-miterlimit="10" stroke-linecap="round" stroke-linejoin="round"/>
<path d="M33.3359 30.0007V18.334" stroke="#1C1C1C" stroke-width="1.5" stroke-miterlimit="10" stroke-linecap="round" stroke-linejoin="round"/>
<path d="M1.66406 36.666H38.3307" stroke="#1C1C1C" stroke-width="1.5" stroke-miterlimit="10" stroke-linecap="round" stroke-linejoin="round"/>
<path d="M20 14.166C21.3807 14.166 22.5 13.0467 22.5 11.666C22.5 10.2853 21.3807 9.16602 20 9.16602C18.6193 9.16602 17.5 10.2853 17.5 11.666C17.5 13.0467 18.6193 14.166 20 14.166Z" stroke="#1C1C1C" stroke-width="1.5" stroke-miterlimit="10" stroke-linecap="round" stroke-linejoin="round"/>
</svg>
