<svg width="24" height="24" viewBox="0 0 24 24" fill="none" xmlns="http://www.w3.org/2000/svg">
<path d="M3.98499 14.6604L2.465 13.1404C1.845 12.5204 1.845 11.5004 2.465 10.8804L3.98499 9.36039C4.24499 9.10039 4.45499 8.59038 4.45499 8.23038V6.08036C4.45499 5.20036 5.175 4.48038 6.055 4.48038H8.20499C8.56499 4.48038 9.075 4.27041 9.335 4.01041L10.855 2.49039C11.475 1.87039 12.495 1.87039 13.115 2.49039L14.635 4.01041C14.895 4.27041 15.405 4.48038 15.765 4.48038H17.915C18.795 4.48038 19.515 5.20036 19.515 6.08036V8.23038C19.515 8.59038 19.725 9.10039 19.985 9.36039L21.505 10.8804C22.125 11.5004 22.125 12.5204 21.505 13.1404L19.985 14.6604C19.725 14.9204 19.515 15.4304 19.515 15.7904V17.9403C19.515 18.8203 18.795 19.5404 17.915 19.5404H15.765C15.405 19.5404 14.895 19.7504 14.635 20.0104L13.115 21.5304C12.495 22.1504 11.475 22.1504 10.855 21.5304L9.335 20.0104C9.075 19.7504 8.56499 19.5404 8.20499 19.5404H6.055C5.175 19.5404 4.45499 18.8203 4.45499 17.9403V15.7904C4.45499 15.4204 4.24499 14.9104 3.98499 14.6604Z" stroke="#101010" stroke-width="1.5" stroke-linecap="round" stroke-linejoin="round"/>
<path d="M9 15L15 9" stroke="#101010" stroke-width="1.5" stroke-linecap="round" stroke-linejoin="round"/>
<path d="M14.4945 14.5H14.5035" stroke="#101010" stroke-width="2" stroke-linecap="round" stroke-linejoin="round"/>
<path d="M9.49451 9.5H9.50349" stroke="#101010" stroke-width="2" stroke-linecap="round" stroke-linejoin="round"/>
</svg>
