<svg width="113" height="12" viewBox="0 0 113 12" fill="none" xmlns="http://www.w3.org/2000/svg">
<path d="M7.54102 11L6.56348 8.22461H2.74219L1.76465 11H0.0351562L3.75391 0.964844H5.57227L9.28418 11H7.54102ZM6.13965 6.81641L5.18945 4.08203C5.15299 3.96354 5.10059 3.7972 5.03223 3.58301C4.96387 3.36426 4.89551 3.14323 4.82715 2.91992C4.75879 2.69206 4.70182 2.50065 4.65625 2.3457C4.61068 2.53255 4.55371 2.74219 4.48535 2.97461C4.42155 3.20247 4.35775 3.41667 4.29395 3.61719C4.2347 3.81771 4.18913 3.97266 4.15723 4.08203L3.2002 6.81641H6.13965ZM18.4512 1.00586V7.47266C18.4512 8.16992 18.3031 8.79427 18.0068 9.3457C17.7152 9.89714 17.2731 10.3346 16.6807 10.6582C16.0882 10.9772 15.3431 11.1367 14.4453 11.1367C13.1647 11.1367 12.1895 10.8018 11.5195 10.1318C10.8542 9.45736 10.5215 8.56185 10.5215 7.44531V1.00586H12.1621V7.30176C12.1621 8.13574 12.3581 8.75098 12.75 9.14746C13.1419 9.54395 13.7275 9.74219 14.5068 9.74219C15.0446 9.74219 15.4821 9.64876 15.8193 9.46191C16.1611 9.27051 16.4118 8.99251 16.5713 8.62793C16.7354 8.25879 16.8174 7.81445 16.8174 7.29492V1.00586H18.4512ZM24.4736 11H22.8262V2.40039H19.9004V1.00586H27.3926V2.40039H24.4736V11ZM37.7969 5.98926C37.7969 6.75944 37.6989 7.46126 37.5029 8.09473C37.3115 8.72363 37.0221 9.26595 36.6348 9.72168C36.2474 10.1729 35.762 10.5215 35.1787 10.7676C34.5954 11.0137 33.9118 11.1367 33.1279 11.1367C32.3304 11.1367 31.6377 11.0137 31.0498 10.7676C30.4665 10.5215 29.9811 10.1706 29.5938 9.71484C29.2109 9.25911 28.9238 8.71452 28.7324 8.08105C28.541 7.44759 28.4453 6.74577 28.4453 5.97559C28.4453 4.94564 28.6139 4.04785 28.9512 3.28223C29.293 2.51204 29.8102 1.91504 30.5029 1.49121C31.2002 1.06283 32.0798 0.848633 33.1416 0.848633C34.1807 0.848633 35.0443 1.06055 35.7324 1.48438C36.4206 1.9082 36.9355 2.50521 37.2773 3.27539C37.6237 4.04102 37.7969 4.94564 37.7969 5.98926ZM30.168 5.98926C30.168 6.75944 30.2728 7.42708 30.4824 7.99219C30.6921 8.55273 31.0133 8.98568 31.4463 9.29102C31.8838 9.5918 32.4443 9.74219 33.1279 9.74219C33.8161 9.74219 34.3766 9.5918 34.8096 9.29102C35.2425 8.98568 35.5615 8.55273 35.7666 7.99219C35.9717 7.42708 36.0742 6.75944 36.0742 5.98926C36.0742 4.81803 35.8395 3.90202 35.3701 3.24121C34.9053 2.57585 34.1624 2.24316 33.1416 2.24316C32.458 2.24316 31.8952 2.39355 31.4531 2.69434C31.0156 2.99512 30.6921 3.42578 30.4824 3.98633C30.2728 4.54232 30.168 5.20996 30.168 5.98926ZM47.6133 5.57227H51.3457V10.5898C50.8216 10.763 50.2793 10.8975 49.7188 10.9932C49.1582 11.0889 48.5293 11.1367 47.832 11.1367C46.8158 11.1367 45.9544 10.9362 45.248 10.5352C44.5462 10.1296 44.013 9.54395 43.6484 8.77832C43.2839 8.00814 43.1016 7.08073 43.1016 5.99609C43.1016 4.95247 43.3044 4.04785 43.71 3.28223C44.1156 2.51204 44.7057 1.91732 45.4805 1.49805C46.2552 1.07422 47.194 0.862305 48.2969 0.862305C48.8392 0.862305 49.3633 0.916992 49.8691 1.02637C50.3796 1.13118 50.8467 1.27702 51.2705 1.46387L50.6963 2.81738C50.359 2.65788 49.9808 2.52344 49.5615 2.41406C49.1423 2.30469 48.707 2.25 48.2559 2.25C47.5404 2.25 46.9229 2.40495 46.4033 2.71484C45.8883 3.02474 45.4919 3.46224 45.2139 4.02734C44.9359 4.58789 44.7969 5.25098 44.7969 6.0166C44.7969 6.75944 44.9085 7.41113 45.1318 7.97168C45.3551 8.53223 45.7038 8.96973 46.1777 9.28418C46.6562 9.59408 47.2738 9.74902 48.0303 9.74902C48.4085 9.74902 48.7298 9.72852 48.9941 9.6875C49.2585 9.64648 49.5023 9.60091 49.7256 9.55078V6.97363H47.6133V5.57227ZM59.3984 11H53.7383V1.00586H59.3984V2.38672H55.3789V5.10059H59.1455V6.47461H55.3789V9.6123H59.3984V11ZM69.8984 11H67.8818L62.9873 3.02246H62.9258C62.944 3.29134 62.96 3.57617 62.9736 3.87695C62.9919 4.17773 63.0055 4.48763 63.0146 4.80664C63.0283 5.12565 63.0397 5.44922 63.0488 5.77734V11H61.5586V1.00586H63.5615L68.4492 8.92871H68.4971C68.488 8.69629 68.4766 8.42969 68.4629 8.12891C68.4492 7.82812 68.4355 7.51823 68.4219 7.19922C68.4128 6.87565 68.4059 6.56348 68.4014 6.2627V1.00586H69.8984V11ZM78.1836 11H72.5234V1.00586H78.1836V2.38672H74.1641V5.10059H77.9307V6.47461H74.1641V9.6123H78.1836V11ZM83.1533 1.00586C84.0146 1.00586 84.7256 1.11068 85.2861 1.32031C85.8512 1.52995 86.2705 1.84896 86.5439 2.27734C86.8219 2.70573 86.9609 3.25033 86.9609 3.91113C86.9609 4.40332 86.8698 4.82259 86.6875 5.16895C86.5052 5.5153 86.266 5.80241 85.9697 6.03027C85.6735 6.25814 85.3568 6.44043 85.0195 6.57715L87.8564 11H86.0039L83.5908 6.99414H81.9844V11H80.3438V1.00586H83.1533ZM83.0439 2.37305H81.9844V5.64062H83.1191C83.8802 5.64062 84.4316 5.49935 84.7734 5.2168C85.1198 4.93424 85.293 4.51725 85.293 3.96582C85.293 3.38704 85.1084 2.97689 84.7393 2.73535C84.3747 2.49382 83.8096 2.37305 83.0439 2.37305ZM95.4785 11L94.501 8.22461H90.6797L89.7021 11H87.9727L91.6914 0.964844H93.5098L97.2217 11H95.4785ZM94.0771 6.81641L93.127 4.08203C93.0905 3.96354 93.0381 3.7972 92.9697 3.58301C92.9014 3.36426 92.833 3.14323 92.7646 2.91992C92.6963 2.69206 92.6393 2.50065 92.5938 2.3457C92.5482 2.53255 92.4912 2.74219 92.4229 2.97461C92.359 3.20247 92.2952 3.41667 92.2314 3.61719C92.1722 3.81771 92.1266 3.97266 92.0947 4.08203L91.1377 6.81641H94.0771ZM102.007 11H100.359V2.40039H97.4336V1.00586H104.926V2.40039H102.007V11ZM112.117 11H106.457V1.00586H112.117V2.38672H108.098V5.10059H111.864V6.47461H108.098V9.6123H112.117V11Z" fill="#004EFF"/>
</svg>
