<svg width="24" height="9" viewBox="0 0 24 9" fill="none" xmlns="http://www.w3.org/2000/svg">
<path d="M3.93652 2.00098C3.15202 2.00098 2.5319 2.26302 2.07617 2.78711C1.6237 3.30794 1.39746 4.02246 1.39746 4.93066C1.39746 5.86491 1.61556 6.58757 2.05176 7.09863C2.49121 7.60645 3.11621 7.86035 3.92676 7.86035C4.4248 7.86035 4.99284 7.77083 5.63086 7.5918V8.31934C5.13607 8.50488 4.52572 8.59766 3.7998 8.59766C2.74837 8.59766 1.9362 8.27865 1.36328 7.64062C0.79362 7.0026 0.508789 6.09603 0.508789 4.9209C0.508789 4.18522 0.645508 3.54069 0.918945 2.9873C1.19564 2.43392 1.59277 2.00749 2.11035 1.70801C2.63118 1.40853 3.24316 1.25879 3.94629 1.25879C4.69499 1.25879 5.34928 1.39551 5.90918 1.66895L5.55762 2.38184C5.01725 2.12793 4.47689 2.00098 3.93652 2.00098ZM7.87695 8.5H7.06641V0.902344H7.87695V8.5ZM11.8564 8.59766C11.0654 8.59766 10.4404 8.35677 9.98145 7.875C9.52572 7.39323 9.29785 6.72428 9.29785 5.86816C9.29785 5.00553 9.50944 4.32031 9.93262 3.8125C10.359 3.30469 10.9303 3.05078 11.6465 3.05078C12.3171 3.05078 12.8477 3.27214 13.2383 3.71484C13.6289 4.1543 13.8242 4.73535 13.8242 5.45801V5.9707H10.1377C10.154 6.59896 10.3118 7.07585 10.6113 7.40137C10.9141 7.72689 11.3389 7.88965 11.8857 7.88965C12.4619 7.88965 13.0316 7.76921 13.5947 7.52832V8.25098C13.3083 8.37467 13.0365 8.46257 12.7793 8.51465C12.5254 8.56999 12.2178 8.59766 11.8564 8.59766ZM11.6367 3.72949C11.207 3.72949 10.8636 3.86947 10.6064 4.14941C10.3525 4.42936 10.2028 4.81673 10.1572 5.31152H12.9551C12.9551 4.80046 12.8411 4.40983 12.6133 4.13965C12.3854 3.86621 12.0599 3.72949 11.6367 3.72949ZM18.502 8.5L18.3408 7.73828H18.3018C18.0348 8.07357 17.7679 8.30143 17.501 8.42188C17.2373 8.53906 16.9069 8.59766 16.5098 8.59766C15.9792 8.59766 15.5625 8.46094 15.2598 8.1875C14.9603 7.91406 14.8105 7.52507 14.8105 7.02051C14.8105 5.93978 15.6748 5.37337 17.4033 5.32129L18.3115 5.29199V4.95996C18.3115 4.54004 18.2204 4.23079 18.0381 4.03223C17.859 3.8304 17.571 3.72949 17.1738 3.72949C16.7279 3.72949 16.2233 3.86621 15.6602 4.13965L15.4111 3.51953C15.6748 3.3763 15.9629 3.264 16.2754 3.18262C16.5911 3.10124 16.9069 3.06055 17.2227 3.06055C17.8607 3.06055 18.3327 3.20215 18.6387 3.48535C18.9479 3.76855 19.1025 4.22266 19.1025 4.84766V8.5H18.502ZM16.6709 7.92871C17.1755 7.92871 17.571 7.79036 17.8574 7.51367C18.1471 7.23698 18.292 6.84961 18.292 6.35156V5.86816L17.4814 5.90234C16.8369 5.92513 16.3714 6.02604 16.085 6.20508C15.8018 6.38086 15.6602 6.65592 15.6602 7.03027C15.6602 7.32324 15.748 7.54622 15.9238 7.69922C16.1029 7.85221 16.3519 7.92871 16.6709 7.92871ZM23.2188 3.05078C23.4564 3.05078 23.6696 3.07031 23.8584 3.10938L23.7461 3.86133C23.5247 3.8125 23.3294 3.78809 23.1602 3.78809C22.7272 3.78809 22.3561 3.96387 22.0469 4.31543C21.7409 4.66699 21.5879 5.10482 21.5879 5.62891V8.5H20.7773V3.14844H21.4463L21.5391 4.13965H21.5781C21.7767 3.79134 22.016 3.52279 22.2959 3.33398C22.5758 3.14518 22.8835 3.05078 23.2188 3.05078Z" fill="#1C1C1C"/>
</svg>
