<svg width="16" height="16" viewBox="0 0 16 16" fill="none" xmlns="http://www.w3.org/2000/svg">
<path d="M14 3.98568C11.78 3.76568 9.54667 3.65234 7.32 3.65234C6 3.65234 4.68 3.71901 3.36 3.85234L2 3.98568" stroke="#1C1C1C" stroke-linecap="round" stroke-linejoin="round"/>
<path d="M5.66406 3.31398L5.81073 2.44065C5.9174 1.80732 5.9974 1.33398 7.12406 1.33398H8.87073C9.9974 1.33398 10.0841 1.83398 10.1841 2.44732L10.3307 3.31398" stroke="#1C1C1C" stroke-linecap="round" stroke-linejoin="round"/>
<path d="M12.563 6.09375L12.1297 12.8071C12.0564 13.8537 11.9964 14.6671 10.1364 14.6671H5.85635C3.99635 14.6671 3.93635 13.8537 3.86302 12.8071L3.42969 6.09375" stroke="#1C1C1C" stroke-linecap="round" stroke-linejoin="round"/>
<path d="M6.89062 11H9.11063" stroke="#1C1C1C" stroke-linecap="round" stroke-linejoin="round"/>
<path d="M6.33594 8.33398H9.66927" stroke="#1C1C1C" stroke-linecap="round" stroke-linejoin="round"/>
</svg>
