<svg width="40" height="40" viewBox="0 0 40 40" fill="none" xmlns="http://www.w3.org/2000/svg">
<path d="M16.6693 28.2501H10.3526C4.73594 28.2501 3.33594 26.8501 3.33594 21.2335V11.2335C3.33594 5.6168 4.73594 4.2168 10.3526 4.2168H27.9026C33.5193 4.2168 34.9193 5.6168 34.9193 11.2335" stroke="#101010" stroke-width="1.5" stroke-linecap="round" stroke-linejoin="round"/>
<path d="M16.6641 35.7833V28.25" stroke="#101010" stroke-width="1.5" stroke-linecap="round" stroke-linejoin="round"/>
<path d="M3.33594 21.584H16.6693" stroke="#101010" stroke-width="1.5" stroke-linecap="round" stroke-linejoin="round"/>
<path d="M11.2344 35.7832H16.6677" stroke="#101010" stroke-width="1.5" stroke-linecap="round" stroke-linejoin="round"/>
<path d="M36.6661 21.3337V30.8504C36.6661 34.8004 35.6828 35.7837 31.7328 35.7837H25.8161C21.8661 35.7837 20.8828 34.8004 20.8828 30.8504V21.3337C20.8828 17.3837 21.8661 16.4004 25.8161 16.4004H31.7328C35.6828 16.4004 36.6661 17.3837 36.6661 21.3337Z" stroke="#101010" stroke-width="1.5" stroke-linecap="round" stroke-linejoin="round"/>
<path d="M28.7382 30.4173H28.7532" stroke="#101010" stroke-width="1.5" stroke-linecap="round" stroke-linejoin="round"/>
</svg>
