<svg width="13" height="12" viewBox="0 0 13 12" fill="none" xmlns="http://www.w3.org/2000/svg">
<path d="M6.34766 9H5.16992L2.08203 4.83398L1.16797 5.6543V9H0.171875V0.433594H1.16797V4.70508C1.39062 4.45117 1.61914 4.19922 1.85352 3.94922C2.08789 3.69531 2.32031 3.43945 2.55078 3.18164L5.05273 0.433594H6.21875L2.80859 4.14844L6.34766 9ZM9.16602 11.8828C8.32227 11.8828 7.67188 11.7246 7.21484 11.4082C6.75781 11.0957 6.5293 10.6562 6.5293 10.0898C6.5293 9.6875 6.65625 9.34375 6.91016 9.05859C7.16797 8.77344 7.52344 8.58398 7.97656 8.49023C7.80859 8.41211 7.66406 8.29492 7.54297 8.13867C7.42578 7.98242 7.36719 7.80273 7.36719 7.59961C7.36719 7.36523 7.43164 7.16016 7.56055 6.98438C7.69336 6.80469 7.89453 6.63281 8.16406 6.46875C7.82812 6.33203 7.55469 6.10156 7.34375 5.77734C7.13672 5.44922 7.0332 5.06836 7.0332 4.63477C7.0332 4.17383 7.12891 3.78125 7.32031 3.45703C7.51172 3.12891 7.78906 2.87891 8.15234 2.70703C8.51562 2.53516 8.95508 2.44922 9.4707 2.44922C9.58398 2.44922 9.69727 2.45508 9.81055 2.4668C9.92773 2.47461 10.0391 2.48828 10.1445 2.50781C10.25 2.52344 10.3418 2.54297 10.4199 2.56641H12.623V3.19336L11.4395 3.33984C11.5566 3.49219 11.6543 3.67578 11.7324 3.89062C11.8105 4.10547 11.8496 4.34375 11.8496 4.60547C11.8496 5.24609 11.6328 5.75586 11.1992 6.13477C10.7656 6.50977 10.1699 6.69727 9.41211 6.69727C9.23242 6.69727 9.04883 6.68164 8.86133 6.65039C8.66992 6.75586 8.52344 6.87305 8.42188 7.00195C8.32422 7.13086 8.27539 7.2793 8.27539 7.44727C8.27539 7.57227 8.3125 7.67188 8.38672 7.74609C8.46484 7.82031 8.57617 7.875 8.7207 7.91016C8.86523 7.94141 9.03906 7.95703 9.24219 7.95703H10.373C11.0723 7.95703 11.6074 8.10352 11.9785 8.39648C12.3535 8.68945 12.541 9.11719 12.541 9.67969C12.541 10.3906 12.252 10.9355 11.6738 11.3145C11.0957 11.6934 10.2598 11.8828 9.16602 11.8828ZM9.19531 11.1211C9.72656 11.1211 10.166 11.0664 10.5137 10.957C10.8652 10.8516 11.127 10.6973 11.2988 10.4941C11.4746 10.2949 11.5625 10.0566 11.5625 9.7793C11.5625 9.52148 11.5039 9.32617 11.3867 9.19336C11.2695 9.06445 11.0977 8.97852 10.8711 8.93555C10.6445 8.88867 10.3672 8.86523 10.0391 8.86523H8.92578C8.63672 8.86523 8.38477 8.91016 8.16992 9C7.95508 9.08984 7.78906 9.22266 7.67188 9.39844C7.55859 9.57422 7.50195 9.79297 7.50195 10.0547C7.50195 10.4023 7.64844 10.666 7.94141 10.8457C8.23438 11.0293 8.65234 11.1211 9.19531 11.1211ZM9.44727 5.98828C9.91211 5.98828 10.2617 5.87109 10.4961 5.63672C10.7305 5.40234 10.8477 5.06055 10.8477 4.61133C10.8477 4.13086 10.7285 3.77148 10.4902 3.5332C10.252 3.29102 9.90039 3.16992 9.43555 3.16992C8.99023 3.16992 8.64648 3.29492 8.4043 3.54492C8.16602 3.79102 8.04688 4.15234 8.04688 4.62891C8.04688 5.06641 8.16797 5.40234 8.41016 5.63672C8.65234 5.87109 8.99805 5.98828 9.44727 5.98828Z" fill="#1C1C1C"/>
</svg>
