<svg width="24" height="24" viewBox="0 0 24 24" fill="none" xmlns="http://www.w3.org/2000/svg">
<path d="M16.8198 2H7.17982C5.04982 2 3.31982 3.74 3.31982 5.86V19.95C3.31982 21.75 4.60982 22.51 6.18982 21.64L11.0698 18.93C11.5898 18.64 12.4298 18.64 12.9398 18.93L17.8198 21.64C19.3998 22.52 20.6898 21.76 20.6898 19.95V5.86C20.6798 3.74 18.9498 2 16.8198 2Z" stroke="#1C1C1C" stroke-width="1.5" stroke-linecap="round" stroke-linejoin="round"/>
<path d="M12.8668 6.40665L13.7468 8.16665C13.8668 8.40665 14.1868 8.64665 14.4535 8.68665L16.0468 8.95331C17.0668 9.12665 17.3068 9.85998 16.5735 10.5933L15.3335 11.8333C15.1268 12.04 15.0068 12.4467 15.0735 12.74L15.4268 14.28C15.7068 15.4933 15.0601 15.9667 13.9868 15.3333L12.4935 14.4466C12.2201 14.2866 11.7801 14.2866 11.5068 14.4466L10.0135 15.3333C8.94013 15.9667 8.29346 15.4933 8.57346 14.28L8.92682 12.74C8.99348 12.4533 8.87347 12.0467 8.66681 11.8333L7.42682 10.5933C6.69348 9.85998 6.93347 9.11998 7.95347 8.95331L9.54681 8.68665C9.81348 8.63998 10.1335 8.40665 10.2535 8.16665L11.1335 6.40665C11.6068 5.45332 12.3935 5.45332 12.8668 6.40665Z" stroke="#1C1C1C" stroke-width="1.5" stroke-linecap="round" stroke-linejoin="round"/>
</svg>
