<svg width="82" height="82" viewBox="0 0 82 82" fill="none" xmlns="http://www.w3.org/2000/svg">
<g id="Essential">
<g id="profile">
<g id="profile-circle">
<path id="Vector" d="M75.1673 41.0007C75.1673 22.1748 59.8265 6.83398 41.0007 6.83398C22.1748 6.83398 6.83398 22.1748 6.83398 41.0007C6.83398 50.909 11.1048 59.8265 17.8698 66.079C17.8698 66.1132 17.8698 66.1132 17.8357 66.1473C18.1773 66.489 18.5873 66.7623 18.929 67.0698C19.134 67.2407 19.3048 67.4115 19.5098 67.5482C20.1248 68.0607 20.8082 68.539 21.4573 69.0173C21.6965 69.1882 21.9015 69.3248 22.1407 69.4957C22.7898 69.9398 23.4732 70.3498 24.1907 70.7257C24.4298 70.8623 24.7032 71.0331 24.9423 71.1698C25.6257 71.5457 26.3432 71.8873 27.0948 72.1948C27.3682 72.3315 27.6415 72.4682 27.9148 72.5706C28.6665 72.8782 29.4182 73.1515 30.1698 73.3906C30.4432 73.4931 30.7165 73.5956 30.9898 73.664C31.8098 73.9032 32.6298 74.1082 33.4498 74.3132C33.689 74.3815 33.9282 74.4498 34.2015 74.484C35.1582 74.689 36.1148 74.8257 37.1056 74.9282C37.2423 74.9282 37.379 74.9623 37.5156 74.9965C38.6773 75.099 39.839 75.1673 41.0007 75.1673C42.1623 75.1673 43.324 75.099 44.4515 74.9965C44.5882 74.9965 44.7248 74.9623 44.8615 74.9282C45.8523 74.8257 46.809 74.689 47.7657 74.484C48.0048 74.4498 48.244 74.3473 48.5173 74.3132C49.3373 74.1082 50.1915 73.9373 50.9773 73.664C51.2507 73.5615 51.524 73.459 51.7973 73.3906C52.549 73.1173 53.3348 72.8782 54.0523 72.5706C54.3256 72.4682 54.599 72.3315 54.8723 72.1948C55.5898 71.8873 56.3073 71.5457 57.0248 71.1698C57.2982 71.0331 57.5373 70.8623 57.7765 70.7257C58.4598 70.3157 59.1432 69.9398 59.8265 69.4957C60.0657 69.359 60.2706 69.1882 60.5098 69.0173C61.1931 68.539 61.8423 68.0607 62.4573 67.5482C62.6623 67.3773 62.8332 67.2065 63.0382 67.0698C63.414 66.7623 63.7898 66.4548 64.1315 66.1473C64.1315 66.1132 64.1315 66.1132 64.0973 66.079C70.8965 59.8265 75.1673 50.909 75.1673 41.0007ZM57.879 57.9815C48.6198 51.7631 33.4498 51.7631 24.1223 57.9815C22.619 58.9723 21.389 60.134 20.364 61.3982C15.1707 56.1365 11.959 48.9273 11.959 41.0007C11.959 24.9765 24.9765 11.959 41.0007 11.959C57.0248 11.959 70.0423 24.9765 70.0423 41.0007C70.0423 48.9273 66.8307 56.1365 61.6373 61.3982C60.6465 60.134 59.3823 58.9723 57.879 57.9815Z" fill="#D2D2D2"/>
<path id="Vector_2" d="M41 23.6777C33.9275 23.6777 28.1875 29.4177 28.1875 36.4902C28.1875 43.4261 33.62 49.0636 40.8292 49.2686C40.9317 49.2686 41.0683 49.2686 41.1367 49.2686C41.205 49.2686 41.3075 49.2686 41.3758 49.2686C41.41 49.2686 41.4442 49.2686 41.4442 49.2686C48.3458 49.0294 53.7783 43.4261 53.8125 36.4902C53.8125 29.4177 48.0725 23.6777 41 23.6777Z" fill="#D2D2D2"/>
</g>
</g>
</g>
</svg>
