<svg width="24" height="24" viewBox="0 0 24 24" fill="none" xmlns="http://www.w3.org/2000/svg">
<path d="M5.46973 9C7.40272 9 8.96973 7.433 8.96973 5.5C8.96973 3.567 7.40272 2 5.46973 2C3.53673 2 1.96973 3.567 1.96973 5.5C1.96973 7.433 3.53673 9 5.46973 9Z" stroke="#1C1C1C" stroke-width="1.5"/>
<path d="M16.9697 15H19.9697C21.0697 15 21.9697 15.9 21.9697 17V20C21.9697 21.1 21.0697 22 19.9697 22H16.9697C15.8697 22 14.9697 21.1 14.9697 20V17C14.9697 15.9 15.8697 15 16.9697 15Z" stroke="#1C1C1C" stroke-width="1.5"/>
<path d="M11.9997 5H14.6797C16.5297 5 17.3897 7.29 15.9997 8.51L8.0097 15.5C6.6197 16.71 7.4797 19 9.3197 19H11.9997" stroke="#1C1C1C" stroke-width="1.5" stroke-linecap="round" stroke-linejoin="round"/>
<path d="M5.48573 5.5H5.49728" stroke="#1C1C1C" stroke-width="2" stroke-linecap="round" stroke-linejoin="round"/>
<path d="M18.4857 18.5H18.4973" stroke="#1C1C1C" stroke-width="2" stroke-linecap="round" stroke-linejoin="round"/>
</svg>
