<svg width="16" height="16" viewBox="0 0 16 16" fill="none" xmlns="http://www.w3.org/2000/svg">
<path d="M14.6493 12.2187C14.6493 12.4587 14.5959 12.7054 14.4826 12.9454C14.3693 13.1854 14.2226 13.412 14.0293 13.6254C13.7026 13.9854 13.3426 14.2454 12.9359 14.412C12.5359 14.5787 12.1026 14.6654 11.6359 14.6654C10.9559 14.6654 10.2293 14.5054 9.4626 14.1787C8.69594 13.852 7.92927 13.412 7.16927 12.8587C6.4026 12.2987 5.67594 11.6787 4.9826 10.992C4.29594 10.2987 3.67594 9.57203 3.1226 8.81203C2.57594 8.05203 2.13594 7.29203 1.81594 6.5387C1.49594 5.7787 1.33594 5.05203 1.33594 4.3587C1.33594 3.90536 1.41594 3.47203 1.57594 3.07203C1.73594 2.66536 1.98927 2.29203 2.3426 1.9587C2.76927 1.5387 3.23594 1.33203 3.72927 1.33203C3.91594 1.33203 4.1026 1.37203 4.26927 1.45203C4.4426 1.53203 4.59594 1.65203 4.71594 1.82536L6.2626 4.00536C6.3826 4.17203 6.46927 4.32536 6.52927 4.47203C6.58927 4.61203 6.6226 4.75203 6.6226 4.8787C6.6226 5.0387 6.57594 5.1987 6.4826 5.35203C6.39594 5.50536 6.26927 5.66536 6.10927 5.82536L5.6026 6.35203C5.52927 6.42536 5.49594 6.51203 5.49594 6.6187C5.49594 6.67203 5.5026 6.7187 5.51594 6.77203C5.53594 6.82536 5.55594 6.86536 5.56927 6.90536C5.68927 7.12536 5.89594 7.41203 6.18927 7.7587C6.48927 8.10536 6.80927 8.4587 7.15594 8.81203C7.51594 9.16536 7.8626 9.49203 8.21594 9.79203C8.5626 10.0854 8.84927 10.2854 9.07594 10.4054C9.10927 10.4187 9.14927 10.4387 9.19594 10.4587C9.24927 10.4787 9.3026 10.4854 9.3626 10.4854C9.47594 10.4854 9.5626 10.4454 9.63594 10.372L10.1426 9.87203C10.3093 9.70536 10.4693 9.5787 10.6226 9.4987C10.7759 9.40536 10.9293 9.3587 11.0959 9.3587C11.2226 9.3587 11.3559 9.38536 11.5026 9.44536C11.6493 9.50536 11.8026 9.59203 11.9693 9.70536L14.1759 11.272C14.3493 11.392 14.4693 11.532 14.5426 11.6987C14.6093 11.8654 14.6493 12.032 14.6493 12.2187Z" stroke="#1C1C1C" stroke-miterlimit="10"/>
</svg>
