<svg width="16" height="16" viewBox="0 0 16 16" fill="none" xmlns="http://www.w3.org/2000/svg">
<path d="M2.11328 4.96094L7.99994 8.36759L13.8466 4.98092" stroke="#1C1C1C" stroke-linecap="round" stroke-linejoin="round"/>
<path d="M8 14.408V8.36133" stroke="#1C1C1C" stroke-linecap="round" stroke-linejoin="round"/>
<path d="M6.6204 1.65398L3.0604 3.63401C2.25374 4.08067 1.59375 5.20066 1.59375 6.12066V9.88734C1.59375 10.8073 2.25374 11.9273 3.0604 12.374L6.6204 14.354C7.3804 14.774 8.62706 14.774 9.38706 14.354L12.9471 12.374C13.7537 11.9273 14.4137 10.8073 14.4137 9.88734V6.12066C14.4137 5.20066 13.7537 4.08067 12.9471 3.63401L9.38706 1.65398C8.6204 1.22732 7.3804 1.22732 6.6204 1.65398Z" stroke="#1C1C1C" stroke-linecap="round" stroke-linejoin="round"/>
<path d="M11.3345 8.82577V6.38578L5.00781 2.73242" stroke="#1C1C1C" stroke-linecap="round" stroke-linejoin="round"/>
</svg>
