<svg width="16" height="16" viewBox="0 0 16 16" fill="none" xmlns="http://www.w3.org/2000/svg">
<path d="M14.6454 12.2207C14.6454 12.4607 14.592 12.7073 14.4787 12.9473C14.3654 13.1873 14.2187 13.414 14.0254 13.6273C13.6987 13.9873 13.3387 14.2473 12.932 14.414C12.532 14.5807 12.0987 14.6673 11.632 14.6673C10.952 14.6673 10.2254 14.5073 9.4587 14.1807C8.69203 13.854 7.92536 13.414 7.16536 12.8607C6.3987 12.3007 5.67203 11.6807 4.9787 10.994C4.29203 10.3007 3.67203 9.57398 3.1187 8.81398C2.57203 8.05398 2.13203 7.29398 1.81203 6.54065C1.49203 5.78065 1.33203 5.05398 1.33203 4.36065C1.33203 3.90732 1.41203 3.47398 1.57203 3.07398C1.73203 2.66732 1.98536 2.29398 2.3387 1.96065C2.76536 1.54065 3.23203 1.33398 3.72536 1.33398C3.91203 1.33398 4.0987 1.37398 4.26536 1.45398C4.4387 1.53398 4.59203 1.65398 4.71203 1.82732L6.2587 4.00732C6.3787 4.17398 6.46536 4.32732 6.52536 4.47398C6.58536 4.61398 6.6187 4.75398 6.6187 4.88065C6.6187 5.04065 6.57203 5.20065 6.4787 5.35398C6.39203 5.50732 6.26536 5.66732 6.10536 5.82732L5.5987 6.35398C5.52536 6.42732 5.49203 6.51398 5.49203 6.62065C5.49203 6.67398 5.4987 6.72065 5.51203 6.77398C5.53203 6.82732 5.55203 6.86732 5.56536 6.90732C5.68536 7.12732 5.89203 7.41398 6.18536 7.76065C6.48536 8.10732 6.80536 8.46065 7.15203 8.81398C7.51203 9.16732 7.8587 9.49398 8.21203 9.79398C8.5587 10.0873 8.84536 10.2873 9.07203 10.4073C9.10536 10.4207 9.14536 10.4407 9.19203 10.4607C9.24536 10.4807 9.2987 10.4873 9.3587 10.4873C9.47203 10.4873 9.5587 10.4473 9.63203 10.374L10.1387 9.87398C10.3054 9.70732 10.4654 9.58065 10.6187 9.50065C10.772 9.40732 10.9254 9.36065 11.092 9.36065C11.2187 9.36065 11.352 9.38732 11.4987 9.44732C11.6454 9.50732 11.7987 9.59398 11.9654 9.70732L14.172 11.274C14.3454 11.394 14.4654 11.534 14.5387 11.7006C14.6054 11.8673 14.6454 12.034 14.6454 12.2207Z" stroke="#1C1C1C" stroke-miterlimit="10"/>
</svg>
