<svg width="16" height="16" viewBox="0 0 16 16" fill="none" xmlns="http://www.w3.org/2000/svg">
<path d="M7.97917 14.6673C11.6611 14.6673 14.6458 11.6825 14.6458 8.00065C14.6458 4.31875 11.6611 1.33398 7.97917 1.33398C4.29727 1.33398 1.3125 4.31875 1.3125 8.00065C1.3125 11.6825 4.29727 14.6673 7.97917 14.6673Z" stroke="#1C1C1C" stroke-linecap="round" stroke-linejoin="round"/>
<path d="M7.14536 9.68719V6.31385C7.14536 5.99385 7.01203 5.86719 6.67203 5.86719H5.80536C5.46536 5.86719 5.33203 5.99385 5.33203 6.31385V9.68719C5.33203 10.0072 5.46536 10.1339 5.80536 10.1339H6.66536C7.01203 10.1339 7.14536 10.0072 7.14536 9.68719Z" stroke="#1C1C1C" stroke-linecap="round" stroke-linejoin="round"/>
<path d="M10.666 9.68719V6.31385C10.666 5.99385 10.5327 5.86719 10.1927 5.86719H9.33271C8.99271 5.86719 8.85938 5.99385 8.85938 6.31385V9.68719C8.85938 10.0072 8.99271 10.1339 9.33271 10.1339H10.1927C10.5327 10.1339 10.666 10.0072 10.666 9.68719Z" stroke="#1C1C1C" stroke-linecap="round" stroke-linejoin="round"/>
</svg>
