<svg width="16" height="17" viewBox="0 0 16 17" fill="none" xmlns="http://www.w3.org/2000/svg">
<path d="M6.54133 9.23303C6.54133 9.65549 6.37124 10.0606 6.06848 10.3594C5.76572 10.6581 5.35508 10.8259 4.92691 10.8259C4.49874 10.8259 4.08811 10.6581 3.78535 10.3594C3.48259 10.0606 3.3125 9.65549 3.3125 9.23303C3.3125 8.81057 3.48259 8.40541 3.78535 8.10668C4.08811 7.80796 4.49874 7.64014 4.92691 7.64014C5.35508 7.64014 5.76572 7.80796 6.06848 8.10668C6.37124 8.40541 6.54133 8.81057 6.54133 9.23303Z" stroke="white" stroke-width="1.05" stroke-linecap="round" stroke-linejoin="round"/>
<path d="M8.9627 9.23271C8.9627 13.0248 4.92666 15.206 4.92666 15.206C4.92666 15.206 0.890625 13.0248 0.890625 9.23271C0.890625 8.17656 1.31585 7.16367 2.07275 6.41685C2.82966 5.67004 3.85624 5.25049 4.92666 5.25049C5.99708 5.25049 7.02367 5.67004 7.78057 6.41685C8.53747 7.16367 8.9627 8.17656 8.9627 9.23271Z" stroke="white" stroke-width="1.05" stroke-linecap="round" stroke-linejoin="round"/>
<path d="M10.0888 7.18996C10.0888 5.97092 9.96525 5.23949 9.47104 4.75187C8.97683 4.26425 8.23552 4.14235 7 4.14235C8.23552 4.14235 8.97683 4.02044 9.47104 3.53282C9.96525 3.0452 10.0888 2.31377 10.0888 1.09473C10.0888 2.31377 10.2124 3.0452 10.7066 3.53282C11.2008 4.02044 11.9421 4.14235 13.1776 4.14235C11.9421 4.14235 11.2008 4.26425 10.7066 4.75187C10.2124 5.23949 10.0888 5.97092 10.0888 7.18996ZM14.4131 3.53282C14.4749 3.16711 14.3514 2.86235 14.166 2.55758C13.8571 2.37473 13.5483 2.25282 13.1776 2.31377C13.5483 2.37473 13.8571 2.25282 14.166 2.06996C14.3514 1.7652 14.4749 1.46044 14.4131 1.09473C14.3514 1.46044 14.4749 1.7652 14.6602 2.06996C14.9691 2.25282 15.278 2.37473 15.6486 2.31377C15.278 2.25282 14.9691 2.37473 14.6602 2.55758C14.4749 2.86235 14.3514 3.16711 14.4131 3.53282Z" fill="#160783" stroke="white" stroke-width="0.714286" stroke-linecap="round" stroke-linejoin="round"/>
</svg>
