<svg width="16" height="16" viewBox="0 0 16 16" fill="none" xmlns="http://www.w3.org/2000/svg">
<path d="M14.6667 10C14.6667 12.58 12.58 14.6667 10 14.6667L10.7 13.5" stroke="#004EFF" stroke-linecap="round" stroke-linejoin="round"/>
<path d="M1.33594 6.00065C1.33594 3.42065 3.4226 1.33398 6.0026 1.33398L5.3026 2.50065" stroke="#004EFF" stroke-linecap="round" stroke-linejoin="round"/>
<path d="M9.13281 2.9668L11.7861 4.50012L14.4128 2.97347" stroke="#004EFF" stroke-linecap="round" stroke-linejoin="round"/>
<path d="M11.7891 7.21415V4.49414" stroke="#004EFF" stroke-linecap="round" stroke-linejoin="round"/>
<path d="M11.1584 1.47398L9.55843 2.36062C9.19843 2.56062 8.89844 3.06728 8.89844 3.48062V5.17398C8.89844 5.58731 9.19176 6.09397 9.55843 6.29397L11.1584 7.18065C11.4984 7.37398 12.0584 7.37398 12.4051 7.18065L14.0051 6.29397C14.3651 6.09397 14.6651 5.58731 14.6651 5.17398V3.48062C14.6651 3.06728 14.3718 2.56062 14.0051 2.36062L12.4051 1.47398C12.0651 1.28732 11.5051 1.28732 11.1584 1.47398Z" stroke="#004EFF" stroke-linecap="round" stroke-linejoin="round"/>
<path d="M1.57031 10.2988L4.21698 11.8322L6.85031 10.3055" stroke="#004EFF" stroke-linecap="round" stroke-linejoin="round"/>
<path d="M4.21875 14.5462V11.8262" stroke="#004EFF" stroke-linecap="round" stroke-linejoin="round"/>
<path d="M3.59594 8.80602L1.99594 9.69265C1.63594 9.89265 1.33594 10.3993 1.33594 10.8126V12.506C1.33594 12.9193 1.62927 13.426 1.99594 13.626L3.59594 14.5127C3.93594 14.706 4.49593 14.706 4.8426 14.5127L6.44261 13.626C6.80261 13.426 7.1026 12.9193 7.1026 12.506V10.8126C7.1026 10.3993 6.80927 9.89265 6.44261 9.69265L4.8426 8.80602C4.49593 8.61935 3.93594 8.61935 3.59594 8.80602Z" stroke="#004EFF" stroke-linecap="round" stroke-linejoin="round"/>
</svg>
