<svg width="16" height="17" viewBox="0 0 16 17" fill="none" xmlns="http://www.w3.org/2000/svg">
<path d="M15 3.91197V11.8315C15 12.4613 14.454 13.0519 13.782 13.1306L13.551 13.1569C12.025 13.3471 9.67298 14.0754 8.32898 14.7709C8.14698 14.8693 7.84601 14.8693 7.65701 14.7709L7.62898 14.7578C6.28498 14.0689 3.94002 13.3471 2.42102 13.1569L2.21799 13.1306C1.54599 13.0519 1 12.4613 1 11.8315V3.9054C1 3.12461 1.67898 2.53409 2.51198 2.59971C3.98198 2.71125 6.20798 3.40677 7.45398 4.13507L7.62898 4.23346C7.83198 4.35157 8.16802 4.35157 8.37102 4.23346L8.49001 4.1613C8.93101 3.90541 9.491 3.64952 10.1 3.41987V6.09689L11.5 5.22423L12.9 6.09689V2.67191C13.089 2.63911 13.271 2.6194 13.439 2.60628H13.481C14.314 2.54066 15 3.12461 15 3.91197Z" stroke="white" stroke-linecap="round" stroke-linejoin="round"/>
<path d="M8 4.4502V14.2921" stroke="white" stroke-linecap="round" stroke-linejoin="round"/>
<path d="M12.9016 2.67188V6.09685L11.5016 5.22419L10.1016 6.09685V3.41983C11.0186 3.07865 12.0406 2.8031 12.9016 2.67188Z" stroke="white" stroke-linecap="round" stroke-linejoin="round"/>
</svg>
