<svg width="16" height="16" viewBox="0 0 16 16" fill="none" xmlns="http://www.w3.org/2000/svg">
<path d="M10.6693 8.5987V11.3987C10.6693 13.732 9.73594 14.6654 7.4026 14.6654H4.6026C2.26927 14.6654 1.33594 13.732 1.33594 11.3987V8.5987C1.33594 6.26536 2.26927 5.33203 4.6026 5.33203H7.4026C9.73594 5.33203 10.6693 6.26536 10.6693 8.5987Z" stroke="#004EFF" stroke-linecap="round" stroke-linejoin="round"/>
<path d="M14.6693 4.5987V7.3987C14.6693 9.73203 13.7359 10.6654 11.4026 10.6654H10.6693V8.5987C10.6693 6.26536 9.73594 5.33203 7.4026 5.33203H5.33594V4.5987C5.33594 2.26536 6.26927 1.33203 8.6026 1.33203H11.4026C13.7359 1.33203 14.6693 2.26536 14.6693 4.5987Z" stroke="#004EFF" stroke-linecap="round" stroke-linejoin="round"/>
</svg>
