<svg width="16" height="16" viewBox="0 0 16 16" fill="none" xmlns="http://www.w3.org/2000/svg">
<path d="M13.5 5H2.5C2.22386 5 2 5.22386 2 5.5V7.5C2 7.77614 2.22386 8 2.5 8H13.5C13.7761 8 14 7.77614 14 7.5V5.5C14 5.22386 13.7761 5 13.5 5Z" stroke="#777777" stroke-linecap="round" stroke-linejoin="round"/>
<path d="M13 8V12.5C13 12.6326 12.9473 12.7598 12.8536 12.8536C12.7598 12.9473 12.6326 13 12.5 13H3.5C3.36739 13 3.24021 12.9473 3.14645 12.8536C3.05268 12.7598 3 12.6326 3 12.5V8" stroke="#1C1C1C" stroke-linecap="round" stroke-linejoin="round"/>
<path d="M8 5V13" stroke="#1C1C1C" stroke-linecap="round" stroke-linejoin="round"/>
<path d="M10.8284 4.29297C10.1213 5.00007 8 5.00007 8 5.00007C8 5.00007 8 2.87875 8.70711 2.17165C8.98847 1.89061 9.36991 1.7328 9.76759 1.73291C10.1653 1.73302 10.5466 1.89105 10.8278 2.17225C11.109 2.45345 11.2671 2.83481 11.2672 3.23248C11.2673 3.63016 11.1095 4.01161 10.8284 4.29297V4.29297Z" stroke="#1C1C1C" stroke-linecap="round" stroke-linejoin="round"/>
<path d="M5.17116 4.29297C5.87826 5.00007 7.99959 5.00007 7.99959 5.00007C7.99959 5.00007 7.99958 2.87875 7.29248 2.17165C7.01112 1.89061 6.62967 1.7328 6.232 1.73291C5.83432 1.73302 5.45296 1.89105 5.17176 2.17225C4.89056 2.45345 4.73254 2.83481 4.73242 3.23248C4.73231 3.63016 4.89012 4.01161 5.17116 4.29297V4.29297Z" stroke="#1C1C1C" stroke-linecap="round" stroke-linejoin="round"/>
</svg>
