<svg width="17" height="19" viewBox="0 0 17 19" fill="none" xmlns="http://www.w3.org/2000/svg">
<path d="M14.1158 10.7465C14.6958 10.9798 15.0558 11.6665 14.9224 12.2731L14.6491 13.5131C14.1758 15.6465 12.5024 17.1665 10.0891 17.1665H6.91576C4.50243 17.1665 2.8291 15.6465 2.35577 13.5131L2.08243 12.2731C1.9491 11.6665 2.30909 10.9798 2.88909 10.7465L3.83577 10.3665L7.50911 8.89313C8.14911 8.63979 8.85576 8.63979 9.49576 8.89313L13.1691 10.3665L14.1158 10.7465Z" stroke="#1C1C1C" stroke-linecap="round" stroke-linejoin="round"/>
<path d="M8.5 17.167V9.16699" stroke="#1C1C1C" stroke-linecap="round" stroke-linejoin="round"/>
<path d="M13.1693 7.83301V10.3663L9.49593 8.89301C8.85593 8.63967 8.14928 8.63967 7.50928 8.89301L3.83594 10.3663V7.83301C3.83594 6.73301 4.73594 5.83301 5.83594 5.83301H11.1693C12.2693 5.83301 13.1693 6.73301 13.1693 7.83301Z" stroke="#1C1C1C" stroke-linecap="round" stroke-linejoin="round"/>
<path d="M10.1693 5.83301H6.83594V4.49967C6.83594 4.13301 7.13594 3.83301 7.5026 3.83301H9.5026C9.86927 3.83301 10.1693 4.13301 10.1693 4.49967V5.83301Z" stroke="#1C1C1C" stroke-linecap="round" stroke-linejoin="round"/>
</svg>
