<svg width="16" height="16" viewBox="0 0 16 16" fill="none" xmlns="http://www.w3.org/2000/svg">
<path d="M10.0026 1.33398V8.00065C10.0026 8.73398 9.4026 9.33398 8.66927 9.33398H1.33594V4.00065C1.33594 2.52732 2.52927 1.33398 4.0026 1.33398H10.0026Z" stroke="#1C1C1C" stroke-linecap="round" stroke-linejoin="round"/>
<path d="M14.6693 9.33398V11.334C14.6693 12.4407 13.7759 13.334 12.6693 13.334H12.0026C12.0026 12.6007 11.4026 12.0007 10.6693 12.0007C9.93594 12.0007 9.33594 12.6007 9.33594 13.334H6.66927C6.66927 12.6007 6.06927 12.0007 5.33594 12.0007C4.6026 12.0007 4.0026 12.6007 4.0026 13.334H3.33594C2.22927 13.334 1.33594 12.4407 1.33594 11.334V9.33398H8.66927C9.4026 9.33398 10.0026 8.73398 10.0026 8.00065V3.33398H11.2293C11.7093 3.33398 12.1493 3.59399 12.3893 4.00732L13.5293 6.00065H12.6693C12.3026 6.00065 12.0026 6.30065 12.0026 6.66732V8.66732C12.0026 9.03398 12.3026 9.33398 12.6693 9.33398H14.6693Z" stroke="#1C1C1C" stroke-linecap="round" stroke-linejoin="round"/>
<path d="M5.33333 14.6667C6.06971 14.6667 6.66667 14.0697 6.66667 13.3333C6.66667 12.597 6.06971 12 5.33333 12C4.59695 12 4 12.597 4 13.3333C4 14.0697 4.59695 14.6667 5.33333 14.6667Z" stroke="#1C1C1C" stroke-linecap="round" stroke-linejoin="round"/>
<path d="M10.6693 14.6667C11.4057 14.6667 12.0026 14.0697 12.0026 13.3333C12.0026 12.597 11.4057 12 10.6693 12C9.93289 12 9.33594 12.597 9.33594 13.3333C9.33594 14.0697 9.93289 14.6667 10.6693 14.6667Z" stroke="#1C1C1C" stroke-linecap="round" stroke-linejoin="round"/>
<path d="M14.6667 8V9.33333H12.6667C12.3 9.33333 12 9.03333 12 8.66667V6.66667C12 6.3 12.3 6 12.6667 6H13.5267L14.6667 8Z" stroke="#1C1C1C" stroke-linecap="round" stroke-linejoin="round"/>
</svg>
