<svg width="12" height="12" viewBox="0 0 12 12" fill="none" xmlns="http://www.w3.org/2000/svg">
<path d="M1.58594 3.71973L6.00093 6.27472L10.3859 3.73471" stroke="#F0A22E" stroke-linecap="round" stroke-linejoin="round"/>
<path d="M6 10.8045V6.26953" stroke="#F0A22E" stroke-linecap="round" stroke-linejoin="round"/>
<path d="M10.8053 4.585V7.41502C10.8053 7.44002 10.8053 7.45999 10.8003 7.48499C10.4503 7.17999 10.0003 7.00001 9.50031 7.00001C9.03031 7.00001 8.59531 7.16501 8.25031 7.44001C7.79031 7.80501 7.50031 8.37001 7.50031 9.00001C7.50031 9.37501 7.6053 9.73001 7.7903 10.03C7.8353 10.11 7.8903 10.185 7.9503 10.255L7.03531 10.76C6.46531 11.08 5.5353 11.08 4.9653 10.76L2.2953 9.28001C1.6903 8.94501 1.19531 8.10502 1.19531 7.41502V4.585C1.19531 3.895 1.6903 3.05501 2.2953 2.72001L4.9653 1.24C5.5353 0.92 6.46531 0.92 7.03531 1.24L9.70531 2.72001C10.3103 3.05501 10.8053 3.895 10.8053 4.585Z" stroke="#F0A22E" stroke-linecap="round" stroke-linejoin="round"/>
<path d="M11.5 9C11.5 9.6 11.235 10.135 10.82 10.5C10.465 10.81 10.005 11 9.5 11C8.395 11 7.5 10.105 7.5 9C7.5 8.37 7.79 7.805 8.25 7.44C8.595 7.165 9.03 7 9.5 7C10.605 7 11.5 7.895 11.5 9Z" stroke="#F0A22E" stroke-miterlimit="10" stroke-linecap="round" stroke-linejoin="round"/>
<path d="M9.625 8.375V9.125L9 9.5" stroke="#F0A22E" stroke-miterlimit="10" stroke-linecap="round" stroke-linejoin="round"/>
</svg>
