<svg width="16" height="16" viewBox="0 0 16 16" fill="none" xmlns="http://www.w3.org/2000/svg">
<path d="M1.33594 6.00065V4.66732C1.33594 2.66732 2.66927 1.33398 4.66927 1.33398H11.3359C13.3359 1.33398 14.6693 2.66732 14.6693 4.66732V6.00065" stroke="#1C1C1C" stroke-miterlimit="10" stroke-linecap="round" stroke-linejoin="round"/>
<path d="M1.33594 10V11.3333C1.33594 13.3333 2.66927 14.6667 4.66927 14.6667H11.3359C13.3359 14.6667 14.6693 13.3333 14.6693 11.3333V10" stroke="#1C1C1C" stroke-miterlimit="10" stroke-linecap="round" stroke-linejoin="round"/>
<path d="M4.46875 6.17383L8.00209 8.2205L11.5087 6.18717" stroke="#1C1C1C" stroke-linecap="round" stroke-linejoin="round"/>
<path d="M8 11.8482V8.21484" stroke="#1C1C1C" stroke-linecap="round" stroke-linejoin="round"/>
<path d="M7.16958 4.19305L5.03624 5.37973C4.55624 5.6464 4.15625 6.31973 4.15625 6.87306V9.13307C4.15625 9.6864 4.54958 10.3597 5.03624 10.6264L7.16958 11.813C7.62291 12.0664 8.36958 12.0664 8.82958 11.813L10.9629 10.6264C11.4429 10.3597 11.8429 9.6864 11.8429 9.13307V6.87306C11.8429 6.31973 11.4496 5.6464 10.9629 5.37973L8.82958 4.19305C8.36958 3.93305 7.62291 3.93305 7.16958 4.19305Z" stroke="#1C1C1C" stroke-linecap="round" stroke-linejoin="round"/>
</svg>
