<svg width="16" height="16" viewBox="0 0 16 16" fill="none" xmlns="http://www.w3.org/2000/svg">
<path d="M14.6493 12.2207C14.6493 12.4607 14.5959 12.7073 14.4826 12.9473C14.3693 13.1873 14.2226 13.414 14.0293 13.6273C13.7026 13.9873 13.3426 14.2473 12.9359 14.414C12.5359 14.5807 12.1026 14.6673 11.6359 14.6673C10.9559 14.6673 10.2293 14.5073 9.4626 14.1807C8.69594 13.854 7.92927 13.414 7.16927 12.8607C6.4026 12.3007 5.67594 11.6807 4.9826 10.994C4.29594 10.3007 3.67594 9.57398 3.1226 8.81398C2.57594 8.05398 2.13594 7.29398 1.81594 6.54065C1.49594 5.78065 1.33594 5.05398 1.33594 4.36065C1.33594 3.90732 1.41594 3.47398 1.57594 3.07398C1.73594 2.66732 1.98927 2.29398 2.3426 1.96065C2.76927 1.54065 3.23594 1.33398 3.72927 1.33398C3.91594 1.33398 4.1026 1.37398 4.26927 1.45398C4.4426 1.53398 4.59594 1.65398 4.71594 1.82732L6.2626 4.00732C6.3826 4.17398 6.46927 4.32732 6.52927 4.47398C6.58927 4.61398 6.6226 4.75398 6.6226 4.88065C6.6226 5.04065 6.57594 5.20065 6.4826 5.35398C6.39594 5.50732 6.26927 5.66732 6.10927 5.82732L5.6026 6.35398C5.52927 6.42732 5.49594 6.51398 5.49594 6.62065C5.49594 6.67398 5.5026 6.72065 5.51594 6.77398C5.53594 6.82732 5.55594 6.86732 5.56927 6.90732C5.68927 7.12732 5.89594 7.41398 6.18927 7.76065C6.48927 8.10732 6.80927 8.46065 7.15594 8.81398C7.51594 9.16732 7.8626 9.49398 8.21594 9.79398C8.5626 10.0873 8.84927 10.2873 9.07594 10.4073C9.10927 10.4207 9.14927 10.4407 9.19594 10.4607C9.24927 10.4807 9.3026 10.4873 9.3626 10.4873C9.47594 10.4873 9.5626 10.4473 9.63594 10.374L10.1426 9.87398C10.3093 9.70732 10.4693 9.58065 10.6226 9.50065C10.7759 9.40732 10.9293 9.36065 11.0959 9.36065C11.2226 9.36065 11.3559 9.38732 11.5026 9.44732C11.6493 9.50732 11.8026 9.59398 11.9693 9.70732L14.1759 11.274C14.3493 11.394 14.4693 11.534 14.5426 11.7006C14.6093 11.8673 14.6493 12.034 14.6493 12.2207Z" stroke="#1C1C1C" stroke-miterlimit="10"/>
</svg>
