<svg width="16" height="16" viewBox="0 0 16 16" fill="none" xmlns="http://www.w3.org/2000/svg">
<path d="M2.11719 4.96094L8.00385 8.36759L13.8505 4.98092" stroke="#1C1C1C" stroke-linecap="round" stroke-linejoin="round"/>
<path d="M8 14.408V8.36133" stroke="#1C1C1C" stroke-linecap="round" stroke-linejoin="round"/>
<path d="M14.4071 8.55401V6.11399C14.4071 5.19399 13.7471 4.074 12.9404 3.62733L9.38041 1.65398C8.62041 1.22732 7.3804 1.22732 6.6204 1.65398L3.0604 3.62733C2.25374 4.074 1.59375 5.19399 1.59375 6.11399V9.88734C1.59375 10.8073 2.25374 11.9273 3.0604 12.374L6.6204 14.3473C7.0004 14.5607 7.50041 14.6673 8.00041 14.6673C8.50041 14.6673 9.00041 14.5607 9.38041 14.3473" stroke="#1C1C1C" stroke-linecap="round" stroke-linejoin="round"/>
<path d="M12.7974 14.2667C13.9756 14.2667 14.9307 13.3115 14.9307 12.1333C14.9307 10.9551 13.9756 10 12.7974 10C11.6192 10 10.6641 10.9551 10.6641 12.1333C10.6641 13.3115 11.6192 14.2667 12.7974 14.2667Z" stroke="#1C1C1C" stroke-linecap="round" stroke-linejoin="round"/>
<path d="M15.3307 14.6667L14.6641 14" stroke="#1C1C1C" stroke-linecap="round" stroke-linejoin="round"/>
</svg>
