<svg width="16" height="16" viewBox="0 0 16 16" fill="none" xmlns="http://www.w3.org/2000/svg">
<path d="M13.6158 8.24646C14.1958 8.47979 14.5558 9.16646 14.4224 9.77313L14.1491 11.0131C13.6758 13.1465 12.0024 14.6665 9.5891 14.6665H6.41576C4.00243 14.6665 2.3291 13.1465 1.85577 11.0131L1.58243 9.77313C1.4491 9.16646 1.80909 8.47979 2.38909 8.24646L3.33577 7.86645L7.00911 6.39313C7.64911 6.13979 8.35576 6.13979 8.99576 6.39313L12.6691 7.86645L13.6158 8.24646Z" stroke="#4D83FF" stroke-linecap="round" stroke-linejoin="round"/>
<path d="M8 14.666V6.66602" stroke="#4D83FF" stroke-linecap="round" stroke-linejoin="round"/>
<path d="M12.6693 5.33398V7.86731L8.99593 6.39398C8.35593 6.14065 7.64928 6.14065 7.00928 6.39398L3.33594 7.86731V5.33398C3.33594 4.23398 4.23594 3.33398 5.33594 3.33398H10.6693C11.7693 3.33398 12.6693 4.23398 12.6693 5.33398Z" stroke="#4D83FF" stroke-linecap="round" stroke-linejoin="round"/>
<path d="M9.66927 3.33398H6.33594V2.00065C6.33594 1.63398 6.63594 1.33398 7.0026 1.33398H9.0026C9.36927 1.33398 9.66927 1.63398 9.66927 2.00065V3.33398Z" stroke="#4D83FF" stroke-linecap="round" stroke-linejoin="round"/>
</svg>
