<svg width="16" height="16" viewBox="0 0 16 16" fill="none" xmlns="http://www.w3.org/2000/svg">
<path d="M11.0732 13.3333C11.9665 13.34 12.8265 13.0066 13.4865 12.4066C15.6665 10.5 14.4998 6.6733 11.6265 6.3133C10.5998 0.0866323 1.61982 2.44663 3.74649 8.3733" stroke="#1C1C1C" stroke-miterlimit="10" stroke-linecap="round" stroke-linejoin="round"/>
<path d="M4.85422 8.64688C4.50089 8.46688 4.10755 8.37355 3.71422 8.38022C0.607553 8.60022 0.614219 13.1202 3.71422 13.3402" stroke="#1C1C1C" stroke-miterlimit="10" stroke-linecap="round" stroke-linejoin="round"/>
<path d="M10.5469 6.59365C10.8935 6.42031 11.2669 6.32698 11.6535 6.32031" stroke="#1C1C1C" stroke-miterlimit="10" stroke-linecap="round" stroke-linejoin="round"/>
<path d="M6.64583 13.333L5.3125 14.6663" stroke="#1C1C1C" stroke-miterlimit="10" stroke-linecap="round" stroke-linejoin="round"/>
<path d="M9.3138 13.333L7.98047 14.6663" stroke="#1C1C1C" stroke-miterlimit="10" stroke-linecap="round" stroke-linejoin="round"/>
<path d="M9.3138 10.667L7.98047 12.0003" stroke="#1C1C1C" stroke-miterlimit="10" stroke-linecap="round" stroke-linejoin="round"/>
<path d="M6.64583 10.667L5.3125 12.0003" stroke="#1C1C1C" stroke-miterlimit="10" stroke-linecap="round" stroke-linejoin="round"/>
</svg>
