<svg width="114" height="151" viewBox="0 0 114 151" fill="none" xmlns="http://www.w3.org/2000/svg">
<path fill-rule="evenodd" clip-rule="evenodd" d="M107.524 56.745H13.0633C11.032 56.745 9.0839 57.5454 7.64756 58.9701C6.21122 60.3948 5.4043 62.3271 5.4043 64.342V79.5359H107.524V56.745Z" fill="#A4BBDB"/>
<path fill-rule="evenodd" clip-rule="evenodd" d="M5.4043 66.0792H107.524V70.7969H5.4043V66.0792Z" fill="#8DA3BE"/>
<path fill-rule="evenodd" clip-rule="evenodd" d="M107.526 54.4127C107.526 52.3978 106.719 50.4655 105.283 49.0408C103.847 47.6161 101.899 46.8157 99.8674 46.8157H67.6026C66.0004 46.8158 64.4386 47.3143 63.1371 48.241C61.8355 49.1678 60.8597 50.476 60.347 51.9816L57 61.8096H107.526V54.4127Z" fill="#A4BBDB"/>
<path fill-rule="evenodd" clip-rule="evenodd" d="M113.879 81.0984C114.105 79.6536 114.014 78.1772 113.611 76.7706C113.208 75.3641 112.503 74.0607 111.544 72.9499C110.585 71.8392 109.395 70.9474 108.056 70.3358C106.717 69.7242 105.261 69.4072 103.787 69.4067H10.2142C8.73977 69.4064 7.28273 69.7227 5.94328 70.3341C4.60383 70.9454 3.41373 71.8372 2.45479 72.9482C1.49586 74.0591 0.790826 75.3629 0.388171 76.7698C-0.0144838 78.1767 -0.105215 79.6534 0.122219 81.0984L9.69596 141.874C10.0722 144.261 11.2959 146.436 13.1464 148.007C14.9968 149.578 17.3523 150.441 19.788 150.441H94.2129C96.6485 150.441 99.004 149.578 100.854 148.007C102.705 146.436 103.929 144.261 104.305 141.874L113.879 81.0984Z" fill="#CADCF0"/>
<path fill-rule="evenodd" clip-rule="evenodd" d="M0.122219 81.0984L1.43191 89.4045C0.969815 86.4796 1.98335 83.5016 3.92363 81.2529C4.88236 80.1418 6.07227 79.2499 7.41157 78.6383C8.75087 78.0268 10.2078 77.7101 11.6822 77.7102H102.319C103.793 77.7101 105.25 78.0268 106.589 78.6383C107.929 79.2499 109.118 80.1418 110.077 81.2529C112.018 83.5016 113.031 86.4796 112.569 89.4045L113.879 81.0984C114.105 79.6536 114.014 78.1772 113.611 76.7706C113.208 75.3641 112.503 74.0607 111.544 72.9499C110.585 71.8392 109.395 70.9474 108.056 70.3358C106.717 69.7242 105.261 69.4072 103.787 69.4067H10.2142C8.73977 69.4064 7.28273 69.7227 5.94328 70.3341C4.60383 70.9454 3.41373 71.8372 2.45479 72.9482C1.49586 74.0591 0.790826 75.3629 0.388171 76.7698C-0.0144838 78.1767 -0.105215 79.6534 0.122219 81.0984Z" fill="#E9F3FC"/>
<path fill-rule="evenodd" clip-rule="evenodd" d="M51.1653 129.795C51.1653 128.452 50.6273 127.164 49.6697 126.214C48.7122 125.264 47.4135 124.73 46.0593 124.73H25.6353C24.2811 124.73 22.9824 125.264 22.0248 126.214C21.0672 127.164 20.5293 128.452 20.5293 129.795V134.86C20.5293 136.203 21.0672 137.491 22.0248 138.441C22.9824 139.391 24.2811 139.924 25.6353 139.924H46.0593C47.4135 139.924 48.7122 139.391 49.6697 138.441C50.6273 137.491 51.1653 136.203 51.1653 134.86V129.795ZM35.4439 59.8066C35.3332 59.108 35.2786 58.4018 35.2805 57.6946C35.2832 57.023 35.0168 56.3778 34.54 55.901C34.0631 55.4242 33.4148 55.1548 32.7377 55.1521C32.0606 55.1495 31.4102 55.4137 30.9295 55.8867C30.4488 56.3597 30.1772 57.0027 30.1745 57.6743C30.1701 58.6521 30.2461 59.6286 30.4017 60.5941C30.4461 60.9293 30.5576 61.2523 30.7297 61.544C30.9019 61.8357 31.1312 62.0903 31.4041 62.2928C31.6771 62.4952 31.9881 62.6414 32.3189 62.7227C32.6497 62.8041 32.9935 62.8189 33.3302 62.7663C33.6668 62.7137 33.9895 62.5948 34.279 62.4166C34.5686 62.2383 34.8193 62.0044 35.0163 61.7286C35.2133 61.4527 35.3526 61.1406 35.4261 60.8105C35.4995 60.4804 35.5056 60.139 35.4439 59.8066ZM38.1245 50.1001C38.6249 49.5177 39.1866 48.9707 39.8095 48.4592C40.3312 48.031 40.6601 47.4149 40.7238 46.7462C40.7875 46.0775 40.5807 45.4112 40.1491 44.8937C39.7174 44.3762 39.0962 44.05 38.4221 43.9868C37.748 43.9237 37.0762 44.1287 36.5545 44.5569C35.7176 45.2421 34.942 45.9979 34.2363 46.8157C33.7972 47.3271 33.581 47.9907 33.6351 48.6603C33.6892 49.3299 34.0092 49.9508 34.5248 50.3863C35.0404 50.8218 35.7094 51.0364 36.3844 50.9827C37.0595 50.929 37.6855 50.6116 38.1245 50.1001ZM47.7468 44.805C48.7782 44.5746 49.8658 44.4024 51.007 44.2884C51.6763 44.2163 52.2898 43.8847 52.7139 43.366C53.138 42.8473 53.3383 42.1835 53.2713 41.519C53.2043 40.8545 52.8754 40.2431 52.3562 39.818C51.8369 39.3929 51.1694 39.1884 50.4989 39.2491C49.1458 39.3833 47.854 39.591 46.6286 39.8645C46.2956 39.9314 45.9794 40.0636 45.6986 40.2533C45.4177 40.4429 45.1779 40.6863 44.9931 40.9691C44.8083 41.252 44.6823 41.5685 44.6224 41.9002C44.5626 42.232 44.5701 42.5722 44.6445 42.9011C44.7189 43.2299 44.8588 43.5407 45.0559 43.8152C45.2529 44.0897 45.5033 44.3225 45.7922 44.4998C46.0811 44.6771 46.4028 44.7955 46.7385 44.8479C47.0741 44.9003 47.4169 44.8857 47.7468 44.805ZM60.8156 44.2783C62.3729 44.3188 63.8511 44.3062 65.2603 44.2479C65.9296 44.2098 66.5568 43.9122 67.0067 43.4193C67.4566 42.9263 67.6929 42.2777 67.6648 41.6134C67.6366 40.9491 67.3462 40.3224 66.8562 39.8687C66.3662 39.415 65.716 39.1706 65.0459 39.1883C63.7464 39.2415 62.3806 39.2516 60.9458 39.2162C60.277 39.2117 59.6331 39.4677 59.1526 39.9291C58.6721 40.3906 58.3933 41.0207 58.3762 41.6839C58.3592 42.3471 58.6052 42.9904 59.0613 43.4756C59.5175 43.9608 60.1474 44.249 60.8156 44.2783ZM75.8093 42.6602C77.456 42.1866 78.9419 41.6219 80.2745 40.9888C80.8559 40.681 81.2949 40.1624 81.4999 39.5412C81.7049 38.92 81.6601 38.2443 81.3748 37.6551C81.0895 37.0659 80.5857 36.6088 79.9688 36.3792C79.3518 36.1496 78.6692 36.1653 78.0636 36.423C76.9658 36.9447 75.743 37.4056 74.3848 37.7981C73.7492 37.9976 73.2175 38.4358 72.9033 39.019C72.5891 39.6022 72.5174 40.2842 72.7034 40.9191C72.8895 41.5541 73.3186 42.0917 73.8989 42.417C74.4793 42.7424 75.165 42.8296 75.8093 42.6602ZM87.9463 34.7694C89.108 33.1324 89.9418 31.2892 90.4023 29.3401C90.5211 28.6997 90.3868 28.0384 90.0274 27.4935C89.668 26.9486 89.1109 26.5618 88.4717 26.4133C87.8325 26.2648 87.1601 26.366 86.5941 26.6959C86.0281 27.0259 85.6118 27.5592 85.4316 28.1854C85.1329 29.4465 84.5916 30.6924 83.7645 31.8623C83.4091 32.413 83.2821 33.0787 83.4098 33.7201C83.5376 34.3616 83.9104 34.9293 84.4502 35.3046C84.99 35.6799 85.6552 35.8337 86.3067 35.734C86.9582 35.6342 87.5456 35.2887 87.9463 34.7694ZM89.4602 19.1804C88.3292 16.5645 86.5574 14.3614 84.4538 12.923C83.8964 12.547 83.2117 12.4049 82.5491 12.5277C81.8865 12.6506 81.2998 13.0283 80.9169 13.5786C80.534 14.1289 80.3861 14.807 80.5054 15.4651C80.6246 16.1231 81.0014 16.7077 81.5536 17.0912C82.9194 18.0257 84.0351 19.4818 84.7678 21.1784C85.0349 21.7956 85.5383 22.2823 86.1672 22.5314C86.796 22.7805 87.4989 22.7716 88.1212 22.5066C88.7434 22.2417 89.2341 21.7424 89.4852 21.1186C89.7363 20.4948 89.7273 19.7976 89.4602 19.1804Z" fill="#347BFA"/>
<path fill-rule="evenodd" clip-rule="evenodd" d="M56.7188 11.7049C59.4811 -3.81065 83.4205 -2.80784 69.4837 11.7049H56.7188ZM56.7188 15.6351C59.4811 31.1482 83.4205 30.1479 69.4837 15.6351H56.7188Z" fill="#CADCF0"/>
<path fill-rule="evenodd" clip-rule="evenodd" d="M56.4941 16.2277H73.589C74.266 16.2277 74.9154 15.9609 75.3942 15.486C75.873 15.0111 76.1419 14.367 76.1419 13.6954C76.1419 13.0238 75.873 12.3797 75.3942 11.9048C74.9154 11.4299 74.266 11.1631 73.589 11.1631H56.4941C55.8367 11.1922 55.2161 11.4718 54.7613 11.9435C54.3065 12.4152 54.0527 13.0427 54.0527 13.6954C54.0527 14.3481 54.3065 14.9756 54.7613 15.4473C55.2161 15.919 55.8367 16.1986 56.4941 16.2277Z" fill="#347BFA"/>
</svg>
