<svg width="25" height="20" viewBox="0 0 25 20" fill="none" xmlns="http://www.w3.org/2000/svg">
<path fill-rule="evenodd" clip-rule="evenodd" d="M14.5039 2C12.3822 2 10.3474 2.84285 8.84707 4.34315C7.34677 5.84344 6.50392 7.87827 6.50392 10V12.404L8.78292 10.03C8.87293 9.93156 8.98172 9.85212 9.1029 9.79636C9.22407 9.7406 9.35518 9.70965 9.4885 9.70532C9.62181 9.70099 9.75465 9.72338 9.87918 9.77117C10.0037 9.81896 10.1174 9.89118 10.2136 9.98358C10.3098 10.076 10.3866 10.1867 10.4394 10.3092C10.4921 10.4317 10.5198 10.5635 10.5209 10.6969C10.5219 10.8303 10.4963 10.9625 10.4455 11.0859C10.3946 11.2092 10.3197 11.3211 10.2249 11.415L6.22492 15.582C6.13161 15.6791 6.01965 15.7563 5.89575 15.8091C5.77186 15.8619 5.63858 15.8891 5.50392 15.8891C5.36926 15.8891 5.23598 15.8619 5.11209 15.8091C4.98819 15.7563 4.87623 15.6791 4.78292 15.582L0.78292 11.415C0.686334 11.3216 0.609572 11.2096 0.557218 11.0859C0.504865 10.9621 0.477994 10.829 0.478212 10.6947C0.478429 10.5603 0.505731 10.4273 0.558485 10.3037C0.611239 10.1801 0.688364 10.0684 0.785252 9.97529C0.88214 9.88217 0.996803 9.80953 1.12239 9.76172C1.24798 9.7139 1.38192 9.69189 1.51621 9.69699C1.6505 9.7021 1.78238 9.73422 1.90397 9.79144C2.02557 9.84865 2.13438 9.92979 2.22392 10.03L4.50392 12.404V10C4.50392 4.477 8.98092 0 14.5039 0C20.0269 0 24.5039 4.477 24.5039 10C24.5039 15.523 20.0269 20 14.5039 20H14.0039C13.7387 20 13.4844 19.8946 13.2968 19.7071C13.1093 19.5196 13.0039 19.2652 13.0039 19C13.0039 18.7348 13.1093 18.4804 13.2968 18.2929C13.4844 18.1054 13.7387 18 14.0039 18H14.5039C16.6257 18 18.6605 17.1571 20.1608 15.6569C21.6611 14.1566 22.5039 12.1217 22.5039 10C22.5039 7.87827 21.6611 5.84344 20.1608 4.34315C18.6605 2.84285 16.6257 2 14.5039 2Z" fill="#242C3C"/>
</svg>
