<svg width="25" height="24" viewBox="0 0 25 24" fill="none" xmlns="http://www.w3.org/2000/svg">
<path d="M3.17188 7.43945L12.0019 12.5494L20.7719 7.46942" stroke="#1C1C1C" stroke-linecap="round" stroke-linejoin="round"/>
<path d="M12.002 21.6091V12.5391" stroke="#1C1C1C" stroke-linecap="round" stroke-linejoin="round"/>
<path d="M9.93256 2.48L4.59256 5.45003C3.38256 6.12003 2.39258 7.80001 2.39258 9.18001V14.83C2.39258 16.21 3.38256 17.89 4.59256 18.56L9.93256 21.53C11.0726 22.16 12.9426 22.16 14.0826 21.53L19.4226 18.56C20.6326 17.89 21.6226 16.21 21.6226 14.83V9.18001C21.6226 7.80001 20.6326 6.12003 19.4226 5.45003L14.0826 2.48C12.9326 1.84 11.0726 1.84 9.93256 2.48Z" stroke="#1C1C1C" stroke-linecap="round" stroke-linejoin="round"/>
<path d="M17.0017 13.2396V9.57965L7.51172 4.09961" stroke="#1C1C1C" stroke-linecap="round" stroke-linejoin="round"/>
</svg>
