<svg width="17" height="17" viewBox="0 0 17 17" fill="none" xmlns="http://www.w3.org/2000/svg">
<path d="M14 5.5H3C2.72386 5.5 2.5 5.72386 2.5 6V8C2.5 8.27614 2.72386 8.5 3 8.5H14C14.2761 8.5 14.5 8.27614 14.5 8V6C14.5 5.72386 14.2761 5.5 14 5.5Z" stroke="#1C1C1C" stroke-linecap="round" stroke-linejoin="round"/>
<path d="M13.5 8.5V13C13.5 13.1326 13.4473 13.2598 13.3536 13.3536C13.2598 13.4473 13.1326 13.5 13 13.5H4C3.86739 13.5 3.74021 13.4473 3.64645 13.3536C3.55268 13.2598 3.5 13.1326 3.5 13V8.5" stroke="#1C1C1C" stroke-linecap="round" stroke-linejoin="round"/>
<path d="M8.5 5.5V13.5" stroke="#1C1C1C" stroke-linecap="round" stroke-linejoin="round"/>
<path d="M11.3284 4.79297C10.6213 5.50007 8.5 5.50007 8.5 5.50007C8.5 5.50007 8.5 3.37875 9.20711 2.67165C9.48847 2.39061 9.86991 2.2328 10.2676 2.23291C10.6653 2.23302 11.0466 2.39105 11.3278 2.67225C11.609 2.95345 11.7671 3.33481 11.7672 3.73248C11.7673 4.13016 11.6095 4.51161 11.3284 4.79297V4.79297Z" stroke="#1C1C1C" stroke-linecap="round" stroke-linejoin="round"/>
<path d="M5.67116 4.79297C6.37826 5.50007 8.49959 5.50007 8.49959 5.50007C8.49959 5.50007 8.49958 3.37875 7.79248 2.67165C7.51112 2.39061 7.12967 2.2328 6.732 2.23291C6.33432 2.23302 5.95296 2.39105 5.67176 2.67225C5.39056 2.95345 5.23254 3.33481 5.23242 3.73248C5.23231 4.13016 5.39012 4.51161 5.67116 4.79297V4.79297Z" stroke="#1C1C1C" stroke-linecap="round" stroke-linejoin="round"/>
</svg>
