<svg width="41" height="40" viewBox="0 0 41 40" fill="none" xmlns="http://www.w3.org/2000/svg">
<path d="M10.1223 22.8359L14.6414 25.6638L19.1297 22.8525" stroke="#1C1C1C" stroke-width="1.3" stroke-linecap="round" stroke-linejoin="round"/>
<path d="M14.6414 30.6775V25.6582" stroke="#1C1C1C" stroke-width="1.3" stroke-linecap="round" stroke-linejoin="round"/>
<path d="M13.582 20.091L10.8491 21.7291C10.2298 22.0999 9.72314 23.0296 9.72314 23.7933V26.92C9.72314 27.6837 10.2298 28.6134 10.8491 28.9841L13.582 30.6277C14.1654 30.9764 15.1225 30.9764 15.7059 30.6277L18.4388 28.9841C19.0581 28.6134 19.5648 27.6837 19.5648 26.92V23.7933C19.5648 23.0296 19.0581 22.0999 18.4388 21.7291L15.7059 20.0855C15.1173 19.7369 14.1654 19.7369 13.582 20.091Z" stroke="#1C1C1C" stroke-width="1.3" stroke-linecap="round" stroke-linejoin="round"/>
<path d="M21.8396 22.8357L26.3587 25.6636L30.847 22.8523" stroke="#1C1C1C" stroke-width="1.3" stroke-linecap="round" stroke-linejoin="round"/>
<path d="M26.3586 30.6773V25.658" stroke="#1C1C1C" stroke-width="1.3" stroke-linecap="round" stroke-linejoin="round"/>
<path d="M25.2993 20.091L22.5664 21.7291C21.9471 22.0999 21.4404 23.0296 21.4404 23.7933V26.92C21.4404 27.6837 21.9471 28.6134 22.5664 28.9841L25.2993 30.6277C25.8827 30.9764 26.8398 30.9764 27.4232 30.6277L30.1561 28.9841C30.7754 28.6134 31.282 27.6837 31.282 26.92V23.7933C31.282 23.0296 30.7754 22.0999 30.1561 21.7291L27.4232 20.0855C26.8346 19.7369 25.8827 19.7369 25.2993 20.091Z" stroke="#1C1C1C" stroke-width="1.3" stroke-linecap="round" stroke-linejoin="round"/>
<path d="M15.645 12.1172L20.1641 14.9451L24.6524 12.1338" stroke="#1C1C1C" stroke-width="1.3" stroke-linecap="round" stroke-linejoin="round"/>
<path d="M20.1633 19.9588V14.9395" stroke="#1C1C1C" stroke-width="1.3" stroke-linecap="round" stroke-linejoin="round"/>
<path d="M19.104 9.37253L16.371 11.0106C15.7518 11.3814 15.2451 12.3111 15.2451 13.0748V16.2015C15.2451 16.9651 15.7518 17.8949 16.371 18.2656L19.104 19.9092C19.6874 20.2579 20.6444 20.2579 21.2279 19.9092L23.9608 18.2656C24.5801 17.8949 25.0867 16.9651 25.0867 16.2015V13.0748C25.0867 12.3111 24.5801 11.3814 23.9608 11.0106L21.2279 9.36699C20.6393 9.01835 19.6874 9.01835 19.104 9.37253Z" stroke="#1C1C1C" stroke-width="1.3" stroke-linecap="round" stroke-linejoin="round"/>
</svg>
