<svg width="41" height="40" viewBox="0 0 41 40" fill="none" xmlns="http://www.w3.org/2000/svg">
<path d="M11.6702 15.4399L20.5002 20.5499L29.2701 15.4699" stroke="#1C1C1C" stroke-width="1.5" stroke-linecap="round" stroke-linejoin="round"/>
<path d="M20.5002 29.61V20.54" stroke="#1C1C1C" stroke-width="1.5" stroke-linecap="round" stroke-linejoin="round"/>
<path d="M18.4301 10.48L13.0901 13.45C11.8801 14.12 10.8901 15.8 10.8901 17.18V22.83C10.8901 24.21 11.8801 25.89 13.0901 26.56L18.4301 29.53C19.5701 30.16 21.4401 30.16 22.5801 29.53L27.9201 26.56C29.1301 25.89 30.1201 24.21 30.1201 22.83V17.18C30.1201 15.8 29.1301 14.12 27.9201 13.45L22.5801 10.48C21.4301 9.84 19.5701 9.84 18.4301 10.48Z" stroke="#1C1C1C" stroke-width="1.5" stroke-linecap="round" stroke-linejoin="round"/>
<path d="M25.4998 21.2401V17.5801L16.0098 12.1001" stroke="#1C1C1C" stroke-width="1.5" stroke-linecap="round" stroke-linejoin="round"/>
</svg>
