<svg width="41" height="40" viewBox="0 0 41 40" fill="none" xmlns="http://www.w3.org/2000/svg">
<rect x="0.5" width="40" height="40" rx="8" fill="white"/>
<path d="M30.5 23C30.5 26.87 27.37 30 23.5 30L24.55 28.25" stroke="#1C1C1C" stroke-width="1.5" stroke-linecap="round" stroke-linejoin="round"/>
<path d="M10.5002 17C10.5002 13.13 13.6302 10 17.5002 10L16.4502 11.75" stroke="#1C1C1C" stroke-width="1.5" stroke-linecap="round" stroke-linejoin="round"/>
<path d="M22.2 12.45L26.1799 14.7499L30.1199 12.46" stroke="#1C1C1C" stroke-width="1.5" stroke-linecap="round" stroke-linejoin="round"/>
<path d="M26.1799 18.82V14.74" stroke="#1C1C1C" stroke-width="1.5" stroke-linecap="round" stroke-linejoin="round"/>
<path d="M25.2399 10.21L22.8398 11.54C22.2998 11.84 21.8499 12.5999 21.8499 13.2199V15.76C21.8499 16.38 22.2898 17.14 22.8398 17.44L25.2399 18.77C25.7499 19.06 26.5898 19.06 27.1098 18.77L29.5098 17.44C30.0498 17.14 30.4998 16.38 30.4998 15.76V13.2199C30.4998 12.5999 30.0598 11.84 29.5098 11.54L27.1098 10.21C26.5998 9.93 25.7599 9.93 25.2399 10.21Z" stroke="#1C1C1C" stroke-width="1.5" stroke-linecap="round" stroke-linejoin="round"/>
<path d="M10.8503 23.45L14.8203 25.7499L18.7703 23.46" stroke="#1C1C1C" stroke-width="1.5" stroke-linecap="round" stroke-linejoin="round"/>
<path d="M14.8201 29.82V25.74" stroke="#1C1C1C" stroke-width="1.5" stroke-linecap="round" stroke-linejoin="round"/>
<path d="M13.8902 21.21L11.4902 22.54C10.9502 22.84 10.5002 23.5999 10.5002 24.2199V26.76C10.5002 27.38 10.9402 28.14 11.4902 28.44L13.8902 29.77C14.4002 30.06 15.2402 30.06 15.7602 29.77L18.1602 28.44C18.7002 28.14 19.1502 27.38 19.1502 26.76V24.2199C19.1502 23.5999 18.7102 22.84 18.1602 22.54L15.7602 21.21C15.2402 20.93 14.4002 20.93 13.8902 21.21Z" stroke="#1C1C1C" stroke-width="1.5" stroke-linecap="round" stroke-linejoin="round"/>
</svg>
