<svg width="41" height="40" viewBox="0 0 41 40" fill="none" xmlns="http://www.w3.org/2000/svg">
<path d="M13.97 17C15.903 17 17.47 15.433 17.47 13.5C17.47 11.567 15.903 10 13.97 10C12.037 10 10.47 11.567 10.47 13.5C10.47 15.433 12.037 17 13.97 17Z" stroke="#1C1C1C" stroke-width="1.5"/>
<path d="M25.47 23H28.47C29.57 23 30.47 23.9 30.47 25V28C30.47 29.1 29.57 30 28.47 30H25.47C24.37 30 23.47 29.1 23.47 28V25C23.47 23.9 24.37 23 25.47 23Z" stroke="#1C1C1C" stroke-width="1.5"/>
<path d="M20.4999 13H23.1799C25.0299 13 25.8899 15.29 24.4999 16.51L16.5099 23.5C15.1199 24.71 15.9799 27 17.8199 27H20.4999" stroke="#1C1C1C" stroke-width="1.5" stroke-linecap="round" stroke-linejoin="round"/>
<path d="M13.9862 13.5H13.9978" stroke="#1C1C1C" stroke-width="2" stroke-linecap="round" stroke-linejoin="round"/>
<path d="M26.9862 26.5H26.9978" stroke="#1C1C1C" stroke-width="2" stroke-linecap="round" stroke-linejoin="round"/>
</svg>
