<svg width="41" height="40" viewBox="0 0 41 40" fill="none" xmlns="http://www.w3.org/2000/svg">
<path d="M19.2516 24.8604V26.8904C19.2516 28.6104 17.6516 30.0004 15.6816 30.0004C13.7116 30.0004 12.1016 28.6104 12.1016 26.8904V24.8604C12.1016 26.5804 13.7016 27.8004 15.6816 27.8004C17.6516 27.8004 19.2516 26.5704 19.2516 24.8604Z" stroke="#1C1C1C" stroke-width="1.5" stroke-linecap="round" stroke-linejoin="round"/>
<path d="M19.2498 22.11C19.2498 22.61 19.1098 23.07 18.8698 23.47C18.2798 24.44 17.0698 25.05 15.6698 25.05C14.2698 25.05 13.0598 24.43 12.4698 23.47C12.2298 23.07 12.0898 22.61 12.0898 22.11C12.0898 21.25 12.4898 20.48 13.1298 19.92C13.7798 19.35 14.6698 19.01 15.6598 19.01C16.6498 19.01 17.5398 19.36 18.1898 19.92C18.8498 20.47 19.2498 21.25 19.2498 22.11Z" stroke="#1C1C1C" stroke-width="1.5" stroke-linecap="round" stroke-linejoin="round"/>
<path d="M19.2516 22.11V24.86C19.2516 26.58 17.6516 27.8 15.6816 27.8C13.7116 27.8 12.1016 26.57 12.1016 24.86V22.11C12.1016 20.39 13.7016 19 15.6816 19C16.6716 19 17.5616 19.35 18.2116 19.91C18.8516 20.47 19.2516 21.25 19.2516 22.11Z" stroke="#1C1C1C" stroke-width="1.5" stroke-linecap="round" stroke-linejoin="round"/>
<path d="M30.5002 18.97V21.0301C30.5002 21.5801 30.0602 22.03 29.5002 22.05H27.5402C26.4602 22.05 25.4702 21.2601 25.3802 20.1801C25.3202 19.5501 25.5602 18.96 25.9802 18.55C26.3502 18.17 26.8602 17.9501 27.4202 17.9501H29.5002C30.0602 17.9701 30.5002 18.42 30.5002 18.97Z" stroke="#1C1C1C" stroke-width="1.5" stroke-linecap="round" stroke-linejoin="round"/>
<path d="M10.5 18.5V16.5C10.5 13.78 12.14 11.88 14.69 11.56C14.95 11.52 15.22 11.5 15.5 11.5H24.5C24.76 11.5 25.01 11.51 25.25 11.55C27.83 11.85 29.5 13.76 29.5 16.5V17.95H27.42C26.86 17.95 26.35 18.17 25.98 18.55C25.56 18.96 25.32 19.55 25.38 20.18C25.47 21.26 26.46 22.05 27.54 22.05H29.5V23.5C29.5 26.5 27.5 28.5 24.5 28.5H22" stroke="#1C1C1C" stroke-width="1.5" stroke-linecap="round" stroke-linejoin="round"/>
</svg>
