<svg width="28" height="28" viewBox="0 0 28 28" fill="none" xmlns="http://www.w3.org/2000/svg">
<path d="M20 9.98665C17.78 9.76665 15.5467 9.65332 13.32 9.65332C12 9.65332 10.68 9.71999 9.36 9.85332L8 9.98665" stroke="#004EFF" stroke-linecap="round" stroke-linejoin="round"/>
<path d="M11.6665 9.31325L11.8132 8.43992C11.9198 7.80659 11.9998 7.33325 13.1265 7.33325H14.8732C15.9998 7.33325 16.0865 7.83325 16.1865 8.44659L16.3332 9.31325" stroke="#004EFF" stroke-linecap="round" stroke-linejoin="round"/>
<path d="M18.5664 12.0933L18.1331 18.8066C18.0598 19.8533 17.9998 20.6666 16.1398 20.6666H11.8598C9.99977 20.6666 9.93977 19.8533 9.86644 18.8066L9.43311 12.0933" stroke="#004EFF" stroke-linecap="round" stroke-linejoin="round"/>
<path d="M12.8867 17H15.1067" stroke="#004EFF" stroke-linecap="round" stroke-linejoin="round"/>
<path d="M12.3335 14.3333H15.6668" stroke="#004EFF" stroke-linecap="round" stroke-linejoin="round"/>
</svg>
