<svg width="28" height="28" viewBox="0 0 28 28" fill="none" xmlns="http://www.w3.org/2000/svg">
<path d="M12.6667 20.6666C9.33333 20.6666 8 19.3333 8 15.9999V11.9999C8 8.66659 9.33333 7.33325 12.6667 7.33325H15.3333C18.6667 7.33325 20 8.66659 20 11.9999" stroke="#004EFF" stroke-linecap="round" stroke-linejoin="round"/>
<path d="M17.5 10.5268C15.5067 8.75344 12.4933 8.75344 10.5 10.5268L11.9533 12.8601C13.12 11.8201 14.88 11.8201 16.0467 12.8601L17.5 10.5268Z" stroke="#004EFF" stroke-linecap="round" stroke-linejoin="round"/>
<path d="M16 17.3334V16.6667C16 15.5634 16.3333 14.6667 18 14.6667C19.6667 14.6667 20 15.5634 20 16.6667V17.3334" stroke="#004EFF" stroke-linecap="round" stroke-linejoin="round"/>
<path d="M19.6665 21.3333H16.3332C14.9998 21.3333 14.6665 20.9999 14.6665 19.6666V18.9999C14.6665 17.6666 14.9998 17.3333 16.3332 17.3333H19.6665C20.9998 17.3333 21.3332 17.6666 21.3332 18.9999V19.6666C21.3332 20.9999 20.9998 21.3333 19.6665 21.3333Z" stroke="#004EFF" stroke-linecap="round" stroke-linejoin="round"/>
</svg>
