<svg width="171" height="271" viewBox="0 0 171 271" fill="none" xmlns="http://www.w3.org/2000/svg">
<path d="M68.2483 271L0 151.821V123.734H22.7494C31.8492 123.734 39.8115 122.469 46.6364 119.938C53.714 117.155 59.5277 113.233 64.0776 108.172C68.8803 103.112 72.1663 97.0388 73.9357 89.9538H0V61.867H73.5565C72.0399 55.2881 69.3858 49.4683 65.5942 44.4076C62.0554 39.3469 57.2528 35.4248 51.1862 32.6415C45.3725 29.605 38.2949 28.0868 29.9534 28.0868H0V0H171V28.0868H111.472C115.769 32.8945 119.308 38.0817 122.089 43.6485C125.122 49.2152 127.144 55.2881 128.155 61.867H171V89.9538H128.914C126.386 108.678 119.182 123.354 107.302 133.982C95.4213 144.356 80.1286 151.441 61.4235 155.237L135.738 271H68.2483Z" fill="#1C1C1C"/>
</svg>
