<svg width="156" height="156" viewBox="0 0 156 156" fill="none" xmlns="http://www.w3.org/2000/svg">
<g id="vaadin:qrcode" clip-path="url(#clip0_1644_574913)">
<path id="Vector" d="M58.5 0H0V58.5H58.5V0ZM48.75 48.75H9.75V9.75H48.75V48.75Z" fill="black"/>
<path id="Vector_2" d="M19.5 19.5H39V39H19.5V19.5ZM0 156H58.5V97.5H0V156ZM9.75 107.25H48.75V146.25H9.75V107.25Z" fill="black"/>
<path id="Vector_3" d="M19.5 117H39V136.5H19.5V117ZM97.5 0V58.5H156V0H97.5ZM146.25 48.75H107.25V9.75H146.25V48.75Z" fill="black"/>
<path id="Vector_4" d="M117 19.5H136.5V39H117V19.5ZM19.5 68.25H0V87.75H29.25V78H19.5V68.25ZM68.25 87.75H87.75V107.25H68.25V87.75ZM29.25 68.25H48.75V78H29.25V68.25ZM87.75 117H68.25V126.75H78V136.5H87.75V126.75V117ZM58.5 68.25V78H48.75V87.75H68.25V68.25H58.5ZM78 39H87.75V58.5H78V39ZM87.75 78V87.75H107.25V68.25H78V78H87.75ZM68.25 58.5H78V68.25H68.25V58.5ZM87.75 136.5H107.25V156H87.75V136.5ZM68.25 136.5H78V156H68.25V136.5ZM87.75 107.25H97.5V117H87.75V107.25ZM87.75 29.25V9.75H78V0H68.25V39H78V29.25H87.75ZM117 136.5H126.75V156H117V136.5ZM117 117H136.5V126.75H117V117ZM107.25 126.75H117V136.5H107.25V126.75ZM97.5 117H107.25V126.75H97.5V117ZM136.5 97.5V107.25H146.25V117H156V97.5H146.25H136.5ZM146.25 126.75H136.5V156H156V136.5H146.25V126.75ZM97.5 97.5V107.25H126.75V87.75H107.25V97.5H97.5ZM117 68.25V78H136.5V87.75H156V68.25H136.5H117Z" fill="black"/>
</g>
<defs>
<clipPath id="clip0_1644_574913">
<rect width="156" height="156" fill="white"/>
</clipPath>
</defs>
</svg>
