<svg width="92" height="68" viewBox="0 0 92 68" fill="none" xmlns="http://www.w3.org/2000/svg">
<path fill-rule="evenodd" clip-rule="evenodd" d="M64.7778 10.9373C59.0522 8.32137 52.6919 6.53649 46.0002 6.53649C21.0309 6.53649 0.683115 31.3985 0.683115 31.3985C-0.227705 32.524 -0.227705 34.1341 0.683115 35.2595C0.683115 35.2595 9.40795 45.9195 22.4385 53.2766L13.3273 62.3909C12.1313 63.5869 12.1313 65.5282 13.3273 66.7272C14.5264 67.9233 16.4676 67.9233 17.6637 66.7272L28.2255 56.1685C33.6843 58.536 39.695 60.1215 46.0002 60.1215C70.9696 60.1215 91.3174 35.2595 91.3174 35.2595C92.2282 34.1341 92.2282 32.524 91.3174 31.3985C91.3174 31.3985 83.0034 21.2415 70.482 13.9089L78.8357 5.55516C80.0318 4.35914 80.0318 2.41482 78.8357 1.2188C77.6397 0.0227709 75.6954 0.0227709 74.4994 1.2188L64.7778 10.9373ZM66.0843 18.3097L58.7916 25.5993C60.3985 28.0251 61.3339 30.9293 61.3339 34.0543C61.3339 42.5185 54.4644 49.388 46.0002 49.388C42.8752 49.388 39.9711 48.4526 37.5453 46.8456L32.8655 51.5285C36.9841 53.0374 41.4001 53.9881 46.0002 53.9881C64.3884 53.9881 79.8876 38.7986 84.871 33.3306C81.8687 30.0369 75.0514 23.2134 66.0843 18.3097ZM60.187 15.5313C55.7709 13.7894 50.9929 12.67 46.0002 12.67C27.6121 12.67 12.1129 27.8626 7.12945 33.3306C10.236 36.7377 17.4306 43.9261 26.8608 48.8543L33.2089 42.5092C31.602 40.0835 30.6666 37.1793 30.6666 34.0543C30.6666 25.5901 37.5361 18.7206 46.0002 18.7206C49.1252 18.7206 52.0294 19.656 54.4552 21.2629L60.187 15.5313ZM54.3019 30.089C54.8784 31.2881 55.2004 32.6344 55.2004 34.0543C55.2004 39.1328 51.0788 43.2545 46.0002 43.2545C44.5803 43.2545 43.2341 42.9325 42.035 42.3559L54.3019 30.089ZM49.9655 25.7527L37.6986 38.0196C37.1221 36.8205 36.8 35.4742 36.8 34.0543C36.8 28.9758 40.9217 24.8541 46.0002 24.8541C47.4201 24.8541 48.7664 25.1761 49.9655 25.7527Z" fill="black"/>
</svg>
