<svg width="16" height="16" viewBox="0 0 16 16" fill="none" xmlns="http://www.w3.org/2000/svg">
<path d="M10.3827 7.99995C10.3827 9.31995 9.31604 10.3866 7.99604 10.3866C6.67604 10.3866 5.60938 9.31995 5.60938 7.99995C5.60938 6.67995 6.67604 5.61328 7.99604 5.61328C9.31604 5.61328 10.3827 6.67995 10.3827 7.99995Z" stroke="#1C1C1C" stroke-linecap="round" stroke-linejoin="round"/>
<path d="M7.9999 13.5133C10.3532 13.5133 12.5466 12.1266 14.0732 9.72665C14.6732 8.78665 14.6732 7.20665 14.0732 6.26665C12.5466 3.86665 10.3532 2.47998 7.9999 2.47998C5.64656 2.47998 3.45323 3.86665 1.92656 6.26665C1.32656 7.20665 1.32656 8.78665 1.92656 9.72665C3.45323 12.1266 5.64656 13.5133 7.9999 13.5133Z" stroke="#1C1C1C" stroke-linecap="round" stroke-linejoin="round"/>
</svg>
