<svg width="24" height="24" viewBox="0 0 24 24" fill="none" xmlns="http://www.w3.org/2000/svg">
<path d="M22.001 15C22.001 18.87 18.871 22 15.001 22L16.051 20.25" stroke="#1C1C1C" stroke-width="1.5" stroke-linecap="round" stroke-linejoin="round"/>
<path d="M2.00098 9C2.00098 5.13 5.13098 2 9.00098 2L7.95099 3.75" stroke="#1C1C1C" stroke-width="1.5" stroke-linecap="round" stroke-linejoin="round"/>
<path d="M11 13.5C11.8284 13.5 12.5 12.8284 12.5 12C12.5 11.1716 11.8284 10.5 11 10.5C10.1716 10.5 9.5 11.1716 9.5 12C9.5 12.8284 10.1716 13.5 11 13.5Z" stroke="#1C1C1C" stroke-miterlimit="10" stroke-linecap="round" stroke-linejoin="round"/>
<path d="M6 12.4397V11.5597C6 11.0397 6.425 10.6097 6.95 10.6097C7.855 10.6097 8.225 9.96972 7.77 9.18472C7.51 8.73472 7.665 8.14972 8.12 7.88972L8.985 7.39472C9.38 7.15972 9.89 7.29972 10.125 7.69472L10.18 7.78972C10.63 8.57472 11.37 8.57472 11.825 7.78972L11.88 7.69472C12.115 7.29972 12.625 7.15972 13.02 7.39472L13.885 7.88972C14.34 8.14972 14.495 8.73472 14.235 9.18472C13.78 9.96972 14.15 10.6097 15.055 10.6097C15.575 10.6097 16.005 11.0347 16.005 11.5597V12.4397C16.005 12.9597 15.58 13.3897 15.055 13.3897C14.15 13.3897 13.78 14.0297 14.235 14.8147C14.495 15.2697 14.34 15.8497 13.885 16.1097L13.02 16.6047C12.625 16.8397 12.115 16.6997 11.88 16.3047L11.825 16.2097C11.375 15.4247 10.635 15.4247 10.18 16.2097L10.125 16.3047C9.89 16.6997 9.38 16.8397 8.985 16.6047L8.12 16.1097C7.665 15.8497 7.51 15.2647 7.77 14.8147C8.225 14.0297 7.855 13.3897 6.95 13.3897C6.425 13.3897 6 12.9597 6 12.4397Z" stroke="#1C1C1C" stroke-miterlimit="10" stroke-linecap="round" stroke-linejoin="round"/>
</svg>
