<svg width="148" height="148" viewBox="0 0 148 148" fill="none" xmlns="http://www.w3.org/2000/svg">
<path d="M147.44 73.72C147.44 114.434 114.434 147.44 73.72 147.44C33.0102 147.44 0 114.434 0 73.72C0 33.0102 33.0102 0 73.72 0C114.434 0 147.44 33.0102 147.44 73.72Z" fill="#FFCC4D"/>
<path d="M47.0989 81.9111C52.7537 81.9111 57.3378 75.4933 57.3378 67.5766C57.3378 59.6599 52.7537 53.2422 47.0989 53.2422C41.4441 53.2422 36.86 59.6599 36.86 67.5766C36.86 75.4933 41.4441 81.9111 47.0989 81.9111Z" fill="#664500"/>
<path d="M100.341 81.9111C105.996 81.9111 110.58 75.4933 110.58 67.5766C110.58 59.6599 105.996 53.2422 100.341 53.2422C94.6863 53.2422 90.1022 59.6599 90.1022 67.5766C90.1022 75.4933 94.6863 81.9111 100.341 81.9111Z" fill="#664500"/>
<path d="M102.389 106.484H45.0511C42.7904 106.484 40.9556 104.653 40.9556 102.389C40.9556 100.124 42.7904 98.293 45.0511 98.293H102.389C104.654 98.293 106.484 100.124 106.484 102.389C106.484 104.653 104.654 106.484 102.389 106.484Z" fill="#664500"/>
</svg>
