<svg width="148" height="148" viewBox="0 0 148 148" fill="none" xmlns="http://www.w3.org/2000/svg">
<path d="M147.445 73.7223C147.445 114.437 114.437 147.445 73.7223 147.445C33.0112 147.445 0 114.437 0 73.7223C0 33.0112 33.0112 0 73.7223 0C114.437 0 147.445 33.0112 147.445 73.7223Z" fill="#D8D8D8"/>
<path d="M104.379 122.375C104.194 121.642 99.5947 104.44 73.7223 104.44C47.8458 104.44 43.2505 121.642 43.0662 122.375C42.8409 123.264 43.2423 124.185 44.0368 124.644C44.8355 125.091 45.8348 124.968 46.4942 124.329C46.5721 124.251 54.4972 116.727 73.7223 116.727C92.9475 116.727 100.877 124.251 100.95 124.325C101.344 124.714 101.868 124.919 102.392 124.919C102.736 124.919 103.084 124.833 103.4 124.656C104.202 124.198 104.604 123.268 104.379 122.375ZM64.3309 70.8269C50.9995 57.4955 29.575 57.3398 28.6698 57.3398C26.409 57.3398 24.5783 59.1706 24.5783 61.4273C24.5742 63.6881 26.4049 65.523 28.6657 65.5312C28.7845 65.5312 36.5499 65.6213 44.9788 68.5497C42.5501 71.171 40.9569 75.2421 40.9569 79.8661C40.9569 87.7871 45.54 94.201 51.1961 94.201C56.8522 94.201 61.4353 87.7871 61.4353 79.8661C61.4353 79.1534 61.3575 78.4736 61.2837 77.7896C61.337 77.7896 61.3861 77.8182 61.4353 77.8182C62.4838 77.8182 63.5323 77.4169 64.3309 76.6182C65.9323 75.0168 65.9323 72.4283 64.3309 70.8269ZM118.775 57.3398C117.87 57.3398 96.4493 57.4955 83.1137 70.8269C81.5123 72.4283 81.5123 75.0168 83.1137 76.6182C83.9124 77.4169 84.9609 77.8182 86.0094 77.8182C86.0626 77.8182 86.1077 77.7896 86.1568 77.7896C86.0913 78.4736 86.0094 79.1534 86.0094 79.8661C86.0094 87.7871 90.5924 94.201 96.2486 94.201C101.905 94.201 106.488 87.7871 106.488 79.8661C106.488 75.2421 104.895 71.171 102.466 68.5497C110.895 65.6213 118.66 65.5312 118.783 65.5312C121.04 65.523 122.871 63.6881 122.866 61.4273C122.862 59.1706 121.036 57.3398 118.775 57.3398Z" fill="#292F33"/>
</svg>
