<svg width="16" height="16" viewBox="0 0 16 16" fill="none" xmlns="http://www.w3.org/2000/svg">
<path d="M1.33447 6.00016V4.66683C1.33447 2.66683 2.66781 1.3335 4.66781 1.3335H11.3345C13.3345 1.3335 14.6678 2.66683 14.6678 4.66683V6.00016" stroke="#1C1C1C" stroke-miterlimit="10" stroke-linecap="round" stroke-linejoin="round"/>
<path d="M1.33447 10V11.3333C1.33447 13.3333 2.66781 14.6667 4.66781 14.6667H11.3345C13.3345 14.6667 14.6678 13.3333 14.6678 11.3333V10" stroke="#1C1C1C" stroke-miterlimit="10" stroke-linecap="round" stroke-linejoin="round"/>
<path d="M4.46777 6.17334L8.00111 8.22001L11.5078 6.18669" stroke="#1C1C1C" stroke-linecap="round" stroke-linejoin="round"/>
<path d="M8.00098 11.8467V8.21338" stroke="#1C1C1C" stroke-linecap="round" stroke-linejoin="round"/>
<path d="M7.17446 4.19354L5.04113 5.38022C4.56113 5.64689 4.16113 6.32021 4.16113 6.87355V9.13356C4.16113 9.68689 4.55446 10.3602 5.04113 10.6269L7.17446 11.8135C7.62779 12.0669 8.37446 12.0669 8.83446 11.8135L10.9678 10.6269C11.4478 10.3602 11.8478 9.68689 11.8478 9.13356V6.87355C11.8478 6.32021 11.4545 5.64689 10.9678 5.38022L8.83446 4.19354C8.37446 3.93354 7.62779 3.93354 7.17446 4.19354Z" stroke="#1C1C1C" stroke-linecap="round" stroke-linejoin="round"/>
</svg>
