<svg width="171" height="200" viewBox="0 0 171 200" fill="none" xmlns="http://www.w3.org/2000/svg">
<rect x="25.5" y="37.5" width="120" height="162" stroke="#1C1C1C"/>
<path d="M83.031 119.72L81.645 116.038C81.533 115.753 81.4187 115.392 81.302 114.953C81.2507 115.172 81.1947 115.375 81.134 115.562C81.0733 115.744 81.0173 115.905 80.966 116.045L79.58 119.72H83.031ZM86.132 123.5H84.865C84.7203 123.5 84.6037 123.465 84.515 123.395C84.4263 123.32 84.3587 123.229 84.312 123.122L83.472 120.896H79.132L78.292 123.122C78.2547 123.215 78.1893 123.302 78.096 123.381C78.0027 123.46 77.886 123.5 77.746 123.5H76.479L80.476 113.42H82.135L86.132 123.5ZM91.1583 119.776V116.094C91.1583 115.8 91.1793 115.478 91.2213 115.128L87.8333 119.776H91.1583ZM93.8603 119.776V120.644C93.8603 120.728 93.8323 120.8 93.7763 120.861C93.725 120.922 93.6457 120.952 93.5383 120.952H92.4673V123.5H91.1583V120.952H86.7973C86.69 120.952 86.5967 120.922 86.5173 120.861C86.4427 120.796 86.3937 120.716 86.3703 120.623L86.2163 119.853L91.0533 113.413H92.4673V119.776H93.8603Z" fill="#1C1C1C"/>
</svg>
