<svg width="171" height="200" viewBox="0 0 171 200" fill="none" xmlns="http://www.w3.org/2000/svg">
<rect x="39" y="60.5" width="93" height="139" stroke="#1C1C1C"/>
<path d="M83.031 131.22L81.645 127.538C81.533 127.253 81.4187 126.892 81.302 126.453C81.2507 126.672 81.1947 126.875 81.134 127.062C81.0733 127.244 81.0173 127.405 80.966 127.545L79.58 131.22H83.031ZM86.132 135H84.865C84.7203 135 84.6037 134.965 84.515 134.895C84.4263 134.82 84.3587 134.729 84.312 134.622L83.472 132.396H79.132L78.292 134.622C78.2547 134.715 78.1893 134.802 78.096 134.881C78.0027 134.96 77.886 135 77.746 135H76.479L80.476 124.92H82.135L86.132 135ZM88.8063 128.644C89.049 128.593 89.28 128.555 89.4993 128.532C89.7233 128.509 89.938 128.497 90.1433 128.497C90.6707 128.497 91.135 128.576 91.5363 128.735C91.9423 128.889 92.2807 129.104 92.5513 129.379C92.8267 129.654 93.032 129.979 93.1673 130.352C93.3073 130.721 93.3773 131.122 93.3773 131.556C93.3773 132.093 93.284 132.58 93.0973 133.019C92.9107 133.458 92.6517 133.833 92.3203 134.146C91.989 134.454 91.597 134.692 91.1443 134.86C90.6963 135.028 90.211 135.112 89.6883 135.112C89.3803 135.112 89.0863 135.082 88.8063 135.021C88.531 134.96 88.272 134.879 88.0293 134.776C87.7867 134.669 87.5627 134.547 87.3573 134.412C87.152 134.272 86.9677 134.127 86.8043 133.978L87.2663 133.334C87.3643 133.194 87.495 133.124 87.6583 133.124C87.761 133.124 87.873 133.161 87.9943 133.236C88.1157 133.311 88.2557 133.392 88.4143 133.481C88.5777 133.565 88.769 133.644 88.9883 133.719C89.2077 133.794 89.469 133.831 89.7723 133.831C90.1037 133.831 90.4 133.777 90.6613 133.67C90.9227 133.563 91.142 133.413 91.3193 133.222C91.5013 133.026 91.639 132.793 91.7323 132.522C91.8257 132.251 91.8723 131.955 91.8723 131.633C91.8723 131.339 91.828 131.075 91.7393 130.842C91.6553 130.609 91.527 130.41 91.3543 130.247C91.1863 130.084 90.974 129.96 90.7173 129.876C90.4607 129.787 90.1643 129.743 89.8283 129.743C89.581 129.743 89.3267 129.764 89.0653 129.806C88.8087 129.848 88.5473 129.913 88.2813 130.002L87.3433 129.736L88.1693 124.92H93.0483V125.571C93.0483 125.786 92.9807 125.961 92.8453 126.096C92.71 126.231 92.4837 126.299 92.1663 126.299H89.2123L88.8063 128.644Z" fill="#1C1C1C"/>
</svg>
