<svg width="171" height="200" viewBox="0 0 171 200" fill="none" xmlns="http://www.w3.org/2000/svg">
<rect x="38.5" y="82.5" width="94" height="117" stroke="#1C1C1C"/>
<path d="M83.031 142.22L81.645 138.538C81.533 138.253 81.4187 137.892 81.302 137.453C81.2507 137.672 81.1947 137.875 81.134 138.062C81.0733 138.244 81.0173 138.405 80.966 138.545L79.58 142.22H83.031ZM86.132 146H84.865C84.7203 146 84.6037 145.965 84.515 145.895C84.4263 145.82 84.3587 145.729 84.312 145.622L83.472 143.396H79.132L78.292 145.622C78.2547 145.715 78.1893 145.802 78.096 145.881C78.0027 145.96 77.886 146 77.746 146H76.479L80.476 135.92H82.135L86.132 146ZM90.1573 144.866C90.4607 144.866 90.7383 144.817 90.9903 144.719C91.2423 144.616 91.457 144.476 91.6343 144.299C91.8163 144.122 91.9563 143.912 92.0543 143.669C92.1523 143.426 92.2013 143.163 92.2013 142.878C92.2013 142.57 92.1523 142.295 92.0543 142.052C91.961 141.805 91.8257 141.597 91.6483 141.429C91.4757 141.261 91.2657 141.133 91.0183 141.044C90.7757 140.951 90.5073 140.904 90.2133 140.904C89.91 140.904 89.6347 140.955 89.3873 141.058C89.1447 141.161 88.937 141.301 88.7643 141.478C88.5917 141.655 88.4587 141.863 88.3653 142.101C88.272 142.339 88.2253 142.591 88.2253 142.857C88.2253 143.156 88.2673 143.429 88.3513 143.676C88.4353 143.923 88.559 144.136 88.7223 144.313C88.8857 144.486 89.0863 144.621 89.3243 144.719C89.567 144.817 89.8447 144.866 90.1573 144.866ZM89.6043 139.63C89.5297 139.723 89.4573 139.812 89.3873 139.896C89.322 139.98 89.2567 140.064 89.1913 140.148C89.406 140.027 89.6417 139.931 89.8983 139.861C90.155 139.791 90.4303 139.756 90.7243 139.756C91.1163 139.756 91.492 139.821 91.8513 139.952C92.2107 140.078 92.5257 140.269 92.7963 140.526C93.0717 140.778 93.291 141.093 93.4543 141.471C93.6177 141.844 93.6993 142.276 93.6993 142.766C93.6993 143.233 93.613 143.669 93.4403 144.075C93.2723 144.481 93.0343 144.836 92.7263 145.139C92.4183 145.438 92.0473 145.676 91.6133 145.853C91.184 146.026 90.708 146.112 90.1853 146.112C89.6627 146.112 89.1913 146.028 88.7713 145.86C88.3513 145.692 87.992 145.456 87.6933 145.153C87.3993 144.845 87.173 144.476 87.0143 144.047C86.8557 143.618 86.7763 143.139 86.7763 142.612C86.7763 142.155 86.8743 141.676 87.0703 141.177C87.2663 140.678 87.5697 140.153 87.9803 139.602L90.4583 136.277C90.533 136.179 90.6403 136.095 90.7803 136.025C90.925 135.955 91.086 135.92 91.2633 135.92H92.5933L89.6043 139.63Z" fill="#1C1C1C"/>
</svg>
