<svg width="28" height="28" viewBox="0 0 28 28" fill="none" xmlns="http://www.w3.org/2000/svg">
<path d="M16.3866 13.9999C16.3866 15.3199 15.3199 16.3866 13.9999 16.3866C12.6799 16.3866 11.6133 15.3199 11.6133 13.9999C11.6133 12.6799 12.6799 11.6133 13.9999 11.6133C15.3199 11.6133 16.3866 12.6799 16.3866 13.9999Z" stroke="#004EFF" stroke-linecap="round" stroke-linejoin="round"/>
<path d="M13.9999 19.5138C16.3532 19.5138 18.5466 18.1271 20.0732 15.7271C20.6732 14.7871 20.6732 13.2071 20.0732 12.2671C18.5466 9.86713 16.3532 8.48047 13.9999 8.48047C11.6466 8.48047 9.45323 9.86713 7.92656 12.2671C7.32656 13.2071 7.32656 14.7871 7.92656 15.7271C9.45323 18.1271 11.6466 19.5138 13.9999 19.5138Z" stroke="#004EFF" stroke-linecap="round" stroke-linejoin="round"/>
</svg>
