<svg width="16" height="16" viewBox="0 0 16 16" fill="none" xmlns="http://www.w3.org/2000/svg">
<path d="M14.6665 3.99992V5.61325C14.6665 6.66658 13.9998 7.33325 12.9465 7.33325H10.6665V2.67325C10.6665 1.93325 11.2732 1.33325 12.0132 1.33325C12.7398 1.33992 13.4065 1.63325 13.8865 2.11325C14.3665 2.59992 14.6665 3.26659 14.6665 3.99992Z" stroke="#004EFF" stroke-miterlimit="10" stroke-linecap="round" stroke-linejoin="round"/>
<path d="M1.3335 4.66659V13.9999C1.3335 14.5533 1.96016 14.8666 2.40016 14.5333L3.54016 13.6799C3.80683 13.4799 4.18016 13.5066 4.42016 13.7466L5.52683 14.8599C5.78683 15.1199 6.2135 15.1199 6.4735 14.8599L7.5935 13.7399C7.82683 13.5066 8.20016 13.4799 8.46016 13.6799L9.60016 14.5333C10.0402 14.8599 10.6668 14.5466 10.6668 13.9999V2.66659C10.6668 1.93325 11.2668 1.33325 12.0002 1.33325H4.66683H4.00016C2.00016 1.33325 1.3335 2.52659 1.3335 3.99992V4.66659Z" stroke="#004EFF" stroke-miterlimit="10" stroke-linecap="round" stroke-linejoin="round"/>
<path d="M6 10.5C7.375 10.5 8.5 9.375 8.5 8C8.5 6.625 7.375 5.5 6 5.5C4.625 5.5 3.5 6.625 3.5 8C3.5 9.375 4.625 10.5 6 10.5Z" stroke="#004EFF" stroke-linecap="round" stroke-linejoin="round"/>
<path d="M4.9375 7.99998L5.645 8.70748L7.0625 7.29248" stroke="#004EFF" stroke-linecap="round" stroke-linejoin="round"/>
</svg>
