<svg width="16" height="16" viewBox="0 0 16 16" fill="none" xmlns="http://www.w3.org/2000/svg">
<path d="M2.11426 4.95996L8.00092 8.36662L13.8476 4.97994" stroke="#1C1C1C" stroke-linecap="round" stroke-linejoin="round"/>
<path d="M8.00098 14.4065V8.35986" stroke="#1C1C1C" stroke-linecap="round" stroke-linejoin="round"/>
<path d="M14.4076 8.55352V6.1135C14.4076 5.1935 13.7476 4.07351 12.9409 3.62684L9.3809 1.6535C8.6209 1.22683 7.38089 1.22683 6.62089 1.6535L3.06089 3.62684C2.25423 4.07351 1.59424 5.1935 1.59424 6.1135V9.88685C1.59424 10.8069 2.25423 11.9268 3.06089 12.3735L6.62089 14.3469C7.00089 14.5602 7.50089 14.6668 8.00089 14.6668C8.50089 14.6668 9.0009 14.5602 9.3809 14.3469" stroke="#1C1C1C" stroke-linecap="round" stroke-linejoin="round"/>
<path d="M12.8008 14.2667C13.979 14.2667 14.9341 13.3115 14.9341 12.1333C14.9341 10.9551 13.979 10 12.8008 10C11.6226 10 10.6675 10.9551 10.6675 12.1333C10.6675 13.3115 11.6226 14.2667 12.8008 14.2667Z" stroke="#1C1C1C" stroke-linecap="round" stroke-linejoin="round"/>
<path d="M15.3341 14.6667L14.6675 14" stroke="#1C1C1C" stroke-linecap="round" stroke-linejoin="round"/>
</svg>
