<svg width="83" height="83" viewBox="0 0 83 83" fill="none" xmlns="http://www.w3.org/2000/svg">
<path d="M54.6191 46.1178L51.4903 41.3301C52.2 40.0007 52.7698 38.6014 53.2197 37.1721L58.8075 36.0027C59.4972 35.8527 59.9971 35.243 59.9971 34.5334V25.4577C59.9971 24.7481 59.4972 24.1384 58.8075 23.9884L53.2197 22.819C52.7798 21.3897 52.2 20.0004 51.4903 18.661L54.6191 13.8733C55.009 13.2836 54.929 12.494 54.4192 11.9942L48.0016 5.57732C47.5018 5.07756 46.7121 4.99759 46.1224 5.37741L41.3342 8.50591C40.0047 7.79625 38.6152 7.22652 37.1758 6.77674L36.0062 1.18943C35.8563 0.49976 35.2465 0 34.5368 0H25.4603C24.7505 0 24.1408 0.49976 23.9908 1.18943L22.8213 6.77674C21.3918 7.21653 20.0024 7.79625 18.6629 8.50591L13.8747 5.37741C13.2849 4.9876 12.4952 5.06756 11.9954 5.57732L5.57787 11.9942C5.07806 12.494 4.99809 13.2836 5.37794 13.8733L8.50675 18.661C7.79702 19.9904 7.22724 21.3897 6.77741 22.819L1.18955 23.9884C0.499809 24.1384 0 24.7481 0 25.4577V34.5334C0 35.243 0.499809 35.8527 1.18955 36.0027L6.77741 37.1721C7.21724 38.6014 7.79702 39.9907 8.50675 41.3301L5.37794 46.1178C4.98809 46.7075 5.06806 47.4971 5.57787 47.9969L11.9954 54.4138C12.4952 54.9136 13.2849 54.9935 13.8747 54.6137L18.6629 51.4852C19.9924 52.1949 21.3818 52.7646 22.8213 53.2144L23.9908 58.8017C24.1408 59.4914 24.7505 59.9911 25.4603 59.9911H34.5368C35.2465 59.9911 35.8563 59.4914 36.0062 58.8017L37.1758 53.2144C38.6052 52.7746 39.9947 52.1949 41.3342 51.4852L46.1224 54.6137C46.7121 55.0035 47.5018 54.9236 48.0016 54.4138L54.4192 47.9969C54.919 47.4971 54.999 46.7075 54.6191 46.1178ZM42.2239 48.4767C41.754 48.1668 41.1443 48.1468 40.6545 48.4367C39.0351 49.3762 37.3057 50.0859 35.5164 50.5657C34.9666 50.7156 34.5568 51.1554 34.4368 51.7051L33.3273 56.9826H26.6898L25.5802 51.7051C25.4603 51.1554 25.0504 50.7056 24.5006 50.5657C22.7113 50.0859 20.982 49.3662 19.3626 48.4367C18.8728 48.1568 18.263 48.1668 17.7932 48.4767L13.2749 51.4252L8.57672 46.7275L11.5256 42.2097C11.8355 41.7399 11.8555 41.1302 11.5656 40.6404C10.6259 39.0212 9.90621 37.292 9.43639 35.5029C9.28645 34.9532 8.84662 34.5434 8.29683 34.4234L3.01885 33.314V26.6772L8.29683 25.5677C8.84662 25.4478 9.29645 25.0379 9.43639 24.4882C9.91621 22.6991 10.6359 20.9699 11.5656 19.3507C11.8455 18.8609 11.8355 18.2512 11.5256 17.7814L8.57672 13.2636L13.2749 8.56588L17.7932 11.5145C18.263 11.8243 18.8728 11.8443 19.3626 11.5544C20.982 10.6149 22.7113 9.90523 24.5006 9.42546C25.0504 9.27553 25.4603 8.83575 25.5802 8.28601L26.6898 3.00855H33.3273L34.4368 8.28601C34.5568 8.83575 34.9666 9.28553 35.5164 9.42546C37.3057 9.90523 39.0351 10.6249 40.6545 11.5544C41.1443 11.8343 41.754 11.8243 42.2239 11.5145L46.7421 8.56588L51.4403 13.2636L48.4915 17.7814C48.1816 18.2512 48.1616 18.8609 48.4515 19.3507C49.3911 20.9699 50.1108 22.6991 50.5807 24.4882C50.7306 25.0379 51.1704 25.4478 51.7202 25.5677L56.9982 26.6772V33.314L51.7202 34.4234C51.1704 34.5434 50.7206 34.9532 50.5807 35.5029C50.1008 37.292 49.3811 39.0212 48.4515 40.6404C48.1716 41.1302 48.1816 41.7399 48.4915 42.2097L51.4403 46.7275L46.7421 51.4252L42.2239 48.4767Z" fill="black"/>
<path d="M82.8779 61.7603L80.9886 57.1026C80.7187 56.4429 80.029 56.0631 79.3293 56.193L76.6003 56.6828C76.2005 56.223 75.7706 55.7832 75.3208 55.3834L75.8506 52.6647C75.9905 51.965 75.6207 51.2754 74.9609 50.9955L70.3327 49.0365C69.6829 48.7566 68.9232 48.9765 68.5134 49.5662L66.934 51.8451C66.3242 51.8051 65.7145 51.7951 65.1147 51.8351L63.5653 49.5262C63.1654 48.9365 62.4157 48.7066 61.756 48.9765L57.0978 50.8656C56.438 51.1354 56.0582 51.8251 56.1881 52.5248L56.6779 55.2535C56.2181 55.6533 55.7783 56.0831 55.3784 56.5328L52.6595 56.0031C51.9597 55.8732 51.27 56.233 50.9901 56.8927L49.0308 61.5204C48.7509 62.1701 48.9709 62.9298 49.5506 63.3396L51.8298 64.9188C51.7898 65.5285 51.7798 66.1382 51.8198 66.7379L49.5107 68.2872C48.9209 68.687 48.691 69.4366 48.9609 70.0963L50.8501 74.7541C51.12 75.4137 51.8098 75.7936 52.5095 75.6636L55.2385 75.1739C55.6383 75.6336 56.0681 76.0734 56.518 76.4732L55.9882 79.1919C55.8482 79.8916 56.2181 80.5813 56.8778 80.8611L61.5061 82.8202C62.1658 83.1 62.9155 82.8802 63.3254 82.3004L64.9148 80.0215C65.5245 80.0615 66.1343 80.0715 66.7341 80.0315L68.2835 82.3404C68.5734 82.7602 69.0432 83.0001 69.533 83.0001C69.7229 83.0001 69.9129 82.9601 70.0928 82.8902L74.751 81.0011C75.4108 80.7312 75.7906 80.0415 75.6607 79.3419L75.1708 76.6132C75.6307 76.2134 76.0705 75.7836 76.4704 75.3338L79.1893 75.8635C79.899 76.0035 80.5788 75.6336 80.8587 74.974L82.8179 70.3462C83.0978 69.6965 82.8779 68.9369 82.2981 68.5271L80.019 66.9478C80.059 66.3381 80.069 65.7284 80.029 65.1287L82.3381 63.5794C82.9279 63.1796 83.1578 62.43 82.8879 61.7703L82.8779 61.7603ZM77.6099 63.1197C77.1401 63.4395 76.8902 63.9892 76.9602 64.549C77.0801 65.5185 77.0701 66.488 76.9402 67.4476C76.8602 68.0073 77.1101 68.567 77.5699 68.8869L79.5792 70.2862L78.5695 72.6751L76.1705 72.2053C75.6107 72.0953 75.0509 72.3052 74.701 72.755C74.1112 73.5147 73.4115 74.2043 72.6318 74.794C72.182 75.1339 71.9621 75.7036 72.062 76.2533L72.4919 78.6622L70.0928 79.6317L68.7233 77.6027C68.4434 77.1829 67.9736 76.943 67.4738 76.943C67.4138 76.943 67.3538 76.943 67.2839 76.953C66.3142 77.073 65.3346 77.063 64.375 76.933C63.8152 76.8531 63.2554 77.0929 62.9355 77.5627L61.5361 79.5717L59.147 78.5622L59.6168 76.1634C59.7268 75.6037 59.5168 75.0439 59.067 74.6941C58.3073 74.1044 57.6176 73.4047 57.0278 72.6251C56.6879 72.1753 56.1281 71.9554 55.5683 72.0554L53.1593 72.4852L52.1896 70.0863L54.2189 68.717C54.6887 68.3971 54.9386 67.8474 54.8686 67.2877C54.7487 66.3181 54.7586 65.3386 54.8886 64.3791C54.9686 63.8193 54.7187 63.2596 54.2588 62.9398L52.2496 61.5404L53.2592 59.1616L55.6583 59.6313C56.2181 59.7413 56.7779 59.5314 57.1277 59.0816C57.7175 58.322 58.4172 57.6323 59.1969 57.0426C59.6468 56.7028 59.8667 56.133 59.7667 55.5833L59.3369 53.1745L61.736 52.2049L63.1055 54.2339C63.4253 54.7037 63.9651 54.9536 64.5349 54.8836C65.5045 54.7637 66.4842 54.7737 67.4438 54.9036C68.0136 54.9836 68.5634 54.7337 68.8832 54.2739L70.2827 52.2649L72.6718 53.2744L72.202 55.6733C72.092 56.233 72.3019 56.7927 72.7518 57.1425C73.5115 57.7323 74.2012 58.4319 74.791 59.2116C75.1309 59.6613 75.6906 59.8812 76.2504 59.7813L78.6595 59.3515L79.6291 61.7503L77.5999 63.1197H77.6099Z" fill="black"/>
<path d="M65.9243 59.6309C62.4556 59.6309 59.6367 62.4495 59.6367 65.9178C59.6367 69.3862 62.4556 72.2048 65.9243 72.2048C69.393 72.2048 72.2119 69.3862 72.2119 65.9178C72.2119 62.4495 69.393 59.6309 65.9243 59.6309ZM65.9243 69.2063C64.115 69.2063 62.6356 67.727 62.6356 65.9178C62.6356 64.1087 64.115 62.6294 65.9243 62.6294C67.7336 62.6294 69.2131 64.1087 69.2131 65.9178C69.2131 67.727 67.7336 69.2063 65.9243 69.2063Z" fill="black"/>
<path d="M30.0082 15.7617C22.1512 15.7617 15.7637 22.1486 15.7637 30.0049C15.7637 37.8611 22.1512 44.248 30.0082 44.248C37.8652 44.248 44.2528 37.8611 44.2528 30.0049C44.2528 22.1486 37.8652 15.7617 30.0082 15.7617ZM30.0082 41.2494C23.8106 41.2494 18.7625 36.2019 18.7625 30.0049C18.7625 23.8078 23.8106 18.7603 30.0082 18.7603C36.2059 18.7603 41.2539 23.8078 41.2539 30.0049C41.2539 36.2019 36.2059 41.2494 30.0082 41.2494Z" fill="black"/>
<path d="M59.2872 3.61768C58.5875 3.1779 57.6678 3.39779 57.228 4.09745C56.7881 4.79711 56.9981 5.71667 57.6978 6.16646C57.8077 6.23642 58.4375 6.64622 59.3272 7.44584C62.2161 10.0146 67.8539 16.6314 67.574 28.8156L66.2245 28.4657L65.1349 28.1859C64.6451 28.0559 64.1253 28.1859 63.7455 28.5357C63.3756 28.8755 63.1957 29.3853 63.2857 29.885L65.015 40.0901C65.115 40.6598 65.5248 41.1196 66.0846 41.2795C66.2245 41.3195 66.3545 41.3395 66.4944 41.3395C66.9143 41.3395 67.3241 41.1596 67.614 40.8298L74.6413 32.8736C74.9912 32.4838 75.1011 31.944 74.9512 31.4443C74.8012 30.9445 74.4014 30.5647 73.8916 30.4348L70.5629 29.5852C71.2926 11.354 59.827 3.96751 59.2872 3.62768V3.61768ZM67.4441 36.4819L66.6244 31.6542L70.7728 32.7237L67.4441 36.4919V36.4819Z" fill="black"/>
<path d="M39.0045 70.8658C39.0045 70.8658 38.2448 71.1656 36.9753 71.4355C33.1768 72.2451 24.5001 72.9148 14.8438 65.6983L15.9034 64.8087L16.773 64.079C17.1629 63.7492 17.3628 63.2494 17.3028 62.7497C17.2429 62.2499 16.923 61.8101 16.4732 61.5802L7.17672 57.0424C6.65691 56.7925 6.03715 56.8525 5.58732 57.2123C5.1375 57.5722 4.92758 58.1619 5.05753 58.7216L7.42662 69.0666C7.54657 69.5764 7.91643 69.9862 8.40624 70.1561C8.56618 70.2061 8.72612 70.2361 8.88606 70.2361C9.23593 70.2361 9.5758 70.1161 9.8457 69.8862L12.4847 67.6773C19.9818 73.5145 27.0191 74.9638 32.1172 74.9638C36.8054 74.9638 39.8642 73.7544 40.1441 73.6344C40.9138 73.3146 41.2737 72.445 40.9538 71.6754C40.6339 70.9058 39.7643 70.5459 38.9945 70.8658H39.0045ZM8.67614 61.1205L13.0845 63.2694L9.80571 66.0181L8.68614 61.1205H8.67614Z" fill="black"/>
</svg>
