<svg width="100" height="100" viewBox="0 0 100 100" fill="none" xmlns="http://www.w3.org/2000/svg">
<path d="M62.6191 54.1178L59.4903 49.3301C60.2 48.0007 60.7698 46.6014 61.2197 45.1721L66.8075 44.0027C67.4972 43.8527 67.9971 43.243 67.9971 42.5334V33.4577C67.9971 32.7481 67.4972 32.1384 66.8075 31.9884L61.2197 30.819C60.7798 29.3897 60.2 28.0004 59.4903 26.661L62.6191 21.8733C63.009 21.2836 62.929 20.494 62.4192 19.9942L56.0016 13.5773C55.5018 13.0776 54.7121 12.9976 54.1224 13.3774L49.3342 16.5059C48.0047 15.7962 46.6152 15.2265 45.1758 14.7767L44.0062 9.18943C43.8563 8.49976 43.2465 8 42.5368 8H33.4603C32.7505 8 32.1408 8.49976 31.9908 9.18943L30.8213 14.7767C29.3918 15.2165 28.0024 15.7962 26.6629 16.5059L21.8747 13.3774C21.2849 12.9876 20.4952 13.0676 19.9954 13.5773L13.5779 19.9942C13.0781 20.494 12.9981 21.2836 13.3779 21.8733L16.5067 26.661C15.797 27.9904 15.2272 29.3897 14.7774 30.819L9.18955 31.9884C8.49981 32.1384 8 32.7481 8 33.4577V42.5334C8 43.243 8.49981 43.8527 9.18955 44.0027L14.7774 45.1721C15.2172 46.6014 15.797 47.9907 16.5067 49.3301L13.3779 54.1178C12.9881 54.7075 13.0681 55.4971 13.5779 55.9969L19.9954 62.4138C20.4952 62.9136 21.2849 62.9935 21.8747 62.6137L26.6629 59.4852C27.9924 60.1949 29.3818 60.7646 30.8213 61.2144L31.9908 66.8017C32.1408 67.4914 32.7505 67.9911 33.4603 67.9911H42.5368C43.2465 67.9911 43.8563 67.4914 44.0062 66.8017L45.1758 61.2144C46.6052 60.7746 47.9947 60.1949 49.3342 59.4852L54.1224 62.6137C54.7121 63.0035 55.5018 62.9236 56.0016 62.4138L62.4192 55.9969C62.919 55.4971 62.999 54.7075 62.6191 54.1178ZM50.2239 56.4767C49.754 56.1668 49.1443 56.1468 48.6545 56.4367C47.0351 57.3762 45.3057 58.0859 43.5164 58.5657C42.9666 58.7156 42.5568 59.1554 42.4368 59.7051L41.3273 64.9826H34.6898L33.5802 59.7051C33.4603 59.1554 33.0504 58.7056 32.5006 58.5657C30.7113 58.0859 28.982 57.3662 27.3626 56.4367C26.8728 56.1568 26.263 56.1668 25.7932 56.4767L21.2749 59.4252L16.5767 54.7275L19.5256 50.2097C19.8355 49.7399 19.8555 49.1302 19.5656 48.6404C18.6259 47.0212 17.9062 45.292 17.4364 43.5029C17.2864 42.9532 16.8466 42.5434 16.2968 42.4234L11.0188 41.314V34.6772L16.2968 33.5677C16.8466 33.4478 17.2964 33.0379 17.4364 32.4882C17.9162 30.6991 18.6359 28.9699 19.5656 27.3507C19.8455 26.8609 19.8355 26.2512 19.5256 25.7814L16.5767 21.2636L21.2749 16.5659L25.7932 19.5145C26.263 19.8243 26.8728 19.8443 27.3626 19.5544C28.982 18.6149 30.7113 17.9052 32.5006 17.4255C33.0504 17.2755 33.4603 16.8357 33.5802 16.286L34.6898 11.0086H41.3273L42.4368 16.286C42.5568 16.8357 42.9666 17.2855 43.5164 17.4255C45.3057 17.9052 47.0351 18.6249 48.6545 19.5544C49.1443 19.8343 49.754 19.8243 50.2239 19.5145L54.7421 16.5659L59.4403 21.2636L56.4915 25.7814C56.1816 26.2512 56.1616 26.8609 56.4515 27.3507C57.3911 28.9699 58.1108 30.6991 58.5807 32.4882C58.7306 33.0379 59.1704 33.4478 59.7202 33.5677L64.9982 34.6772V41.314L59.7202 42.4234C59.1704 42.5434 58.7206 42.9532 58.5807 43.5029C58.1008 45.292 57.3811 47.0212 56.4515 48.6404C56.1716 49.1302 56.1816 49.7399 56.4915 50.2097L59.4403 54.7275L54.7421 59.4252L50.2239 56.4767Z" fill="black"/>
<path d="M90.8779 69.7603L88.9886 65.1026C88.7187 64.4429 88.029 64.0631 87.3293 64.193L84.6003 64.6828C84.2005 64.223 83.7706 63.7832 83.3208 63.3834L83.8506 60.6647C83.9905 59.965 83.6207 59.2754 82.9609 58.9955L78.3327 57.0365C77.6829 56.7566 76.9232 56.9765 76.5134 57.5662L74.934 59.8451C74.3242 59.8051 73.7145 59.7951 73.1147 59.8351L71.5653 57.5262C71.1654 56.9365 70.4157 56.7066 69.756 56.9765L65.0978 58.8656C64.438 59.1354 64.0582 59.8251 64.1881 60.5248L64.6779 63.2535C64.2181 63.6533 63.7783 64.0831 63.3784 64.5328L60.6595 64.0031C59.9597 63.8732 59.27 64.233 58.9901 64.8927L57.0308 69.5204C56.7509 70.1701 56.9709 70.9298 57.5506 71.3396L59.8298 72.9188C59.7898 73.5285 59.7798 74.1382 59.8198 74.7379L57.5107 76.2872C56.9209 76.687 56.691 77.4366 56.9609 78.0963L58.8501 82.7541C59.12 83.4137 59.8098 83.7936 60.5095 83.6636L63.2385 83.1739C63.6383 83.6336 64.0681 84.0734 64.518 84.4732L63.9882 87.1919C63.8482 87.8916 64.2181 88.5813 64.8778 88.8611L69.5061 90.8202C70.1658 91.1 70.9155 90.8802 71.3254 90.3004L72.9148 88.0215C73.5245 88.0615 74.1343 88.0715 74.7341 88.0315L76.2835 90.3404C76.5734 90.7602 77.0432 91.0001 77.533 91.0001C77.7229 91.0001 77.9129 90.9601 78.0928 90.8902L82.751 89.0011C83.4108 88.7312 83.7906 88.0415 83.6607 87.3419L83.1708 84.6132C83.6307 84.2134 84.0705 83.7836 84.4704 83.3338L87.1893 83.8635C87.899 84.0035 88.5788 83.6336 88.8587 82.974L90.8179 78.3462C91.0978 77.6965 90.8779 76.9369 90.2981 76.5271L88.019 74.9478C88.059 74.3381 88.069 73.7284 88.029 73.1287L90.3381 71.5794C90.9279 71.1796 91.1578 70.43 90.8879 69.7703L90.8779 69.7603ZM85.6099 71.1197C85.1401 71.4395 84.8902 71.9892 84.9602 72.549C85.0801 73.5185 85.0701 74.488 84.9402 75.4476C84.8602 76.0073 85.1101 76.567 85.5699 76.8869L87.5792 78.2862L86.5695 80.6751L84.1705 80.2053C83.6107 80.0953 83.0509 80.3052 82.701 80.755C82.1112 81.5147 81.4115 82.2043 80.6318 82.794C80.182 83.1339 79.9621 83.7036 80.062 84.2533L80.4919 86.6622L78.0928 87.6317L76.7233 85.6027C76.4434 85.1829 75.9736 84.943 75.4738 84.943C75.4138 84.943 75.3538 84.943 75.2839 84.953C74.3142 85.073 73.3346 85.063 72.375 84.933C71.8152 84.8531 71.2554 85.0929 70.9355 85.5627L69.5361 87.5717L67.147 86.5622L67.6168 84.1634C67.7268 83.6037 67.5168 83.0439 67.067 82.6941C66.3073 82.1044 65.6176 81.4047 65.0278 80.6251C64.6879 80.1753 64.1281 79.9554 63.5683 80.0554L61.1593 80.4852L60.1896 78.0863L62.2189 76.717C62.6887 76.3971 62.9386 75.8474 62.8686 75.2877C62.7487 74.3181 62.7586 73.3386 62.8886 72.3791C62.9686 71.8193 62.7187 71.2596 62.2588 70.9398L60.2496 69.5404L61.2592 67.1616L63.6583 67.6313C64.2181 67.7413 64.7779 67.5314 65.1277 67.0816C65.7175 66.322 66.4172 65.6323 67.1969 65.0426C67.6468 64.7028 67.8667 64.133 67.7667 63.5833L67.3369 61.1745L69.736 60.2049L71.1055 62.2339C71.4253 62.7037 71.9651 62.9536 72.5349 62.8836C73.5045 62.7637 74.4842 62.7737 75.4438 62.9036C76.0136 62.9836 76.5634 62.7337 76.8832 62.2739L78.2827 60.2649L80.6718 61.2744L80.202 63.6733C80.092 64.233 80.3019 64.7927 80.7518 65.1425C81.5115 65.7323 82.2012 66.4319 82.791 67.2116C83.1309 67.6613 83.6906 67.8812 84.2504 67.7813L86.6595 67.3515L87.6291 69.7503L85.5999 71.1197H85.6099Z" fill="black"/>
<path d="M73.9243 67.6309C70.4556 67.6309 67.6367 70.4495 67.6367 73.9178C67.6367 77.3862 70.4556 80.2048 73.9243 80.2048C77.393 80.2048 80.2119 77.3862 80.2119 73.9178C80.2119 70.4495 77.393 67.6309 73.9243 67.6309ZM73.9243 77.2063C72.115 77.2063 70.6356 75.727 70.6356 73.9178C70.6356 72.1087 72.115 70.6294 73.9243 70.6294C75.7336 70.6294 77.2131 72.1087 77.2131 73.9178C77.2131 75.727 75.7336 77.2063 73.9243 77.2063Z" fill="black"/>
<path d="M38.0082 23.7617C30.1512 23.7617 23.7637 30.1486 23.7637 38.0049C23.7637 45.8611 30.1512 52.248 38.0082 52.248C45.8652 52.248 52.2528 45.8611 52.2528 38.0049C52.2528 30.1486 45.8652 23.7617 38.0082 23.7617ZM38.0082 49.2494C31.8106 49.2494 26.7625 44.2019 26.7625 38.0049C26.7625 31.8078 31.8106 26.7603 38.0082 26.7603C44.2059 26.7603 49.2539 31.8078 49.2539 38.0049C49.2539 44.2019 44.2059 49.2494 38.0082 49.2494Z" fill="black"/>
<path d="M67.2872 11.6177C66.5875 11.1779 65.6678 11.3978 65.228 12.0975C64.7881 12.7971 64.9981 13.7167 65.6978 14.1665C65.8077 14.2364 66.4375 14.6462 67.3272 15.4458C70.2161 18.0146 75.8539 24.6314 75.574 36.8156L74.2245 36.4657L73.1349 36.1859C72.6451 36.0559 72.1253 36.1859 71.7455 36.5357C71.3756 36.8755 71.1957 37.3853 71.2857 37.885L73.015 48.0901C73.115 48.6598 73.5248 49.1196 74.0846 49.2795C74.2245 49.3195 74.3545 49.3395 74.4944 49.3395C74.9143 49.3395 75.3241 49.1596 75.614 48.8298L82.6413 40.8736C82.9912 40.4838 83.1011 39.944 82.9512 39.4443C82.8012 38.9445 82.4014 38.5647 81.8916 38.4348L78.5629 37.5852C79.2926 19.354 67.827 11.9675 67.2872 11.6277V11.6177ZM75.4441 44.4819L74.6244 39.6542L78.7728 40.7237L75.4441 44.4919V44.4819Z" fill="black"/>
<path d="M47.0045 78.8658C47.0045 78.8658 46.2448 79.1656 44.9753 79.4355C41.1768 80.2451 32.5001 80.9148 22.8438 73.6983L23.9034 72.8087L24.773 72.079C25.1629 71.7492 25.3628 71.2494 25.3028 70.7497C25.2429 70.2499 24.923 69.8101 24.4732 69.5802L15.1767 65.0424C14.6569 64.7925 14.0372 64.8525 13.5873 65.2123C13.1375 65.5722 12.9276 66.1619 13.0575 66.7216L15.4266 77.0666C15.5466 77.5764 15.9164 77.9862 16.4062 78.1561C16.5662 78.2061 16.7261 78.2361 16.8861 78.2361C17.2359 78.2361 17.5758 78.1161 17.8457 77.8862L20.4847 75.6773C27.9818 81.5145 35.0191 82.9638 40.1172 82.9638C44.8054 82.9638 47.8642 81.7544 48.1441 81.6344C48.9138 81.3146 49.2737 80.445 48.9538 79.6754C48.6339 78.9058 47.7643 78.5459 46.9945 78.8658H47.0045ZM16.6761 69.1205L21.0845 71.2694L17.8057 74.0181L16.6861 69.1205H16.6761Z" fill="black"/>
</svg>
