<svg width="117" height="36" viewBox="0 0 117 36" fill="none" xmlns="http://www.w3.org/2000/svg">
<path d="M3.33374 13.333L12.6664 22.6657" stroke="#004EFF" stroke-linecap="round" stroke-linejoin="round"/>
<path d="M3.33307 22.6657L12.6658 13.333" stroke="#004EFF" stroke-linecap="round" stroke-linejoin="round"/>
<path d="M29.8672 14.2568C29.3887 14.2568 28.9603 14.3434 28.582 14.5166C28.2083 14.6898 27.8916 14.9404 27.6318 15.2686C27.3721 15.5921 27.1738 15.9863 27.0371 16.4512C26.9004 16.9115 26.832 17.431 26.832 18.0098C26.832 18.7845 26.9414 19.4521 27.1602 20.0127C27.3789 20.5687 27.7116 20.9971 28.1582 21.2979C28.6048 21.5941 29.1699 21.7422 29.8535 21.7422C30.2773 21.7422 30.6898 21.7012 31.0908 21.6191C31.4919 21.5371 31.9066 21.4255 32.335 21.2842V22.6787C31.9294 22.8382 31.5192 22.9544 31.1045 23.0273C30.6898 23.1003 30.2113 23.1367 29.6689 23.1367C28.6481 23.1367 27.8005 22.9248 27.126 22.501C26.4561 22.0771 25.9548 21.4801 25.6221 20.71C25.2939 19.9398 25.1299 19.0374 25.1299 18.0029C25.1299 17.2464 25.2347 16.5537 25.4443 15.9248C25.654 15.2959 25.9593 14.7536 26.3604 14.2979C26.7614 13.8376 27.2559 13.4844 27.8438 13.2383C28.4362 12.9876 29.113 12.8623 29.874 12.8623C30.3753 12.8623 30.8675 12.9193 31.3506 13.0332C31.8382 13.1426 32.2894 13.2998 32.7041 13.5049L32.1299 14.8584C31.7835 14.6943 31.4212 14.5531 31.043 14.4346C30.6647 14.3161 30.2728 14.2568 29.8672 14.2568ZM34.4814 23V13.0059H36.1221V21.6055H40.3672V23H34.4814ZM50.9697 17.9893C50.9697 18.7594 50.8717 19.4613 50.6758 20.0947C50.4844 20.7236 50.195 21.266 49.8076 21.7217C49.4202 22.1729 48.9349 22.5215 48.3516 22.7676C47.7682 23.0137 47.0846 23.1367 46.3008 23.1367C45.5033 23.1367 44.8105 23.0137 44.2227 22.7676C43.6393 22.5215 43.154 22.1706 42.7666 21.7148C42.3838 21.2591 42.0967 20.7145 41.9053 20.0811C41.7139 19.4476 41.6182 18.7458 41.6182 17.9756C41.6182 16.9456 41.7868 16.0479 42.124 15.2822C42.4658 14.512 42.9831 13.915 43.6758 13.4912C44.373 13.0628 45.2526 12.8486 46.3145 12.8486C47.3535 12.8486 48.2171 13.0605 48.9053 13.4844C49.5934 13.9082 50.1084 14.5052 50.4502 15.2754C50.7965 16.041 50.9697 16.9456 50.9697 17.9893ZM43.3408 17.9893C43.3408 18.7594 43.4456 19.4271 43.6553 19.9922C43.8649 20.5527 44.1862 20.9857 44.6191 21.291C45.0566 21.5918 45.6172 21.7422 46.3008 21.7422C46.9889 21.7422 47.5495 21.5918 47.9824 21.291C48.4154 20.9857 48.7344 20.5527 48.9395 19.9922C49.1445 19.4271 49.2471 18.7594 49.2471 17.9893C49.2471 16.818 49.0124 15.902 48.543 15.2412C48.0781 14.5758 47.3353 14.2432 46.3145 14.2432C45.6309 14.2432 45.068 14.3936 44.626 14.6943C44.1885 14.9951 43.8649 15.4258 43.6553 15.9863C43.4456 16.5423 43.3408 17.21 43.3408 17.9893ZM58.8857 20.2793C58.8857 20.8717 58.7399 21.3822 58.4482 21.8105C58.1611 22.2389 57.7464 22.5671 57.2041 22.7949C56.6663 23.0228 56.0238 23.1367 55.2764 23.1367C54.9118 23.1367 54.5632 23.1162 54.2305 23.0752C53.8978 23.0342 53.5833 22.9749 53.2871 22.8975C52.9954 22.8154 52.7288 22.7174 52.4873 22.6035V21.0586C52.8929 21.2363 53.3464 21.3981 53.8477 21.5439C54.349 21.6852 54.8594 21.7559 55.3789 21.7559C55.8027 21.7559 56.1536 21.7012 56.4316 21.5918C56.7142 21.4779 56.9238 21.3184 57.0605 21.1133C57.1973 20.9036 57.2656 20.6598 57.2656 20.3818C57.2656 20.0856 57.1859 19.835 57.0264 19.6299C56.8669 19.4248 56.6253 19.238 56.3018 19.0693C55.9827 18.8962 55.5817 18.7116 55.0986 18.5156C54.7705 18.3835 54.4561 18.2331 54.1553 18.0645C53.859 17.8958 53.5947 17.6976 53.3623 17.4697C53.1299 17.2419 52.9453 16.973 52.8086 16.6631C52.6764 16.3486 52.6104 15.9795 52.6104 15.5557C52.6104 14.9906 52.7448 14.5075 53.0137 14.1064C53.2871 13.7054 53.6699 13.3978 54.1621 13.1836C54.6589 12.9694 55.2376 12.8623 55.8984 12.8623C56.4225 12.8623 56.9147 12.917 57.375 13.0264C57.8398 13.1357 58.2956 13.2907 58.7422 13.4912L58.2227 14.8105C57.8125 14.6419 57.4137 14.5075 57.0264 14.4072C56.6436 14.307 56.2516 14.2568 55.8506 14.2568C55.5042 14.2568 55.2103 14.3092 54.9688 14.4141C54.7272 14.5189 54.5426 14.667 54.415 14.8584C54.292 15.0452 54.2305 15.2686 54.2305 15.5283C54.2305 15.82 54.3011 16.0661 54.4424 16.2666C54.5882 16.4626 54.8115 16.6426 55.1123 16.8066C55.4176 16.9707 55.8096 17.153 56.2881 17.3535C56.8395 17.5814 57.3066 17.8206 57.6895 18.0713C58.0768 18.3219 58.373 18.6227 58.5781 18.9736C58.7832 19.32 58.8857 19.7552 58.8857 20.2793ZM66.4736 23H60.8135V13.0059H66.4736V14.3867H62.4541V17.1006H66.2207V18.4746H62.4541V21.6123H66.4736V23ZM75.7363 23H74.0889V14.4004H71.1631V13.0059H78.6553V14.4004H75.7363V23ZM80.1865 23V13.0059H81.8271V23H80.1865ZM88.7246 14.2568C88.2461 14.2568 87.8177 14.3434 87.4395 14.5166C87.0658 14.6898 86.749 14.9404 86.4893 15.2686C86.2295 15.5921 86.0312 15.9863 85.8945 16.4512C85.7578 16.9115 85.6895 17.431 85.6895 18.0098C85.6895 18.7845 85.7988 19.4521 86.0176 20.0127C86.2363 20.5687 86.569 20.9971 87.0156 21.2979C87.4622 21.5941 88.0273 21.7422 88.7109 21.7422C89.1348 21.7422 89.5472 21.7012 89.9482 21.6191C90.3493 21.5371 90.764 21.4255 91.1924 21.2842V22.6787C90.7868 22.8382 90.3766 22.9544 89.9619 23.0273C89.5472 23.1003 89.0687 23.1367 88.5264 23.1367C87.5055 23.1367 86.6579 22.9248 85.9834 22.501C85.3135 22.0771 84.8122 21.4801 84.4795 20.71C84.1514 19.9398 83.9873 19.0374 83.9873 18.0029C83.9873 17.2464 84.0921 16.5537 84.3018 15.9248C84.5114 15.2959 84.8167 14.7536 85.2178 14.2979C85.6188 13.8376 86.1133 13.4844 86.7012 13.2383C87.2936 12.9876 87.9704 12.8623 88.7314 12.8623C89.2327 12.8623 89.7249 12.9193 90.208 13.0332C90.6956 13.1426 91.1468 13.2998 91.5615 13.5049L90.9873 14.8584C90.641 14.6943 90.2786 14.5531 89.9004 14.4346C89.5221 14.3161 89.1302 14.2568 88.7246 14.2568ZM100.961 23H99.0742L95.9639 18.4609L94.9795 19.2607V23H93.3389V13.0059H94.9795V17.7842C95.18 17.5381 95.3828 17.292 95.5879 17.0459C95.793 16.7998 95.998 16.5537 96.2031 16.3076L99.0195 13.0059H100.872L97.1396 17.3809L100.961 23ZM107.94 23H102.28V13.0059H107.94V14.3867H103.921V17.1006H107.688V18.4746H103.921V21.6123H107.94V23ZM113.566 23H111.919V14.4004H108.993V13.0059H116.485V14.4004H113.566V23Z" fill="#004EFF"/>
</svg>
