<svg width="25" height="24" viewBox="0 0 25 24" fill="none" xmlns="http://www.w3.org/2000/svg">
<path d="M17.9844 20.5H7.98438C4.98438 20.5 2.98438 19 2.98438 15.5V8.5C2.98438 5 4.98438 3.5 7.98438 3.5H17.9844C20.9844 3.5 22.9844 5 22.9844 8.5V15.5C22.9844 19 20.9844 20.5 17.9844 20.5Z" stroke="#1C1C1C" stroke-miterlimit="10" stroke-linecap="round" stroke-linejoin="round"/>
<path d="M12.9844 15C14.6412 15 15.9844 13.6569 15.9844 12C15.9844 10.3431 14.6412 9 12.9844 9C11.3275 9 9.98438 10.3431 9.98438 12C9.98438 13.6569 11.3275 15 12.9844 15Z" stroke="#1C1C1C" stroke-miterlimit="10" stroke-linecap="round" stroke-linejoin="round"/>
<path d="M6.48438 9.5V14.5" stroke="#1C1C1C" stroke-miterlimit="10" stroke-linecap="round" stroke-linejoin="round"/>
<path d="M19.4844 9.5V14.5" stroke="#1C1C1C" stroke-miterlimit="10" stroke-linecap="round" stroke-linejoin="round"/>
</svg>
