<svg width="67" height="67" viewBox="0 0 67 67" fill="none" xmlns="http://www.w3.org/2000/svg">
<circle cx="33.5" cy="33.5" r="33" fill="#F6F6F6" stroke="#E8E8E8"/>
<path d="M22.229 26.9199L34.0023 33.7332L45.6956 26.9599" stroke="#1C1C1C" stroke-width="2" stroke-linecap="round" stroke-linejoin="round"/>
<path d="M34.0024 45.8131V33.7197" stroke="#1C1C1C" stroke-width="2" stroke-linecap="round" stroke-linejoin="round"/>
<path d="M31.2423 20.3065L24.1223 24.2665C22.5089 25.1599 21.189 27.3999 21.189 29.2399L21.189 36.7732C21.189 38.6132 22.5089 40.8532 24.1223 41.7465L31.2423 45.7066C32.7623 46.5466 35.2556 46.5466 36.7756 45.7066L43.8956 41.7465C45.509 40.8532 46.8289 38.6132 46.8289 36.7732V29.2399C46.8289 27.3999 45.509 25.1599 43.8956 24.2665L36.7756 20.3065C35.2423 19.4532 32.7623 19.4532 31.2423 20.3065Z" stroke="#1C1C1C" stroke-width="2" stroke-linecap="round" stroke-linejoin="round"/>
<path d="M40.6685 34.6535V29.7735L28.0151 22.4668" stroke="#1C1C1C" stroke-width="2" stroke-linecap="round" stroke-linejoin="round"/>
</svg>
