<svg width="500" height="427" viewBox="0 0 500 427" fill="none" xmlns="http://www.w3.org/2000/svg">
<g clip-path="url(#clip0_2621_101656)">
<path d="M499.675 245.476C499.64 246.103 499.617 246.741 499.559 247.356C498.872 261.177 497.384 274.964 495.175 288.681C494.965 289.981 494.756 291.28 494.535 292.58C494.442 293.218 494.326 293.845 494.21 294.46C493.966 295.876 493.721 297.292 493.431 298.684C490.919 312.471 487.71 326.153 483.966 339.673C483.791 340.299 483.605 340.914 483.442 341.553C482.989 343.189 482.512 344.814 482.047 346.45C478.326 359.285 473.698 372.526 466.896 384.2C466.221 385.384 465.5 386.556 464.779 387.705H20.4074C18.9539 386.591 17.5585 385.419 16.2097 384.2C8.52363 377.168 2.77945 368.348 0.779445 358.821C0.0468873 355.374 -0.185671 351.846 0.151539 348.26C0.279445 346.879 0.488748 345.545 0.779445 344.222C4.46549 326.687 20.2794 313.62 32.2213 298.684C34.8143 295.458 37.2329 292.139 39.2678 288.669C40.2329 287.091 41.105 285.466 41.8725 283.807C47.2794 272.376 48.1632 259.843 46.6167 247.345C46.2446 244.258 45.7097 241.182 45.0469 238.107C43.8376 232.281 42.198 226.525 40.326 220.932C38.6864 215.988 36.8841 211.068 35.0701 206.147C29.4074 190.701 23.6399 175.244 22.5469 159.008C19.6399 116.396 53.8143 74.2352 98.3841 65.4735C124.721 60.2862 151.907 65.6824 178.349 70.2663C204.803 74.8502 232.698 78.5406 258.105 70.2431C271.024 66.0305 282.745 57.9072 290.71 47.4628C294.512 42.4611 297.535 36.9024 299.175 30.9607C300.477 26.2608 298.326 17.0813 300.361 13.4026C305.826 3.63133 330.117 3.44566 339.71 4.29281C353.593 5.52292 367.163 10.0256 379.442 16.0717C416.826 34.5118 446.326 64.3827 466.605 99.29C467.547 100.891 468.477 102.516 469.349 104.141C469.651 104.675 469.954 105.22 470.233 105.742C470.291 105.835 470.349 105.928 470.384 106.021C478.163 120.469 484.407 135.683 489.035 151.256C489.221 151.883 489.419 152.498 489.57 153.136C489.931 154.367 490.291 155.585 490.605 156.815C491.117 158.684 491.605 160.552 492.059 162.42C494.966 174.304 497.024 186.291 498.291 198.361C498.361 198.987 498.442 199.625 498.5 200.24C500 215.246 500.338 230.355 499.675 245.476Z" fill="#F3F1FC"/>
<path d="M45.0471 238.119C45.7098 241.194 46.2331 244.269 46.6168 247.356C48.1633 259.855 47.2796 272.399 41.8726 283.819C41.0936 285.478 40.2098 287.091 39.268 288.681H495.152C497.349 274.964 498.896 261.166 499.57 247.356C499.628 246.73 499.64 246.091 499.687 245.476C500.349 230.355 500.012 215.257 498.512 200.264C498.454 199.637 498.384 198.999 498.303 198.384C497.035 186.315 494.977 174.327 492.07 162.444C491.617 160.575 491.128 158.707 490.617 156.838H466.21C464.582 156.838 463.256 158.161 463.256 159.775V211.903C463.256 215.014 460.745 217.52 457.628 217.52H432.431C429.314 217.52 426.803 215.014 426.803 211.903V149.284C426.803 147.659 425.477 146.348 423.861 146.348H413.582C411.954 146.348 410.64 147.671 410.64 149.284V193.835C410.64 196.945 408.128 199.451 405.012 199.451H359.78C356.663 199.451 354.152 196.945 354.152 193.835V139.35C354.152 137.725 352.826 136.414 351.21 136.414H287.954C286.326 136.414 285.012 137.737 285.012 139.35V171.054C285.012 174.165 282.501 176.671 279.384 176.671H243.617C240.501 176.671 237.989 174.165 237.989 171.054V140.325C237.989 138.7 236.663 137.389 235.047 137.389H229.721C228.094 137.389 226.78 138.712 226.78 140.325V200.542C226.78 203.652 224.268 206.159 221.152 206.159H211.268C208.152 206.159 205.64 203.652 205.64 200.542V175.882C205.64 173.549 203.756 171.658 201.408 171.658H173.163C170.826 171.658 168.931 173.538 168.931 175.882V210.221C168.931 213.331 166.419 215.837 163.303 215.837H147.152C144.035 215.837 141.524 213.331 141.524 210.221V137.749C141.524 136.124 140.198 134.812 138.582 134.812H99.1517C97.5238 134.812 96.2099 136.135 96.2099 137.749V200.554C96.2099 203.664 93.6982 206.171 90.5819 206.171H35.0703C36.8843 211.091 38.675 216.012 40.3261 220.955C42.1866 226.537 43.8378 232.293 45.0471 238.119Z" fill="#D0CEF2"/>
<path d="M88.9999 67.8652V387.729H78.9883V71.6368C82.2441 70.1862 85.5813 68.9213 88.9999 67.8652Z" fill="white"/>
<path d="M181.383 293.649V70.8014C180.359 70.6273 179.359 70.4416 178.336 70.2792C176.01 69.8846 173.673 69.4668 171.348 69.0723V293.649H181.383Z" fill="white"/>
<path d="M495.186 288.683C494.976 289.983 494.767 291.283 494.546 292.583C494.453 293.221 494.337 293.848 494.221 294.463C493.976 295.878 493.732 297.294 493.442 298.687H32.209C34.802 295.461 37.2206 292.142 39.2555 288.672H495.186V288.683Z" fill="white"/>
<path d="M366.127 293.812V10.3754C362.836 9.19169 359.499 8.11244 356.092 7.23047V293.812H366.127Z" fill="white"/>
<path d="M464.267 387.66C463.593 388.844 462.895 390.016 462.186 391.165C456.093 400.855 448.349 409.268 438.139 415.152C421.29 424.877 400.639 425.933 380.93 426.432C283.116 428.846 185.093 423.751 88.1276 411.23C69.0346 408.758 49.4532 405.833 32.8718 396.526C30.0811 394.96 27.3834 393.172 24.8369 391.176C23.4067 390.062 22.0346 388.89 20.709 387.672H464.267V387.66Z" fill="#E2DFF4"/>
<path d="M160.419 24.1844C154.919 18.0687 146.326 14.8309 138.14 15.8986C131.384 16.7806 125.059 20.3665 118.245 20.2504C112.582 20.1576 107.268 17.4768 102.617 14.2507C97.9658 11.0246 93.7449 7.18336 88.896 4.24733C84.0472 1.32291 78.3379 -0.707933 72.7565 0.232059C68.2565 0.986373 64.2332 3.59746 61.0239 6.84682C58.0239 9.88728 51.6518 18.0223 52.5821 24.1844H160.419Z" fill="#F3F1FC"/>
<path d="M180.14 94.4985C176.268 90.1815 170.198 87.8953 164.43 88.6613C159.663 89.2879 155.21 91.8062 150.396 91.7249C146.407 91.6553 142.651 89.7753 139.372 87.5008C136.093 85.2262 133.116 82.5223 129.698 80.445C126.279 78.3794 122.256 76.952 118.314 77.6019C115.14 78.1357 112.303 79.9808 110.047 82.267C107.93 84.4139 103.442 90.1467 104.093 94.4985H180.14Z" fill="white"/>
<path d="M335.604 27.5968C335.104 22.92 338.186 15.7018 341.453 14.9359C344.721 14.17 348.011 15.9687 350.988 18.046C353.965 20.1233 356.918 22.5487 360.209 23.1637C367.779 24.5679 374.662 16.1196 382.29 15.6786C390.942 15.1796 399.151 25.0553 407.569 22.1889C411.36 20.9008 414.825 17.0944 418.697 17.6979C422.581 18.3013 425.383 23.1405 427.744 27.5968H335.604Z" fill="white"/>
<path d="M447.372 79.6209V361.27C447.372 370.403 439.954 377.807 430.803 377.807H280.605C271.454 377.807 264.035 370.403 264.035 361.27V79.6209C264.035 70.4879 271.454 63.084 280.605 63.084H430.803C439.954 63.084 447.372 70.4879 447.372 79.6209Z" fill="white"/>
<path d="M386.315 63.084V75.6172C386.315 77.9034 384.466 79.7485 382.175 79.7485H329.233C326.943 79.7485 325.094 77.9034 325.094 75.6172V63.084H386.315Z" fill="url(#paint0_linear_2621_101656)"/>
<path d="M264.035 341.879V361.271C264.035 370.404 271.454 377.807 280.605 377.807H430.803C439.954 377.807 447.372 370.404 447.372 361.271V341.879H264.035Z" fill="url(#paint1_linear_2621_101656)"/>
<path d="M375.546 71.4157C375.546 72.6343 374.558 73.6323 373.326 73.6323H350.709C349.488 73.6323 348.488 72.6459 348.488 71.4157C348.488 70.1972 349.477 69.1992 350.709 69.1992H373.326C374.546 69.1992 375.546 70.1972 375.546 71.4157Z" fill="white"/>
<path d="M341.71 71.4157C341.71 72.6343 340.722 73.6323 339.489 73.6323H338.082C336.861 73.6323 335.861 72.6459 335.861 71.4157C335.861 70.1972 336.85 69.1992 338.082 69.1992H339.489C340.71 69.1992 341.71 70.1972 341.71 71.4157Z" fill="white"/>
<path d="M436.338 80.1554C436.338 83.602 433.535 86.3988 430.07 86.3988C426.617 86.3988 423.803 83.602 423.803 80.1554C423.803 76.7088 426.605 73.9004 430.07 73.9004C433.535 73.912 436.338 76.7088 436.338 80.1554Z" fill="#EBF4FE"/>
<path d="M431.988 82.7191C431.814 82.7191 431.651 82.6495 431.523 82.5218L427.698 78.7039C427.442 78.4485 427.442 78.0308 427.698 77.7755C427.954 77.5202 428.372 77.5202 428.628 77.7755L432.454 81.5935C432.709 81.8488 432.709 82.2665 432.454 82.5218C432.326 82.6611 432.151 82.7191 431.988 82.7191Z" fill="url(#paint2_linear_2621_101656)"/>
<path d="M428.163 82.7191C427.988 82.7191 427.826 82.6495 427.698 82.5218C427.442 82.2665 427.442 81.8488 427.698 81.5935L431.523 77.7755C431.779 77.5202 432.198 77.5202 432.454 77.7755C432.709 78.0308 432.709 78.4485 432.454 78.7039L428.628 82.5218C428.5 82.6611 428.326 82.7191 428.163 82.7191Z" fill="url(#paint3_linear_2621_101656)"/>
<path d="M293.361 76.185H277.187C276.838 76.185 276.559 75.9064 276.559 75.5583C276.559 75.2102 276.838 74.9316 277.187 74.9316H293.361C293.71 74.9316 293.989 75.2102 293.989 75.5583C293.989 75.9064 293.71 76.185 293.361 76.185Z" fill="#EBF4FE"/>
<path d="M293.361 80.9897H277.187C276.838 80.9897 276.559 80.7111 276.559 80.363C276.559 80.0148 276.838 79.7363 277.187 79.7363H293.361C293.71 79.7363 293.989 80.0148 293.989 80.363C293.989 80.7111 293.71 80.9897 293.361 80.9897Z" fill="#EBF4FE"/>
<path d="M293.361 85.8061H277.187C276.838 85.8061 276.559 85.5275 276.559 85.1794C276.559 84.8313 276.838 84.5527 277.187 84.5527H293.361C293.71 84.5527 293.989 84.8313 293.989 85.1794C293.989 85.5275 293.71 85.8061 293.361 85.8061Z" fill="#EBF4FE"/>
<path d="M329.698 97.527C329.698 97.794 329.477 98.0028 329.221 98.0028C327.209 98.0028 325.581 99.6391 325.581 101.635C325.581 101.902 325.36 102.111 325.105 102.111C324.849 102.111 324.628 101.89 324.628 101.635C324.628 100.66 324.244 99.7552 323.558 99.0589C322.872 98.3742 321.953 97.9912 320.977 97.9912C320.709 97.9912 320.5 97.7707 320.5 97.5154C320.5 97.2485 320.721 97.0396 320.977 97.0396C321.953 97.0396 322.86 96.6567 323.558 95.972C324.244 95.2873 324.628 94.3705 324.628 93.3957C324.628 93.1288 324.849 92.9199 325.105 92.9199C325.36 92.9199 325.581 93.1404 325.581 93.3957C325.581 94.3705 325.965 95.2873 326.651 95.972C327.337 96.6567 328.256 97.0396 329.233 97.0396C329.477 97.0396 329.698 97.2601 329.698 97.527Z" fill="#C6AEFF"/>
<path d="M478.024 246.081C478.024 246.394 477.768 246.649 477.454 246.649C475.058 246.649 473.105 248.599 473.105 250.99C473.105 251.303 472.849 251.558 472.535 251.558C472.221 251.558 471.965 251.303 471.965 250.99C471.965 249.829 471.512 248.738 470.686 247.914C469.861 247.09 468.768 246.638 467.605 246.638C467.291 246.638 467.035 246.382 467.035 246.069C467.035 245.756 467.291 245.501 467.605 245.501C468.768 245.501 469.861 245.048 470.686 244.224C471.512 243.4 471.965 242.309 471.965 241.149C471.965 240.835 472.221 240.58 472.535 240.58C472.849 240.58 473.105 240.835 473.105 241.149C473.105 242.309 473.558 243.4 474.384 244.224C475.21 245.048 476.303 245.501 477.465 245.501C477.768 245.512 478.024 245.767 478.024 246.081Z" fill="#8A4852"/>
<path d="M421.897 114.969C421.897 115.202 421.699 115.399 421.466 115.399C419.676 115.399 418.211 116.861 418.211 118.648C418.211 118.88 418.013 119.078 417.78 119.078C417.548 119.078 417.35 118.88 417.35 118.648C417.35 117.778 417.013 116.965 416.397 116.35C415.78 115.735 414.966 115.399 414.094 115.399C413.862 115.399 413.664 115.202 413.664 114.969C413.664 114.737 413.862 114.54 414.094 114.54C414.966 114.54 415.78 114.204 416.397 113.588C417.013 112.973 417.35 112.161 417.35 111.291C417.35 111.059 417.548 110.861 417.78 110.861C418.013 110.861 418.211 111.059 418.211 111.291C418.211 112.161 418.548 112.973 419.164 113.588C419.78 114.204 420.594 114.54 421.466 114.54C421.711 114.54 421.897 114.737 421.897 114.969Z" fill="url(#paint4_linear_2621_101656)"/>
<path d="M369.407 359.356C369.407 362.651 366.732 365.32 363.43 365.32H347.965C344.663 365.32 341.988 362.651 341.988 359.356C341.988 356.06 344.663 353.391 347.965 353.391H363.43C366.732 353.391 369.407 356.06 369.407 359.356Z" fill="white"/>
<path d="M429.291 196.968L425.302 200.125C424.686 200.612 423.791 200.113 423.884 199.335L424.709 192.187C424.802 191.409 425.779 191.131 426.267 191.746L429.43 195.75C429.733 196.121 429.663 196.666 429.291 196.968Z" fill="url(#paint5_linear_2621_101656)"/>
<path d="M289.838 202.447L295.001 208.957C295.326 209.375 295.257 209.978 294.85 210.303L291.943 212.601C291.524 212.926 290.919 212.856 290.594 212.438L285.431 205.928C285.105 205.51 285.175 204.907 285.594 204.582L288.501 202.284C288.896 201.959 289.512 202.029 289.838 202.447Z" fill="url(#paint6_linear_2621_101656)"/>
<path d="M398.814 167.445L390.838 202.55C389.826 207.006 385.861 210.163 381.279 210.163H337.326C332.745 210.163 328.779 207.006 327.768 202.55L319.791 167.445H398.814Z" fill="#F3F1FC"/>
<path d="M398.814 167.445L390.838 202.55C390.058 205.985 387.524 208.642 384.303 209.687C384.954 208.724 385.442 207.621 385.71 206.426L391.651 180.315C392.698 175.708 389.186 171.321 384.454 171.321H320.675L319.791 167.445H398.814Z" fill="#D0CEF2"/>
<path d="M405.966 164.532V158.985C405.966 157.372 404.652 156.061 403.036 156.061H315.559C313.943 156.061 312.629 157.372 312.629 158.985V164.52C312.629 166.134 313.943 167.445 315.559 167.445H403.036C404.652 167.445 405.966 166.145 405.966 164.532Z" fill="#6EB954"/>
<path d="M312.641 163.918V164.533C312.641 166.146 313.955 167.457 315.571 167.457H403.048C404.664 167.457 405.978 166.146 405.978 164.533V163.918H312.641Z" fill="#4B9534"/>
<path d="M342.176 177.217V194.415C342.176 196.063 340.839 197.386 339.199 197.386C337.548 197.386 336.223 196.052 336.223 194.415V177.217C336.223 175.569 337.56 174.246 339.199 174.246C340.851 174.246 342.176 175.569 342.176 177.217Z" fill="#6EB954"/>
<path d="M355.582 177.217V194.415C355.582 196.063 354.245 197.386 352.606 197.386C350.966 197.386 349.629 196.052 349.629 194.415V177.217C349.629 175.569 350.966 174.246 352.606 174.246C354.245 174.246 355.582 175.569 355.582 177.217Z" fill="#6EB954"/>
<path d="M368.979 177.217V194.415C368.979 196.063 367.642 197.386 366.002 197.386C364.351 197.386 363.025 196.052 363.025 194.415V177.217C363.025 175.569 364.363 174.246 366.002 174.246C367.653 174.246 368.979 175.569 368.979 177.217Z" fill="#6EB954"/>
<path d="M382.385 177.217V194.415C382.385 196.063 381.048 197.386 379.408 197.386C377.757 197.386 376.432 196.052 376.432 194.415V177.217C376.432 175.569 377.769 174.246 379.408 174.246C381.048 174.246 382.385 175.569 382.385 177.217Z" fill="#6EB954"/>
<path d="M341.641 175.511C341.246 175.325 340.804 175.221 340.339 175.221C338.699 175.221 337.362 176.544 337.362 178.192V195.39C337.362 196.017 337.56 196.609 337.897 197.096C337.595 196.945 337.327 196.759 337.095 196.527C336.548 195.994 336.223 195.251 336.223 194.415V177.217C336.223 175.581 337.56 174.246 339.199 174.246C340.025 174.246 340.769 174.571 341.304 175.116C341.432 175.233 341.548 175.372 341.641 175.511Z" fill="#4B9534"/>
<path d="M355.047 175.511C354.652 175.325 354.21 175.221 353.745 175.221C352.106 175.221 350.768 176.544 350.768 178.192V195.39C350.768 196.017 350.966 196.609 351.303 197.096C351.001 196.945 350.733 196.759 350.489 196.527C349.954 195.994 349.617 195.251 349.617 194.415V177.217C349.617 175.581 350.943 174.246 352.594 174.246C353.42 174.246 354.164 174.571 354.699 175.116C354.838 175.233 354.943 175.372 355.047 175.511Z" fill="#4B9534"/>
<path d="M368.432 175.511C368.037 175.325 367.607 175.221 367.142 175.221C365.49 175.221 364.165 176.544 364.165 178.192V195.39C364.165 196.017 364.363 196.609 364.711 197.096C364.409 196.957 364.13 196.759 363.897 196.527C363.363 195.994 363.025 195.251 363.025 194.415V177.217C363.025 175.581 364.363 174.246 366.002 174.246C366.828 174.246 367.572 174.571 368.118 175.116C368.235 175.233 368.351 175.372 368.432 175.511Z" fill="#4B9534"/>
<path d="M381.85 175.511C381.455 175.325 381.013 175.221 380.548 175.221C378.908 175.221 377.571 176.544 377.571 178.192V195.39C377.571 196.017 377.769 196.609 378.106 197.096C377.804 196.945 377.536 196.759 377.304 196.527C376.757 195.994 376.432 195.251 376.432 194.415V177.217C376.432 175.581 377.769 174.246 379.408 174.246C380.234 174.246 380.978 174.571 381.513 175.116C381.629 175.233 381.746 175.372 381.85 175.511Z" fill="#4B9534"/>
<path d="M385.117 136.484C383.489 132.202 379.314 129.324 374.733 129.324H343.884C339.291 129.324 335.117 132.202 333.5 136.484L326.047 156.062H331.105L337.919 138.155C338.849 135.695 341.256 134.047 343.884 134.047H374.733C376.047 134.047 377.303 134.465 378.349 135.185C379.396 135.904 380.233 136.925 380.698 138.167L387.512 156.073H392.57L385.117 136.484Z" fill="#6EB954"/>
<path d="M373.419 128.813V134.558C373.419 136.055 372.21 137.262 370.71 137.262H349.535C348.035 137.262 346.826 136.055 346.826 134.558V128.813C346.826 127.316 348.035 126.109 349.535 126.109H370.71C372.21 126.109 373.419 127.328 373.419 128.813Z" fill="#4C5C75"/>
<path d="M352.723 126.109H350.99V137.262H352.723V126.109Z" fill="#111D33"/>
<path d="M358.235 126.109H356.502V137.262H358.235V126.109Z" fill="#111D33"/>
<path d="M363.746 126.109H362.014V137.262H363.746V126.109Z" fill="#111D33"/>
<path d="M369.258 126.109H367.525V137.262H369.258V126.109Z" fill="#111D33"/>
<path d="M395.734 220.539C395.734 221.107 379.873 221.572 360.303 221.572C340.745 221.572 324.873 221.107 324.873 220.539C324.873 219.97 340.734 219.506 360.303 219.506C379.861 219.506 395.734 219.97 395.734 220.539Z" fill="#D0CEF2"/>
<path d="M404.291 249.446V270.067C404.291 271.924 402.779 273.421 400.93 273.421H312.372C310.512 273.421 309.012 271.913 309.012 270.067V249.446C309.012 247.589 310.523 246.092 312.372 246.092H400.93C402.791 246.08 404.291 247.589 404.291 249.446Z" fill="#FFDD99"/>
<path d="M423.477 295.772C423.477 297.687 421.919 299.254 419.989 299.254H293.303C291.384 299.254 289.814 297.699 289.814 295.772C289.814 293.858 291.373 292.291 293.303 292.291H419.989C421.919 292.291 423.477 293.846 423.477 295.772Z" fill="#F3F1FC"/>
<path d="M406.466 313.366C406.466 315.281 404.907 316.848 402.977 316.848H310.303C308.384 316.848 306.814 315.293 306.814 313.366C306.814 311.451 308.373 309.885 310.303 309.885H402.977C404.907 309.885 406.466 311.44 406.466 313.366Z" fill="#F3F1FC"/>
<path d="M303.327 91.9329V118.415C303.327 120.759 301.42 122.663 299.071 122.663H208.873C206.524 122.663 204.617 120.759 204.617 118.415V91.9329C204.617 89.5887 206.524 87.6855 208.873 87.6855H299.071C301.42 87.6972 303.327 89.5887 303.327 91.9329Z" fill="#BF7D5A"/>
<path d="M253.5 135.36C254.662 136.88 252.441 138.899 251.011 139.955C251.162 140.106 251.232 140.106 251.325 140.35C252.116 142.462 248.616 146.245 247.139 148.403C246.569 149.262 245.686 151.003 244.895 152.871C244.128 154.763 243.441 156.747 243.267 158.082C240.139 174.05 232.581 207.588 223.662 210.524C208.476 215.491 180.279 219.762 180.279 219.762L178.697 190.32L188.721 189.508L209.209 187.837L229.593 144.423C230.116 139.212 230.918 134.547 233.209 129.824C236.407 123.244 242.709 118.718 249.139 115.202C250 114.715 250.907 114.262 251.895 114.216C252.86 114.192 253.918 114.726 254.186 115.643V115.666C254.383 116.409 254.081 117.094 253.593 117.709C253.302 118.08 252.953 118.44 252.604 118.741C249.127 121.817 245.639 124.904 242.162 127.979C243.128 127.19 247.407 123.848 248.953 126.633C249.662 127.956 248.139 129.65 246.709 130.857C245.779 131.426 245.034 132.064 244.79 132.284C245.081 132.11 245.872 131.553 246.709 130.857C248.314 129.87 250.476 129.058 251.488 130.903C252.372 132.528 249.918 134.71 248.465 135.812C249.79 134.919 252.244 133.735 253.5 135.36Z" fill="#F7A386"/>
<path d="M251.873 114.205C250.884 114.251 249.977 114.715 249.117 115.191C242.687 118.707 236.384 123.245 233.187 129.813C230.896 134.536 230.105 139.201 229.57 144.412L209.187 187.837L208.314 187.907L209.652 187.849L230.361 144.957C230.896 139.747 231.687 135.082 233.977 130.358C237.175 123.779 243.477 119.253 249.907 115.736C250.768 115.249 251.675 114.796 252.663 114.75C253.012 114.75 253.396 114.82 253.721 114.947C253.28 114.448 252.547 114.181 251.873 114.205Z" fill="#FEE1BC"/>
<path d="M251.011 139.955C251.162 140.106 251.232 140.106 251.325 140.35C252.116 142.462 248.616 146.245 247.139 148.404C246.569 149.262 245.686 151.003 244.895 152.872C244.128 154.763 243.441 156.748 243.267 158.082C240.139 174.05 232.581 207.588 223.662 210.524C208.476 215.491 180.279 219.762 180.279 219.762L178.697 190.32L188.721 189.508C189.511 190.692 189.872 192.235 190.151 193.686C191.093 198.397 192.069 203.074 193.011 207.786C193.337 209.387 192.697 211.592 194 212.602C200.674 217.905 210.941 209.526 217.86 204.571C224.802 199.627 228.023 191.423 233.081 184.576C235.837 180.839 236.895 176.104 237.337 171.497C237.779 166.879 237.686 162.19 238.488 157.618C239.255 153.046 241.046 148.45 244.569 145.41C245.872 144.284 247.476 143.228 247.814 141.557C248.255 139.468 246.488 137.623 244.988 136.103C242.569 133.619 240.29 130.254 241.267 126.935C242.058 124.161 244.837 122.49 247.395 121.109C249.465 119.983 251.511 118.846 253.581 117.697C253.29 118.069 252.941 118.428 252.593 118.73C249.116 121.805 245.627 124.892 242.151 127.968C243.116 127.178 247.395 123.836 248.941 126.621C249.651 127.944 248.128 129.639 246.697 130.846C248.302 129.859 250.465 129.047 251.476 130.892C252.36 132.517 249.907 134.698 248.453 135.801C249.814 134.919 252.267 133.735 253.523 135.36C254.662 136.88 252.441 138.899 251.011 139.955Z" fill="url(#paint7_linear_2621_101656)"/>
<path d="M194.372 387.37H81.035C69.0816 359.46 86.1164 344.78 86.1164 344.78C86.1164 344.78 184.454 314.851 183.175 337.434C182.989 340.59 183.093 343.828 183.396 347.089C185.151 367.107 194.372 387.37 194.372 387.37Z" fill="#4C5C75"/>
<path d="M183.395 347.078C179.395 351.754 174.058 355.665 169.082 358.311C163.977 361.003 158.454 362.849 152.779 363.823C138.5 366.284 123.768 363.742 109.837 359.727C105.616 358.508 100.233 357.487 97.4769 360.911C95.6862 363.173 95.9885 366.585 97.5002 369.057C98.9885 371.541 101.477 373.246 103.942 374.732C114.954 381.405 127.582 385.443 140.43 386.36C138.535 382.971 138.337 379.757 139.895 374.79C141.221 382.089 142.105 381.579 147.802 385.35C148.698 385.965 149.64 386.592 150.396 387.37H81.035C69.0816 359.46 86.1164 344.78 86.1164 344.78C86.1164 344.78 184.454 314.851 183.175 337.434C182.989 340.59 183.093 343.828 183.395 347.078Z" fill="#111D33"/>
<path d="M149.115 149.761C148.673 150.864 145.476 150.272 145.476 150.272C145.476 150.272 145.999 152.291 146.266 154.983C146.359 155.865 146.394 156.782 146.394 157.757C146.371 159.324 146.22 160.948 145.801 162.445C145.51 163.432 145.115 164.383 144.569 165.219C141.545 169.71 128.441 166.345 128.441 166.345L127.696 172.565L100.348 174.039C100.348 174.039 103.278 170.604 101.092 146.001C100.15 135.244 105.813 127.468 113.15 122.339C122.627 115.701 134.917 113.473 139.499 114.924C145.01 116.641 145.871 126.772 145.848 133.201V133.445C145.824 136.416 145.603 138.528 145.603 138.528C145.603 138.528 150.313 146.802 149.115 149.761Z" fill="#F7A386"/>
<path d="M145.813 162.433C145.522 163.419 145.127 164.371 144.58 165.207C141.557 169.698 128.452 166.332 128.452 166.332L127.708 172.552L100.359 174.026C100.359 174.026 103.29 170.591 101.104 145.989C100.162 135.231 105.824 127.456 113.162 122.327C114.266 122.28 115.359 122.35 116.464 122.501C119.22 122.849 116.999 124.659 119.138 126.446C122.313 129.127 121.697 132.841 123.766 135.974C126.104 139.537 127.138 143.935 126.545 148.159C126.15 151.014 125.045 153.903 125.58 156.735C126.197 159.984 134.15 161.737 137.429 162.004C140.185 162.224 143.185 160.971 145.604 162.294C145.662 162.317 145.743 162.363 145.813 162.433Z" fill="url(#paint8_linear_2621_101656)"/>
<path d="M182.546 346.961C146.918 343.886 101.616 359.193 80.2206 346.961C68.4532 340.254 83.6625 315.21 83.6625 299.393C83.6625 270.277 42.5462 224.252 66.9183 196.238C68.2904 194.671 69.6974 193.197 71.1276 191.863C95.4299 168.932 129.407 174.664 129.407 174.664C129.407 174.664 172.465 189.925 166.011 229.683C162.29 252.73 177.907 297.211 184.162 324.262C187.372 338.142 188.116 347.437 182.546 346.961Z" fill="#FFD475"/>
<path d="M129.535 174.7C111.419 179.563 97.7792 181.361 89.8955 179.737C89.8955 179.737 88.2676 175.269 89.7443 171.068C90.8024 168.074 93.4652 165.219 99.442 164.233C113.256 161.9 124.954 166.693 129.302 170.348C129.477 170.476 129.628 170.615 129.768 170.743C130.849 171.776 129.535 174.7 129.535 174.7Z" fill="#FFB961"/>
<path d="M132.988 176.162C132.988 176.162 146.546 175.164 163.802 180.897C181.07 186.63 182.465 183.52 186.198 188.104C191.988 195.217 188.953 216.907 182.698 223.626C176.977 229.765 149.628 229.614 149.628 229.614L132.988 176.162Z" fill="#FFD475"/>
<path d="M247.441 136.497C247.546 136.404 247.918 136.126 248.418 135.812C247.93 136.172 247.558 136.428 247.441 136.497Z" fill="#F7A386"/>
<path d="M250.082 117.801C250.547 118.532 251.71 118.625 252.675 118.01C253.628 117.395 254.024 116.304 253.558 115.573C253.093 114.842 251.931 114.749 250.965 115.364C250.012 115.979 249.617 117.07 250.082 117.801Z" fill="#FEE1BC"/>
<path d="M157.489 113.148C156.21 115.55 153.128 117.894 147.687 120.052C147.687 120.052 148.594 125.971 140.454 124.996C132.326 124.033 143.454 140.152 138.954 142.392C134.454 144.631 133.291 130.868 128.373 131.239C123.454 131.611 130.663 153.451 126.942 157.083C123.221 160.716 102.931 163.246 98.1866 158.731C97.6749 158.244 97.0005 157.408 96.1982 156.294C89.1052 146.198 72.9772 113.078 98.8377 111.743C98.8377 111.743 90.547 95.9144 111.396 92.1892C128.652 89.1371 163.64 101.694 157.489 113.148Z" fill="#8A4852"/>
<path d="M145.023 134.709C145.023 135.939 144.57 136.948 144 136.948C143.442 136.948 142.977 135.939 142.977 134.709C142.977 133.455 143.442 132.469 144 132.469C144.57 132.457 145.023 133.455 145.023 134.709Z" fill="#111D33"/>
<path d="M144.733 135.498C144.733 135.939 144.57 136.299 144.372 136.299C144.175 136.299 144.012 135.939 144.012 135.498C144.012 135.057 144.175 134.697 144.372 134.697C144.57 134.709 144.733 135.057 144.733 135.498Z" fill="white"/>
<path d="M129.535 174.699C111.419 179.562 97.7792 181.361 89.8955 179.736C89.8955 179.736 88.2676 175.268 89.7443 171.067C91.3257 171.926 93.0466 172.541 94.8373 172.866C97.942 173.435 101.116 173.179 104.268 172.912C107.372 172.645 110.5 172.402 113.605 172.146C118.849 171.705 124.116 171.264 129.291 170.348C129.465 170.475 129.616 170.615 129.756 170.742C130.849 171.775 129.535 174.699 129.535 174.699Z" fill="#EF9645"/>
<path d="M141.744 129.081C143.267 128.652 144.895 128.489 146.349 129.186C146.709 129.36 147.081 129.638 147.151 130.102C147.209 130.509 146.977 130.915 146.674 131.1C146.372 131.274 146.011 131.251 145.686 131.147C145.36 131.042 145.058 130.857 144.744 130.706C143.523 130.137 142.104 130.218 140.918 130.903C140.686 131.042 140.453 131.205 140.197 131.251C139.942 131.298 139.651 131.205 139.523 130.926C139.279 130.416 139.953 129.998 140.232 129.777C140.697 129.418 141.221 129.232 141.744 129.081Z" fill="#111D33"/>
<path d="M145.861 133.19V133.434C145.314 133.236 144.756 133.062 144.21 132.888C143.698 133.202 143.221 133.573 142.686 133.898C142.117 134.165 141.5 134.385 140.838 134.42C140.814 134.42 140.791 134.397 140.791 134.374C140.791 134.35 140.791 134.35 140.791 134.35C141.233 133.782 141.733 133.387 142.291 133.051C142.861 132.761 143.454 132.54 144.058 132.285L144.082 132.262C144.151 132.238 144.21 132.238 144.279 132.262C144.803 132.552 145.326 132.877 145.861 133.19Z" fill="#111D33"/>
<path d="M146.408 157.745C144.78 157.2 142.745 156.167 140.57 154.275C140.838 154.368 143.256 155.239 146.28 154.983C146.361 155.854 146.408 156.782 146.408 157.745Z" fill="#E27659"/>
<path d="M147.686 120.053C147.686 120.053 148.593 125.971 140.453 124.996C132.325 124.033 143.453 140.152 138.953 142.392C134.453 144.632 133.29 130.868 128.372 131.24C123.453 131.611 130.662 153.451 126.941 157.084C123.221 160.716 102.93 163.246 98.1856 158.731C97.674 158.244 96.9996 157.409 96.1973 156.294C98.267 156.028 100.43 156.167 102.43 156.469C107.104 157.2 111.965 158.534 116.395 156.933C119.058 155.97 121.488 153.521 121.314 150.713C121.186 148.31 119.314 146.442 118.232 144.295C116.755 141.394 116.802 137.762 118.36 134.884C119.907 132.006 122.918 129.963 126.162 129.58C127.837 129.383 129.802 129.476 130.837 128.153C131.918 126.749 131.081 124.544 129.604 123.557C128.127 122.548 126.255 122.397 124.465 122.188C122.697 121.967 120.79 121.619 119.546 120.343C117.127 117.836 118.814 113.264 121.907 111.639C124.988 109.991 128.721 110.386 132.174 110.804C138.127 111.546 144.069 112.301 150.023 113.066C152.488 113.38 155.069 113.658 157.465 113.159C156.221 115.55 153.127 117.906 147.686 120.053Z" fill="#51383C"/>
<path d="M134.987 135.591C136.371 139.153 135.569 142.762 133.232 143.668C130.871 144.584 127.848 142.437 126.464 138.875C125.08 135.312 125.871 131.68 128.243 130.775C130.569 129.869 133.604 132.028 134.987 135.591Z" fill="#F7A386"/>
<path d="M98.8602 111.744C98.8602 111.744 104.732 110.212 112.104 117.001C112.104 117.001 98.1625 110.804 92.709 112.893C94.3718 112.336 96.1625 111.86 98.8602 111.744Z" fill="#51383C"/>
<path d="M182.546 346.962C146.918 343.887 101.616 359.193 80.2206 346.962C68.4532 340.254 83.6625 315.211 83.6625 299.394C83.6625 270.277 42.5462 224.252 66.9183 196.238C68.2904 194.672 69.6974 193.198 71.1276 191.863C71.523 192.258 71.895 192.629 72.2788 193.024C78.7322 199.824 81.4648 209.468 82.9648 218.508C84.9067 230.101 85.6043 242.391 91.9299 252.313C95.4299 257.837 100.453 262.212 104.581 267.306C108.697 272.389 112.023 278.737 111.128 285.213C110.221 291.746 105.314 296.887 101.058 301.947C96.802 307.006 92.8136 313.343 94.2439 319.783C96.116 328.162 105.837 331.899 114.256 333.686C132.128 337.516 147.814 337.991 168.79 337.736C174.465 337.666 161.709 327.675 163.523 322.325C165.721 315.838 177.825 321.93 184.174 324.286C187.372 338.142 188.116 347.438 182.546 346.962Z" fill="#FFB961"/>
<path d="M423.268 147.636C423.268 155.817 416.617 162.455 408.419 162.455C400.21 162.455 393.57 155.817 393.57 147.636C393.57 139.443 400.221 132.816 408.419 132.816C416.628 132.805 423.268 139.443 423.268 147.636Z" fill="#F45170"/>
<path d="M419.36 147.637C419.36 153.66 414.465 158.557 408.418 158.557C402.372 158.557 397.477 153.671 397.477 147.637C397.477 141.602 402.372 136.717 408.418 136.717C414.465 136.717 419.36 141.602 419.36 147.637Z" fill="#DF3260"/>
<path d="M404.083 145.537C403.024 145.537 402.152 146.396 402.152 147.464C402.152 148.531 403.013 149.39 404.083 149.39H412.769C413.827 149.39 414.699 148.531 414.699 147.464C414.699 146.407 413.838 145.537 412.769 145.537H404.083Z" fill="#F45170"/>
<path d="M219.325 107.086L217.741 102.757C217.663 102.565 217.582 102.337 217.498 102.073C217.414 101.809 217.33 101.524 217.246 101.218C217.168 101.524 217.087 101.812 217.003 102.082C216.919 102.346 216.838 102.577 216.76 102.775L215.185 107.086H219.325ZM223.6 112H221.728C221.518 112 221.347 111.949 221.215 111.847C221.083 111.739 220.984 111.607 220.918 111.451L219.946 108.796H214.555L213.583 111.451C213.535 111.589 213.442 111.715 213.304 111.829C213.166 111.943 212.995 112 212.791 112H210.901L216.022 98.986H218.488L223.6 112ZM230.199 105.124C229.947 104.818 229.671 104.602 229.371 104.476C229.077 104.35 228.759 104.287 228.417 104.287C228.081 104.287 227.778 104.35 227.508 104.476C227.238 104.602 227.007 104.794 226.815 105.052C226.623 105.304 226.476 105.628 226.374 106.024C226.272 106.414 226.221 106.876 226.221 107.41C226.221 107.95 226.263 108.409 226.347 108.787C226.437 109.159 226.563 109.465 226.725 109.705C226.887 109.939 227.085 110.11 227.319 110.218C227.553 110.32 227.814 110.371 228.102 110.371C228.564 110.371 228.957 110.275 229.281 110.083C229.605 109.891 229.911 109.618 230.199 109.264V105.124ZM232.422 98.626V112H231.063C230.769 112 230.583 111.865 230.505 111.595L230.316 110.704C229.944 111.13 229.515 111.475 229.029 111.739C228.549 112.003 227.988 112.135 227.346 112.135C226.842 112.135 226.38 112.03 225.96 111.82C225.54 111.61 225.177 111.307 224.871 110.911C224.571 110.509 224.337 110.014 224.169 109.426C224.007 108.838 223.926 108.166 223.926 107.41C223.926 106.726 224.019 106.09 224.205 105.502C224.391 104.914 224.658 104.404 225.006 103.972C225.354 103.54 225.771 103.204 226.257 102.964C226.743 102.718 227.289 102.595 227.895 102.595C228.411 102.595 228.852 102.676 229.218 102.838C229.584 103 229.911 103.219 230.199 103.495V98.626H232.422ZM240.412 105.124C240.16 104.818 239.884 104.602 239.584 104.476C239.29 104.35 238.972 104.287 238.63 104.287C238.294 104.287 237.991 104.35 237.721 104.476C237.451 104.602 237.22 104.794 237.028 105.052C236.836 105.304 236.689 105.628 236.587 106.024C236.485 106.414 236.434 106.876 236.434 107.41C236.434 107.95 236.476 108.409 236.56 108.787C236.65 109.159 236.776 109.465 236.938 109.705C237.1 109.939 237.298 110.11 237.532 110.218C237.766 110.32 238.027 110.371 238.315 110.371C238.777 110.371 239.17 110.275 239.494 110.083C239.818 109.891 240.124 109.618 240.412 109.264V105.124ZM242.635 98.626V112H241.276C240.982 112 240.796 111.865 240.718 111.595L240.529 110.704C240.157 111.13 239.728 111.475 239.242 111.739C238.762 112.003 238.201 112.135 237.559 112.135C237.055 112.135 236.593 112.03 236.173 111.82C235.753 111.61 235.39 111.307 235.084 110.911C234.784 110.509 234.55 110.014 234.382 109.426C234.22 108.838 234.139 108.166 234.139 107.41C234.139 106.726 234.232 106.09 234.418 105.502C234.604 104.914 234.871 104.404 235.219 103.972C235.567 103.54 235.984 103.204 236.47 102.964C236.956 102.718 237.502 102.595 238.108 102.595C238.624 102.595 239.065 102.676 239.431 102.838C239.797 103 240.124 103.219 240.412 103.495V98.626H242.635ZM261.967 105.493C261.967 106.447 261.808 107.332 261.49 108.148C261.178 108.958 260.734 109.66 260.158 110.254C259.582 110.848 258.889 111.313 258.079 111.649C257.269 111.979 256.369 112.144 255.379 112.144C254.395 112.144 253.498 111.979 252.688 111.649C251.878 111.313 251.182 110.848 250.6 110.254C250.024 109.66 249.577 108.958 249.259 108.148C248.941 107.332 248.782 106.447 248.782 105.493C248.782 104.539 248.941 103.657 249.259 102.847C249.577 102.031 250.024 101.326 250.6 100.732C251.182 100.138 251.878 99.676 252.688 99.346C253.498 99.01 254.395 98.842 255.379 98.842C256.039 98.842 256.66 98.92 257.242 99.076C257.824 99.226 258.358 99.442 258.844 99.724C259.33 100 259.765 100.339 260.149 100.741C260.539 101.137 260.869 101.581 261.139 102.073C261.409 102.565 261.613 103.099 261.751 103.675C261.895 104.251 261.967 104.857 261.967 105.493ZM259.492 105.493C259.492 104.779 259.396 104.14 259.204 103.576C259.012 103.006 258.739 102.523 258.385 102.127C258.031 101.731 257.599 101.428 257.089 101.218C256.585 101.008 256.015 100.903 255.379 100.903C254.743 100.903 254.17 101.008 253.66 101.218C253.156 101.428 252.724 101.731 252.364 102.127C252.01 102.523 251.737 103.006 251.545 103.576C251.353 104.14 251.257 104.779 251.257 105.493C251.257 106.207 251.353 106.849 251.545 107.419C251.737 107.983 252.01 108.463 252.364 108.859C252.724 109.249 253.156 109.549 253.66 109.759C254.17 109.969 254.743 110.074 255.379 110.074C256.015 110.074 256.585 109.969 257.089 109.759C257.599 109.549 258.031 109.249 258.385 108.859C258.739 108.463 259.012 107.983 259.204 107.419C259.396 106.849 259.492 106.207 259.492 105.493ZM265.681 104.368C265.969 103.816 266.311 103.384 266.707 103.072C267.103 102.754 267.571 102.595 268.111 102.595C268.537 102.595 268.879 102.688 269.137 102.874L268.993 104.539C268.963 104.647 268.918 104.725 268.858 104.773C268.804 104.815 268.729 104.836 268.633 104.836C268.543 104.836 268.408 104.821 268.228 104.791C268.054 104.761 267.883 104.746 267.715 104.746C267.469 104.746 267.25 104.782 267.058 104.854C266.866 104.926 266.692 105.031 266.536 105.169C266.386 105.301 266.251 105.463 266.131 105.655C266.017 105.847 265.909 106.066 265.807 106.312V112H263.584V102.766H264.889C265.117 102.766 265.276 102.808 265.366 102.892C265.456 102.97 265.516 103.114 265.546 103.324L265.681 104.368ZM275.849 105.124C275.597 104.818 275.321 104.602 275.021 104.476C274.727 104.35 274.409 104.287 274.067 104.287C273.731 104.287 273.428 104.35 273.158 104.476C272.888 104.602 272.657 104.794 272.465 105.052C272.273 105.304 272.126 105.628 272.024 106.024C271.922 106.414 271.871 106.876 271.871 107.41C271.871 107.95 271.913 108.409 271.997 108.787C272.087 109.159 272.213 109.465 272.375 109.705C272.537 109.939 272.735 110.11 272.969 110.218C273.203 110.32 273.464 110.371 273.752 110.371C274.214 110.371 274.607 110.275 274.931 110.083C275.255 109.891 275.561 109.618 275.849 109.264V105.124ZM278.072 98.626V112H276.713C276.419 112 276.233 111.865 276.155 111.595L275.966 110.704C275.594 111.13 275.165 111.475 274.679 111.739C274.199 112.003 273.638 112.135 272.996 112.135C272.492 112.135 272.03 112.03 271.61 111.82C271.19 111.61 270.827 111.307 270.521 110.911C270.221 110.509 269.987 110.014 269.819 109.426C269.657 108.838 269.576 108.166 269.576 107.41C269.576 106.726 269.669 106.09 269.855 105.502C270.041 104.914 270.308 104.404 270.656 103.972C271.004 103.54 271.421 103.204 271.907 102.964C272.393 102.718 272.939 102.595 273.545 102.595C274.061 102.595 274.502 102.676 274.868 102.838C275.234 103 275.561 103.219 275.849 103.495V98.626H278.072ZM286.215 106.321C286.215 106.033 286.173 105.763 286.089 105.511C286.011 105.253 285.891 105.028 285.729 104.836C285.567 104.644 285.36 104.494 285.108 104.386C284.862 104.272 284.574 104.215 284.244 104.215C283.602 104.215 283.095 104.398 282.723 104.764C282.357 105.13 282.123 105.649 282.021 106.321H286.215ZM281.976 107.662C282.012 108.136 282.096 108.547 282.228 108.895C282.36 109.237 282.534 109.522 282.75 109.75C282.966 109.972 283.221 110.14 283.515 110.254C283.815 110.362 284.145 110.416 284.505 110.416C284.865 110.416 285.174 110.374 285.432 110.29C285.696 110.206 285.924 110.113 286.116 110.011C286.314 109.909 286.485 109.816 286.629 109.732C286.779 109.648 286.923 109.606 287.061 109.606C287.247 109.606 287.385 109.675 287.475 109.813L288.114 110.623C287.868 110.911 287.592 111.154 287.286 111.352C286.98 111.544 286.659 111.7 286.323 111.82C285.993 111.934 285.654 112.015 285.306 112.063C284.964 112.111 284.631 112.135 284.307 112.135C283.665 112.135 283.068 112.03 282.516 111.82C281.964 111.604 281.484 111.289 281.076 110.875C280.668 110.455 280.347 109.939 280.113 109.327C279.879 108.709 279.762 107.995 279.762 107.185C279.762 106.555 279.864 105.964 280.068 105.412C280.272 104.854 280.563 104.371 280.941 103.963C281.325 103.549 281.79 103.222 282.336 102.982C282.888 102.742 283.509 102.622 284.199 102.622C284.781 102.622 285.318 102.715 285.81 102.901C286.302 103.087 286.725 103.36 287.079 103.72C287.433 104.074 287.709 104.512 287.907 105.034C288.111 105.55 288.213 106.141 288.213 106.807C288.213 107.143 288.177 107.371 288.105 107.491C288.033 107.605 287.895 107.662 287.691 107.662H281.976ZM291.978 104.368C292.266 103.816 292.608 103.384 293.004 103.072C293.4 102.754 293.868 102.595 294.408 102.595C294.834 102.595 295.176 102.688 295.434 102.874L295.29 104.539C295.26 104.647 295.215 104.725 295.155 104.773C295.101 104.815 295.026 104.836 294.93 104.836C294.84 104.836 294.705 104.821 294.525 104.791C294.351 104.761 294.18 104.746 294.012 104.746C293.766 104.746 293.547 104.782 293.355 104.854C293.163 104.926 292.989 105.031 292.833 105.169C292.683 105.301 292.548 105.463 292.428 105.655C292.314 105.847 292.206 106.066 292.104 106.312V112H289.881V102.766H291.186C291.414 102.766 291.573 102.808 291.663 102.892C291.753 102.97 291.813 103.114 291.843 103.324L291.978 104.368Z" fill="white"/>
<path d="M327.723 255.006L324.229 265H322.493L319 255.006H320.682L322.787 261.268C322.851 261.45 322.919 261.671 322.992 261.931C323.07 262.19 323.14 262.452 323.204 262.717C323.272 262.981 323.325 263.216 323.361 263.421C323.398 263.216 323.448 262.981 323.512 262.717C323.58 262.452 323.651 262.19 323.724 261.931C323.797 261.671 323.865 261.448 323.929 261.261L326.041 255.006H327.723ZM330.478 257.433V265H328.871V257.433H330.478ZM329.685 254.534C329.931 254.534 330.143 254.6 330.32 254.732C330.503 254.865 330.594 255.092 330.594 255.416C330.594 255.735 330.503 255.963 330.32 256.1C330.143 256.232 329.931 256.298 329.685 256.298C329.429 256.298 329.213 256.232 329.035 256.1C328.862 255.963 328.775 255.735 328.775 255.416C328.775 255.092 328.862 254.865 329.035 254.732C329.213 254.6 329.429 254.534 329.685 254.534ZM335.796 257.289C336.47 257.289 337.049 257.428 337.532 257.706C338.015 257.984 338.387 258.378 338.646 258.889C338.906 259.399 339.036 260.01 339.036 260.721V261.582H333.984C334.003 262.316 334.199 262.881 334.572 263.277C334.951 263.674 335.479 263.872 336.158 263.872C336.641 263.872 337.074 263.826 337.457 263.735C337.844 263.64 338.243 263.501 338.653 263.318V264.624C338.275 264.802 337.89 264.932 337.498 265.014C337.106 265.096 336.637 265.137 336.09 265.137C335.347 265.137 334.693 264.993 334.128 264.706C333.567 264.414 333.128 263.981 332.809 263.407C332.494 262.833 332.337 262.12 332.337 261.268C332.337 260.42 332.48 259.7 332.768 259.107C333.055 258.515 333.458 258.064 333.978 257.754C334.497 257.444 335.103 257.289 335.796 257.289ZM335.796 258.499C335.29 258.499 334.88 258.663 334.565 258.991C334.256 259.319 334.073 259.8 334.019 260.434H337.464C337.459 260.055 337.396 259.72 337.272 259.429C337.154 259.137 336.972 258.909 336.726 258.745C336.484 258.581 336.174 258.499 335.796 258.499ZM347.034 264.993L346.077 261.473C346.032 261.299 345.977 261.09 345.913 260.844C345.849 260.598 345.785 260.345 345.722 260.085C345.658 259.821 345.599 259.577 345.544 259.354C345.494 259.13 345.455 258.957 345.428 258.834H345.373C345.35 258.957 345.314 259.13 345.264 259.354C345.214 259.577 345.157 259.821 345.093 260.085C345.029 260.349 344.965 260.607 344.901 260.857C344.842 261.108 344.787 261.322 344.737 261.5L343.732 264.993H341.969L339.85 257.426H341.477L342.461 261.186C342.525 261.441 342.586 261.716 342.646 262.013C342.709 262.309 342.764 262.591 342.81 262.86C342.855 263.129 342.889 263.35 342.912 263.523H342.967C342.985 263.4 343.01 263.245 343.042 263.059C343.074 262.867 343.11 262.669 343.151 262.464C343.192 262.254 343.233 262.058 343.274 261.876C343.315 261.689 343.354 261.539 343.391 261.425L344.553 257.426H346.31L347.424 261.425C347.474 261.598 347.529 261.817 347.588 262.081C347.647 262.341 347.7 262.603 347.745 262.867C347.795 263.127 347.827 263.343 347.841 263.517H347.896C347.914 263.362 347.946 263.152 347.991 262.888C348.041 262.619 348.098 262.334 348.162 262.033C348.226 261.728 348.292 261.445 348.36 261.186L349.365 257.426H350.965L348.832 264.993H347.034ZM364.938 259.989C364.938 260.759 364.84 261.461 364.644 262.095C364.452 262.724 364.163 263.266 363.775 263.722C363.388 264.173 362.903 264.521 362.319 264.768C361.736 265.014 361.052 265.137 360.269 265.137C359.471 265.137 358.778 265.014 358.19 264.768C357.607 264.521 357.122 264.171 356.734 263.715C356.352 263.259 356.064 262.715 355.873 262.081C355.682 261.448 355.586 260.746 355.586 259.976C355.586 258.946 355.755 258.048 356.092 257.282C356.434 256.512 356.951 255.915 357.644 255.491C358.341 255.063 359.22 254.849 360.282 254.849C361.321 254.849 362.185 255.061 362.873 255.484C363.561 255.908 364.076 256.505 364.418 257.275C364.764 258.041 364.938 258.946 364.938 259.989ZM357.309 259.989C357.309 260.759 357.413 261.427 357.623 261.992C357.833 262.553 358.154 262.986 358.587 263.291C359.024 263.592 359.585 263.742 360.269 263.742C360.957 263.742 361.517 263.592 361.95 263.291C362.383 262.986 362.702 262.553 362.907 261.992C363.112 261.427 363.215 260.759 363.215 259.989C363.215 258.818 362.98 257.902 362.511 257.241C362.046 256.576 361.303 256.243 360.282 256.243C359.599 256.243 359.036 256.394 358.594 256.694C358.156 256.995 357.833 257.426 357.623 257.986C357.413 258.542 357.309 259.21 357.309 259.989ZM370.755 257.289C370.882 257.289 371.021 257.296 371.172 257.31C371.322 257.323 371.452 257.341 371.562 257.364L371.411 258.868C371.315 258.841 371.197 258.82 371.056 258.807C370.919 258.793 370.796 258.786 370.687 258.786C370.399 258.786 370.126 258.834 369.866 258.93C369.606 259.021 369.376 259.162 369.176 259.354C368.975 259.54 368.818 259.775 368.704 260.058C368.59 260.34 368.533 260.668 368.533 261.042V265H366.92V257.433H368.178L368.396 258.766H368.472C368.622 258.497 368.809 258.251 369.032 258.027C369.256 257.804 369.511 257.626 369.798 257.494C370.09 257.357 370.409 257.289 370.755 257.289ZM375.506 265.137C374.604 265.137 373.879 264.809 373.332 264.152C372.79 263.492 372.519 262.519 372.519 261.233C372.519 259.935 372.794 258.952 373.346 258.287C373.902 257.622 374.633 257.289 375.54 257.289C375.923 257.289 376.258 257.341 376.545 257.446C376.832 257.547 377.078 257.683 377.283 257.856C377.493 258.03 377.671 258.223 377.816 258.438H377.892C377.869 258.296 377.841 258.093 377.81 257.829C377.782 257.56 377.769 257.312 377.769 257.084V254.363H379.382V265H378.124L377.837 263.968H377.769C377.632 264.187 377.459 264.385 377.249 264.562C377.044 264.736 376.798 264.875 376.511 264.979C376.228 265.084 375.893 265.137 375.506 265.137ZM375.957 263.831C376.645 263.831 377.131 263.633 377.413 263.236C377.696 262.84 377.841 262.245 377.851 261.452V261.24C377.851 260.393 377.714 259.743 377.44 259.292C377.167 258.836 376.668 258.608 375.943 258.608C375.365 258.608 374.923 258.843 374.617 259.312C374.316 259.777 374.166 260.427 374.166 261.261C374.166 262.095 374.316 262.733 374.617 263.175C374.923 263.612 375.369 263.831 375.957 263.831ZM384.7 257.289C385.375 257.289 385.953 257.428 386.437 257.706C386.92 257.984 387.291 258.378 387.551 258.889C387.811 259.399 387.94 260.01 387.94 260.721V261.582H382.889C382.907 262.316 383.103 262.881 383.477 263.277C383.855 263.674 384.383 263.872 385.062 263.872C385.546 263.872 385.979 263.826 386.361 263.735C386.749 263.64 387.147 263.501 387.558 263.318V264.624C387.179 264.802 386.794 264.932 386.402 265.014C386.01 265.096 385.541 265.137 384.994 265.137C384.251 265.137 383.597 264.993 383.032 264.706C382.472 264.414 382.032 263.981 381.713 263.407C381.398 262.833 381.241 262.12 381.241 261.268C381.241 260.42 381.385 259.7 381.672 259.107C381.959 258.515 382.362 258.064 382.882 257.754C383.401 257.444 384.007 257.289 384.7 257.289ZM384.7 258.499C384.194 258.499 383.784 258.663 383.47 258.991C383.16 259.319 382.978 259.8 382.923 260.434H386.368C386.364 260.055 386.3 259.72 386.177 259.429C386.058 259.137 385.876 258.909 385.63 258.745C385.388 258.581 385.078 258.499 384.7 258.499ZM393.587 257.289C393.715 257.289 393.854 257.296 394.004 257.31C394.154 257.323 394.284 257.341 394.394 257.364L394.243 258.868C394.147 258.841 394.029 258.82 393.888 258.807C393.751 258.793 393.628 258.786 393.519 258.786C393.231 258.786 392.958 258.834 392.698 258.93C392.438 259.021 392.208 259.162 392.008 259.354C391.807 259.54 391.65 259.775 391.536 260.058C391.422 260.34 391.365 260.668 391.365 261.042V265H389.752V257.433H391.01L391.229 258.766H391.304C391.454 258.497 391.641 258.251 391.864 258.027C392.088 257.804 392.343 257.626 392.63 257.494C392.922 257.357 393.241 257.289 393.587 257.289Z" fill="white"/>
</g>
<defs>
<linearGradient id="paint0_linear_2621_101656" x1="325.092" y1="71.4148" x2="386.316" y2="71.4148" gradientUnits="userSpaceOnUse">
<stop offset="1.1e-07" stop-color="#57B3FE"/>
<stop offset="1" stop-color="#497BFE"/>
</linearGradient>
<linearGradient id="paint1_linear_2621_101656" x1="264.035" y1="359.841" x2="447.371" y2="359.841" gradientUnits="userSpaceOnUse">
<stop offset="1.1e-07" stop-color="#57B3FE"/>
<stop offset="1" stop-color="#497BFE"/>
</linearGradient>
<linearGradient id="paint2_linear_2621_101656" x1="427.499" y1="80.1535" x2="432.647" y2="80.1535" gradientUnits="userSpaceOnUse">
<stop offset="1.1e-07" stop-color="#57B3FE"/>
<stop offset="1" stop-color="#497BFE"/>
</linearGradient>
<linearGradient id="paint3_linear_2621_101656" x1="427.499" y1="80.1535" x2="432.647" y2="80.1535" gradientUnits="userSpaceOnUse">
<stop offset="1.1e-07" stop-color="#57B3FE"/>
<stop offset="1" stop-color="#497BFE"/>
</linearGradient>
<linearGradient id="paint4_linear_2621_101656" x1="413.676" y1="114.973" x2="421.9" y2="114.973" gradientUnits="userSpaceOnUse">
<stop offset="1e-07" stop-color="#F7A386"/>
<stop offset="1" stop-color="#FD6B58"/>
</linearGradient>
<linearGradient id="paint5_linear_2621_101656" x1="423.875" y1="195.857" x2="429.619" y2="195.857" gradientUnits="userSpaceOnUse">
<stop offset="1.1e-07" stop-color="#57B3FE"/>
<stop offset="1" stop-color="#497BFE"/>
</linearGradient>
<linearGradient id="paint6_linear_2621_101656" x1="285.213" y1="207.446" x2="295.212" y2="207.446" gradientUnits="userSpaceOnUse">
<stop stop-color="#8FB7FF"/>
<stop offset="1" stop-color="#9FBCFC"/>
</linearGradient>
<linearGradient id="paint7_linear_2621_101656" x1="178.668" y1="168.734" x2="253.824" y2="168.734" gradientUnits="userSpaceOnUse">
<stop offset="1e-07" stop-color="#F7A386"/>
<stop offset="1" stop-color="#FD6B58"/>
</linearGradient>
<linearGradient id="paint8_linear_2621_101656" x1="100.357" y1="148.165" x2="145.814" y2="148.165" gradientUnits="userSpaceOnUse">
<stop offset="1e-07" stop-color="#F7A386"/>
<stop offset="1" stop-color="#FD6B58"/>
</linearGradient>
<clipPath id="clip0_2621_101656">
<rect width="500" height="427" fill="white"/>
</clipPath>
</defs>
</svg>
