<svg width="16" height="16" viewBox="0 0 16 16" fill="none" xmlns="http://www.w3.org/2000/svg">
<path d="M5.33203 1.33301V3.33301" stroke="#1C1C1C" stroke-miterlimit="10" stroke-linecap="round" stroke-linejoin="round"/>
<path d="M10.668 1.33301V3.33301" stroke="#1C1C1C" stroke-miterlimit="10" stroke-linecap="round" stroke-linejoin="round"/>
<path d="M2.33203 6.05957L13.6654 6.05957" stroke="#1C1C1C" stroke-miterlimit="10" stroke-linecap="round" stroke-linejoin="round"/>
<path d="M14 5.66634L14 11.333C14 13.333 13 14.6663 10.6667 14.6663L5.33333 14.6663C3 14.6663 2 13.333 2 11.333L2 5.66634C2 3.66634 3 2.33301 5.33333 2.33301L10.6667 2.33301C13 2.33301 14 3.66634 14 5.66634Z" stroke="#1C1C1C" stroke-miterlimit="10" stroke-linecap="round" stroke-linejoin="round"/>
<path d="M10.4625 9.13314H10.4685" stroke="#1C1C1C" stroke-linecap="round" stroke-linejoin="round"/>
<path d="M10.4625 11.1331H10.4685" stroke="#1C1C1C" stroke-linecap="round" stroke-linejoin="round"/>
<path d="M7.99764 9.13314H8.00363" stroke="#1C1C1C" stroke-linecap="round" stroke-linejoin="round"/>
<path d="M7.99764 11.1331H8.00363" stroke="#1C1C1C" stroke-linecap="round" stroke-linejoin="round"/>
<path d="M5.52889 9.13314H5.53488" stroke="#1C1C1C" stroke-linecap="round" stroke-linejoin="round"/>
<path d="M5.52889 11.1331H5.53488" stroke="#1C1C1C" stroke-linecap="round" stroke-linejoin="round"/>
</svg>
