<svg width="16" height="16" viewBox="0 0 16 16" fill="none" xmlns="http://www.w3.org/2000/svg">
<path d="M14.6667 10C14.6667 12.58 12.58 14.6667 10 14.6667L10.7 13.5" stroke="#004EFF" stroke-linecap="round" stroke-linejoin="round"/>
<path d="M1.33398 5.99992C1.33398 3.41992 3.42065 1.33325 6.00065 1.33325L5.30065 2.49992" stroke="#004EFF" stroke-linecap="round" stroke-linejoin="round"/>
<path d="M9.13379 2.96655L11.7871 4.49988L14.4138 2.97323" stroke="#004EFF" stroke-linecap="round" stroke-linejoin="round"/>
<path d="M11.7871 7.21318V4.49316" stroke="#004EFF" stroke-linecap="round" stroke-linejoin="round"/>
<path d="M11.1604 1.47325L9.56038 2.35989C9.20038 2.55989 8.90039 3.06655 8.90039 3.47988V5.17324C8.90039 5.58658 9.19372 6.09324 9.56038 6.29324L11.1604 7.17992C11.5004 7.37325 12.0604 7.37325 12.4071 7.17992L14.007 6.29324C14.367 6.09324 14.6671 5.58658 14.6671 5.17324V3.47988C14.6671 3.06655 14.3737 2.55989 14.007 2.35989L12.4071 1.47325C12.0671 1.28659 11.5071 1.28659 11.1604 1.47325Z" stroke="#004EFF" stroke-linecap="round" stroke-linejoin="round"/>
<path d="M1.56738 10.3L4.21405 11.8334L6.84738 10.3067" stroke="#004EFF" stroke-linecap="round" stroke-linejoin="round"/>
<path d="M4.21387 14.5467V11.8267" stroke="#004EFF" stroke-linecap="round" stroke-linejoin="round"/>
<path d="M3.59398 8.80675L1.99399 9.69339C1.63399 9.89339 1.33398 10.4 1.33398 10.8134V12.5067C1.33398 12.9201 1.62732 13.4267 1.99399 13.6267L3.59398 14.5134C3.93398 14.7067 4.49398 14.7067 4.84065 14.5134L6.44065 13.6267C6.80065 13.4267 7.10065 12.9201 7.10065 12.5067V10.8134C7.10065 10.4 6.80732 9.89339 6.44065 9.69339L4.84065 8.80675C4.49398 8.62008 3.93398 8.62008 3.59398 8.80675Z" stroke="#004EFF" stroke-linecap="round" stroke-linejoin="round"/>
</svg>
