<svg width="16" height="16" viewBox="0 0 16 16" fill="none" xmlns="http://www.w3.org/2000/svg">
<path d="M14 14.666H2C1.72667 14.666 1.5 14.4393 1.5 14.166C1.5 13.8927 1.72667 13.666 2 13.666H14C14.2733 13.666 14.5 13.8927 14.5 14.166C14.5 14.4393 14.2733 14.666 14 14.666Z" fill="white"/>
<path d="M12.6765 2.32043C11.3831 1.0271 10.1165 0.993764 8.7898 2.32043L7.98314 3.1271C7.91647 3.19376 7.8898 3.30043 7.91647 3.39376C8.42314 5.16043 9.83647 6.57376 11.6031 7.08043C11.6298 7.0871 11.6565 7.09376 11.6831 7.09376C11.7565 7.09376 11.8231 7.0671 11.8765 7.01376L12.6765 6.2071C13.3365 5.55376 13.6565 4.92043 13.6565 4.28043C13.6631 3.62043 13.3431 2.98043 12.6765 2.32043Z" fill="white"/>
<path d="M10.4056 7.68654C10.2122 7.5932 10.0256 7.49987 9.84558 7.3932C9.69891 7.30654 9.55891 7.2132 9.41891 7.1132C9.30558 7.03987 9.17224 6.9332 9.04558 6.82654C9.03224 6.81987 8.98558 6.77987 8.93224 6.72654C8.71224 6.53987 8.46558 6.29987 8.24558 6.0332C8.22558 6.01987 8.19224 5.9732 8.14558 5.9132C8.07891 5.8332 7.96558 5.69987 7.86558 5.54654C7.78558 5.44654 7.69224 5.29987 7.60558 5.1532C7.49891 4.9732 7.40558 4.7932 7.31224 4.60654C7.18987 4.34431 6.8457 4.26641 6.64108 4.47103L2.89224 8.21987C2.80558 8.30654 2.72558 8.4732 2.70558 8.58654L2.34558 11.1399C2.27891 11.5932 2.40558 12.0199 2.68558 12.3065C2.92558 12.5399 3.25891 12.6665 3.61891 12.6665C3.69891 12.6665 3.77891 12.6599 3.85891 12.6465L6.41891 12.2865C6.53891 12.2665 6.70558 12.1865 6.78558 12.0999L10.5406 8.34484C10.7411 8.14432 10.6658 7.79929 10.4056 7.68654Z" fill="white"/>
</svg>
