<svg width="40" height="40" viewBox="0 0 40 40" fill="none" xmlns="http://www.w3.org/2000/svg">
<path d="M22.8832 5.85002L25.8165 11.7167C26.2165 12.5334 27.2832 13.3167 28.1832 13.4667L33.4998 14.35C36.8998 14.9167 37.6998 17.3834 35.2498 19.8167L31.1165 23.95C30.4165 24.65 30.0332 26 30.2498 26.9667L31.4332 32.0834C32.3665 36.1334 30.2165 37.7 26.6332 35.5834L21.6498 32.6334C20.7498 32.1 19.2665 32.1 18.3498 32.6334L13.3665 35.5834C9.79985 37.7 7.63318 36.1167 8.56651 32.0834L9.74985 26.9667C9.96651 26 9.58318 24.65 8.88318 23.95L4.74985 19.8167C2.31651 17.3834 3.09985 14.9167 6.49985 14.35L11.8165 13.4667C12.6998 13.3167 13.7665 12.5334 14.1665 11.7167L17.0998 5.85002C18.6998 2.66669 21.2998 2.66669 22.8832 5.85002Z" stroke="#1C1C1C" stroke-width="2" stroke-linecap="round" stroke-linejoin="round"/>
</svg>
