<svg width="62" height="22" viewBox="0 0 62 22" fill="none" xmlns="http://www.w3.org/2000/svg">
<path d="M0 2C0 0.895431 0.895431 0 2 0H34C35.1046 0 36 0.895431 36 2V8H0V2Z" fill="#F28623"/>
<rect y="7" width="36" height="8" fill="#F0F5F9"/>
<path d="M18.6747 13.3921C20.2535 13.0195 21.2312 11.4376 20.8586 9.85881C20.486 8.28007 18.9041 7.30231 17.3254 7.67492C15.7466 8.04754 14.7689 9.62944 15.1415 11.2082C15.5141 12.7869 17.096 13.7647 18.6747 13.3921Z" fill="#00247D"/>
<path d="M19.1652 12.9007L19.2642 12.6602C19.2825 12.6168 19.3132 12.5796 19.3524 12.5535C19.3917 12.5273 19.4378 12.5133 19.4849 12.5131H19.7452C19.8083 12.5131 19.8687 12.4881 19.9133 12.4435C19.9579 12.3989 19.9829 12.3384 19.9829 12.2754V12.0151C19.9831 11.9679 19.9972 11.9219 20.0233 11.8826C20.0495 11.8434 20.0866 11.8127 20.1301 11.7944L20.3706 11.6953C20.4288 11.6709 20.475 11.6246 20.4994 11.5664C20.5237 11.5081 20.5242 11.4427 20.5007 11.3841L20.3989 11.1436C20.3815 11.1001 20.3773 11.0525 20.3869 11.0067C20.3964 10.9609 20.4193 10.9189 20.4526 10.8861L20.6366 10.7022C20.6587 10.6801 20.6763 10.6538 20.6883 10.6249C20.7003 10.5961 20.7065 10.5651 20.7065 10.5338C20.7065 10.5025 20.7003 10.4715 20.6883 10.4426C20.6763 10.4138 20.6587 10.3875 20.6366 10.3654L20.4526 10.1815C20.4196 10.1479 20.3971 10.1053 20.388 10.059C20.379 10.0127 20.3837 9.9648 20.4017 9.92119L20.5007 9.68068C20.5127 9.65171 20.5189 9.62065 20.5189 9.58929C20.5188 9.55792 20.5126 9.52688 20.5005 9.49795C20.4884 9.46902 20.4707 9.44277 20.4484 9.42071C20.4261 9.39865 20.3996 9.38122 20.3706 9.36942L20.1301 9.27039C20.0866 9.25208 20.0495 9.22139 20.0233 9.18215C19.9972 9.14291 19.9831 9.09684 19.9829 9.04968V8.78935C19.9829 8.72632 19.9579 8.66586 19.9133 8.62129C19.8687 8.57671 19.8083 8.55167 19.7452 8.55167H19.4849C19.4378 8.55148 19.3917 8.53744 19.3524 8.51128C19.3132 8.48512 19.2825 8.44799 19.2642 8.40453L19.1652 8.16402C19.1407 8.10582 19.0944 8.05956 19.0362 8.03521C18.978 8.01086 18.9125 8.01037 18.8539 8.03385L18.6134 8.13572C18.57 8.1531 18.5223 8.15727 18.4765 8.14771C18.4307 8.13814 18.3888 8.11527 18.3559 8.08196L18.172 7.89803C18.1499 7.87587 18.1237 7.85829 18.0948 7.8463C18.0659 7.8343 18.0349 7.82813 18.0036 7.82812C17.9723 7.82813 17.9414 7.8343 17.9125 7.8463C17.8836 7.85829 17.8573 7.87587 17.8353 7.89803L17.6513 8.08196C17.6177 8.11504 17.5751 8.1375 17.5288 8.14656C17.4825 8.15561 17.4346 8.15086 17.391 8.13289L17.1533 8.03385C17.1244 8.02184 17.0933 8.01569 17.0619 8.01573C17.0306 8.01578 16.9995 8.02204 16.9706 8.03414C16.9417 8.04623 16.9154 8.06394 16.8934 8.08623C16.8713 8.10852 16.8539 8.13496 16.8421 8.16402L16.743 8.40453C16.7247 8.44799 16.694 8.48512 16.6548 8.51128C16.6156 8.53744 16.5695 8.55148 16.5223 8.55167H16.262C16.199 8.55167 16.1385 8.57671 16.0939 8.62129C16.0494 8.66586 16.0243 8.72632 16.0243 8.78935V9.04968C16.0241 9.09684 16.0101 9.14291 15.9839 9.18215C15.9578 9.22139 15.9207 9.25208 15.8772 9.27039L15.6367 9.36942C15.5785 9.39385 15.5322 9.44017 15.5079 9.4984C15.4835 9.55663 15.483 9.62209 15.5065 9.68068L15.6084 9.92119C15.6258 9.96464 15.6299 10.0122 15.6204 10.0581C15.6108 10.1039 15.5879 10.1458 15.5546 10.1787L15.3707 10.3626C15.3485 10.3847 15.3309 10.4109 15.319 10.4398C15.307 10.4687 15.3008 10.4997 15.3008 10.531C15.3008 10.5623 15.307 10.5932 15.319 10.6221C15.3309 10.651 15.3485 10.6772 15.3707 10.6993L15.5546 10.8833C15.5877 10.9169 15.6102 10.9595 15.6192 11.0058C15.6283 11.052 15.6235 11.1 15.6055 11.1436L15.5065 11.3841C15.4945 11.4131 15.4883 11.4441 15.4884 11.4755C15.4884 11.5068 15.4947 11.5379 15.5068 11.5668C15.5189 11.5957 15.5366 11.622 15.5589 11.6441C15.5812 11.6661 15.6076 11.6835 15.6367 11.6953L15.8772 11.7944C15.9207 11.8127 15.9578 11.8434 15.9839 11.8826C16.0101 11.9219 16.0241 11.9679 16.0243 12.0151V12.2754C16.0243 12.3384 16.0494 12.3989 16.0939 12.4435C16.1385 12.4881 16.199 12.5131 16.262 12.5131H16.5223C16.5695 12.5133 16.6156 12.5273 16.6548 12.5535C16.694 12.5796 16.7247 12.6168 16.743 12.6602L16.8421 12.9007C16.8665 12.9589 16.9128 13.0052 16.9711 13.0296C17.0293 13.0539 17.0947 13.0544 17.1533 13.0309L17.3938 12.929C17.4373 12.9117 17.4849 12.9075 17.5307 12.9171C17.5765 12.9266 17.6185 12.9495 17.6513 12.9828L17.8353 13.1667C17.8573 13.1889 17.8836 13.2065 17.9125 13.2185C17.9414 13.2305 17.9723 13.2366 18.0036 13.2366C18.0349 13.2366 18.0659 13.2305 18.0948 13.2185C18.1237 13.2065 18.1499 13.1889 18.172 13.1667L18.3559 12.9828C18.3895 12.9497 18.4321 12.9273 18.4784 12.9182C18.5247 12.9092 18.5726 12.9139 18.6162 12.9319L18.8567 13.0309C18.9149 13.0543 18.98 13.0537 19.0378 13.0293C19.0955 13.005 19.1413 12.9587 19.1652 12.9007Z" fill="#F0F5F9"/>
<path d="M18.0187 8.20137L18.0017 8.09668L17.9847 8.20137C17.8744 8.9206 17.8744 9.65245 17.9847 10.3717L18.0017 10.4764L18.0187 10.3717C18.129 9.65245 18.129 8.9206 18.0187 8.20137ZM18.0187 10.6942L18.0017 10.5895L17.9847 10.6942C17.8744 11.4135 17.8744 12.1453 17.9847 12.8645L18.0017 12.9692L18.0187 12.8645C18.129 12.1453 18.129 11.4135 18.0187 10.6942ZM20.3333 10.5499L20.438 10.533L20.3333 10.516C19.6141 10.4056 18.8822 10.4056 18.163 10.516L18.0583 10.533L18.163 10.5499C18.8822 10.6603 19.6141 10.6603 20.3333 10.5499ZM17.8404 10.5499L17.9451 10.533L17.8404 10.516C17.1212 10.4056 16.3893 10.4056 15.6701 10.516L15.5654 10.533L15.6701 10.5499C16.3893 10.6603 17.1212 10.6603 17.8404 10.5499ZM19.6627 8.89462L19.7249 8.80974L19.64 8.87199C19.0504 9.30034 18.5319 9.81884 18.1036 10.4085L18.0413 10.4933L18.1262 10.4311C18.7158 10.0027 19.2343 9.48424 19.6627 8.89462ZM17.8998 10.6575L17.9621 10.5726L17.8772 10.6348C17.2876 11.0632 16.7691 11.5817 16.3407 12.1713L16.2785 12.2562L16.3634 12.1939C16.953 11.7656 17.4715 11.2471 17.8998 10.6575ZM19.64 12.1939L19.7249 12.2562L19.6627 12.1713C19.2343 11.5817 18.7158 11.0632 18.1262 10.6348L18.0413 10.5726L18.1036 10.6575C18.5319 11.2471 19.0504 11.7656 19.64 12.1939ZM17.8772 10.4311L17.9621 10.4933L17.8998 10.4085C17.4715 9.81884 16.953 9.30034 16.3634 8.87199L16.2785 8.80974L16.3407 8.89462C16.7691 9.48424 17.2876 10.0027 17.8772 10.4311ZM17.1245 8.37115L17.0679 8.26928L17.0934 8.37398C17.2658 9.08154 17.5464 9.75824 17.9253 10.3802L17.9791 10.4707L17.9564 10.366C17.783 9.66237 17.5024 8.98957 17.1245 8.37115ZM18.0781 10.6744L18.0243 10.5839L18.047 10.6886C18.2194 11.3961 18.5 12.0728 18.8789 12.6948L18.9355 12.7853L18.91 12.6806C18.7376 11.9731 18.457 11.2964 18.0781 10.6744ZM20.1635 9.65578L20.2541 9.59919L20.1494 9.62466C19.4418 9.79704 18.7651 10.0776 18.1432 10.4566L18.0526 10.5103L18.1573 10.4877C18.8649 10.3153 19.5416 10.0347 20.1635 9.65578ZM17.8602 10.6094L17.9508 10.5556L17.8461 10.5782C17.1385 10.7506 16.4618 11.0312 15.8399 11.4101L15.7494 11.4667L15.854 11.4413C16.5616 11.2689 17.2383 10.9883 17.8602 10.6094ZM18.91 8.3853L18.9355 8.26928L18.8789 8.35983C18.5 8.98175 18.2194 9.65845 18.047 10.366L18.0243 10.4707L18.0781 10.3802C18.456 9.76174 18.7365 9.08894 18.91 8.3853ZM17.9564 10.6886L17.9791 10.5839L17.9253 10.6744C17.5464 11.2964 17.2658 11.9731 17.0934 12.6806L17.0679 12.7966L17.1245 12.7061C17.5045 12.0807 17.7852 11.4001 17.9564 10.6886ZM20.1494 11.4413L20.2541 11.4667L20.1635 11.4101C19.5416 11.0312 18.8649 10.7506 18.1573 10.5782L18.0526 10.5556L18.1432 10.6094C18.7651 10.9883 19.4418 11.2689 20.1494 11.4413ZM17.8461 10.4877L17.9508 10.5103L17.8602 10.4566C17.2383 10.0776 16.5616 9.79704 15.854 9.62466L15.738 9.59919L15.8286 9.65578C16.454 10.0358 17.1346 10.3164 17.8461 10.4877Z" fill="#00247D"/>
<path d="M18.0028 11.115C18.3247 11.115 18.5857 10.854 18.5857 10.5321C18.5857 10.2102 18.3247 9.94922 18.0028 9.94922C17.6809 9.94922 17.4199 10.2102 17.4199 10.5321C17.4199 10.854 17.6809 11.115 18.0028 11.115Z" fill="#00247D"/>
<path d="M0 14H36V20C36 21.1046 35.1046 22 34 22H2C0.895431 22 0 21.1046 0 20V14Z" fill="#65B54E"/>
<path d="M44.8262 11.3652H47.2402V12.1738H44.8262V14.6699H44.0117V12.1738H41.6094V11.3652H44.0117V8.85742H44.8262V11.3652ZM54.084 11.0898C54.084 14.4414 52.7871 16.1172 50.1934 16.1172C49.7402 16.1172 49.3809 16.0781 49.1152 16V15.1621C49.4277 15.2637 49.7832 15.3145 50.1816 15.3145C51.1191 15.3145 51.8262 15.0254 52.3027 14.4473C52.7832 13.8652 53.0449 12.9746 53.0879 11.7754H53.0176C52.8027 12.0996 52.5176 12.3477 52.1621 12.5195C51.8066 12.6875 51.4062 12.7715 50.9609 12.7715C50.2031 12.7715 49.6016 12.5449 49.1562 12.0918C48.7109 11.6387 48.4883 11.0059 48.4883 10.1934C48.4883 9.30273 48.7363 8.59961 49.2324 8.08398C49.7324 7.56836 50.3887 7.31055 51.2012 7.31055C51.7832 7.31055 52.291 7.46094 52.7246 7.76172C53.1621 8.05859 53.498 8.49414 53.7324 9.06836C53.9668 9.63867 54.084 10.3125 54.084 11.0898ZM51.2012 8.14258C50.6426 8.14258 50.2109 8.32227 49.9062 8.68164C49.6016 9.04102 49.4492 9.54102 49.4492 10.1816C49.4492 10.7441 49.5898 11.1875 49.8711 11.5117C50.1523 11.832 50.5801 11.9922 51.1543 11.9922C51.5098 11.9922 51.8359 11.9199 52.1328 11.7754C52.4336 11.6309 52.6699 11.4336 52.8418 11.1836C53.0137 10.9336 53.0996 10.6719 53.0996 10.3984C53.0996 9.98828 53.0195 9.60938 52.8594 9.26172C52.6992 8.91406 52.4746 8.64062 52.1855 8.44141C51.9004 8.24219 51.5723 8.14258 51.2012 8.14258ZM58.9238 16H57.9746V9.89453C57.9746 9.38672 57.9902 8.90625 58.0215 8.45312C57.9395 8.53516 57.8477 8.62109 57.7461 8.71094C57.6445 8.80078 57.1797 9.18164 56.3516 9.85352L55.8359 9.18555L58.1035 7.43359H58.9238V16Z" fill="#1C1C1C"/>
</svg>
