<svg width="14" height="14" viewBox="0 0 14 14" fill="none" xmlns="http://www.w3.org/2000/svg">
<path d="M8.05625 2.55405L7.62292 1.93243C8.92292 2.09459 10.1146 2.74324 10.9542 3.7973L11.3875 3.44595C10.4667 2.31081 9.13958 1.58108 7.67708 1.39189L8.32708 0.932432L8.02917 0.5L6.62083 1.47297L7.59583 2.87838L8.05625 2.55405ZM5.94375 11.4189L6.37708 12.0405C5.07708 11.8784 3.88542 11.2297 3.04583 10.1757L2.6125 10.527C3.53333 11.6892 4.86042 12.3919 6.32292 12.5811L5.67292 13.0405L5.99792 13.5L7.40625 12.527L6.43125 11.1216L5.94375 11.4189ZM13.5 8.01351L12.525 6.60811L11.1167 7.58108L11.4417 8.04054L12.0646 7.60811C11.9021 8.90541 11.2521 10.0946 10.1958 10.9324L10.5479 11.3649C11.7125 10.4459 12.4167 9.12162 12.6063 7.66216L13.0667 8.31081L13.5 8.01351ZM2.55833 5.98649L1.93542 6.41892C2.07083 5.09459 2.74792 3.87838 3.80417 3.04054L3.45208 2.60811C2.2875 3.55405 1.55625 4.87838 1.39375 6.33784L0.933333 5.68919L0.5 6.01351L1.475 7.41892L2.88333 6.44595L2.55833 5.98649Z" fill="#004EFF"/>
<path d="M9.84635 8.271V5.70073C9.84635 5.48425 9.69279 5.21938 9.50537 5.11127H9.50565L7.27615 3.82425C7.08846 3.71614 6.7816 3.71614 6.59392 3.82425L4.36442 5.111C4.177 5.21884 4.02344 5.48425 4.02344 5.70127V8.27235C4.02344 8.48938 4.177 8.75425 4.36442 8.86181L6.59392 10.1483C6.7816 10.2564 7.08819 10.2564 7.27615 10.1483L9.50537 8.85884C9.69252 8.75343 9.84635 8.48587 9.84635 8.271ZM7.86358 8.36992L7.67752 7.9956H6.18875L6.00648 8.36992H5.11787L6.57848 5.38614C6.66108 5.22208 6.78892 5.14262 6.9349 5.14262C7.08115 5.14262 7.21494 5.23127 7.29104 5.38343L8.75165 8.36992H7.86358Z" fill="#004EFF"/>
<path d="M6.53906 7.29036H7.33667L6.938 6.46631L6.53906 7.29036Z" fill="#004EFF"/>
</svg>
