<svg width="16" height="16" viewBox="0 0 16 16" fill="none" xmlns="http://www.w3.org/2000/svg">
<path d="M10.0011 1.3335V8.00016C10.0011 8.7335 9.40114 9.3335 8.66781 9.3335H1.33447V4.00016C1.33447 2.52683 2.52781 1.3335 4.00114 1.3335H10.0011Z" stroke="#1C1C1C" stroke-linecap="round" stroke-linejoin="round"/>
<path d="M14.6678 9.3335V11.3335C14.6678 12.4402 13.7745 13.3335 12.6678 13.3335H12.0011C12.0011 12.6002 11.4011 12.0002 10.6678 12.0002C9.93447 12.0002 9.33447 12.6002 9.33447 13.3335H6.66781C6.66781 12.6002 6.06781 12.0002 5.33447 12.0002C4.60114 12.0002 4.00114 12.6002 4.00114 13.3335H3.33447C2.22781 13.3335 1.33447 12.4402 1.33447 11.3335V9.3335H8.66781C9.40114 9.3335 10.0011 8.7335 10.0011 8.00016V3.3335H11.2278C11.7078 3.3335 12.1478 3.5935 12.3878 4.00684L13.5278 6.00016H12.6678C12.3011 6.00016 12.0011 6.30016 12.0011 6.66683V8.66683C12.0011 9.0335 12.3011 9.3335 12.6678 9.3335H14.6678Z" stroke="#1C1C1C" stroke-linecap="round" stroke-linejoin="round"/>
<path d="M5.33431 14.6667C6.07069 14.6667 6.66764 14.0697 6.66764 13.3333C6.66764 12.597 6.07069 12 5.33431 12C4.59793 12 4.00098 12.597 4.00098 13.3333C4.00098 14.0697 4.59793 14.6667 5.33431 14.6667Z" stroke="#1C1C1C" stroke-linecap="round" stroke-linejoin="round"/>
<path d="M10.6678 14.6667C11.4042 14.6667 12.0011 14.0697 12.0011 13.3333C12.0011 12.597 11.4042 12 10.6678 12C9.93143 12 9.33447 12.597 9.33447 13.3333C9.33447 14.0697 9.93143 14.6667 10.6678 14.6667Z" stroke="#1C1C1C" stroke-linecap="round" stroke-linejoin="round"/>
<path d="M14.6676 8V9.33333H12.6676C12.301 9.33333 12.001 9.03333 12.001 8.66667V6.66667C12.001 6.3 12.301 6 12.6676 6H13.5276L14.6676 8Z" stroke="#1C1C1C" stroke-linecap="round" stroke-linejoin="round"/>
</svg>
