<svg width="73" height="76" viewBox="0 0 73 76" fill="none" xmlns="http://www.w3.org/2000/svg">
<path d="M57.757 9.91357L57.7248 24.5357L57.7149 24.5282V26.9065L54.4239 28.8161L44.9305 34.3292L48.028 36.1222L48.0007 45.5809L54.4537 41.8337L57.6926 39.9513L57.6827 44.8394C57.0205 45.0601 56.3955 45.3354 55.8276 45.6628C54.1908 46.6101 53.3178 47.8303 53.2162 49.0653C53.2137 49.0852 53.2137 49.105 53.2137 49.1273C53.2137 49.1273 53.2137 49.1298 53.2137 49.1323C53.2087 49.1968 53.2063 49.2637 53.2063 49.3257V51.027L53.2038 53.5442C53.2038 53.9361 53.2831 54.3304 53.4394 54.7148L49.6475 56.9121C49.2184 56.3466 48.6083 55.8184 47.8123 55.3571C46.4929 54.5908 44.8586 54.1146 43.1498 53.9311C43.0358 53.9187 42.9217 53.9088 42.8076 53.8989C42.5621 53.879 42.3166 53.8641 42.0711 53.8567C42.019 53.8542 41.9694 53.8517 41.9173 53.8517C39.4918 53.7947 37.0615 54.2981 35.2238 55.3596C33.4729 56.3714 32.5975 57.6982 32.6024 59.025L32.5975 63.1344V63.2435C32.5999 63.6378 32.6768 64.0321 32.8331 64.4165C32.6793 64.8034 32.6024 65.1977 32.6024 65.5921L32.5999 66.7205L21.3184 73.3148C16.9908 75.8345 9.92033 75.8196 5.56049 73.3148C3.38305 72.0401 2.26953 70.3809 2.26953 68.7045L2.37369 33.6025V32.9057L2.38857 26.3833C2.38857 28.0275 3.47233 29.704 5.67953 30.9638C10.0245 33.4835 17.095 33.4835 21.4226 30.9638L57.757 9.91357Z" stroke="#0C0C0C" stroke-width="1.34" stroke-linecap="round" stroke-linejoin="round"/>
<path d="M23.1508 68.6547C21.6328 69.5416 20.5486 70.1752 20.5486 70.1752C18.9068 71.13 16.5707 71.6781 14.1378 71.6806C11.695 71.6806 9.33899 71.1275 7.66747 70.1678C6.37539 69.4138 5.62891 68.5037 5.62891 67.6778L5.72811 33.501C8.04195 34.7955 11.0576 35.5122 14.2271 35.5122C17.4709 35.5122 20.5511 34.7608 22.8947 33.3968L54.3931 15.1465L54.4254 28.8162L44.9319 34.3293L48.0295 36.1223L48.0022 45.581L54.4551 41.8338L54.4675 46.5458C53.7508 47.2997 53.2399 48.2222 53.2176 49.0654C53.2151 49.0853 53.2151 49.1051 53.2151 49.1274C53.2151 49.1274 53.2151 49.1299 53.2151 49.1324L53.2077 51.0271L53.2052 51.3594L47.0821 54.9058C45.8843 54.395 44.5351 54.0676 43.1513 53.9312C43.0372 53.9188 42.9231 53.9089 42.8091 53.899C42.5635 53.8766 42.318 53.8642 42.0725 53.8568C42.0204 53.8543 41.9708 53.8518 41.9187 53.8518C39.4933 53.7948 37.0629 54.2982 35.2252 55.3597C33.4743 56.3715 32.5989 57.6983 32.6039 59.0251L32.5989 63.1345C32.5989 63.1345 26.6938 66.5847 23.1508 68.6547Z" stroke="#0C0C0C" stroke-width="1.34" stroke-linecap="round" stroke-linejoin="round" stroke-dasharray="12 12"/>
<path d="M13.917 22.3111L10.1699 24.4798C8.35209 25.5482 8.36796 27.2701 10.2017 28.3385C11.6368 29.1675 13.7736 29.359 15.4957 28.8806C15.7509 28.8327 15.99 28.7531 16.2132 28.6415C16.4364 28.5619 16.6596 28.4501 16.8669 28.3385L25.5253 23.3157L27.4545 22.1995L39.395 15.2899L53.218 7.28947L57.7782 9.9205L21.4274 30.9695C17.0901 33.4887 10.0266 33.4728 5.67344 30.9695C1.32029 28.4501 1.28855 24.3682 5.62558 21.8488L13.9011 17.0493L17.3937 15.0263L41.9606 0.799805L46.521 3.43083L39.363 7.57244L13.917 22.3111Z" stroke="#0C0C0C" stroke-width="1.34" stroke-linecap="round" stroke-linejoin="round"/>
<path d="M32.6021 65.5931L32.5977 69.813C32.6014 71.123 33.4632 72.4319 35.1855 73.4328C38.6506 75.4466 44.2782 75.4466 47.7589 73.4371C49.5184 72.4213 50.3966 71.0907 50.3929 69.7627L50.3971 65.5425C50.4008 66.8705 49.5227 68.201 47.7631 69.2168C44.2824 71.2264 38.6548 71.2264 35.1898 69.2126C33.4674 68.2117 32.6058 66.903 32.6021 65.5931Z" stroke="#0C0C0C" stroke-width="1.34" stroke-linecap="round" stroke-linejoin="round"/>
<path d="M47.7611 69.218C44.2817 71.2268 38.6546 71.2268 35.19 69.213C32.9481 67.911 32.1644 66.0882 32.8315 64.4167C33.1961 65.312 33.9798 66.1626 35.1851 66.8645C38.6496 68.8782 44.2767 68.8782 47.7587 66.8694C48.9937 66.1552 49.7947 65.2872 50.1593 64.3721C50.8438 66.0535 50.0427 67.9011 47.7611 69.218Z" stroke="#0C0C0C" stroke-width="1.34" stroke-linecap="round" stroke-linejoin="round"/>
<path d="M32.6021 59.0242L32.5977 63.2444C32.6014 64.5544 33.4632 65.8631 35.1855 66.864C38.6506 68.8778 44.2782 68.8778 47.7589 66.8682C49.5184 65.8524 50.3966 64.5219 50.3929 63.1938L50.3971 58.9736C50.4008 60.3017 49.5227 61.6322 47.7631 62.648C44.2824 64.6575 38.6548 64.6575 35.1898 62.6438C33.4674 61.6429 32.6058 60.3342 32.6021 59.0242Z" stroke="#0C0C0C" stroke-width="1.34" stroke-linecap="round" stroke-linejoin="round"/>
<path d="M35.2232 55.361C31.7426 57.3705 31.7242 60.63 35.1893 62.6437C38.6543 64.6575 44.2819 64.6575 47.7626 62.6479C51.2574 60.6302 51.2758 57.3708 47.8107 55.357C44.3457 53.3432 38.7181 53.3432 35.2232 55.361Z" stroke="#0C0C0C" stroke-width="1.34" stroke-linecap="round" stroke-linejoin="round"/>
<path d="M64.1083 49.2349C63.9491 49.1424 63.7539 49.1129 63.5203 49.1459C63.2877 49.1788 62.9888 49.256 62.625 49.3765L63.9377 50.1393C64.4746 49.7825 64.5314 49.4809 64.1083 49.2349Z" fill="#004EFF"/>
<path d="M59.8739 48.8955C59.8427 49.0483 59.9205 49.179 60.1075 49.2876C60.2868 49.3917 60.4937 49.4322 60.7288 49.4101C60.9639 49.3875 61.2486 49.3198 61.5844 49.206L60.2412 48.4253C60.0279 48.5862 59.9056 48.743 59.8739 48.8955Z" fill="#004EFF"/>
<path d="M69.6739 44.2881C66.2088 42.2744 60.5812 42.2744 57.0864 44.2921C53.6057 46.3017 53.5876 49.5614 57.0527 51.5751C60.5177 53.5889 66.1453 53.5886 69.626 51.5791C73.1208 49.5614 73.1389 46.3019 69.6739 44.2881ZM65.0286 49.9083C64.917 50.0931 64.7285 50.2716 64.4622 50.4442L64.8952 50.6962C64.948 50.727 64.9745 50.7624 64.9743 50.8026C64.974 50.8428 64.9453 50.8795 64.8882 50.9125C64.8349 50.9432 64.7741 50.9593 64.7077 50.9606C64.6402 50.9618 64.578 50.9457 64.5207 50.9125L64.0874 50.6608C63.6167 50.8996 63.1073 51.0828 62.559 51.2106C62.4898 51.2269 62.4152 51.2314 62.3356 51.2232C62.2565 51.2148 62.1897 51.1952 62.1369 51.1644C62.0677 51.1243 62.0308 51.0759 62.0273 51.0189C62.0233 50.9621 62.0583 50.9122 62.132 50.8698C62.1731 50.846 62.22 50.8284 62.2736 50.8165C62.7517 50.7104 63.1812 50.5566 63.5624 50.3555L62.1582 49.5395C61.8058 49.6578 61.4924 49.7466 61.2166 49.8074C60.9408 49.8674 60.6601 49.889 60.3766 49.8711C60.0931 49.8533 59.8315 49.7746 59.5912 49.635C59.3797 49.512 59.2368 49.3687 59.1614 49.2042C59.087 49.0398 59.0945 48.8635 59.1827 48.6755C59.272 48.4875 59.4496 48.3025 59.7159 48.1202L59.2884 47.8717C59.2356 47.841 59.2083 47.805 59.2065 47.7636C59.2043 47.7224 59.2306 47.6862 59.2839 47.6555C59.3367 47.625 59.4005 47.6094 59.4739 47.6094C59.5473 47.6094 59.6103 47.6247 59.6631 47.6555L60.0842 47.9003C60.5019 47.6781 60.9259 47.5112 61.355 47.4C61.5105 47.3576 61.6496 47.3718 61.7716 47.4427C61.8371 47.4806 61.8728 47.5278 61.8807 47.5846C61.8887 47.6414 61.8557 47.6912 61.782 47.7336C61.7575 47.7477 61.7168 47.7624 61.6598 47.7763C61.2828 47.8802 60.9289 48.021 60.5973 48.1986L62.0506 49.043C62.4147 48.9131 62.7346 48.8154 63.0104 48.7502C63.2866 48.6854 63.5706 48.6619 63.8623 48.6795C64.1541 48.6971 64.4329 48.7826 64.6973 48.9364C64.9133 49.0619 65.0499 49.2092 65.1082 49.3783C65.1665 49.5475 65.1402 49.7241 65.0286 49.9083Z" fill="#004EFF"/>
<path d="M53.2073 55.8936L53.2031 60.1138C53.2068 61.4238 54.0684 62.7327 55.7908 63.7336C59.2558 65.7474 64.8834 65.7471 68.3641 63.7376C70.1237 62.7218 71.0018 61.3913 70.9981 60.0632L71.0026 55.8433C71.0063 57.1713 70.1281 58.5018 68.3686 59.5176C64.8879 61.5272 59.2603 61.5272 55.7952 59.5134C54.0729 58.5125 53.2111 57.2035 53.2073 55.8936Z" stroke="#0C0C0C" stroke-width="1.34" stroke-linecap="round" stroke-linejoin="round"/>
<path d="M68.3693 59.5188C64.8874 61.5276 59.2602 61.5276 55.7957 59.5138C53.5513 58.2093 52.7676 56.3841 53.4397 54.715C53.8018 55.6128 54.5854 56.4634 55.7907 57.1653C59.2553 59.179 64.8824 59.179 68.3643 57.1702C69.5994 56.456 70.4004 55.588 70.765 54.6729C71.4494 56.3543 70.6509 58.2019 68.3693 59.5188Z" stroke="#0C0C0C" stroke-width="1.34" stroke-linecap="round" stroke-linejoin="round"/>
<path d="M53.2073 49.325L53.2031 53.545C53.2068 54.8549 54.0684 56.1639 55.7908 57.1648C59.2558 59.1785 64.8834 59.1785 68.3641 57.169C70.1237 56.1532 71.0018 54.8227 70.9981 53.4946L71.0026 49.2744C71.0063 50.6025 70.1281 51.933 68.3686 52.9488C64.8879 54.9583 59.2603 54.9583 55.7952 52.9446C54.0729 51.9436 53.2111 50.6349 53.2073 49.325Z" stroke="#0C0C0C" stroke-width="1.34" stroke-linecap="round" stroke-linejoin="round"/>
<path d="M55.8286 45.6617C52.3479 47.6713 52.3298 50.931 55.7949 52.9448C59.2599 54.9585 64.8875 54.9585 68.3682 52.949C71.863 50.9312 71.8811 47.6715 68.4161 45.6578C64.951 43.644 59.3234 43.644 55.8286 45.6617Z" stroke="#0C0C0C" stroke-width="1.34" stroke-linecap="round" stroke-linejoin="round"/>
<path d="M62.8492 27.5127L62.8225 36.9734L48 45.5817L48.0268 36.121L62.8492 27.5127Z" stroke="#0C0C0C" stroke-width="1.34" stroke-linecap="round" stroke-linejoin="round"/>
<path d="M62.8489 27.5128L48.0265 36.1211L44.9297 34.3293L57.7128 26.9061L57.7124 24.5283L62.8489 27.5128Z" stroke="#0C0C0C" stroke-width="1.34" stroke-linecap="round" stroke-linejoin="round"/>
<path d="M48.0259 36.1214L47.9991 45.5821L44.9023 43.7903L44.9291 34.3296L48.0259 36.1214Z" stroke="#0C0C0C" stroke-width="1.34" stroke-linecap="round" stroke-linejoin="round"/>
<path d="M51.6854 37.2736C52.5632 36.7669 53.2867 37.173 53.2896 38.188C53.2926 39.2094 52.5737 40.4483 51.6959 40.955C50.8069 41.4682 50.0889 41.0589 50.0859 40.0375C50.083 39.0225 50.7965 37.7868 51.6854 37.2736Z" fill="#0C0C0C"/>
<path d="M51.6854 37.2736C52.5632 36.7669 53.2867 37.173 53.2896 38.188C53.2926 39.2094 52.5737 40.4483 51.6959 40.955C50.8069 41.4682 50.0889 41.0589 50.0859 40.0375C50.083 39.0225 50.7965 37.7868 51.6854 37.2736Z" stroke="#0C0C0C" stroke-width="2.34893" stroke-linecap="round" stroke-linejoin="round"/>
<path d="M49.1734 9.62355L27.4509 22.2046L25.5207 23.3159L16.864 28.3314C16.6591 28.4485 16.4402 28.5653 16.2207 28.6385C15.9866 28.7553 15.7527 28.8284 15.4896 28.887C13.7789 29.3549 11.6438 29.165 10.1963 28.3314C8.52921 27.3662 8.3685 25.8601 9.71365 24.7927L42.4908 5.76318L49.1734 9.62355Z" fill="#0C0C0C"/>
<path d="M46.5356 3.43115L46.5158 8.08859L42.4883 5.76235L46.5356 3.43115Z" stroke="#0C0C0C" stroke-width="2.344" stroke-linecap="round" stroke-linejoin="round"/>
<path d="M67.9287 38.9431C67.8335 38.9431 67.7442 38.9057 67.6752 38.8385L66.1473 37.3088C66.0082 37.1697 66.0082 36.9433 66.1473 36.8041L67.6693 35.2822C67.737 35.2145 67.8263 35.1768 67.9215 35.1768C68.0167 35.1768 68.1063 35.2145 68.174 35.2817L69.7041 36.8113C69.8433 36.9505 69.8433 37.1771 69.7041 37.3158L68.1809 38.8385C68.1142 38.9062 68.0239 38.9431 67.9287 38.9431Z" fill="#0C0C0C"/>
<path d="M64.3826 20.2413C63.487 20.2413 62.7578 19.5123 62.7578 18.6167C62.7578 17.7211 63.487 16.9922 64.3826 16.9922C65.2852 16.9922 66.0188 17.7211 66.0188 18.6167C66.0188 19.5123 65.2852 20.2413 64.3826 20.2413Z" fill="#0C0C0C"/>
<path d="M68.5786 7.20145C68.4832 7.20145 68.3925 7.16417 68.3256 7.09632L66.7921 5.56328C66.6526 5.42434 66.6526 5.19716 66.7921 5.05698L68.3187 3.53239C68.3865 3.46454 68.476 3.42676 68.5714 3.42676C68.6669 3.42676 68.7563 3.46454 68.8242 3.53239L70.3567 5.06469C70.4962 5.20412 70.4962 5.43155 70.3567 5.57048L68.8314 7.09632C68.7646 7.16417 68.6741 7.20145 68.5786 7.20145Z" fill="#0C0C0C"/>
<path d="M17.9324 6.92984C17.0415 6.92984 16.3164 6.20473 16.3164 5.3138C16.3164 4.42286 17.0415 3.69775 17.9324 3.69775C18.8303 3.69775 19.5601 4.42286 19.5601 5.3138C19.5601 6.20473 18.8303 6.92984 17.9324 6.92984Z" fill="#0C0C0C"/>
<path d="M2.64126 6.94585C2.53032 6.94585 2.42475 6.90308 2.34703 6.8239L0.563102 5.04046C0.400841 4.87893 0.400841 4.61451 0.563102 4.45152L2.33873 2.67785C2.41791 2.59867 2.52201 2.55518 2.63295 2.55518C2.7439 2.55518 2.84776 2.59867 2.92693 2.67785L4.70965 4.46056C4.87191 4.62283 4.87191 4.88724 4.70965 5.04877L2.93524 6.8239C2.85753 6.90308 2.75221 6.94585 2.64126 6.94585Z" fill="#0C0C0C"/>
<path d="M12.7608 15.1088C12.6902 15.1088 12.6238 15.0808 12.5724 15.0309L11.437 13.8942C11.3335 13.7907 11.3335 13.6228 11.437 13.5193L12.5681 12.3882C12.6185 12.3378 12.6849 12.3101 12.7555 12.3101C12.8262 12.3101 12.8926 12.338 12.943 12.388L14.0801 13.5246C14.1836 13.6281 14.1836 13.7965 14.0801 13.8995L12.9483 15.0309C12.8988 15.0813 12.8315 15.1088 12.7608 15.1088Z" fill="#0C0C0C"/>
<path d="M65.6928 72.8705C64.6324 72.8705 63.7695 72.0076 63.7695 70.9472C63.7695 69.8868 64.6324 69.0239 65.6928 69.0239C66.7612 69.0239 67.6302 69.8868 67.6302 70.9472C67.6302 72.0076 66.7612 72.8705 65.6928 72.8705Z" fill="#0C0C0C"/>
<path d="M41.5289 60.569C41.5701 60.5452 41.6169 60.5276 41.6705 60.5157C42.1486 60.4096 42.5781 60.2556 42.9592 60.0545L41.5552 59.2386C41.2028 59.3569 40.8894 59.4462 40.6136 59.5067C40.3379 59.5667 40.0574 59.5883 39.774 59.5704C39.4905 59.5526 39.2287 59.474 38.9884 59.3344C38.7768 59.2114 38.634 59.0678 38.5586 58.9034C38.4842 58.739 38.4917 58.5627 38.58 58.3747C38.6692 58.1867 38.8468 58.0017 39.1131 57.8195L38.6858 57.5713C38.633 57.5405 38.6057 57.5043 38.604 57.4629C38.6018 57.4217 38.6278 57.3855 38.6811 57.3548C38.7339 57.3243 38.7977 57.3089 38.8711 57.3089C38.9445 57.3089 39.0075 57.324 39.0603 57.3548L39.4816 57.5998C39.8992 57.3776 40.323 57.2107 40.752 57.0996C40.9075 57.0572 41.0466 57.0711 41.1686 57.142C41.234 57.1799 41.2698 57.2271 41.2777 57.2838C41.2856 57.3406 41.2526 57.3905 41.179 57.4329C41.1542 57.447 41.1138 57.4616 41.0567 57.4755C40.6798 57.5794 40.3262 57.7205 39.9947 57.8978L41.4476 58.7422C41.8116 58.6123 42.1315 58.5146 42.4072 58.4493C42.6835 58.3846 42.9674 58.3611 43.259 58.3787C43.5509 58.3963 43.8296 58.4821 44.094 58.6358C44.3099 58.7613 44.4466 58.9083 44.5049 59.0775C44.5631 59.2466 44.5368 59.4234 44.4253 59.6076C44.3137 59.7924 44.1252 59.9709 43.8589 60.1435L44.2921 60.3952C44.3449 60.426 44.3712 60.4614 44.3709 60.5016C44.3707 60.5418 44.3419 60.5785 44.2849 60.6114C44.2316 60.6422 44.1708 60.6583 44.1044 60.6596C44.0369 60.6608 43.9747 60.6447 43.9174 60.6114L43.4842 60.3597C43.0135 60.5985 42.5042 60.7818 41.9559 60.9095C41.8867 60.9259 41.8121 60.9303 41.7325 60.9222C41.6534 60.9137 41.5869 60.8941 41.5341 60.8634C41.4649 60.8232 41.428 60.7749 41.4245 60.7178C41.4205 60.661 41.4552 60.6114 41.5289 60.569ZM43.3337 59.8383C43.8705 59.4814 43.9273 59.1799 43.5043 58.9339C43.3451 58.8414 43.1499 58.8121 42.9163 58.8451C42.6837 58.8781 42.3852 58.955 42.0211 59.0755L43.3337 59.8383ZM39.6383 58.1247C39.4251 58.2857 39.3026 58.4421 39.2708 58.5947C39.2396 58.7474 39.3177 58.8781 39.5047 58.9867C39.6839 59.0909 39.8905 59.1313 40.1256 59.1092C40.3607 59.0866 40.6451 59.0189 40.9811 58.9051L39.6383 58.1247Z" fill="#0C0C0C"/>
</svg>
