<svg width="16" height="17" viewBox="0 0 16 17" fill="none" xmlns="http://www.w3.org/2000/svg">
<path d="M4.7251 6.67892C4.7251 6.74108 4.74983 6.80069 4.79385 6.84464C4.83787 6.8886 4.89758 6.91329 4.95983 6.91329H10.7811C10.8433 6.91329 10.903 6.8886 10.9471 6.84464C10.9911 6.80069 11.0158 6.74108 11.0158 6.67892C11.0158 6.61676 10.9911 6.55715 10.9471 6.5132C10.903 6.46924 10.8433 6.44455 10.7811 6.44455H4.95983C4.89758 6.44455 4.83787 6.46924 4.79385 6.5132C4.74983 6.55715 4.7251 6.61676 4.7251 6.67892ZM6.08308 2.75307H6.59823V4.75865C6.59823 4.8524 6.71059 4.90208 6.82608 4.90208C6.94156 4.90208 7.05392 4.85302 7.05392 4.75865V2.75307H7.56563C7.6567 2.75307 7.70928 2.65526 7.70928 2.54651C7.70928 2.4487 7.6639 2.3437 7.56563 2.3437H6.08308C5.98481 2.3437 5.93943 2.4487 5.93943 2.54651C5.93943 2.6587 5.99201 2.75307 6.08308 2.75307ZM8.90358 7.38203H4.96014C4.89789 7.38203 4.83819 7.40672 4.79417 7.45067C4.75015 7.49463 4.72542 7.55424 4.72542 7.6164C4.72542 7.67856 4.75015 7.73817 4.79417 7.78212C4.83819 7.82608 4.89789 7.85077 4.96014 7.85077H8.90358C8.96583 7.85077 9.02553 7.82608 9.06955 7.78212C9.11357 7.73817 9.1383 7.67856 9.1383 7.6164C9.1383 7.55424 9.11357 7.49463 9.06955 7.45067C9.02553 7.40672 8.96583 7.38203 8.90358 7.38203ZM11.069 12.4185C11.2319 12.4184 11.3896 12.3619 11.5154 12.2587C11.6412 12.1555 11.7273 12.0119 11.759 11.8524C11.7907 11.6929 11.766 11.5274 11.6891 11.384C11.6123 11.2407 11.4881 11.1284 11.3376 11.0662C11.1871 11.0041 11.0197 10.996 10.8639 11.0433C10.7081 11.0905 10.5735 11.1903 10.4831 11.3255C10.3927 11.4608 10.3521 11.6231 10.3681 11.7849C10.3842 11.9467 10.4559 12.0979 10.5711 12.2129C10.6364 12.2782 10.714 12.33 10.7994 12.3652C10.8847 12.4005 10.9766 12.4186 11.069 12.4185ZM10.9031 11.5501C10.9415 11.5119 10.9919 11.4882 11.0458 11.483C11.0997 11.4778 11.1537 11.4914 11.1987 11.5214C11.2437 11.5515 11.2768 11.5963 11.2925 11.648C11.3081 11.6997 11.3054 11.7553 11.2846 11.8052C11.2639 11.8552 11.2264 11.8964 11.1786 11.9218C11.1309 11.9473 11.0758 11.9554 11.0227 11.9449C10.9696 11.9343 10.9218 11.9057 10.8874 11.8639C10.8531 11.8221 10.8343 11.7697 10.8343 11.7157C10.8342 11.6849 10.8401 11.6544 10.8519 11.626C10.8637 11.5976 10.8813 11.5718 10.9031 11.5501ZM4.76516 4.52397C4.40744 4.52397 4.31292 4.2546 4.17052 4.2546C4.06161 4.2546 3.97053 4.40147 3.97053 4.49959C3.97053 4.7024 4.32106 4.93364 4.78019 4.93364C5.26404 4.93364 5.61457 4.67459 5.61457 4.17397C5.61457 3.26774 4.48787 3.41805 4.48787 2.984C4.48787 2.81619 4.63153 2.71463 4.88378 2.71463C5.17829 2.71463 5.25935 2.84744 5.36763 2.84744C5.49282 2.84744 5.54978 2.68651 5.54978 2.6062C5.54978 2.37526 5.09065 2.32495 4.88378 2.32495C4.48067 2.32495 4.03219 2.50339 4.03219 3.02494C4.03219 3.85429 5.15888 3.69336 5.15888 4.21835C5.15763 4.42959 4.97548 4.52397 4.76516 4.52397ZM3.55146 5.97581H2.61255C2.42584 5.97598 2.24683 6.05011 2.1148 6.18193C1.98278 6.31375 1.90853 6.49249 1.90837 6.67892V7.6164C1.90853 7.80282 1.98278 7.98157 2.1148 8.11339C2.24683 8.24521 2.42584 8.31934 2.61255 8.31951H3.55146C3.73815 8.31926 3.91712 8.2451 4.04912 8.1133C4.18113 7.98149 4.2554 7.8028 4.25565 7.6164V6.67892C4.2554 6.49252 4.18113 6.31382 4.04912 6.18202C3.91712 6.05021 3.73815 5.97606 3.55146 5.97581ZM3.78619 7.6164C3.78611 7.67853 3.76135 7.7381 3.71735 7.78203C3.67335 7.82597 3.61369 7.85069 3.55146 7.85077H2.61255C2.5503 7.85077 2.49059 7.82608 2.44657 7.78212C2.40255 7.73817 2.37782 7.67856 2.37782 7.6164V6.67892C2.37782 6.61676 2.40255 6.55715 2.44657 6.5132C2.49059 6.46924 2.5503 6.44455 2.61255 6.44455H3.55146C3.61369 6.44463 3.67335 6.46935 3.71735 6.51329C3.76135 6.55722 3.78611 6.61679 3.78619 6.67892V7.6164ZM13.5606 11.2163C13.5388 11.1946 13.513 11.1773 13.4845 11.1655C13.456 11.1537 13.4255 11.1476 13.3947 11.1476C13.3639 11.1476 13.3334 11.1537 13.3049 11.1655C13.2765 11.1773 13.2506 11.1946 13.2288 11.2163L10.5686 13.8725C10.5455 13.894 10.527 13.9198 10.5142 13.9486C10.5014 13.9773 10.4945 14.0084 10.4939 14.0398C10.4934 14.0713 10.4991 14.1026 10.511 14.1318C10.5228 14.1609 10.5403 14.1874 10.5626 14.2097C10.5849 14.232 10.6115 14.2495 10.6407 14.2613C10.6699 14.2731 10.7012 14.2789 10.7327 14.2783C10.7643 14.2778 10.7953 14.2709 10.8241 14.2581C10.8529 14.2452 10.8788 14.2268 10.9003 14.2038L13.5606 11.5476C13.5824 11.5258 13.5997 11.5 13.6115 11.4716C13.6233 11.4432 13.6294 11.4127 13.6294 11.3819C13.6294 11.3512 13.6233 11.3207 13.6115 11.2923C13.5997 11.2639 13.5824 11.2381 13.5606 11.2163ZM15.3595 12.4804C15.4263 12.3764 15.4705 12.2596 15.4895 12.1376C15.5085 12.0156 15.5017 11.8909 15.4697 11.7716C15.4377 11.6523 15.3811 11.541 15.3035 11.4448C15.226 11.3486 15.1292 11.2696 15.0193 11.2129C14.9479 11.1762 14.8884 11.1198 14.848 11.0504C14.8077 10.981 14.788 10.9015 14.7915 10.8213C14.7973 10.698 14.7772 10.5747 14.7326 10.4595C14.6879 10.3444 14.6197 10.2397 14.5322 10.1524C14.4448 10.0651 14.34 9.99693 14.2246 9.95236C14.1093 9.90778 13.9858 9.88774 13.8623 9.89354C13.7821 9.89717 13.7026 9.87783 13.6331 9.8378C13.5636 9.79776 13.5071 9.73871 13.4701 9.6676C13.3873 9.50808 13.2579 9.37744 13.0991 9.29295C12.9402 9.20847 12.7595 9.17413 12.5807 9.19449V3.42899C12.5807 3.42118 12.5807 3.41337 12.5807 3.40555C12.5807 3.39774 12.5791 3.3943 12.5782 3.38868V3.38274C12.5782 3.37618 12.575 3.3693 12.5732 3.36274V3.36055C12.5713 3.35399 12.5688 3.34743 12.5663 3.34087V3.33931C12.5638 3.33312 12.561 3.32707 12.5578 3.32118V3.31837C12.555 3.31306 12.5519 3.30806 12.5487 3.30306L12.5459 3.29868C12.5428 3.29399 12.5394 3.28962 12.5359 3.28524C12.5348 3.2835 12.5335 3.28183 12.5322 3.28024C12.5284 3.27565 12.5245 3.27127 12.5203 3.26712L12.5168 3.26337L9.5436 0.294685L9.53359 0.291247L9.52044 0.279372L9.51543 0.27531L9.50229 0.265623L9.49791 0.26281C9.4929 0.259685 9.48789 0.25656 9.48257 0.253748L9.47944 0.252186C9.47381 0.249373 9.46786 0.246248 9.4616 0.243748H9.46004C9.45346 0.241248 9.44689 0.238748 9.44001 0.236873H9.43813C9.43124 0.234998 9.42467 0.233123 9.41779 0.231873H9.41215L9.39619 0.225936C9.38837 0.225469 9.38054 0.225469 9.37272 0.225936L1.67364 0.225936C1.36247 0.226267 1.06415 0.349836 0.844117 0.569528C0.624089 0.789221 0.500331 1.08709 0.5 1.39779V15.0537C0.500331 15.3644 0.624089 15.6623 0.844117 15.882C1.06415 16.1017 1.36247 16.2253 1.67364 16.2256H11.407C11.4561 16.2255 11.5039 16.2101 11.5438 16.1815C11.6162 16.1584 11.6852 16.1259 11.7491 16.085C11.8168 16.0419 11.8953 16.0191 11.9755 16.0191C12.0558 16.0191 12.1343 16.0419 12.202 16.085C12.3061 16.1516 12.423 16.1959 12.5452 16.2149C12.6674 16.2339 12.7923 16.2272 12.9118 16.1952C13.0312 16.1633 13.1427 16.1068 13.2391 16.0294C13.3354 15.952 13.4146 15.8553 13.4714 15.7456C13.5084 15.6745 13.5649 15.6155 13.6344 15.5754C13.7039 15.5353 13.7834 15.5159 13.8635 15.5194C13.987 15.525 14.1103 15.5048 14.2255 15.4601C14.3407 15.4155 14.4453 15.3473 14.5326 15.26C14.62 15.1727 14.6881 15.0681 14.7327 14.953C14.7773 14.8379 14.7973 14.7148 14.7915 14.5916C14.788 14.5115 14.8074 14.4321 14.8476 14.3628C14.8877 14.2934 14.9469 14.2369 15.0181 14.2C15.1279 14.1433 15.2247 14.0643 15.3023 13.9681C15.3798 13.8719 15.4364 13.7605 15.4684 13.6413C15.5005 13.522 15.5072 13.3973 15.4882 13.2753C15.4693 13.1533 15.425 13.0365 15.3583 12.9325C15.3152 12.8649 15.2925 12.7864 15.2927 12.7063C15.2929 12.6261 15.3161 12.5477 15.3595 12.4804ZM9.60745 1.02623L11.7792 3.19462H10.3116C10.1249 3.19446 9.94591 3.12033 9.81388 2.9885C9.68186 2.85668 9.60761 2.67794 9.60745 2.49151V1.02623ZM1.67364 15.7568C1.48693 15.7567 1.30791 15.6825 1.17589 15.5507C1.04387 15.4189 0.969622 15.2402 0.969456 15.0537V1.39779C0.969622 1.21136 1.04387 1.03262 1.17589 0.900795C1.30791 0.768972 1.48693 0.694841 1.67364 0.694676H9.13799V2.49151C9.13832 2.8022 9.26208 3.10008 9.48211 3.31977C9.70214 3.53946 10.0005 3.66303 10.3116 3.66336H12.1112V9.37136C12.0514 9.39165 11.9879 9.39828 11.9252 9.39076C11.8625 9.38325 11.8024 9.36177 11.7491 9.32792C11.645 9.26131 11.5281 9.21712 11.4059 9.19819C11.2837 9.17925 11.1589 9.18598 11.0394 9.21795C10.92 9.24992 10.8085 9.30643 10.7122 9.38385C10.6159 9.46128 10.5368 9.55792 10.48 9.6676C10.4429 9.73861 10.3863 9.79758 10.3169 9.83759C10.2474 9.87761 10.168 9.89702 10.0879 9.89354C9.96426 9.88775 9.84083 9.90779 9.72543 9.95236C9.61004 9.99693 9.50523 10.0651 9.41771 10.1524C9.33019 10.2397 9.26189 10.3443 9.21718 10.4595C9.17246 10.5747 9.15231 10.6979 9.15802 10.8213C9.1617 10.9014 9.14235 10.9808 9.10225 11.0502C9.06215 11.1195 9.00298 11.176 8.93174 11.2129C8.82188 11.2696 8.72509 11.3486 8.64754 11.4448C8.56999 11.541 8.5134 11.6523 8.48139 11.7716C8.44937 11.8909 8.44263 12.0156 8.4616 12.1376C8.48056 12.2596 8.52482 12.3764 8.59154 12.4804C8.63478 12.5479 8.65775 12.6263 8.65775 12.7064C8.65775 12.7866 8.63478 12.865 8.59154 12.9325C8.52482 13.0365 8.48056 13.1533 8.4616 13.2753C8.44263 13.3973 8.44937 13.522 8.48139 13.6413C8.5134 13.7605 8.56999 13.8719 8.64754 13.9681C8.72509 14.0643 8.82188 14.1433 8.93174 14.2C9.00295 14.2369 9.0621 14.2934 9.1022 14.3628C9.14229 14.4321 9.16166 14.5115 9.15802 14.5916C9.15232 14.7149 9.17245 14.8381 9.21715 14.9533C9.26185 15.0685 9.33012 15.1731 9.41761 15.2604C9.50509 15.3477 9.60986 15.4158 9.72522 15.4604C9.84057 15.505 9.96398 15.5251 10.0875 15.5194C10.1677 15.5158 10.2472 15.5352 10.3167 15.5753C10.3862 15.6154 10.4427 15.6745 10.4797 15.7456C10.4816 15.7493 10.4838 15.7531 10.486 15.7568H1.67364ZM15.0162 13.52C15.0013 13.5764 14.9747 13.6291 14.9381 13.6745C14.9015 13.72 14.8557 13.7572 14.8037 13.7838C14.6528 13.862 14.5275 13.9816 14.4425 14.1286C14.3574 14.2756 14.3163 14.4439 14.3239 14.6134C14.3266 14.6716 14.3171 14.7297 14.296 14.784C14.2749 14.8382 14.2428 14.8875 14.2015 14.9287C14.1603 14.9699 14.1109 15.002 14.0565 15.0231C14.0022 15.0441 13.944 15.0536 13.8858 15.0509C13.7159 15.0434 13.5475 15.0845 13.4003 15.1694C13.2531 15.2543 13.1332 15.3794 13.0548 15.53C13.028 15.5817 12.9907 15.6273 12.9452 15.6639C12.8997 15.7004 12.8471 15.727 12.7907 15.7421C12.7344 15.7572 12.6755 15.7604 12.6178 15.7515C12.5601 15.7425 12.5049 15.7217 12.4558 15.6903C12.3125 15.5989 12.146 15.5504 11.976 15.5504C11.806 15.5504 11.6395 15.5989 11.4962 15.6903C11.4471 15.7217 11.3919 15.7425 11.3342 15.7515C11.2766 15.7604 11.2177 15.7572 11.1613 15.7421C11.1049 15.727 11.0523 15.7004 11.0068 15.6639C10.9614 15.6273 10.924 15.5817 10.8972 15.53C10.8221 15.3855 10.7087 15.2643 10.5694 15.1797C10.4302 15.0951 10.2703 15.0502 10.1073 15.05C10.0935 15.05 10.08 15.05 10.0663 15.05C10.008 15.0527 9.94985 15.0432 9.89548 15.0221C9.84111 15.0011 9.79173 14.9689 9.7505 14.9278C9.70926 14.8866 9.67708 14.8373 9.65601 14.783C9.63493 14.7287 9.62543 14.6707 9.6281 14.6125C9.63562 14.4429 9.59446 14.2747 9.50946 14.1278C9.42446 13.9808 9.29916 13.8611 9.14832 13.7828C9.09648 13.756 9.05081 13.7187 9.01422 13.6733C8.97763 13.6278 8.95093 13.5753 8.93582 13.519C8.92071 13.4627 8.91753 13.4038 8.92647 13.3462C8.93542 13.2886 8.95629 13.2335 8.98777 13.1844C9.07929 13.0414 9.12793 12.8752 9.12793 12.7055C9.12793 12.5358 9.07929 12.3696 8.98777 12.2266C8.95625 12.1775 8.93534 12.1225 8.92637 12.0649C8.91741 12.0073 8.92058 11.9484 8.93569 11.8921C8.95081 11.8358 8.97752 11.7833 9.01414 11.7379C9.05075 11.6925 9.09645 11.6552 9.14832 11.6285C9.29889 11.5502 9.42396 11.4306 9.50884 11.2838C9.59372 11.137 9.63487 10.9691 9.62748 10.7998C9.62485 10.7416 9.63439 10.6836 9.65548 10.6293C9.67657 10.575 9.70875 10.5257 9.74998 10.4846C9.7912 10.4434 9.84056 10.4113 9.89491 10.3902C9.94925 10.3692 10.0074 10.3597 10.0656 10.3623C10.2357 10.3698 10.4043 10.3286 10.5516 10.2435C10.6989 10.1584 10.8187 10.0329 10.8969 9.88197C10.9236 9.83015 10.9609 9.78448 11.0064 9.7479C11.0519 9.71132 11.1045 9.68462 11.1609 9.66953C11.2173 9.65443 11.2762 9.65127 11.3339 9.66025C11.3916 9.66923 11.4468 9.69015 11.4959 9.72167C11.6311 9.80776 11.7869 9.85587 11.9472 9.86093C12.1074 9.86599 12.266 9.82781 12.4063 9.75041C12.444 9.74045 12.4785 9.72122 12.5068 9.69448C12.6046 9.64966 12.7159 9.64414 12.8176 9.67905C12.9193 9.71395 13.0037 9.78662 13.0533 9.88197C13.1317 10.0325 13.2515 10.1576 13.3987 10.2424C13.546 10.3273 13.7144 10.3683 13.8842 10.3607C13.9424 10.3581 14.0006 10.3676 14.0549 10.3887C14.1093 10.4097 14.1586 10.4419 14.1999 10.483C14.2411 10.5242 14.2733 10.5735 14.2943 10.6277C14.3154 10.682 14.325 10.7401 14.3224 10.7982C14.3148 10.9678 14.3559 11.136 14.4409 11.283C14.5259 11.43 14.6512 11.5497 14.8021 11.6279C14.854 11.6546 14.8997 11.6919 14.9363 11.7373C14.9729 11.7827 14.9996 11.8352 15.0148 11.8915C15.0299 11.9478 15.033 12.0066 15.0241 12.0642C15.0151 12.1218 14.9942 12.1769 14.9627 12.226C14.8712 12.3691 14.8225 12.5353 14.8225 12.705C14.8225 12.8748 14.8712 13.041 14.9627 13.1841C14.9949 13.2331 15.0164 13.2884 15.0256 13.3463C15.0348 13.4042 15.0316 13.4634 15.0162 13.52ZM2.72866 4.92302C3.19123 4.92302 3.55209 4.70615 3.55209 4.12148V3.70492C3.55295 3.6857 3.54985 3.6665 3.54298 3.64852C3.53611 3.63054 3.52562 3.61416 3.51215 3.60039C3.49869 3.58662 3.48253 3.57576 3.46469 3.56848C3.44685 3.5612 3.42771 3.55765 3.40844 3.55805H2.81379C2.72272 3.55805 2.67358 3.64899 2.67358 3.73648C2.67358 3.82398 2.72272 3.91492 2.81379 3.91492H3.09766V4.12148C3.09766 4.3946 2.95745 4.52397 2.72992 4.52397C2.50239 4.52397 2.36531 4.3946 2.36531 4.12148V3.14525C2.36531 2.87213 2.49832 2.74276 2.73336 2.74276C3.03131 2.74276 3.08733 2.92463 3.09766 3.089C3.10141 3.19743 3.20281 3.23243 3.3255 3.23243C3.47635 3.23243 3.55334 3.19056 3.55334 3.01556C3.55334 2.59557 3.19937 2.3437 2.71583 2.3437C2.27048 2.3437 1.90962 2.56057 1.90962 3.14525V4.12148C1.90837 4.70615 2.26578 4.92302 2.72866 4.92302ZM12.5625 13.2072C12.464 13.3055 12.397 13.4308 12.3698 13.5672C12.3426 13.7036 12.3566 13.845 12.4099 13.9735C12.4632 14.1019 12.5534 14.2117 12.6692 14.289C12.785 14.3663 12.9212 14.4075 13.0605 14.4075C13.1997 14.4075 13.3359 14.3663 13.4517 14.289C13.5675 14.2117 13.6577 14.1019 13.711 13.9735C13.7643 13.845 13.7783 13.7036 13.7511 13.5672C13.7239 13.4308 13.6569 13.3055 13.5584 13.2072C13.4262 13.0756 13.2471 13.0017 13.0605 13.0017C12.8738 13.0017 12.6947 13.0756 12.5625 13.2072ZM13.2266 13.87C13.1883 13.9082 13.1379 13.9319 13.084 13.9371C13.0301 13.9423 12.9761 13.9287 12.9311 13.8986C12.8861 13.8685 12.853 13.8238 12.8373 13.7721C12.8216 13.7203 12.8244 13.6648 12.8452 13.6148C12.8659 13.5649 12.9034 13.5237 12.9511 13.4982C12.9989 13.4728 13.054 13.4646 13.1071 13.4752C13.1602 13.4858 13.208 13.5144 13.2424 13.5562C13.2767 13.5979 13.2955 13.6503 13.2955 13.7044C13.2956 13.7352 13.2895 13.7657 13.2777 13.7941C13.2659 13.8225 13.2485 13.8483 13.2266 13.87Z" fill="#323232"/>
</svg>
