<svg width="28" height="28" viewBox="0 0 28 28" fill="none" xmlns="http://www.w3.org/2000/svg">
<path d="M9.33333 12.666C8.6 12.666 8 13.266 8 13.9993C8 14.7327 8.6 15.3327 9.33333 15.3327C10.0667 15.3327 10.6667 14.7327 10.6667 13.9993C10.6667 13.266 10.0667 12.666 9.33333 12.666Z" fill="#004EFF"/>
<path d="M18.6654 12.666C17.932 12.666 17.332 13.266 17.332 13.9993C17.332 14.7327 17.932 15.3327 18.6654 15.3327C19.3987 15.3327 19.9987 14.7327 19.9987 13.9993C19.9987 13.266 19.3987 12.666 18.6654 12.666Z" fill="#004EFF"/>
<path d="M14.0013 12.666C13.268 12.666 12.668 13.266 12.668 13.9993C12.668 14.7327 13.268 15.3327 14.0013 15.3327C14.7346 15.3327 15.3346 14.7327 15.3346 13.9993C15.3346 13.266 14.7346 12.666 14.0013 12.666Z" fill="#004EFF"/>
</svg>
