<svg width="16" height="16" viewBox="0 0 16 16" fill="none" xmlns="http://www.w3.org/2000/svg">
<g id="I icon">
<path id="Vector" d="M8 7C8.13261 7 8.25979 7.05268 8.35355 7.14645C8.44732 7.24021 8.5 7.36739 8.5 7.5V10.5C8.5 10.6326 8.44732 10.7598 8.35355 10.8536C8.25979 10.9473 8.13261 11 8 11C7.86739 11 7.74021 10.9473 7.64645 10.8536C7.55268 10.7598 7.5 10.6326 7.5 10.5V7.5C7.5 7.36739 7.55268 7.24021 7.64645 7.14645C7.74021 7.05268 7.86739 7 8 7ZM8 6.25C8.09849 6.25 8.19602 6.2306 8.28701 6.19291C8.37801 6.15522 8.46069 6.09997 8.53033 6.03033C8.59997 5.96069 8.65522 5.87801 8.69291 5.78701C8.7306 5.69602 8.75 5.59849 8.75 5.5C8.75 5.40151 8.7306 5.30398 8.69291 5.21299C8.65522 5.12199 8.59997 5.03931 8.53033 4.96967C8.46069 4.90003 8.37801 4.84478 8.28701 4.80709C8.19602 4.7694 8.09849 4.75 8 4.75C7.80135 4.75 7.61084 4.82891 7.47038 4.96938C7.32991 5.10984 7.251 5.30035 7.251 5.499C7.251 5.69765 7.32991 5.88816 7.47038 6.02862C7.61084 6.16909 7.80135 6.248 8 6.248V6.25ZM2 8C2 7.21207 2.15519 6.43185 2.45672 5.7039C2.75825 4.97595 3.20021 4.31451 3.75736 3.75736C4.31451 3.20021 4.97595 2.75825 5.7039 2.45672C6.43185 2.15519 7.21207 2 8 2C8.78793 2 9.56815 2.15519 10.2961 2.45672C11.0241 2.75825 11.6855 3.20021 12.2426 3.75736C12.7998 4.31451 13.2417 4.97595 13.5433 5.7039C13.8448 6.43185 14 7.21207 14 8C14 9.5913 13.3679 11.1174 12.2426 12.2426C11.1174 13.3679 9.5913 14 8 14C6.4087 14 4.88258 13.3679 3.75736 12.2426C2.63214 11.1174 2 9.5913 2 8ZM8 3C6.67392 3 5.40215 3.52678 4.46447 4.46447C3.52678 5.40215 3 6.67392 3 8C3 9.32608 3.52678 10.5979 4.46447 11.5355C5.40215 12.4732 6.67392 13 8 13C9.32608 13 10.5979 12.4732 11.5355 11.5355C12.4732 10.5979 13 9.32608 13 8C13 6.67392 12.4732 5.40215 11.5355 4.46447C10.5979 3.52678 9.32608 3 8 3Z" fill="#1C1C1C"/>
</g>
</svg>
