<svg width="67" height="67" viewBox="0 0 67 67" fill="none" xmlns="http://www.w3.org/2000/svg">
<circle cx="33.5" cy="33.5" r="33" fill="#F6F6F6" stroke="#E8E8E8"/>
<path d="M22.2285 26.9199L34.0018 33.7332L45.6952 26.9599" stroke="#1C1C1C" stroke-width="2" stroke-linecap="round" stroke-linejoin="round"/>
<path d="M34.002 45.8131V33.7197" stroke="#1C1C1C" stroke-width="2" stroke-linecap="round" stroke-linejoin="round"/>
<path d="M46.8151 29.2265V36.7732C46.8151 36.8399 46.8151 36.8932 46.8018 36.9598C45.8685 36.1465 44.6685 35.6665 43.3351 35.6665C42.0818 35.6665 40.9218 36.1065 40.0018 36.8399C38.7751 37.8132 38.0018 39.3199 38.0018 40.9999C38.0018 41.9999 38.2818 42.9465 38.7751 43.7465C38.8951 43.9599 39.0418 44.1599 39.2018 44.3465L36.7618 45.6932C35.2418 46.5466 32.7618 46.5466 31.2418 45.6932L24.1218 41.7465C22.5085 40.8532 21.1885 38.6132 21.1885 36.7732L21.1885 29.2265C21.1885 27.3865 22.5085 25.1465 24.1218 24.2532L31.2418 20.3065C32.7618 19.4532 35.2418 19.4532 36.7618 20.3065L43.8818 24.2532C45.4951 25.1465 46.8151 27.3865 46.8151 29.2265Z" stroke="#1C1C1C" stroke-width="2" stroke-linecap="round" stroke-linejoin="round"/>
<path d="M48.6686 40.9998C48.6686 42.5998 47.962 44.0265 46.8553 44.9998C45.9086 45.8265 44.682 46.3332 43.3353 46.3332C40.3886 46.3332 38.002 43.9465 38.002 40.9998C38.002 39.3198 38.7753 37.8132 40.002 36.8398C40.922 36.1065 42.082 35.6665 43.3353 35.6665C46.282 35.6665 48.6686 38.0532 48.6686 40.9998Z" stroke="#1C1C1C" stroke-width="2" stroke-miterlimit="10" stroke-linecap="round" stroke-linejoin="round"/>
<path d="M43.6686 39.333V41.333L42.002 42.333" stroke="#1C1C1C" stroke-width="2" stroke-miterlimit="10" stroke-linecap="round" stroke-linejoin="round"/>
</svg>
