<svg width="16" height="16" viewBox="0 0 16 16" fill="none" xmlns="http://www.w3.org/2000/svg">
<path d="M4.00024 6.66634V5.33301C4.00024 3.12634 4.66691 1.33301 8.00024 1.33301C11.3336 1.33301 12.0002 3.12634 12.0002 5.33301V6.66634" stroke="#1C1C1C" stroke-linecap="round" stroke-linejoin="round"/>
<path d="M11.3336 14.667L4.66695 14.667C2.00028 14.667 1.33362 14.0003 1.33362 11.3337L1.33362 10.0003C1.33362 7.33366 2.00028 6.66699 4.66695 6.66699L11.3336 6.66699C14.0003 6.66699 14.667 7.33366 14.667 10.0003V11.3337C14.667 14.0003 14.0003 14.667 11.3336 14.667Z" stroke="#1C1C1C" stroke-linecap="round" stroke-linejoin="round"/>
<path d="M10.6645 10.6663H10.6705" stroke="#1C1C1C" stroke-linecap="round" stroke-linejoin="round"/>
<path d="M7.99727 10.6663H8.00326" stroke="#1C1C1C" stroke-linecap="round" stroke-linejoin="round"/>
<path d="M5.32992 10.6663H5.3359" stroke="#1C1C1C" stroke-linecap="round" stroke-linejoin="round"/>
</svg>
