<svg width="12" height="12" viewBox="0 0 12 12" fill="none" xmlns="http://www.w3.org/2000/svg">
<path d="M7.50098 1V6C7.50098 6.55 7.05098 7 6.50098 7H1.00098V3.81C1.36598 4.245 1.92599 4.515 2.54599 4.5C3.05099 4.49 3.50598 4.295 3.84598 3.97C4.00098 3.84 4.13099 3.675 4.23099 3.495C4.41099 3.19 4.51098 2.82999 4.50098 2.45499C4.48598 1.86999 4.22598 1.355 3.82098 1H7.50098Z" stroke="#F0A22E" stroke-linecap="round" stroke-linejoin="round"/>
<path d="M11.001 7V8.5C11.001 9.33 10.331 10 9.50098 10H9.00098C9.00098 9.45 8.55098 9 8.00098 9C7.45098 9 7.00098 9.45 7.00098 10H5.00098C5.00098 9.45 4.55098 9 4.00098 9C3.45098 9 3.00098 9.45 3.00098 10H2.50098C1.67098 10 1.00098 9.33 1.00098 8.5V7H6.50098C7.05098 7 7.50098 6.55 7.50098 6V2.5H8.42099C8.78099 2.5 9.11099 2.695 9.29099 3.005L10.146 4.5H9.50098C9.22598 4.5 9.00098 4.725 9.00098 5V6.5C9.00098 6.775 9.22598 7 9.50098 7H11.001Z" stroke="#F0A22E" stroke-linecap="round" stroke-linejoin="round"/>
<path d="M4.00098 11C4.55326 11 5.00098 10.5523 5.00098 10C5.00098 9.44772 4.55326 9 4.00098 9C3.44869 9 3.00098 9.44772 3.00098 10C3.00098 10.5523 3.44869 11 4.00098 11Z" stroke="#F0A22E" stroke-linecap="round" stroke-linejoin="round"/>
<path d="M8.00098 11C8.55326 11 9.00098 10.5523 9.00098 10C9.00098 9.44772 8.55326 9 8.00098 9C7.44869 9 7.00098 9.44772 7.00098 10C7.00098 10.5523 7.44869 11 8.00098 11Z" stroke="#F0A22E" stroke-linecap="round" stroke-linejoin="round"/>
<path d="M11.001 6V7H9.50098C9.22598 7 9.00098 6.775 9.00098 6.5V5C9.00098 4.725 9.22598 4.5 9.50098 4.5H10.146L11.001 6Z" stroke="#F0A22E" stroke-linecap="round" stroke-linejoin="round"/>
<path d="M4.50098 2.5C4.50098 3.1 4.23598 3.635 3.82098 4C3.46598 4.31 3.00598 4.5 2.50098 4.5C1.39598 4.5 0.500977 3.605 0.500977 2.5C0.500977 1.87 0.790977 1.305 1.25098 0.940002C1.59598 0.665002 2.03098 0.5 2.50098 0.5C3.60598 0.5 4.50098 1.395 4.50098 2.5Z" stroke="#F0A22E" stroke-miterlimit="10" stroke-linecap="round" stroke-linejoin="round"/>
<path d="M2.62598 1.87503V2.62503L2.00098 3.00003" stroke="#F0A22E" stroke-miterlimit="10" stroke-linecap="round" stroke-linejoin="round"/>
</svg>
