<svg width="507" height="516" viewBox="0 0 507 516" fill="none" xmlns="http://www.w3.org/2000/svg">
<g clip-path="url(#clip0_1262_179717)">
<path d="M225.158 63.7542L220.102 60.7654C219.283 60.286 218.803 59.3837 218.888 58.4532C218.972 57.4663 219.029 56.4795 219.057 55.4926C219.057 54.5621 219.65 53.7162 220.498 53.3214L225.836 50.8965C226.881 50.4172 227.474 49.2893 227.22 48.1614L226.231 43.5936C226.005 42.4657 224.988 41.6762 223.83 41.648L217.956 41.5634C216.995 41.5634 216.148 40.9995 215.753 40.1536C215.329 39.2795 214.905 38.4054 214.425 37.5595C213.945 36.7417 214.03 35.7267 214.566 34.9654L217.984 30.2283C218.662 29.2978 218.577 28.029 217.814 27.1831L214.651 23.7149C213.889 22.869 212.618 22.6434 211.601 23.2073L206.489 26.0552C205.67 26.5063 204.625 26.4499 203.862 25.9142C203.071 25.3503 202.224 24.8145 201.377 24.307C200.558 23.8276 200.078 22.9254 200.191 21.9667L200.727 16.1581C200.84 15.0303 200.134 13.9588 199.033 13.5922L194.542 12.1542C193.44 11.7876 192.254 12.2388 191.661 13.2257L188.667 18.2165C188.187 19.0342 187.283 19.4854 186.323 19.4008C185.334 19.3162 184.318 19.2598 183.329 19.2316C182.397 19.2316 181.522 18.6676 181.126 17.7936L178.669 12.5208C178.189 11.4775 177.031 10.9136 175.901 11.1391L171.297 12.0978C170.168 12.3234 169.349 13.3103 169.349 14.4663L169.264 20.3031C169.264 21.2336 168.699 22.1076 167.852 22.4742C166.948 22.8972 166.072 23.3201 165.197 23.7995C164.378 24.2506 163.361 24.1942 162.57 23.6585L157.769 20.2749C156.837 19.6263 155.537 19.6827 154.69 20.444L151.188 23.5457C150.341 24.307 150.115 25.5758 150.68 26.5627L153.56 31.6381C154.012 32.4558 153.984 33.4709 153.419 34.2322C152.854 35.0218 152.318 35.8395 151.809 36.6854C151.329 37.5031 150.397 37.9542 149.465 37.8696L143.619 37.3339C142.461 37.2211 141.387 37.926 141.049 38.9975L139.58 43.4244C139.213 44.524 139.665 45.7083 140.681 46.3004L145.737 49.2893C146.556 49.7686 147.036 50.6709 146.923 51.6014C146.838 52.5883 146.782 53.5752 146.754 54.5621C146.754 55.4926 146.161 56.3385 145.313 56.7332L139.975 59.1581C138.93 59.6375 138.337 60.7654 138.591 61.8932L139.58 66.4611C139.806 67.589 140.823 68.3785 141.981 68.4067L147.855 68.4913C148.815 68.4913 149.663 69.0552 150.058 69.9011C150.482 70.8034 150.934 71.6775 151.414 72.5234C151.866 73.3411 151.809 74.3562 151.273 75.1175L147.855 79.8545C147.177 80.785 147.262 82.0539 148.025 82.8998L151.16 86.368C151.922 87.2139 153.193 87.4395 154.21 86.8755L159.322 84.0277C160.141 83.5765 161.186 83.6329 161.949 84.1686C162.74 84.7326 163.587 85.2683 164.434 85.7759C165.253 86.2552 165.733 87.1575 165.62 88.1162L165.084 93.9247C164.971 95.0526 165.677 96.124 166.778 96.4906L171.269 97.9286C172.371 98.2952 173.557 97.844 174.15 96.8572L177.144 91.8663C177.624 91.0486 178.528 90.5975 179.488 90.6821C180.477 90.7667 181.493 90.8231 182.482 90.8513C183.414 90.8513 184.289 91.4152 184.685 92.2893L187.142 97.5621C187.622 98.6054 188.78 99.1693 189.91 98.9437L194.514 97.985C195.643 97.7595 196.462 96.7726 196.462 95.6165L196.547 89.7798C196.547 88.8493 197.112 87.9752 197.988 87.5804C198.891 87.1857 199.767 86.7345 200.614 86.2552C201.433 85.804 202.478 85.8604 203.241 86.3962L208.042 89.7798C208.974 90.4283 210.273 90.3719 211.121 89.6106L214.623 86.509C215.47 85.7476 215.696 84.4788 215.131 83.4919L212.251 78.4165C211.799 77.5988 211.827 76.5837 212.392 75.8224C212.957 75.0329 213.493 74.2152 214.002 73.3693C214.482 72.5516 215.414 72.1004 216.346 72.185L222.192 72.7208C223.35 72.8336 224.423 72.1286 224.762 71.0572L226.231 66.6303C226.598 65.5306 226.146 64.3463 225.158 63.7542ZM181.747 75.0329C170.591 74.3844 162.09 64.9103 162.711 53.8854C163.361 42.8604 172.907 34.4296 184.063 35.0781C195.22 35.7267 203.721 45.2008 203.1 56.2257C202.45 67.2788 192.875 75.6814 181.747 75.0329Z" fill="white"/>
<path d="M189.373 99.62C188.187 99.62 187.085 98.9432 186.577 97.8436L184.12 92.5708C183.809 91.9223 183.188 91.4993 182.482 91.4993C181.465 91.4993 180.448 91.4147 179.431 91.3301C178.725 91.2737 178.047 91.6121 177.68 92.2042L174.686 97.1951C173.952 98.4357 172.455 98.9996 171.071 98.5485L166.58 97.1105C165.197 96.6593 164.321 95.3341 164.462 93.896L164.999 88.0875C165.055 87.3826 164.716 86.7059 164.095 86.3393C163.219 85.8318 162.372 85.296 161.553 84.7321C160.988 84.3373 160.197 84.281 159.576 84.6193L154.492 87.4672C153.221 88.1721 151.668 87.9183 150.679 86.8469L147.544 83.3787C146.556 82.3072 146.471 80.7282 147.318 79.5439L150.736 74.8068C151.131 74.2429 151.188 73.4816 150.849 72.8895C150.369 72.0154 149.889 71.1131 149.465 70.2108C149.182 69.5905 148.533 69.1675 147.827 69.1675L141.952 69.0829C140.483 69.0547 139.269 68.0678 138.958 66.658L137.97 62.0901C137.659 60.6803 138.393 59.2705 139.721 58.6783L145.059 56.2534C145.708 55.9714 146.132 55.3229 146.132 54.6462C146.132 53.6593 146.189 52.6442 146.302 51.6292C146.358 50.9524 146.019 50.2757 145.398 49.9091L140.342 46.9203C139.099 46.1872 138.535 44.6928 138.987 43.3393L140.455 38.9124C140.907 37.5308 142.235 36.6849 143.675 36.7977L149.521 37.3334C150.227 37.3898 150.934 37.0514 151.272 36.4593C151.781 35.6134 152.346 34.7675 152.911 33.9498C153.306 33.3859 153.362 32.6246 153.024 32.0042L150.143 26.9288C149.437 25.66 149.691 24.1091 150.764 23.1505L154.266 20.0488C155.34 19.0901 156.921 19.0055 158.136 19.8232L162.937 23.2069C163.53 23.6298 164.293 23.658 164.886 23.3196C165.761 22.8403 166.665 22.3892 167.597 21.9662C168.219 21.6842 168.642 21.0357 168.642 20.3308L168.727 14.4941C168.755 13.056 169.744 11.8436 171.184 11.5334L175.788 10.5747C177.2 10.2646 178.64 10.9977 179.234 12.2947L181.691 17.5675C181.973 18.216 182.623 18.639 183.329 18.639C184.346 18.639 185.362 18.7236 186.379 18.8082C187.057 18.8646 187.763 18.5262 188.13 17.9341L191.124 12.9433C191.858 11.7026 193.355 11.1387 194.739 11.5898L199.23 13.0278C200.614 13.479 201.49 14.8042 201.348 16.2423L200.812 22.0508C200.755 22.7557 201.094 23.4324 201.715 23.799C202.591 24.3065 203.438 24.8423 204.229 25.4062C204.794 25.801 205.585 25.8573 206.206 25.519L211.318 22.6711C212.589 21.9662 214.143 22.22 215.131 23.2914L218.266 26.7596C219.255 27.8311 219.339 29.4101 218.492 30.5944L215.075 35.3314C214.679 35.8954 214.623 36.6567 214.962 37.277C215.442 38.1511 215.922 39.0252 216.317 39.9275C216.6 40.576 217.249 40.9708 217.984 40.999L223.858 41.0836C225.327 41.1118 226.542 42.0987 226.852 43.5085L227.841 48.0764C228.151 49.4862 227.417 50.896 226.09 51.4882L220.752 53.9131C220.102 54.195 219.678 54.8436 219.678 55.5203C219.678 56.5072 219.622 57.5223 219.509 58.5373C219.452 59.2141 219.791 59.8908 220.413 60.2573L225.468 63.2462C226.711 63.9793 227.276 65.4737 226.824 66.8272L225.355 71.2541C224.903 72.6357 223.576 73.4816 222.136 73.3688L216.289 72.8331C215.583 72.7767 214.877 73.115 214.538 73.7072C214.03 74.5813 213.465 75.399 212.9 76.2167C212.504 76.7806 212.448 77.5419 212.787 78.1623L215.668 83.2377C216.374 84.5065 216.12 86.0573 215.046 87.016L211.544 90.1177C210.471 91.0764 208.889 91.1609 207.675 90.3432L202.873 86.9596C202.28 86.5649 201.518 86.5085 200.896 86.8469C200.021 87.3262 199.117 87.7773 198.213 88.2003C197.564 88.4823 197.14 89.1308 197.14 89.8357L197.055 95.6724C197.027 97.1105 196.038 98.3229 194.598 98.6331L189.994 99.5918C189.797 99.5918 189.599 99.62 189.373 99.62ZM179.262 90.0613C179.347 90.0613 179.46 90.0613 179.544 90.0613C180.533 90.1459 181.493 90.2023 182.482 90.2305C183.64 90.2587 184.741 90.9354 185.221 92.0068L187.678 97.2796C188.046 98.0691 188.893 98.4921 189.74 98.2947L194.344 97.336C195.191 97.1669 195.813 96.4337 195.813 95.5596L195.897 89.7229C195.926 88.5387 196.632 87.4672 197.705 86.9878C198.58 86.5931 199.456 86.1419 200.303 85.6908C201.348 85.1268 202.619 85.1832 203.608 85.86L208.409 89.2436C209.115 89.7511 210.076 89.6947 210.725 89.1026L214.227 86.0009C214.877 85.437 215.018 84.5065 214.595 83.7452L211.714 78.6698C211.121 77.6547 211.205 76.3577 211.883 75.399C212.42 74.6377 212.956 73.82 213.465 72.9741C214.058 71.959 215.216 71.395 216.402 71.4796L222.249 72.0154C223.124 72.1 223.915 71.5924 224.169 70.7747L225.638 66.3478C225.92 65.5301 225.581 64.656 224.819 64.2049L219.763 61.216C218.746 60.6239 218.153 59.4678 218.266 58.3118C218.351 57.3531 218.407 56.3662 218.436 55.4075C218.464 54.2514 219.17 53.18 220.243 52.6724L225.581 50.2475C226.372 49.881 226.796 49.0632 226.626 48.2173L225.638 43.6495C225.468 42.8036 224.734 42.2114 223.858 42.2114L217.984 42.1269C216.798 42.0987 215.696 41.4219 215.216 40.3505C214.82 39.4764 214.369 38.6305 213.888 37.7846C213.295 36.7695 213.38 35.4724 214.058 34.5137L217.475 29.7767C217.984 29.0718 217.927 28.1413 217.334 27.4928L214.199 24.0246C213.606 23.376 212.674 23.2351 211.911 23.658L206.771 26.5059C205.726 27.0698 204.455 27.0134 203.495 26.3367C202.704 25.801 201.885 25.2652 201.066 24.7577C200.049 24.1655 199.456 23.0095 199.569 21.8252L200.106 16.0167C200.19 15.1708 199.654 14.3813 198.835 14.0993L194.344 12.6613C193.525 12.3793 192.621 12.7177 192.169 13.4508L189.175 18.4416C188.554 19.4567 187.424 20.0488 186.238 19.936C185.249 19.8514 184.261 19.7951 183.301 19.7669C182.114 19.7387 181.041 19.0619 180.561 17.9905L178.104 12.7177C177.737 11.9282 176.889 11.5052 176.042 11.7026L171.438 12.7741C170.591 12.9432 169.97 13.6764 169.97 14.5505L169.885 20.3872C169.857 21.5714 169.179 22.6429 168.106 23.1223C167.202 23.517 166.326 23.9682 165.479 24.4475C164.462 25.0114 163.163 24.9551 162.203 24.2501L157.401 20.8665C156.695 20.359 155.735 20.4154 155.085 21.0075L151.583 24.1092C150.934 24.6731 150.792 25.6036 151.216 26.3649L154.097 31.4403C154.69 32.4554 154.605 33.7524 153.927 34.7111C153.362 35.5006 152.854 36.2901 152.346 37.136C151.753 38.1511 150.595 38.7151 149.408 38.6305L143.562 38.0947C142.686 38.0101 141.896 38.5177 141.641 39.3354L140.173 43.7623C139.89 44.58 140.229 45.4541 140.992 45.9052L146.047 48.8941C147.064 49.4862 147.657 50.6423 147.544 51.7983C147.46 52.757 147.403 53.7439 147.375 54.7026C147.347 55.8587 146.641 56.9301 145.567 57.4377L140.229 59.8626C139.438 60.2291 139.015 61.0469 139.184 61.8928L140.173 66.4606C140.342 67.3065 141.077 67.8987 141.952 67.8987L147.827 67.9832C149.013 68.0114 150.114 68.6882 150.595 69.7596C150.99 70.6337 151.442 71.5078 151.922 72.3537C152.487 73.3688 152.43 74.6377 151.724 75.6246L148.307 80.3616C147.799 81.0665 147.855 81.997 148.448 82.6455L151.583 86.1137C152.176 86.7623 153.108 86.9032 153.871 86.4803L159.011 83.6324C160.056 83.0685 161.327 83.1249 162.287 83.8016C163.078 84.3373 163.897 84.8731 164.716 85.3806C165.733 85.9727 166.326 87.1288 166.213 88.3131L165.677 94.1216C165.592 94.9675 166.129 95.757 166.948 96.039L171.438 97.477C172.257 97.759 173.161 97.4206 173.613 96.6875L176.607 91.6967C177.2 90.6252 178.217 90.0613 179.262 90.0613ZM182.933 75.6809C182.538 75.6809 182.114 75.6809 181.691 75.6527C170.224 74.976 161.412 65.22 162.09 53.8567C162.739 42.4934 172.625 33.8088 184.091 34.4855C195.558 35.1623 204.37 44.9183 203.693 56.2816C203.071 67.2219 193.864 75.6809 182.933 75.6809ZM181.775 74.4121C192.565 75.0324 201.857 66.8554 202.45 56.197C203.071 45.5387 194.796 36.3465 184.007 35.7262C173.218 35.1059 163.926 43.2829 163.332 53.9413C162.711 64.5996 170.986 73.7918 181.775 74.4121Z" fill="black"/>
<path d="M131.445 92.8236L127.858 90.7088C127.294 90.3704 126.955 89.7219 127.011 89.0734C127.068 88.3685 127.124 87.6636 127.124 86.9868C127.124 86.3101 127.548 85.718 128.141 85.436L131.925 83.716C132.66 83.3777 133.083 82.5599 132.914 81.7704L132.208 78.5278C132.038 77.7383 131.332 77.1744 130.513 77.1462L126.333 77.0898C125.655 77.0898 125.034 76.695 124.752 76.0747C124.469 75.4544 124.13 74.8341 123.791 74.2137C123.452 73.6216 123.509 72.9167 123.904 72.3527L126.333 68.9691C126.813 68.3206 126.757 67.4183 126.192 66.798L123.961 64.3449C123.424 63.7527 122.52 63.5836 121.786 63.9783L118.143 65.9803C117.55 66.3186 116.815 66.2622 116.279 65.8957C115.714 65.5009 115.121 65.1062 114.527 64.7678C113.934 64.4295 113.624 63.7809 113.68 63.1042L114.076 58.9875C114.16 58.1698 113.652 57.4367 112.861 57.1829L109.698 56.1678C108.907 55.914 108.06 56.2242 107.636 56.9291L105.49 60.4819C105.151 61.0459 104.501 61.3842 103.823 61.3278C103.117 61.2714 102.411 61.215 101.705 61.215C101.027 61.215 100.434 60.8203 100.151 60.2L98.4004 56.4498C98.0615 55.7167 97.2424 55.2937 96.4516 55.4629L93.1753 56.1396C92.3845 56.3088 91.7914 57.0137 91.7914 57.8032V62.0327C91.7914 62.7095 91.396 63.3016 90.7746 63.5836C90.125 63.8655 89.5037 64.2039 88.8823 64.5422C88.2892 64.8806 87.5831 64.8242 87.0182 64.4295L83.6008 62.0327C82.9229 61.5534 82.0191 61.6098 81.426 62.1455L78.9406 64.3449C78.3192 64.8806 78.178 65.7829 78.5734 66.4878L80.607 70.097C80.9459 70.6891 80.8894 71.394 80.5222 71.9298C80.1268 72.4937 79.7314 73.0858 79.3925 73.678C79.0536 74.2419 78.404 74.5803 77.7261 74.5239L73.5743 74.1291C72.7552 74.0445 71.9927 74.5521 71.7385 75.3134L70.6935 78.4432C70.4393 79.2045 70.75 80.0504 71.456 80.4734L75.043 82.5881C75.6078 82.9265 75.9468 83.575 75.8903 84.2236C75.8338 84.9285 75.7773 85.6334 75.7773 86.3101C75.7773 86.9868 75.3537 87.579 74.7605 87.8609L70.9759 89.5809C70.2416 89.9193 69.8179 90.737 69.9874 91.5265L70.6935 94.7691C70.8629 95.5586 71.569 96.1226 72.3881 96.1508L76.5681 96.2072C77.246 96.2072 77.8673 96.6019 78.1215 97.1941C78.404 97.8426 78.7429 98.4629 79.0818 99.055C79.4207 99.6472 79.3642 100.352 78.9688 100.888L76.5681 104.243C76.088 104.892 76.1445 105.794 76.7093 106.414L78.9406 108.867C79.4772 109.46 80.381 109.629 81.1153 109.234L84.7588 107.232C85.3519 106.894 86.0862 106.95 86.6228 107.317C87.1877 107.711 87.7808 108.106 88.3739 108.445C88.967 108.783 89.2777 109.431 89.2212 110.108L88.8258 114.225C88.7411 115.043 89.2495 115.776 90.0403 116.029L93.2036 117.045C93.9944 117.298 94.8417 116.988 95.2654 116.283L97.4119 112.73C97.7508 112.167 98.4004 111.828 99.0782 111.885C99.7843 111.941 100.49 111.997 101.196 111.997C101.874 111.997 102.467 112.42 102.75 113.012L104.501 116.763C104.84 117.496 105.659 117.919 106.45 117.749L109.726 117.073C110.517 116.904 111.11 116.199 111.11 115.409L111.166 111.264C111.166 110.587 111.562 109.995 112.183 109.713C112.805 109.431 113.454 109.121 114.047 108.783C114.64 108.445 115.375 108.501 115.911 108.896L119.329 111.292C120.007 111.772 120.911 111.715 121.504 111.18L123.989 108.98C124.61 108.445 124.752 107.542 124.356 106.837L122.323 103.228C121.984 102.636 122.04 101.931 122.407 101.395C122.803 100.831 123.198 100.239 123.537 99.6472C123.876 99.0832 124.526 98.7449 125.204 98.8013L129.355 99.196C130.174 99.2806 130.937 98.7731 131.191 98.0118L132.236 94.8819C132.462 94.0924 132.151 93.2465 131.445 92.8236ZM100.632 100.831C92.7234 100.38 86.6793 93.6695 87.1312 85.8308C87.5831 78.0203 94.3616 72.0426 102.27 72.4937C110.178 72.9449 116.222 79.6557 115.77 87.4944C115.318 95.3331 108.54 101.283 100.632 100.831Z" fill="white"/>
<path d="M106.054 118.455C105.151 118.455 104.303 117.947 103.908 117.073L102.157 113.323C101.987 112.928 101.592 112.674 101.168 112.674C100.462 112.674 99.7279 112.618 98.9936 112.562C98.5699 112.533 98.1463 112.731 97.9203 113.097L95.7738 116.65C95.209 117.609 94.051 118.032 93.006 117.693L89.8427 116.678C88.7694 116.34 88.1198 115.325 88.2046 114.225L88.6 110.108C88.6282 109.685 88.4305 109.263 88.0633 109.037C87.442 108.67 86.8206 108.276 86.2558 107.881C85.9168 107.627 85.4367 107.599 85.0413 107.824L81.3979 109.826C80.4376 110.362 79.2231 110.165 78.4605 109.347L76.2293 106.894C75.4667 106.076 75.4102 104.864 76.0598 103.962L78.4605 100.606C78.7147 100.268 78.743 99.7884 78.5453 99.4219C78.1781 98.8015 77.8674 98.153 77.5567 97.5045C77.3873 97.1097 76.9919 96.8842 76.54 96.856L72.3599 96.7996C71.2302 96.7714 70.2981 96.0101 70.0722 94.9386L69.3661 91.696C69.1402 90.5963 69.6768 89.5248 70.6936 89.0737L74.4782 87.3537C74.8736 87.1845 75.1278 86.7897 75.1278 86.3668C75.1278 85.6619 75.1843 84.9287 75.2408 84.2238C75.269 83.8009 75.0713 83.4061 74.7041 83.1805L71.1172 81.0658C70.1569 80.5019 69.7333 79.374 70.0722 78.3025L71.1172 75.1727C71.4561 74.1294 72.4729 73.4527 73.6026 73.5655L77.7544 73.9602C78.1781 74.0166 78.6018 73.791 78.8277 73.4245C79.1949 72.8323 79.5903 72.212 79.9857 71.6481C80.2399 71.3097 80.2681 70.8304 80.0422 70.4638L78.0086 66.8546C77.472 65.896 77.6697 64.6835 78.4888 63.9504L80.9742 61.751C81.7933 61.0179 83.036 60.9333 83.9398 61.5819L87.3572 63.9786C87.7244 64.2323 88.1763 64.2605 88.5435 64.0632C89.1648 63.7248 89.8144 63.3864 90.464 63.1045C90.8594 62.9353 91.1136 62.5405 91.1136 62.1176L91.1701 57.9727C91.1984 56.873 91.961 55.9143 93.0624 55.6887L96.3387 55.012C97.4402 54.7864 98.5135 55.3222 98.9936 56.3373L100.745 60.0874C100.914 60.4822 101.31 60.736 101.733 60.736C102.468 60.736 103.174 60.7923 103.908 60.8487C104.332 60.8769 104.755 60.6796 104.981 60.313L107.128 56.7602C107.693 55.8015 108.851 55.3786 109.896 55.7169L113.059 56.732C114.132 57.0704 114.782 58.0855 114.697 59.1851L114.302 63.3019C114.273 63.7248 114.471 64.1478 114.838 64.3733C115.46 64.7399 116.053 65.1346 116.646 65.5294C117.013 65.7832 117.465 65.8114 117.86 65.5858L121.504 63.5838C122.464 63.0481 123.678 63.2455 124.441 64.0632L126.672 66.5163C127.435 67.334 127.491 68.5464 126.842 69.4487L124.413 72.8323C124.159 73.1707 124.13 73.6501 124.356 74.0166C124.695 74.6369 125.034 75.2573 125.317 75.9058C125.486 76.3005 125.881 76.5543 126.333 76.5543L130.513 76.6107C131.643 76.6389 132.575 77.4002 132.801 78.4717L133.507 81.7143C133.733 82.814 133.197 83.8855 132.18 84.3366L128.395 86.0566C128 86.2258 127.746 86.6205 127.746 87.0435C127.746 87.7484 127.689 88.4815 127.633 89.1864C127.604 89.6094 127.802 90.0042 128.169 90.2297L131.756 92.3445C132.716 92.9084 133.14 94.0363 132.801 95.1078L131.756 98.2376C131.417 99.2809 130.4 99.9576 129.271 99.8448L125.119 99.4501C124.695 99.3937 124.272 99.6192 124.046 99.9858C123.678 100.606 123.283 101.198 122.888 101.762C122.633 102.101 122.605 102.58 122.831 102.946L124.865 106.556C125.401 107.514 125.204 108.727 124.385 109.46L121.899 111.659C121.08 112.392 119.866 112.477 118.934 111.828L115.516 109.432C115.149 109.178 114.697 109.15 114.302 109.375C113.68 109.714 113.031 110.052 112.381 110.334C111.986 110.503 111.731 110.898 111.731 111.321L111.675 115.466C111.675 116.565 110.884 117.524 109.783 117.75L106.506 118.426C106.393 118.426 106.224 118.455 106.054 118.455ZM98.8806 111.321C98.9654 111.321 99.0218 111.321 99.1066 111.321C99.7844 111.377 100.491 111.434 101.168 111.434C102.072 111.434 102.891 111.998 103.287 112.815L105.038 116.565C105.264 117.045 105.772 117.299 106.309 117.186L109.585 116.509C110.093 116.396 110.489 115.945 110.489 115.438L110.545 111.293C110.545 110.39 111.11 109.573 111.929 109.178C112.55 108.896 113.144 108.586 113.765 108.276C114.556 107.824 115.544 107.881 116.279 108.417L119.696 110.813C120.12 111.123 120.713 111.095 121.108 110.729L123.594 108.529C123.989 108.191 124.074 107.627 123.82 107.148L121.786 103.539C121.334 102.749 121.391 101.762 121.927 101.029C122.323 100.493 122.69 99.9294 123.029 99.3373C123.481 98.5478 124.385 98.1248 125.288 98.2094L129.44 98.6042C129.977 98.6605 130.457 98.3504 130.626 97.8428L131.671 94.713C131.841 94.2055 131.643 93.6697 131.163 93.416L127.576 91.3012C126.785 90.8219 126.333 89.9478 126.418 89.0737C126.475 88.3969 126.531 87.7202 126.531 87.0435C126.531 86.1412 127.096 85.3235 127.915 84.9569L131.7 83.2369C132.18 83.0114 132.434 82.5038 132.321 81.9963L131.615 78.7537C131.502 78.2461 131.05 77.8796 130.513 77.8796L126.333 77.8232C125.43 77.8232 124.582 77.2874 124.215 76.4415C123.933 75.8212 123.622 75.2291 123.283 74.6369C122.831 73.8474 122.888 72.8605 123.424 72.1274L125.853 68.7438C126.164 68.3209 126.136 67.7569 125.768 67.3622L123.537 64.9091C123.198 64.5143 122.605 64.4297 122.125 64.6835L118.482 66.6855C117.691 67.1366 116.702 67.0802 115.968 66.5445C115.403 66.1497 114.838 65.7832 114.245 65.4448C113.454 64.9937 113.002 64.0914 113.087 63.1891L113.483 59.0723C113.539 58.5366 113.2 58.0855 112.72 57.9163L109.557 56.9012C109.048 56.732 108.512 56.9294 108.229 57.3805L106.083 60.9333C105.603 61.7228 104.727 62.174 103.823 62.0612C103.145 62.0048 102.439 61.9484 101.761 61.9484C100.858 61.9484 100.039 61.3845 99.6432 60.5668L97.8921 56.8166C97.6662 56.3373 97.1578 56.0835 96.6211 56.1963L93.3449 56.873C92.8365 56.9858 92.4693 57.4369 92.4411 57.9445L92.3846 62.0894C92.3846 62.9917 91.8197 63.8094 91.0007 64.2042C90.3793 64.4861 89.758 64.7963 89.1648 65.1346C88.374 65.5576 87.3855 65.5012 86.6512 64.9937L83.2337 62.5969C82.81 62.2868 82.2169 62.315 81.8215 62.6815L79.3361 64.8809C78.9407 65.2192 78.8559 65.7832 79.1101 66.2625L81.1437 69.8717C81.5956 70.6612 81.5391 71.6481 81.0024 72.3812C80.607 72.9451 80.2399 73.5091 79.901 74.073C79.4491 74.8625 78.5453 75.2855 77.6415 75.2009L73.4897 74.8061C72.953 74.7497 72.4729 75.0599 72.3034 75.5674L71.2584 78.6973C71.089 79.2048 71.2867 79.7405 71.7668 79.9943L75.3537 82.1091C76.1446 82.5884 76.5965 83.4625 76.5117 84.3366C76.4552 85.0133 76.3988 85.7182 76.3988 86.3668C76.3988 87.2691 75.8339 88.0868 75.0148 88.4533L71.2302 90.1733C70.75 90.3989 70.4959 90.9065 70.6088 91.414L71.3149 94.6566C71.4279 95.1642 71.8798 95.5307 72.4164 95.5307L76.5965 95.5871C77.5003 95.5871 78.3476 96.1228 78.7147 96.9405C78.9972 97.5609 79.3078 98.153 79.6468 98.7733C80.0987 99.5628 80.0422 100.55 79.5055 101.283L77.1048 104.638C76.7942 105.061 76.8224 105.625 77.1896 106.02L79.4208 108.473C79.7597 108.868 80.3529 108.952 80.833 108.699L84.4764 106.697C85.2672 106.245 86.2558 106.302 86.9901 106.838C87.5267 107.232 88.1198 107.599 88.7129 107.937C89.5038 108.388 89.9557 109.291 89.8709 110.193L89.4755 114.31C89.419 114.845 89.758 115.325 90.2381 115.466L93.4014 116.481C93.9098 116.65 94.4464 116.453 94.7288 116.002L96.8753 112.449C97.2707 111.744 98.0616 111.321 98.8806 111.321ZM101.479 101.48C101.168 101.48 100.886 101.48 100.575 101.452C92.3281 100.973 86.0298 93.9517 86.4817 85.8028C86.7077 81.8553 88.487 78.2179 91.4808 75.5956C94.4746 72.9733 98.3158 71.6481 102.298 71.8737C106.28 72.0992 109.952 73.8474 112.607 76.8081C115.262 79.7687 116.618 83.5753 116.363 87.5228C116.137 91.4704 114.358 95.1078 111.364 97.7301C108.653 100.183 105.151 101.48 101.479 101.48ZM101.423 73.0861C98.0616 73.0861 94.8418 74.2986 92.3281 76.5261C89.5885 78.9228 87.9786 82.2501 87.7527 85.8592C87.329 93.3314 93.1189 99.7602 100.66 100.211C104.332 100.409 107.834 99.2245 110.573 96.7996C113.313 94.4028 114.923 91.0756 115.149 87.4664C115.347 83.8573 114.132 80.3609 111.703 77.654C109.274 74.9471 105.913 73.3399 102.242 73.1143C101.959 73.1143 101.705 73.0861 101.423 73.0861Z" fill="black"/>
<path d="M246.595 22.7564C246.369 22.7564 246.143 22.6436 246.03 22.418C245.889 22.1078 246.002 21.7413 246.312 21.5721L250.634 19.4292C250.944 19.2882 251.311 19.401 251.481 19.7111C251.622 20.0213 251.509 20.3878 251.198 20.557L246.877 22.7C246.792 22.7282 246.708 22.7564 246.595 22.7564Z" fill="black"/>
<path d="M236.54 27.7759C236.314 27.7759 236.088 27.6631 235.975 27.4375C235.834 27.1274 235.947 26.7608 236.258 26.5916L240.579 24.4487C240.89 24.3077 241.257 24.4205 241.426 24.7307C241.567 25.0408 241.454 25.4074 241.144 25.5766L236.822 27.7195C236.738 27.7477 236.653 27.7759 236.54 27.7759Z" fill="black"/>
<path d="M242.302 21.3181C242.076 21.3181 241.85 21.2054 241.737 20.9798L239.59 16.6657C239.449 16.3555 239.562 15.989 239.873 15.8198C240.183 15.6788 240.551 15.7916 240.72 16.1017L242.867 20.4158C243.008 20.726 242.895 21.0926 242.584 21.2617C242.499 21.2899 242.387 21.3181 242.302 21.3181Z" fill="black"/>
<path d="M247.329 31.3552C247.103 31.3552 246.877 31.2425 246.764 31.0169L244.618 26.7028C244.477 26.3926 244.589 26.0261 244.9 25.8569C245.211 25.7159 245.578 25.8287 245.747 26.1389L247.894 30.453C248.035 30.7631 247.922 31.1297 247.612 31.2989C247.527 31.3271 247.414 31.3552 247.329 31.3552Z" fill="black"/>
<path d="M315.311 349.498L213.945 350.147C213.295 350.147 213.069 350.767 213.069 351.331V437.415C213.069 445.649 155.481 467.078 154.916 465.979L154.859 475.086C154.859 476.778 156.356 478.301 158.249 478.301H159.52H159.548H244.533C248.487 478.301 252.384 477.427 255.943 475.932L302.658 456.279C311.074 452.754 316.384 445.141 316.384 436.88V350.711C316.356 350.09 315.961 349.498 315.311 349.498Z" fill="#160783"/>
<path d="M202.817 345.101V431.213C202.817 439.701 197.338 447.426 188.752 451.092L157.232 464.514C155.17 465.388 155.876 468.151 158.164 468.151H244.759C248.657 468.151 252.498 467.39 256.028 465.895L290.937 451.205C299.608 447.567 305.115 439.785 305.115 431.27V345.072C305.115 344.706 304.805 344.424 304.409 344.424H203.523C203.128 344.48 202.817 344.762 202.817 345.101Z" fill="white"/>
<path d="M244.73 468.799H158.136C156.554 468.799 155.622 467.756 155.424 466.741C155.198 465.585 155.82 464.485 156.978 463.977L188.498 450.556C196.801 447.003 202.196 439.418 202.196 431.241V345.128C202.196 344.423 202.789 343.859 203.523 343.859H304.409C305.143 343.859 305.737 344.423 305.737 345.128V431.326C305.737 440.067 300.031 448.103 291.163 451.825L256.254 466.515C252.667 468.01 248.685 468.799 244.73 468.799ZM203.438 345.128V431.213C203.438 439.897 197.761 447.933 188.978 451.684L157.458 465.105C156.837 465.387 156.526 465.895 156.639 466.459C156.752 466.994 157.26 467.53 158.136 467.53H244.73C248.515 467.53 252.328 466.769 255.745 465.331L290.654 450.64C299.043 447.116 304.466 439.503 304.466 431.269V345.072C304.466 345.1 304.437 345.044 304.381 345.044H203.523C203.467 345.1 203.438 345.128 203.438 345.128Z" fill="black"/>
<path d="M14.0088 393.908L430.771 394.81L438.001 394.839L451.445 394.867C455.258 394.867 458.421 391.878 458.901 388.1L493.754 116.227C494.601 109.601 489.771 103.369 483.106 103.369L51.3185 103.764L14.0088 393.908Z" fill="#160783"/>
<path d="M466.894 103.285C474.407 103.285 480.508 110.842 479.547 118.314L444.441 388.1C443.961 391.907 440.713 394.727 436.9 394.727L433.623 394.839L8.19073 394.727C3.61527 394.727 0.0565857 390.694 0.6497 386.155L36.4625 110.87C36.9427 107.064 39.88 103.285 43.6929 103.285H466.894Z" fill="white"/>
<path d="M433.68 395.487L8.24715 395.374C5.87469 395.374 3.64345 394.359 2.09005 392.583C0.536656 390.806 -0.197677 388.438 0.113002 386.098L35.8693 110.785C36.3777 106.781 39.4563 102.664 43.721 102.664H466.894C470.481 102.664 474.04 104.356 476.61 107.288C479.35 110.39 480.677 114.535 480.169 118.398L445.062 388.184C444.525 392.273 441.023 395.346 436.9 395.346L433.68 395.487ZM43.721 103.905C40.1906 103.905 37.5357 107.57 37.1121 110.954L1.29923 386.238C1.04504 388.24 1.6664 390.242 2.99384 391.765C4.32129 393.259 6.21361 394.134 8.2189 394.134L433.652 394.246L436.928 394.134C440.458 394.134 443.424 391.511 443.876 388.043L478.982 118.257C479.434 114.76 478.22 110.954 475.706 108.134C473.362 105.484 470.17 103.933 466.922 103.933H43.721V103.905Z" fill="black"/>
<path d="M447.689 117.129C454.552 117.129 460.144 123.868 459.269 130.551L427.156 371.52C426.704 374.903 423.767 377.441 420.264 377.441L417.242 377.554L28.0462 377.441C23.8662 377.441 20.6182 373.832 21.1548 369.772L53.9173 123.896C54.3692 120.513 57.0241 117.129 60.5263 117.129H447.689Z" fill="white"/>
<path d="M417.299 378.173L28.0743 378.061C25.8713 378.061 23.7812 377.13 22.3408 375.466C20.9286 373.859 20.3073 371.773 20.5615 369.686L53.324 123.811C53.8041 120.23 56.6285 116.508 60.5543 116.508H447.717C451.078 116.508 454.382 118.059 456.755 120.794C459.212 123.585 460.37 127.194 459.918 130.634L427.805 371.604C427.325 375.297 424.077 378.061 420.292 378.061L417.299 378.173ZM60.5261 117.748C57.3346 117.748 54.9339 120.991 54.5385 123.98L21.7759 369.855C21.55 371.575 22.0866 373.324 23.2446 374.649C24.4591 376.03 26.2102 376.82 28.046 376.82L417.242 376.933L420.236 376.82C423.428 376.82 426.139 374.508 426.534 371.434L458.675 130.465C459.071 127.364 458.054 124.149 455.823 121.611C453.676 119.158 450.711 117.748 447.717 117.748H60.5261Z" fill="black"/>
<path d="M366.46 350.005L107.41 345.437C106.478 345.409 105.857 344.732 105.97 343.83L134.948 75.961C135.061 74.8895 136.134 73.959 137.235 73.959L396.285 78.5269C397.217 78.5551 397.839 79.2318 397.726 80.1341L368.748 348.003C368.635 349.103 367.562 350.033 366.46 350.005Z" fill="white"/>
<path d="M311.467 156.572L311.017 132.266L295.196 156.873L311.467 156.572ZM311.952 182.817L311.687 168.501L282.659 169.038L282.439 157.158L312.387 111.308L323.853 111.096L324.688 156.328L333.536 156.164L333.756 168.094L324.909 168.257L325.173 182.573L311.952 182.817ZM251.921 123.662C250.297 123.692 248.849 124.249 247.609 125.333C246.353 126.4 245.393 128.308 244.748 131.054C243.886 134.6 243.532 140.574 243.686 148.94C243.841 157.324 244.362 163.066 245.248 166.182C246.134 169.298 247.217 171.367 248.495 172.387C249.774 173.408 251.224 173.895 252.848 173.865C254.472 173.835 255.92 173.278 257.176 172.194C258.416 171.127 259.376 169.219 260.021 166.473C260.884 162.96 261.238 157.003 261.083 148.619C260.929 140.252 260.408 134.511 259.522 131.394C258.636 128.278 257.553 126.194 256.275 125.173C254.996 124.135 253.544 123.632 251.921 123.662ZM251.712 112.329C258.604 112.202 264.034 114.571 268.019 119.437C272.749 125.183 275.248 134.833 275.498 148.353C275.747 161.856 273.59 171.609 269.044 177.593C265.273 182.535 259.95 185.07 253.057 185.198C246.132 185.326 240.499 182.761 236.159 177.505C231.819 172.248 229.522 162.76 229.269 149.074C229.021 135.637 231.178 125.918 235.725 119.934C239.496 114.991 244.819 112.456 251.712 112.329ZM200.888 158.615L200.439 134.309L184.618 158.916L200.888 158.615ZM201.373 184.86L201.109 170.544L172.08 171.081L171.861 159.201L201.809 113.351L213.274 113.139L214.11 158.371L222.957 158.208L223.178 170.137L214.33 170.3L214.595 184.616L201.373 184.86Z" fill="#160783"/>
<path d="M366.488 350.626C366.46 350.626 366.46 350.626 366.432 350.626L107.382 346.058C106.761 346.058 106.196 345.804 105.829 345.381C105.462 344.958 105.292 344.395 105.349 343.774L134.326 75.9054C134.468 74.4956 135.823 73.3395 137.236 73.3677L396.285 77.9356C396.907 77.9356 397.472 78.1893 397.839 78.6123C398.206 79.0352 398.375 79.5992 398.319 80.2195L369.341 348.088C369.2 349.47 367.901 350.626 366.488 350.626ZM137.207 74.6083C136.445 74.6083 135.654 75.3133 135.569 76.0464L106.591 343.915C106.563 344.169 106.619 344.395 106.761 344.564C106.902 344.733 107.156 344.817 107.41 344.846L366.46 349.414C367.251 349.414 368.042 348.737 368.127 347.976L397.104 80.0785C397.133 79.8247 397.076 79.5992 396.935 79.43C396.794 79.2608 396.54 79.1762 396.285 79.148L137.207 74.6083Z" fill="black"/>
<path d="M350.587 236.26L156.158 232.849C155.989 232.849 155.819 232.764 155.707 232.651C155.594 232.51 155.537 232.341 155.565 232.172L156.469 223.826C156.497 223.515 156.752 223.262 157.09 223.262L351.519 226.674C351.689 226.674 351.858 226.758 351.971 226.871C352.084 227.012 352.14 227.181 352.112 227.35L351.208 235.696C351.18 236.007 350.926 236.26 350.587 236.26ZM156.865 231.608L350.05 235.02L350.813 227.914L157.627 224.502L156.865 231.608Z" fill="black"/>
<path d="M298.026 251.796L154.379 249.259C154.21 249.259 154.04 249.174 153.927 249.061C153.814 248.92 153.758 248.751 153.786 248.582L154.69 240.236C154.718 239.926 155 239.672 155.311 239.672L298.958 242.21C299.127 242.21 299.297 242.294 299.41 242.407C299.523 242.548 299.579 242.717 299.551 242.886L298.647 251.233C298.619 251.543 298.365 251.796 298.026 251.796ZM155.085 248.018L297.489 250.528L298.252 243.422L155.848 240.913L155.085 248.018Z" fill="black"/>
<path d="M345.786 280.698L151.357 277.286C151.188 277.286 151.018 277.202 150.905 277.089C150.792 276.948 150.736 276.779 150.764 276.609L151.668 268.263C151.696 267.953 151.95 267.699 152.289 267.699L346.718 271.111C346.887 271.111 347.057 271.196 347.17 271.308C347.283 271.449 347.339 271.619 347.311 271.788L346.407 280.134C346.379 280.444 346.096 280.698 345.786 280.698ZM152.063 276.045L345.249 279.457L346.012 272.352L152.826 268.94L152.063 276.045Z" fill="black"/>
<path d="M293.225 296.234L149.578 293.696C149.408 293.696 149.239 293.612 149.126 293.499C149.013 293.358 148.956 293.189 148.985 293.02L149.889 284.673C149.917 284.363 150.171 284.138 150.51 284.109L294.157 286.647C294.326 286.647 294.496 286.732 294.608 286.844C294.721 286.985 294.778 287.155 294.75 287.324L293.846 295.67C293.818 295.98 293.535 296.234 293.225 296.234ZM150.284 292.456L292.688 294.965L293.45 287.86L151.047 285.35L150.284 292.456Z" fill="black"/>
<path d="M340.307 319.637L145.878 316.226C145.709 316.226 145.539 316.141 145.426 316.028C145.313 315.887 145.257 315.718 145.285 315.549L146.189 307.203C146.217 306.892 146.499 306.61 146.81 306.639L341.239 310.05C341.408 310.05 341.578 310.135 341.691 310.248C341.804 310.389 341.86 310.558 341.832 310.727L340.928 319.073C340.9 319.384 340.617 319.637 340.307 319.637ZM146.584 314.985L339.77 318.397L340.533 311.291L147.347 307.879L146.584 314.985Z" fill="black"/>
<path d="M287.746 335.146L144.099 332.608C143.929 332.608 143.76 332.524 143.647 332.411C143.534 332.27 143.477 332.101 143.506 331.932L144.41 323.585C144.438 323.275 144.72 323.021 145.031 323.021L288.678 325.559C288.847 325.559 289.017 325.644 289.129 325.757C289.242 325.898 289.299 326.067 289.271 326.236L288.367 334.582C288.339 334.92 288.084 335.146 287.746 335.146ZM144.805 331.396L287.209 333.905L287.971 326.8L145.568 324.29L144.805 331.396Z" fill="black"/>
<path d="M506.012 365.91L419.925 380.939L334.545 365.994C334.432 365.966 334.432 365.797 334.545 365.769L420.914 350.684L506.012 365.91Z" fill="white"/>
<path d="M419.954 381.558C419.925 381.558 419.869 381.558 419.841 381.558L334.46 366.614C334.121 366.558 333.867 366.247 333.867 365.881C333.867 365.514 334.121 365.232 334.46 365.148L420.829 350.062C420.914 350.062 420.97 350.062 421.055 350.062L506.153 365.289C506.464 365.345 506.661 365.599 506.661 365.909C506.661 366.219 506.435 366.473 506.153 366.529L420.067 381.558C420.01 381.558 419.982 381.558 419.954 381.558ZM337.539 365.909L419.954 380.318L502.453 365.909L420.914 351.331L337.539 365.909Z" fill="black"/>
<path d="M419.954 508.275V380.826L334.291 365.854V493.049L419.954 508.275Z" fill="#160783"/>
<path d="M387.558 386.408V374.875L368.55 372.225V383.701L387.558 386.408Z" fill="white"/>
<path d="M387.558 387.028C387.53 387.028 387.502 387.028 387.473 387.028L368.465 384.322C368.155 384.265 367.929 384.011 367.929 383.701V372.225C367.929 372.056 368.013 371.887 368.155 371.746C368.296 371.633 368.465 371.577 368.663 371.605L387.671 374.255C387.982 374.312 388.208 374.565 388.208 374.876V386.408C388.208 386.577 388.123 386.746 387.982 386.887C387.84 387 387.699 387.028 387.558 387.028ZM369.171 383.165L386.937 385.703V375.411L369.171 372.93V383.165Z" fill="black"/>
<path d="M419.954 508.275V380.826L506.379 365.854V492.964L419.954 508.275Z" fill="white"/>
<path d="M419.953 508.895C419.812 508.895 419.671 508.839 419.558 508.754C419.417 508.641 419.332 508.472 419.332 508.275V380.826C419.332 380.516 419.558 380.262 419.84 380.205L506.266 365.261C506.435 365.233 506.633 365.289 506.774 365.402C506.915 365.515 507 365.684 507 365.881V492.992C507 493.302 506.774 493.556 506.492 493.613L420.066 508.923C420.038 508.895 419.982 508.895 419.953 508.895ZM420.575 381.333V507.542L505.757 492.456V366.615L420.575 381.333Z" fill="black"/>
<path d="M493.246 260.454L423.371 272.663L354.175 260.566C354.062 260.538 354.062 260.369 354.175 260.341L424.162 248.104L493.246 260.454Z" fill="white"/>
<path d="M423.371 273.283C423.343 273.283 423.286 273.283 423.258 273.283L354.061 261.186C353.722 261.13 353.468 260.82 353.468 260.481C353.468 260.115 353.722 259.833 354.061 259.776L424.049 247.539C424.134 247.539 424.19 247.539 424.275 247.539L493.33 259.889C493.641 259.946 493.839 260.199 493.839 260.51C493.839 260.82 493.613 261.073 493.33 261.13L423.484 273.311C423.456 273.283 423.399 273.283 423.371 273.283ZM357.196 260.453L423.399 272.042L489.687 260.481L424.19 248.752L357.196 260.453Z" fill="black"/>
<path d="M423.399 375.974V272.548L493.528 260.424V363.567L423.399 375.974Z" fill="white"/>
<path d="M423.399 376.595C423.258 376.595 423.117 376.538 423.004 376.454C422.863 376.341 422.778 376.172 422.778 375.975V272.549C422.778 272.239 423.004 271.985 423.286 271.929L493.415 259.804C493.584 259.776 493.782 259.832 493.923 259.945C494.065 260.058 494.149 260.227 494.149 260.424V363.568C494.149 363.878 493.923 364.132 493.641 364.188L423.512 376.595C423.456 376.595 423.427 376.595 423.399 376.595ZM424.021 273.085V375.241L492.907 363.032V261.157L424.021 273.085Z" fill="black"/>
<path d="M423.399 375.975V272.549L353.864 260.396V363.625L423.399 375.975Z" fill="#160783"/>
<path d="M398.093 279.654V268.122L382.757 265.443V276.948L398.093 279.654Z" fill="white"/>
<path d="M398.093 280.275C398.065 280.275 398.008 280.275 397.98 280.275L382.644 277.568C382.333 277.511 382.135 277.257 382.135 276.947V265.471C382.135 265.302 382.22 265.105 382.361 264.992C382.502 264.879 382.7 264.823 382.87 264.851L398.206 267.501C398.517 267.558 398.714 267.812 398.714 268.122V279.654C398.714 279.852 398.629 280.021 398.488 280.134C398.404 280.218 398.262 280.275 398.093 280.275ZM383.378 276.412L397.472 278.893V268.601L383.378 266.176V276.412Z" fill="black"/>
<path d="M450.09 252.896L381.881 265.19L397.189 267.869L465.454 255.547L450.09 252.896Z" fill="white"/>
<path d="M397.189 268.489C397.161 268.489 397.104 268.489 397.076 268.489L381.768 265.81C381.457 265.753 381.26 265.5 381.26 265.189C381.26 264.879 381.486 264.626 381.768 264.569L449.976 252.275C450.061 252.275 450.118 252.275 450.202 252.275L465.567 254.926C465.877 254.982 466.075 255.236 466.075 255.546C466.075 255.856 465.849 256.11 465.567 256.167L397.302 268.489C397.274 268.489 397.246 268.489 397.189 268.489ZM385.44 265.189L397.189 267.248L461.867 255.574L450.089 253.544L385.44 265.189Z" fill="black"/>
<path d="M413.683 354.039V298.125L362.789 289.158V344.875L413.683 354.039Z" fill="white"/>
<path d="M413.684 354.659C413.655 354.659 413.599 354.659 413.571 354.659L362.648 345.495C362.365 345.439 362.139 345.185 362.139 344.875V289.186C362.139 288.989 362.224 288.82 362.365 288.707C362.506 288.594 362.704 288.538 362.874 288.566L413.797 297.532C414.107 297.589 414.305 297.842 414.305 298.153V354.067C414.305 354.264 414.22 354.433 414.079 354.546C413.994 354.602 413.853 354.659 413.684 354.659ZM363.41 344.339L413.091 353.277V298.632L363.41 289.891V344.339Z" fill="black"/>
<path d="M368.974 330.775V339.375L407.498 345.945V337.543L368.974 330.775Z" fill="black"/>
<path d="M405.635 311.94L397.698 300.436L389.79 309.12L393.857 309.853V330.211L401.539 331.537V311.207L405.635 311.94Z" fill="black"/>
<path d="M386.683 308.726L378.747 297.25L370.838 305.935L374.905 306.64V327.026L382.588 328.323V307.993L386.683 308.726Z" fill="black"/>
<path d="M273.002 428.309L325.648 437.501L377.701 428.393C377.814 428.365 377.814 428.224 377.701 428.196L325.055 419.004L273.002 428.309Z" fill="white"/>
<path d="M325.648 515.379V437.415L272.805 428.279V506.018L325.648 515.379Z" fill="#160783"/>
<path d="M325.648 515.381V437.417L378.04 428.281V506.076L325.648 515.381Z" fill="white"/>
<path d="M325.648 516.001C325.507 516.001 325.366 515.944 325.253 515.86C325.112 515.747 325.027 515.578 325.027 515.38V437.416C325.027 437.106 325.253 436.853 325.535 436.796L377.927 427.632C378.096 427.604 378.294 427.66 378.435 427.773C378.577 427.886 378.661 428.055 378.661 428.253V506.047C378.661 506.357 378.435 506.611 378.153 506.668L325.761 515.973C325.733 516.001 325.676 516.001 325.648 516.001ZM326.27 437.952V514.647L377.419 505.568V429.042L326.27 437.952Z" fill="black"/>
<path d="M307.996 422.33L359.992 431.466L345.758 434.144L293.761 425.009L307.996 422.33Z" fill="white"/>
<path d="M345.757 434.765C345.729 434.765 345.673 434.765 345.644 434.765L293.648 425.629C293.366 425.573 293.14 425.319 293.14 425.009C293.14 424.699 293.337 424.445 293.648 424.388L307.883 421.71C307.968 421.71 308.024 421.682 308.109 421.71L360.105 430.846C360.388 430.902 360.614 431.156 360.614 431.466C360.614 431.776 360.416 432.03 360.105 432.086L345.87 434.765C345.842 434.765 345.814 434.765 345.757 434.765ZM297.235 424.981L345.757 433.496L356.518 431.466L307.996 422.95L297.235 424.981Z" fill="black"/>
<path d="M325.648 438.121C325.62 438.121 325.563 438.121 325.535 438.121L272.889 428.928C272.579 428.872 272.381 428.618 272.381 428.308C272.381 427.998 272.607 427.744 272.889 427.688L324.942 418.383C325.027 418.383 325.083 418.383 325.168 418.383L377.842 427.575C378.181 427.631 378.435 427.941 378.435 428.28C378.435 428.618 378.181 428.928 377.842 428.985L325.789 438.092C325.733 438.12 325.705 438.121 325.648 438.121ZM276.589 428.308L325.676 436.88L374.679 428.308L325.083 419.652L276.589 428.308Z" fill="black"/>
<path d="M325.648 516.001C325.507 516.001 325.366 515.944 325.253 515.86C325.112 515.747 325.027 515.578 325.027 515.38V437.416C325.027 437.106 325.253 436.853 325.535 436.796L377.927 427.632C378.096 427.604 378.294 427.66 378.435 427.773C378.577 427.886 378.661 428.055 378.661 428.253V506.047C378.661 506.357 378.435 506.611 378.153 506.668L325.761 515.973C325.733 516.001 325.676 516.001 325.648 516.001ZM326.27 437.952V514.647L377.419 505.568V429.042L326.27 437.952Z" fill="black"/>
<path d="M325.648 516C325.62 516 325.563 516 325.535 516L272.691 506.639C272.381 506.582 272.183 506.328 272.183 506.018V428.28C272.183 428.111 272.268 427.913 272.409 427.801C272.55 427.688 272.748 427.631 272.917 427.66L325.761 436.795C326.072 436.852 326.269 437.105 326.269 437.416V515.38C326.269 515.577 326.185 515.746 326.044 515.859C325.931 515.943 325.789 516 325.648 516ZM273.426 505.511L325.027 514.646V437.951L273.426 429.013V505.511Z" fill="black"/>
<path d="M342.227 126.04L389.168 134.217L435.572 126.096C435.657 126.068 435.657 125.955 435.572 125.927L388.631 117.75L342.227 126.04Z" fill="white"/>
<path d="M389.14 203.665V134.161L342.03 126.012V195.319L389.14 203.665Z" fill="#160783"/>
<path d="M389.14 203.665V134.161L435.854 126.012V195.347L389.14 203.665Z" fill="white"/>
<path d="M373.408 120.711L419.756 128.86L407.074 131.257L360.727 123.108L373.408 120.711Z" fill="black"/>
<path d="M389.14 134.866C389.112 134.866 389.055 134.866 389.027 134.866L342.086 126.689C341.775 126.632 341.578 126.379 341.578 126.068C341.578 125.758 341.804 125.504 342.086 125.448L388.49 117.158C388.575 117.158 388.631 117.158 388.716 117.158L435.657 125.363C435.996 125.42 436.25 125.702 436.25 126.068C436.25 126.407 435.996 126.717 435.657 126.773L389.253 134.894C389.224 134.866 389.196 134.866 389.14 134.866ZM345.786 126.04L389.14 133.597L432.409 126.04L388.631 118.371L345.786 126.04Z" fill="black"/>
<path d="M389.14 204.286C388.999 204.286 388.857 204.23 388.745 204.145C388.603 204.033 388.519 203.863 388.519 203.666V134.161C388.519 133.851 388.745 133.597 389.027 133.541L435.742 125.392C435.911 125.364 436.109 125.42 436.25 125.533C436.391 125.646 436.476 125.815 436.476 126.012V195.348C436.476 195.658 436.25 195.912 435.968 195.968L389.253 204.258C389.225 204.258 389.168 204.286 389.14 204.286ZM389.761 134.697V202.905L435.233 194.812V126.745L389.761 134.697Z" fill="black"/>
<path d="M389.14 204.286C389.112 204.286 389.055 204.286 389.027 204.286L341.917 195.94C341.606 195.884 341.408 195.63 341.408 195.32V126.012C341.408 125.843 341.493 125.646 341.634 125.533C341.775 125.42 341.973 125.364 342.143 125.392L389.253 133.541C389.563 133.597 389.761 133.851 389.761 134.161V203.638C389.761 203.835 389.676 204.004 389.535 204.117C389.422 204.23 389.281 204.286 389.14 204.286ZM342.651 194.784L388.518 202.905V134.697L342.651 126.774V194.784Z" fill="black"/>
<path d="M375.859 1.00586C416.536 -3.09937 453.504 18.1619 468.988 51.5742C457.952 46.2586 445.529 48.1946 438.244 55.2236C425.018 47.623 412.174 51.5938 403.306 58.7383C395.934 55.1744 389.129 54.1766 382.38 55.1807C375.623 56.1858 368.957 59.1905 361.864 63.5625L360.882 63.1758L360.841 63.1592L360.797 63.1504L360.747 63.1396C355.785 59.9693 349.676 57.7675 343.44 57.9141C337.239 58.0599 330.945 60.5302 325.575 66.6152C319.832 63.9009 314.045 62.2486 308.603 62.5244C303.622 62.7768 298.959 64.6426 294.917 68.7256C303.564 33.111 335.39 5.09026 375.859 1.00586Z" fill="#160783" stroke="black"/>
<path d="M370.386 2.17188C341.182 11.0256 331.41 35.4158 325.874 66.5168C335.703 57.1555 347.339 54.8152 361.885 63.7535C359.992 38.9968 365.161 19.0617 370.386 2.17188Z" fill="white"/>
<path d="M325.874 67.1371C325.761 67.1371 325.676 67.1089 325.592 67.0525C325.366 66.9397 325.225 66.6578 325.281 66.404C330.28 38.2919 339.205 10.9692 370.217 1.57974C370.442 1.52335 370.668 1.57974 370.838 1.74892C371.007 1.9181 371.064 2.14368 370.979 2.36925C365.867 18.9207 360.585 38.6866 362.506 63.7253C362.534 63.9509 362.421 64.1765 362.224 64.2893C362.026 64.402 361.772 64.402 361.574 64.2893C348.3 56.1122 336.748 56.9863 326.298 66.9679C326.185 67.0807 326.015 67.1371 325.874 67.1371ZM369.454 3.10236C340.617 12.4355 331.749 38.0663 326.834 64.7968C337.115 55.802 348.384 55.0971 361.207 62.5975C359.54 38.4611 364.483 19.2873 369.454 3.10236Z" fill="black"/>
<path d="M382.898 0.931641C416.875 5.21754 429.472 27.4084 437.493 55.3795C428.455 50.3605 416.254 52.3343 403.346 59.327C399.166 35.6418 393.037 15.9323 382.898 0.931641Z" fill="white"/>
<path d="M403.375 59.9188C403.29 59.9188 403.177 59.8906 403.092 59.8624C402.923 59.7778 402.781 59.6086 402.753 59.4113C398.15 33.4985 391.682 15.0296 382.39 1.26962C382.248 1.07224 382.248 0.818469 382.39 0.592895C382.531 0.395518 382.757 0.282732 383.011 0.310928C418.909 4.8506 430.714 29.3818 438.114 55.2099C438.171 55.4637 438.114 55.7175 437.916 55.8585C437.719 56.0277 437.436 56.0277 437.239 55.9149C428.766 51.206 417.157 52.5595 403.685 59.8624C403.572 59.8906 403.459 59.9188 403.375 59.9188ZM384.169 1.72076C393.066 15.368 399.307 33.4139 403.798 58.3398C416.677 51.5444 427.918 50.1063 436.476 54.1385C429.274 29.5791 417.694 6.51421 384.169 1.72076Z" fill="black"/>
<path d="M387.53 127.309C387.417 127.309 387.304 127.281 387.191 127.224L294.637 70.2105C294.355 70.0414 294.242 69.6466 294.439 69.3646C294.609 69.0827 295.004 68.9699 295.287 69.1673L387.474 125.927L468.25 50.783C468.504 50.5574 468.9 50.5574 469.126 50.8112C469.352 51.065 469.352 51.4597 469.097 51.6853L387.954 127.14C387.841 127.253 387.7 127.309 387.53 127.309Z" fill="black"/>
<path d="M387.53 127.309C387.361 127.309 387.219 127.252 387.078 127.139L325.535 66.0654C325.281 65.8116 325.281 65.4169 325.535 65.1913C325.79 64.9375 326.185 64.9375 326.411 65.1913L385.835 124.151L360.868 61.4129C360.755 61.1028 360.896 60.7362 361.207 60.5952C361.518 60.4824 361.885 60.6234 362.026 60.9336L388.095 126.435C388.208 126.717 388.095 127.027 387.869 127.196C387.784 127.28 387.671 127.309 387.53 127.309Z" fill="black"/>
<path d="M387.53 127.309C387.445 127.309 387.361 127.281 387.276 127.252C386.993 127.14 386.852 126.83 386.937 126.548L402.753 59.1574C402.838 58.819 403.177 58.6217 403.488 58.7062C403.827 58.7908 404.024 59.1292 403.94 59.4394L388.858 123.7L438.566 52.7285C438.764 52.4466 439.159 52.3902 439.442 52.5876C439.724 52.7849 439.781 53.1797 439.583 53.4617L388.067 127.055C387.926 127.224 387.728 127.309 387.53 127.309Z" fill="black"/>
<path d="M56.8257 473.65L58.2661 487.466L67.5865 488.566V472.184L56.8257 473.65Z" fill="white"/>
<path d="M67.5867 489.187C67.5584 489.187 67.5302 489.187 67.5019 489.187L58.1816 488.087C57.8991 488.059 57.6732 487.833 57.6449 487.523L56.2045 473.707C56.1763 473.368 56.4022 473.086 56.7412 473.03L67.5019 471.564C67.6714 471.536 67.8691 471.592 67.9821 471.705C68.1233 471.818 68.208 471.987 68.208 472.184V488.595C68.208 488.764 68.1233 488.933 68.0103 489.046C67.8974 489.13 67.7279 489.187 67.5867 489.187ZM58.8312 486.931L66.9371 487.89V472.889L57.4755 474.186L58.8312 486.931Z" fill="black"/>
<path d="M69.0555 512.675C65.1861 513.21 58.8031 513.718 51.3468 512.675C48.9179 512.336 47.2797 509.94 47.8728 507.543C49.511 500.832 52.3636 488.087 57.2215 482.166L58.4359 485.38L60.1023 482.363C60.3283 481.94 60.7519 481.658 61.2038 481.602L64.8472 481.122C65.6098 481.038 66.3159 481.545 66.4853 482.279L67.0785 485.07L69.3097 481.433L70.2982 495.023C70.5242 497.928 70.9478 500.832 71.5974 503.68L72.586 507.966C72.8684 510.25 71.315 512.336 69.0555 512.675Z" fill="white"/>
<path d="M60.2434 513.887C57.5038 513.887 54.4817 513.718 51.2337 513.267C49.9062 513.07 48.6918 512.337 47.9292 511.209C47.1666 510.081 46.9124 508.699 47.2231 507.374L47.5903 505.908C49.2566 498.971 52.081 487.354 56.7129 481.743C56.8542 481.574 57.0801 481.489 57.3061 481.518C57.532 481.546 57.7015 481.715 57.7862 481.912L58.5205 483.858L59.5373 482.025C59.848 481.433 60.4411 481.038 61.1189 480.954L64.7624 480.474C65.8356 480.333 66.8524 481.067 67.0783 482.138L67.3325 483.379L68.7447 481.067C68.8859 480.841 69.1683 480.728 69.4225 480.785C69.6767 480.841 69.8744 481.067 69.9027 481.348L70.8912 494.967C71.0889 497.844 71.5408 500.72 72.1904 503.539L73.1789 507.825C73.5179 510.476 71.7103 512.901 69.1401 513.267C66.8524 513.606 63.8021 513.887 60.2434 513.887ZM57.0236 483.435C52.9565 489.103 50.3864 499.733 48.833 506.218L48.4658 507.684C48.2399 508.671 48.4093 509.714 48.9742 510.532C49.5391 511.35 50.4146 511.914 51.4032 512.055C58.7465 513.07 64.9883 512.619 68.9424 512.055C70.8347 511.773 72.1904 509.996 71.9362 508.079L70.9477 503.849C70.2698 500.973 69.8462 498.041 69.6202 495.108L68.7729 483.435L67.5585 485.437C67.4172 485.663 67.1631 485.775 66.9089 485.719C66.6547 485.663 66.457 485.493 66.4005 485.24L65.8074 482.448C65.7226 481.997 65.299 481.715 64.8753 481.771L61.2319 482.251C60.9495 482.279 60.7235 482.448 60.5823 482.674L58.9159 485.691C58.803 485.916 58.577 486.029 58.3228 486.001C58.0686 485.973 57.8709 485.832 57.7862 485.606L57.0236 483.435Z" fill="black"/>
<path d="M60.5256 509.771C58.2097 509.771 55.47 509.517 52.3633 508.813C52.0243 508.728 51.8266 508.39 51.8831 508.079C51.9678 507.741 52.3068 507.544 52.6174 507.6C61.6836 509.687 67.8125 507.544 67.869 507.516C68.1796 507.403 68.5468 507.572 68.6598 507.882C68.7728 508.192 68.6033 508.559 68.2926 508.672C68.1796 508.756 65.2706 509.771 60.5256 509.771Z" fill="black"/>
<path d="M56.0349 499.14C55.696 499.14 55.4136 498.886 55.4136 498.548C55.4136 498.209 55.6678 497.927 56.0067 497.899L64.7339 497.617C65.0729 497.589 65.3553 497.871 65.3835 498.209C65.3835 498.548 65.1294 498.83 64.7904 498.858L56.0349 499.14C56.0632 499.14 56.0632 499.14 56.0349 499.14Z" fill="black"/>
<path d="M100.434 466.291L101.818 486.48H113.031L113.539 466.291H100.434Z" fill="white"/>
<path d="M113.03 487.1H101.818C101.479 487.1 101.225 486.847 101.196 486.508L99.8125 466.319C99.8125 466.15 99.869 465.981 99.982 465.84C100.095 465.727 100.264 465.643 100.434 465.643H113.539C113.708 465.643 113.878 465.699 113.991 465.84C114.104 465.953 114.16 466.122 114.16 466.291L113.652 486.48C113.652 486.818 113.369 487.1 113.03 487.1ZM102.411 485.86H112.409L112.889 466.911H101.112L102.411 485.86Z" fill="black"/>
<path d="M98.9087 497.871C98.8804 499.789 100.18 501.452 102.044 501.904C108.483 503.398 123 506.753 127.124 507.374C132.49 508.163 139.099 506.528 141.924 503.37C144.748 500.212 135.569 492.683 131.219 489.92C124.752 485.86 118.51 477.795 115.911 477.429C113.313 477.062 108.427 484.675 108.427 484.675L100.462 481.32C100.434 481.32 99.0499 488.172 98.9087 497.871Z" fill="white"/>
<path d="M129.92 508.191C128.932 508.191 127.971 508.134 127.011 507.993C122.831 507.373 108.031 503.933 101.874 502.495C99.7561 501.987 98.2309 500.042 98.2592 497.871C98.4004 488.227 99.7843 481.291 99.8126 481.206C99.8408 481.037 99.9538 480.868 100.123 480.783C100.293 480.699 100.49 480.699 100.66 480.755L108.144 483.913C109.444 481.968 113.341 476.469 115.94 476.836C117.437 477.033 119.583 479.063 122.52 481.883C125.232 484.477 128.339 487.438 131.502 489.412C135.004 491.611 142.46 497.476 142.997 501.452C143.138 502.382 142.912 503.143 142.347 503.792C139.975 506.471 134.863 508.191 129.92 508.191ZM99.5301 497.871C99.5019 499.478 100.632 500.916 102.185 501.282C108.342 502.72 123.085 506.132 127.209 506.753C132.547 507.542 138.817 505.878 141.472 502.946C141.782 502.608 141.895 502.157 141.811 501.621C141.387 498.547 135.173 493.162 130.88 490.455C127.604 488.397 124.469 485.408 121.701 482.757C119.244 480.417 116.928 478.217 115.827 478.048C114.302 477.851 110.884 481.996 108.963 485.013C108.794 485.267 108.483 485.379 108.201 485.238L100.942 482.165C100.547 484.223 99.6431 490.173 99.5301 497.871Z" fill="black"/>
<path d="M129.835 503.227C120.063 503.227 107.466 498.772 102.863 496.996C102.552 496.883 102.383 496.516 102.496 496.206C102.609 495.896 102.976 495.727 103.286 495.84C107.636 497.503 129.751 505.539 138.054 500.126C138.337 499.928 138.732 500.013 138.902 500.295C139.099 500.577 139.014 500.972 138.732 501.141C136.473 502.663 133.338 503.227 129.835 503.227Z" fill="black"/>
<path d="M117.38 492.259C117.211 492.259 117.069 492.202 116.928 492.061C116.702 491.808 116.702 491.413 116.928 491.187L121.56 486.648C121.814 486.422 122.21 486.422 122.436 486.648C122.662 486.901 122.662 487.296 122.436 487.522L117.804 492.061C117.691 492.202 117.55 492.259 117.38 492.259Z" fill="black"/>
<path d="M53.6629 334.667C53.6629 334.667 50.1889 397.771 48.3814 419.568C46.5738 441.364 52.6179 476.384 52.6179 476.384L69.9029 475.482C69.9029 475.482 71.0892 432.905 72.3601 421.062C72.3601 421.062 79.6752 405.018 81.8217 390.722C83.9965 376.427 91.368 353.841 91.368 353.841C91.368 353.841 97.3557 466.571 97.9205 475.425C97.9205 475.425 111.477 476.046 116.335 472.972C116.335 472.972 124.95 431.861 123.707 409.501C122.464 387.141 123.82 331.594 123.82 331.594L53.6629 334.667Z" fill="white"/>
<path d="M52.6178 477.005C52.3071 477.005 52.0529 476.779 51.9964 476.497C51.9399 476.159 45.9523 441.139 47.7316 419.54C49.5392 397.998 52.9849 335.288 53.0132 334.668C53.0414 334.358 53.2956 334.104 53.6063 334.076L123.82 330.974C123.989 330.946 124.159 331.031 124.272 331.143C124.385 331.256 124.469 331.425 124.469 331.595C124.469 332.158 123.114 387.396 124.356 409.474C125.571 431.665 117.041 472.691 116.957 473.086C116.928 473.255 116.815 473.396 116.674 473.48C111.703 476.61 98.4571 476.075 97.8922 476.046C97.5815 476.046 97.3273 475.793 97.2991 475.454C96.7907 467.559 91.9328 376.23 90.916 357.282C88.7978 364.049 84.0811 379.924 82.443 390.808C80.3812 404.455 73.5745 419.878 72.9814 421.204C71.7104 433.018 70.5242 475.031 70.5242 475.454C70.5242 475.764 70.27 476.046 69.9311 476.046L52.646 476.949C52.646 477.005 52.6178 477.005 52.6178 477.005ZM54.2559 335.26C53.917 341.576 50.6972 399.154 49.0026 419.625C47.3362 439.616 52.3918 471.196 53.1544 475.736L69.3097 474.89C69.4509 469.758 70.5807 431.975 71.7669 421.006C71.7669 420.95 71.7951 420.865 71.8234 420.809C71.9081 420.64 79.1102 404.68 81.2285 390.638C83.375 376.456 90.7183 353.898 90.8031 353.644C90.8878 353.362 91.1702 353.193 91.4809 353.221C91.7916 353.25 92.0175 353.503 92.0175 353.814C92.074 354.913 97.8074 462.709 98.5418 474.806C101.084 474.862 111.562 475.003 115.827 472.55C116.561 468.997 124.3 430.593 123.142 409.502C121.984 388.693 123.085 338.559 123.255 332.187L54.2559 335.26Z" fill="black"/>
<path d="M69.1968 421.684H63.9153C63.5764 421.684 63.2939 421.402 63.2939 421.064C63.2939 420.725 63.5764 420.443 63.9153 420.443H69.1968C69.5358 420.443 69.8182 420.725 69.8182 421.064C69.8182 421.402 69.5358 421.684 69.1968 421.684Z" fill="black"/>
<path d="M106.845 454.448C106.478 454.448 106.224 454.166 106.224 453.828C106.422 443.395 117.804 424.7 118.284 423.883C118.454 423.601 118.849 423.488 119.131 423.685C119.414 423.854 119.527 424.249 119.329 424.531C119.216 424.729 107.636 443.733 107.439 453.828C107.467 454.194 107.184 454.448 106.845 454.448Z" fill="black"/>
<path d="M134.524 234.822C135.484 234.738 143.449 248.413 147.205 254.927C148.278 256.788 150.651 257.38 152.459 256.252L181.747 238.206C184.148 236.74 186.181 234.766 187.735 232.398C190.192 228.676 191.632 224.897 194.909 222.247C197.563 220.104 200.275 217.707 201.066 217.087C201.574 216.692 203.918 218.356 202.139 221.344C201.602 222.247 199.569 224.108 199.004 224.954C198.128 226.279 198.128 228.083 199.117 229.324C200.162 230.678 201.037 232.821 199.851 235.838C198.1 240.293 194.146 241.392 191.915 241.646C190.785 241.787 189.768 242.323 189.006 243.169L161.977 274.1C157.768 278.894 150.764 279.994 145.341 276.666C136.557 271.309 125.232 260.51 117.069 246.862L134.524 234.822Z" fill="white"/>
<path d="M152.148 279.204C149.719 279.204 147.233 278.556 145.03 277.202C137.009 272.324 125.345 261.863 116.561 247.173C116.391 246.891 116.476 246.524 116.73 246.355L134.157 234.315C134.241 234.259 134.354 234.202 134.467 234.202C135.06 234.174 135.936 234.089 147.742 254.617C148.165 255.378 148.871 255.885 149.719 256.111C150.566 256.337 151.413 256.196 152.148 255.744L181.436 237.699C183.752 236.261 185.758 234.343 187.226 232.087C187.932 231.016 188.554 229.916 189.175 228.873C190.7 226.251 192.141 223.741 194.541 221.796C196.066 220.555 197.592 219.258 198.834 218.215C199.71 217.482 200.388 216.889 200.727 216.636C201.179 216.297 201.856 216.41 202.449 216.974C203.381 217.792 204.003 219.54 202.732 221.711C202.393 222.247 201.659 223.036 200.953 223.798C200.388 224.39 199.823 224.982 199.597 225.348C198.834 226.504 198.863 227.971 199.682 229.014C200.783 230.424 201.828 232.821 200.529 236.148C198.665 240.913 194.428 242.069 192.084 242.351C191.124 242.464 190.22 242.943 189.57 243.676L162.541 274.608C159.773 277.569 155.989 279.204 152.148 279.204ZM117.945 247.032C126.559 261.271 137.913 271.394 145.708 276.131C150.877 279.289 157.542 278.274 161.553 273.678L188.582 242.746C189.429 241.759 190.615 241.167 191.886 240.998C193.976 240.772 197.705 239.729 199.314 235.584C200.19 233.356 199.964 231.354 198.665 229.663C197.535 228.196 197.479 226.166 198.524 224.559C198.806 224.136 199.399 223.516 200.021 222.839C200.67 222.162 201.376 221.401 201.63 220.978C202.393 219.709 202.252 218.835 201.998 218.327C201.8 217.933 201.489 217.707 201.348 217.623C200.981 217.904 200.388 218.44 199.625 219.089C198.467 220.076 196.857 221.429 195.332 222.698C193.101 224.503 191.717 226.899 190.276 229.409C189.655 230.48 189.006 231.58 188.299 232.708C186.718 235.104 184.6 237.163 182.114 238.685L152.826 256.731C151.809 257.352 150.594 257.549 149.436 257.239C148.278 256.957 147.29 256.196 146.697 255.152C139.269 242.21 135.625 236.599 134.58 235.499L117.945 247.032Z" fill="black"/>
<path d="M33.9768 260.2C33.9768 260.2 32.028 224.249 59.2548 214.154C80.3245 206.344 107.269 209.699 115.685 212.632C136.473 219.822 146.697 247.229 146.697 247.229L122.351 250.641C122.351 250.641 129.694 329.366 126.503 346.933C126.503 346.933 106.902 349.217 98.5981 345.946C90.2945 342.647 62.9547 338.051 49.9062 344.085L52.2787 259.861L33.9768 260.2Z" fill="#160783"/>
<path d="M67.8976 327.364C67.6152 327.364 67.3327 327.166 67.2762 326.856C67.2197 326.518 67.4457 326.208 67.7846 326.123C98.8808 320.597 107.947 298.97 108.06 298.744C108.201 298.434 108.54 298.265 108.879 298.406C109.19 298.547 109.359 298.885 109.218 299.223C109.133 299.449 99.8128 321.696 68.0106 327.364C67.9823 327.364 67.9258 327.364 67.8976 327.364Z" fill="white"/>
<path d="M125.994 289.187H86.1143L98.5979 244.41H138.478L125.994 289.187Z" fill="white"/>
<path d="M125.994 289.806H86.1142C85.9165 289.806 85.7471 289.722 85.6058 289.552C85.4929 289.411 85.4364 289.186 85.4929 289.017L98.0048 244.24C98.0895 243.958 98.3154 243.789 98.5979 243.789H138.478C138.675 243.789 138.845 243.874 138.986 244.043C139.099 244.184 139.156 244.409 139.099 244.579L126.615 289.355C126.502 289.609 126.277 289.806 125.994 289.806ZM86.9333 288.565H125.542L137.687 245.03H99.078L86.9333 288.565Z" fill="black"/>
<path d="M38.6938 260.254L56.2331 259.465C56.2331 259.465 56.3743 274.296 57.956 274.578C63.6047 275.509 75.4105 275.565 83.0927 274.635C85.7759 274.296 87.8941 272.238 88.4025 269.587C88.7697 267.585 89.8712 265.217 92.6108 263.525C95.2657 261.89 92.639 267.05 95.1245 270.377C96.4519 272.153 100.688 271.364 106.45 270.039C112.212 268.685 113.68 274.888 107.213 278.61C100.208 282.671 95.7741 282.22 93.5428 282.671C89.1086 283.629 49.7936 289.805 43.7212 286.505C39.0045 283.94 38.6938 260.254 38.6938 260.254Z" fill="white"/>
<path d="M51.3185 288.085C47.6186 288.085 44.766 287.775 43.4103 287.042C38.5524 284.392 38.1005 262.736 38.0723 260.255C38.0723 259.917 38.3265 259.635 38.6654 259.635L56.2046 258.845C56.3741 258.817 56.5436 258.902 56.6565 259.014C56.7695 259.127 56.8542 259.296 56.8542 259.466C56.9107 265.782 57.4191 273.028 58.1534 273.987C63.8869 274.917 75.4385 274.946 83.0078 274.015C85.4085 273.733 87.3008 271.9 87.7809 269.475C88.2893 266.74 89.8427 264.485 92.2716 262.99C92.6953 262.708 93.3449 262.398 93.9098 262.708C94.5594 263.075 94.5594 263.949 94.5594 265.133C94.5594 266.571 94.5311 268.517 95.6326 269.983C96.7624 271.477 101.14 270.603 106.309 269.391C109.472 268.658 111.223 269.983 111.816 271.477C112.607 273.508 111.618 276.75 107.523 279.119C101.903 282.361 97.9486 282.784 95.3219 283.038C94.6723 283.094 94.1075 283.151 93.6556 283.264C91.4243 283.743 65.3555 288.085 51.3185 288.085ZM39.315 260.847C39.4562 267.727 40.5295 284.053 44.0034 285.942C49.8216 289.129 88.8542 283.01 93.4014 282.051C93.9098 281.938 94.5029 281.882 95.209 281.797C97.7227 281.544 101.507 281.149 106.902 278.047C110.348 276.045 111.251 273.479 110.658 271.957C110.15 270.66 108.596 270.152 106.591 270.632C100.575 272.041 96.1975 272.859 94.6441 270.744C93.2884 268.94 93.3167 266.656 93.3167 265.133C93.3167 264.71 93.3167 264.146 93.2884 263.864C93.2037 263.893 93.119 263.949 92.9495 264.034C90.803 265.359 89.4755 267.276 89.0236 269.701C88.4588 272.662 86.1145 274.889 83.1772 275.256C75.4667 276.186 63.6609 276.158 57.871 275.199C57.3626 275.115 55.8092 274.861 55.6398 260.114L39.315 260.847Z" fill="black"/>
<path d="M99.1062 213.28C99.1062 213.28 94.559 210.489 94.6154 208.853L93.3162 200.479C93.3162 199.717 93.7681 199.013 94.5025 198.759L99.8687 196.926C100.547 196.672 100.998 196.024 100.942 195.291L100.518 188.636L102.637 186.775C102.806 186.634 102.834 186.38 102.693 186.211L99.3321 182.151C98.2306 180.628 97.1574 176.963 96.2536 177.216C96.2536 177.216 77.3021 175.017 76.3701 184.576C76.2289 185.957 76.6525 187.339 77.4434 188.467L79.1097 190.835C80.8043 193.204 81.6799 196.108 81.3692 199.013C81.3127 199.605 80.5219 203.496 79.9853 206.062C79.6746 207.528 78.8838 208.825 77.6976 209.727C76.2289 210.855 74.4213 212.321 74.7037 212.406C74.7037 212.406 76.7938 213.957 80.1265 215.31C86.0012 217.735 92.6949 217.143 98.1459 213.816L99.1062 213.28Z" fill="white"/>
<path d="M87.6675 217.397C85.0409 217.397 82.4142 216.889 79.957 215.874C76.6243 214.492 74.506 212.97 74.4213 212.885C74.2801 212.772 74.1671 212.631 74.1389 212.462C74.0541 212.039 74.0259 211.814 77.3869 209.219C78.4319 208.402 79.1662 207.246 79.4486 205.92C80.5784 200.422 80.7761 199.181 80.8043 198.928C81.0868 196.277 80.3242 193.514 78.6296 191.174L76.9632 188.805C76.0594 187.508 75.6358 185.985 75.777 184.491C75.9747 182.545 76.8502 180.91 78.4601 179.613C83.7417 175.355 94.9826 176.427 96.2536 176.568C97.2421 176.427 97.8917 177.808 98.6825 179.557C99.0779 180.402 99.4733 181.248 99.8405 181.784L103.145 185.788C103.512 186.211 103.456 186.859 103.032 187.226L101.14 188.89L101.535 195.234C101.592 196.249 100.97 197.179 100.038 197.518L94.6719 199.351C94.22 199.52 93.9376 199.943 93.9093 200.422L95.2086 208.74C95.2086 208.768 95.2086 208.825 95.2086 208.853C95.1803 209.614 97.3551 211.475 99.4168 212.716C99.6145 212.829 99.6993 213.026 99.6993 213.252C99.6993 213.477 99.5863 213.675 99.3886 213.787L98.4848 214.323C95.2086 216.381 91.4239 217.397 87.6675 217.397ZM75.6358 212.265C76.4266 212.772 78.1494 213.816 80.4089 214.746C86.0294 217.058 92.5537 216.522 97.8634 213.308L97.9199 213.28C96.423 212.265 93.9941 210.404 93.9658 208.909L92.6666 200.591C92.6666 200.563 92.6666 200.535 92.6666 200.507C92.6384 199.463 93.288 198.533 94.2483 198.195L99.6145 196.362C100.038 196.221 100.292 195.798 100.264 195.347L99.8405 188.692C99.8405 188.495 99.897 188.326 100.038 188.185L101.987 186.465L98.852 182.545C98.3718 181.897 97.9482 180.966 97.5528 180.092C97.2138 179.331 96.6207 178.09 96.3101 177.837C96.2818 177.837 96.2536 177.837 96.1971 177.837C96.0841 177.837 84.3065 176.511 79.2227 180.6C77.8953 181.671 77.1609 182.997 77.0197 184.632C76.9067 185.816 77.2457 187.057 77.98 188.1L79.6464 190.469C81.4822 193.063 82.3295 196.108 82.0188 199.069C81.9623 199.548 81.5104 201.945 80.6349 206.202C80.296 207.81 79.4204 209.248 78.1212 210.235C76.709 211.306 76.0029 211.926 75.6358 212.265Z" fill="black"/>
<path d="M96.9032 162.696C92.582 162.47 98.033 166.925 82.0471 162.329C75.6641 160.496 78.9403 167.968 77.3022 167.489C71.2016 165.741 71.3993 165.797 68.4337 166.615C66.4567 167.151 65.214 170.816 65.6094 173.551C66.1178 177.161 70.1848 182.884 73.8 188.947C75.6923 192.077 78.9968 192.359 83.0357 187.706C83.4593 187.199 81.2846 184.294 82.4143 183.025C85.3799 179.755 86.7073 184.689 89.108 183.166C91.424 181.7 92.356 180.742 94.785 178.542C97.7223 175.864 102.665 180.037 104.388 174.003C105.263 170.816 102.806 163.006 96.9032 162.696Z" fill="black"/>
<path d="M90.5769 193.373C87.6113 193.373 84.8435 191.822 83.516 189.228L82.0473 186.38C81.8779 186.07 82.0191 185.703 82.3015 185.534C82.6122 185.365 82.9794 185.506 83.1488 185.788L84.6175 188.636C86.0297 191.343 89.3342 192.696 92.4692 191.85L95.1523 191.061C95.4913 190.976 95.8302 191.145 95.9149 191.484C95.9997 191.822 95.8302 192.16 95.4913 192.245L92.7799 193.063C92.0738 193.26 91.3112 193.373 90.5769 193.373Z" fill="black"/>
<path d="M81.1433 179.388C80.8327 179.388 80.5785 179.162 80.522 178.852C80.4655 178.57 79.4487 171.775 83.2334 167.432C85.3234 165.036 88.4584 163.851 92.4973 163.936C92.8362 163.936 93.1186 164.218 93.1186 164.556C93.1186 164.895 92.8362 165.177 92.4973 165.177C88.7974 165.092 86.0295 166.135 84.1937 168.25C80.7762 172.169 81.7647 178.598 81.7647 178.683C81.8212 179.021 81.5952 179.331 81.2563 179.388C81.1998 179.359 81.1716 179.388 81.1433 179.388Z" fill="white"/>
<path d="M89.8992 183.221C90.2946 180.401 88.3458 177.863 85.5497 177.525C85.239 177.497 84.1092 177.469 83.7986 177.469C81.3696 177.61 80.1269 179.499 79.788 182.008C79.4208 184.715 80.5223 187.225 83.149 187.704C83.2619 187.732 84.0245 187.789 84.1375 187.789C87.216 187.845 89.5038 186.041 89.8992 183.221Z" fill="white"/>
<path d="M84.1655 188.466C83.9961 188.466 83.2052 188.41 83.0358 188.382C80.2679 187.874 78.7145 185.308 79.1664 181.981C79.5901 178.908 81.2564 177.047 83.7419 176.906C84.0808 176.877 85.267 176.906 85.5777 176.962C87.0746 177.131 88.4303 177.892 89.3341 179.077C90.2661 180.289 90.6898 181.812 90.4638 183.334C90.0967 186.408 87.5548 188.466 84.1655 188.466ZM84.109 178.118C83.9961 178.118 83.8831 178.118 83.8266 178.118C81.4259 178.259 80.6351 180.374 80.3809 182.122C80.0702 184.293 80.861 186.69 83.2335 187.141C83.3465 187.169 83.9961 187.197 84.109 187.197C84.109 187.197 84.109 187.197 84.1373 187.197C86.9052 187.197 88.9104 185.59 89.2494 183.137C89.4188 181.925 89.1081 180.74 88.3738 179.81C87.6677 178.879 86.6227 178.287 85.4365 178.174C85.267 178.146 84.5609 178.118 84.109 178.118Z" fill="black"/>
<path d="M86.8771 183.139C87.216 180.319 85.2107 177.81 82.4146 177.528C79.6185 177.246 77.0766 179.304 76.7659 182.124C76.427 184.944 78.4322 187.453 81.2284 187.735C84.0245 188.017 86.5381 185.959 86.8771 183.139Z" fill="white"/>
<path d="M81.7083 188.383C81.5106 188.383 81.3411 188.383 81.1434 188.355C79.6465 188.214 78.2908 187.481 77.3305 186.296C76.3703 185.112 75.9466 183.589 76.1161 182.067C76.4832 178.909 79.3076 176.597 82.4426 176.907C83.9395 177.048 85.2952 177.781 86.2555 178.965C87.2158 180.149 87.6394 181.672 87.47 183.195C87.1593 186.184 84.6174 188.383 81.7083 188.383ZM81.906 178.147C79.6183 178.147 77.6412 179.896 77.3588 182.236C77.2176 183.448 77.5565 184.633 78.3191 185.563C79.0534 186.465 80.0984 187.058 81.2846 187.17C83.7418 187.424 85.9731 185.591 86.2555 183.11C86.3967 181.898 86.0578 180.713 85.2952 179.783C84.5609 178.881 83.5159 178.288 82.3297 178.176C82.1884 178.147 82.0472 178.147 81.906 178.147Z" fill="black"/>
<path d="M94.446 194.755C96.0839 194.755 97.4116 193.417 97.4116 191.766C97.4116 190.115 96.0839 188.777 94.446 188.777C92.8082 188.777 91.4805 190.115 91.4805 191.766C91.4805 193.417 92.8082 194.755 94.446 194.755Z" fill="black"/>
</g>
<defs>
<clipPath id="clip0_1262_179717">
<rect width="507" height="516" fill="white"/>
</clipPath>
</defs>
</svg>
