<svg width="83" height="82" viewBox="0 0 83 82" fill="none" xmlns="http://www.w3.org/2000/svg">
<path d="M75.7923 41.0007C75.7923 22.1748 60.4515 6.83398 41.6257 6.83398C22.7998 6.83398 7.45898 22.1748 7.45898 41.0007C7.45898 50.909 11.7298 59.8265 18.4948 66.079C18.4948 66.1132 18.4948 66.1132 18.4607 66.1473C18.8023 66.489 19.2123 66.7623 19.554 67.0698C19.759 67.2407 19.9298 67.4115 20.1348 67.5482C20.7498 68.0607 21.4332 68.539 22.0823 69.0173C22.3215 69.1882 22.5265 69.3248 22.7657 69.4957C23.4148 69.9398 24.0982 70.3498 24.8157 70.7257C25.0548 70.8623 25.3282 71.0331 25.5673 71.1698C26.2507 71.5457 26.9682 71.8873 27.7198 72.1948C27.9932 72.3315 28.2665 72.4682 28.5398 72.5706C29.2915 72.8782 30.0432 73.1515 30.7948 73.3906C31.0682 73.4931 31.3415 73.5956 31.6148 73.664C32.4348 73.9032 33.2548 74.1082 34.0748 74.3132C34.314 74.3815 34.5532 74.4498 34.8265 74.484C35.7832 74.689 36.7398 74.8257 37.7306 74.9282C37.8673 74.9282 38.004 74.9623 38.1406 74.9965C39.3023 75.099 40.464 75.1673 41.6257 75.1673C42.7873 75.1673 43.949 75.099 45.0765 74.9965C45.2132 74.9965 45.3498 74.9623 45.4865 74.9282C46.4773 74.8257 47.434 74.689 48.3907 74.484C48.6298 74.4498 48.869 74.3473 49.1423 74.3132C49.9623 74.1082 50.8165 73.9373 51.6023 73.664C51.8757 73.5615 52.149 73.459 52.4223 73.3906C53.174 73.1173 53.9598 72.8782 54.6773 72.5706C54.9506 72.4682 55.224 72.3315 55.4973 72.1948C56.2148 71.8873 56.9323 71.5457 57.6498 71.1698C57.9232 71.0331 58.1623 70.8623 58.4015 70.7257C59.0848 70.3157 59.7682 69.9398 60.4515 69.4957C60.6907 69.359 60.8956 69.1882 61.1348 69.0173C61.8181 68.539 62.4673 68.0607 63.0823 67.5482C63.2873 67.3773 63.4582 67.2065 63.6632 67.0698C64.039 66.7623 64.4148 66.4548 64.7565 66.1473C64.7565 66.1132 64.7565 66.1132 64.7223 66.079C71.5215 59.8265 75.7923 50.909 75.7923 41.0007ZM58.504 57.9815C49.2448 51.7631 34.0748 51.7631 24.7473 57.9815C23.244 58.9723 22.014 60.134 20.989 61.3982C15.7957 56.1365 12.584 48.9273 12.584 41.0007C12.584 24.9765 25.6015 11.959 41.6257 11.959C57.6498 11.959 70.6673 24.9765 70.6673 41.0007C70.6673 48.9273 67.4557 56.1365 62.2623 61.3982C61.2715 60.134 60.0073 58.9723 58.504 57.9815Z" fill="#D2D2D2"/>
<path d="M41.625 23.6777C34.5525 23.6777 28.8125 29.4177 28.8125 36.4902C28.8125 43.4261 34.245 49.0636 41.4542 49.2686C41.5567 49.2686 41.6933 49.2686 41.7617 49.2686C41.83 49.2686 41.9325 49.2686 42.0008 49.2686C42.035 49.2686 42.0692 49.2686 42.0692 49.2686C48.9708 49.0294 54.4033 43.4261 54.4375 36.4902C54.4375 29.4177 48.6975 23.6777 41.625 23.6777Z" fill="#D2D2D2"/>
</svg>
