<svg width="82" height="77" viewBox="0 0 82 77" fill="none" xmlns="http://www.w3.org/2000/svg">
<g id="reattempt">
<path id="Vector" d="M66.4758 27.6564C66.4758 27.159 66.2769 26.96 66.2769 26.96C66.1774 26.761 65.9784 26.5621 65.7794 26.3631L40.5075 11.0427C40.01 10.7442 39.413 10.7442 38.9155 11.0427L13.5441 26.3631C13.2456 26.5621 13.0466 26.8605 12.9472 27.159V27.2584C12.8477 27.4574 12.8477 27.5569 12.8477 27.7559V53.6215C12.8477 54.1189 13.1461 54.6163 13.5441 54.9148L39.413 70.0362C39.612 70.1357 39.811 70.1357 40.209 70.1357C40.5075 70.1357 40.806 70.0362 40.9054 69.9367L65.7794 54.8153C66.1774 54.5168 66.4758 54.0194 66.4758 53.522V27.6564ZM39.7115 14.0272L62.1975 27.6564L55.3323 31.8347L32.7468 18.2055L39.7115 14.0272ZM29.8614 19.9962L52.3475 33.6254L50.1585 35.0181L27.6725 21.3889L29.8614 19.9962ZM51.5515 37.6047L53.5414 36.4109V42.1809L51.5515 43.3747V37.6047ZM24.7871 23.0802L47.2732 36.7094L40.1095 41.0866L17.2255 27.6564L24.7871 23.0802ZM15.733 30.2429L38.617 43.6732V66.2559L15.733 52.8256V30.2429ZM41.6019 66.1564V43.6732L48.5666 39.3954V45.9613C48.5666 46.4587 48.8651 46.9561 49.3626 47.2546C49.5616 47.3541 49.8601 47.4535 50.0591 47.4535C50.3575 47.4535 50.5565 47.3541 50.855 47.2546L55.8298 44.2701C56.3273 43.9716 56.5263 43.4742 56.5263 42.9768V34.5207L63.491 30.2429V52.7262L41.6019 66.1564Z" fill="black"/>
<path id="Vector_2" d="M3.99227 35.3165H4.19126C4.48974 35.3165 4.78823 35.2171 5.08672 35.0181L8.56907 32.332C9.26554 31.8346 9.36503 30.9393 8.86756 30.2429C8.37008 29.5465 7.47462 29.447 6.77815 29.9444L6.28067 30.3424C10.0615 14.3256 24.2894 2.9845 40.9052 2.9845C58.4164 2.9845 73.1418 15.5194 75.9277 32.73C76.0272 33.4264 76.7236 34.0233 77.4201 34.0233H77.6191C78.4151 33.9238 79.012 33.1279 78.813 32.332C75.9277 13.5297 59.9089 0 40.9052 0C22.6975 0 7.17613 12.5349 3.2958 30.1434L2.69882 29.3475C2.20134 28.6512 1.30588 28.5517 0.609411 29.0491C-0.0870586 29.5465 -0.186555 30.5413 0.310924 31.1382L2.99731 34.7196C3.2958 35.0181 3.59428 35.2171 3.99227 35.3165ZM81.5989 43.5736L78.7135 40.2907C78.2161 39.6938 77.2211 39.5943 76.6241 40.0917L73.2413 42.9767C72.6443 43.4742 72.5448 44.469 73.0423 45.0659C73.5398 45.6628 74.5347 45.7623 75.1317 45.2649L75.8282 44.668C72.8433 61.6796 58.2174 74.0155 40.8057 74.0155C23.9909 74.0155 9.36503 62.0775 5.98218 45.6628C5.78319 44.8669 4.98722 44.3695 4.19126 44.469C3.39529 44.668 2.89781 45.4638 2.99731 46.2597C6.77815 64.0672 22.6975 77 40.9052 77C59.8094 77 75.7287 63.5698 78.9125 44.9664L79.41 45.5633C79.7085 45.8618 80.1065 46.0607 80.5045 46.0607C80.803 46.0607 81.2009 45.9612 81.4994 45.6628C82.0964 45.1654 82.1959 44.1705 81.5989 43.5736Z" fill="black"/>
</g>
</svg>
