<svg width="24" height="22" viewBox="0 0 24 22" fill="none" xmlns="http://www.w3.org/2000/svg">
<path d="M11.9251 21.9995H10.1072C9.9087 22.0016 9.71613 21.9316 9.56522 21.8026C9.41431 21.6736 9.31529 21.4942 9.28651 21.2978L9.1552 20.4771C9.1199 20.2616 9.03011 20.0588 8.89436 19.8879C8.75862 19.717 8.58143 19.5836 8.37962 19.5004L6.86949 18.8766C6.66876 18.7952 6.45072 18.7656 6.23555 18.7907C6.02037 18.8158 5.81499 18.8948 5.63841 19.0203L4.949 19.5127C4.78781 19.6258 4.59219 19.6791 4.3959 19.6634C4.19961 19.6476 4.01497 19.5639 3.87386 19.4265L2.58532 18.138C2.44352 17.9994 2.35666 17.8142 2.34082 17.6166C2.32498 17.4189 2.38122 17.2222 2.49915 17.0628L2.97517 16.3981C3.10032 16.2213 3.17906 16.016 3.20415 15.8009C3.22925 15.5858 3.1999 15.3678 3.11879 15.167L2.49505 13.661C2.41187 13.4591 2.27847 13.282 2.10753 13.1462C1.9366 13.0105 1.73379 12.9207 1.51839 12.8854L0.697665 12.75C0.501962 12.7203 0.323578 12.6209 0.195382 12.4701C0.0671853 12.3192 -0.0021851 12.1272 5.24886e-05 11.9292V10.0949C-0.00190758 9.89577 0.0686151 9.70271 0.198475 9.5517C0.328336 9.4007 0.508673 9.30208 0.705873 9.2742L1.52659 9.14289C1.742 9.10759 1.9448 9.0178 2.11574 8.88205C2.28668 8.74631 2.42007 8.56912 2.50325 8.36731L3.127 6.85718C3.20848 6.65645 3.23803 6.43841 3.21293 6.22324C3.18783 6.00806 3.10887 5.80268 2.98337 5.6261L2.50736 4.96131C2.39425 4.80012 2.34096 4.6045 2.35669 4.40821C2.37243 4.21192 2.45619 4.02729 2.59353 3.88617L3.88206 2.59764C4.01861 2.45612 4.20143 2.36834 4.39724 2.35026C4.59306 2.33218 4.78886 2.38502 4.949 2.49915L5.61379 2.97517C5.79069 3.09997 5.99602 3.1785 6.21106 3.20359C6.42609 3.22867 6.64399 3.19952 6.84487 3.11879L8.35089 2.49505C8.5527 2.41187 8.72989 2.27847 8.86564 2.10753C9.00138 1.9366 9.09117 1.73379 9.12647 1.51839L9.26189 0.697666C9.29157 0.501962 9.39098 0.323578 9.5418 0.195382C9.69262 0.0671853 9.88468 -0.0021851 10.0826 5.24886e-05H11.9251C12.1237 -0.00204422 12.3162 0.0679025 12.4671 0.19693C12.6181 0.325957 12.7171 0.505317 12.7459 0.701769L12.8772 1.52249C12.9063 1.68764 12.9682 1.8453 13.0591 1.98624C13.15 2.12717 13.2681 2.24853 13.4065 2.34321C13.4856 2.40067 13.5709 2.44886 13.661 2.48684L15.1629 3.11059C15.3636 3.19207 15.5816 3.22162 15.7968 3.19652C16.012 3.17141 16.2174 3.09246 16.394 2.96696L17.0259 2.51146C17.1887 2.39011 17.3892 2.33015 17.5919 2.34216C17.7946 2.35418 17.9865 2.43739 18.1339 2.57712L18.4663 2.90951C18.5045 2.94777 18.5349 2.99319 18.5556 3.04318C18.5763 3.09318 18.587 3.14676 18.587 3.20087C18.587 3.25498 18.5763 3.30856 18.5556 3.35855C18.5349 3.40854 18.5045 3.45396 18.4663 3.49222C18.428 3.53048 18.3826 3.56083 18.3326 3.58154C18.2826 3.60225 18.229 3.61291 18.1749 3.61291C18.1208 3.61291 18.0672 3.60225 18.0172 3.58154C17.9673 3.56083 17.9218 3.53048 17.8836 3.49222L17.5512 3.15983H17.506L16.87 3.61533C16.5796 3.82299 16.2412 3.95342 15.8866 3.99433C15.532 4.03525 15.1728 3.98532 14.8428 3.84924L13.3491 3.25011C13.2047 3.18967 13.0671 3.11401 12.9387 3.02441C12.7105 2.86502 12.5164 2.6617 12.3677 2.42635C12.219 2.19101 12.1188 1.92837 12.0729 1.65381L11.9374 0.833085H10.1031L9.9554 1.65381C9.8984 2.00619 9.75186 2.33803 9.52984 2.61753C9.30781 2.89704 9.01773 3.11486 8.68739 3.25011L7.17726 3.87796C6.84381 4.01774 6.48008 4.06964 6.12084 4.02869C5.76161 3.98774 5.41889 3.8553 5.12546 3.64406L4.46067 3.16393L3.18035 4.44016L3.65637 5.12135C3.86403 5.4117 3.99445 5.75009 4.03537 6.10471C4.07629 6.45932 4.02636 6.81852 3.89027 7.14854L3.26242 8.66277C3.12944 8.99618 2.91262 9.2896 2.63296 9.51463C2.35329 9.73965 2.02026 9.88865 1.66612 9.94719L0.845395 10.0826V11.9169L1.66612 12.0647C2.0185 12.1217 2.35034 12.2682 2.62984 12.4902C2.90935 12.7122 3.12717 13.0023 3.26242 13.3327L3.89027 14.8428C4.02633 15.1735 4.07624 15.5333 4.03533 15.8886C3.99442 16.2439 3.86403 16.5829 3.65637 16.8741L3.17624 17.543L4.46888 18.8438L5.15008 18.3678C5.44043 18.1601 5.77882 18.0297 6.13343 17.9888C6.48805 17.9479 6.84725 17.9978 7.17726 18.1339L8.69149 18.7617C9.02236 18.8974 9.31279 19.1158 9.53486 19.3961C9.75692 19.6763 9.90316 20.009 9.9595 20.3621L10.0949 21.1829H11.9292L12.077 20.3621C12.1347 20.01 12.2815 19.6786 12.5035 19.3992C12.7254 19.1198 13.0151 18.9018 13.345 18.7658L14.8551 18.138C15.1886 17.9982 15.5523 17.9463 15.9115 17.9873C16.2708 18.0282 16.6135 18.1607 16.9069 18.3719L17.5717 18.852L18.2201 18.216C18.2564 18.1698 18.3022 18.132 18.3544 18.105C18.4066 18.0781 18.4639 18.0627 18.5226 18.0598C18.5813 18.0569 18.6399 18.0667 18.6944 18.0884C18.749 18.1102 18.7983 18.1434 18.8389 18.1858C18.8795 18.2282 18.9106 18.2788 18.93 18.3343C18.9494 18.3897 18.9566 18.4487 18.9512 18.5072C18.9459 18.5657 18.928 18.6223 18.8988 18.6733C18.8697 18.7243 18.8299 18.7685 18.7823 18.8028L18.1503 19.4347C18.0092 19.5721 17.8245 19.6558 17.6283 19.6716C17.432 19.6873 17.2363 19.634 17.0752 19.5209L16.4104 19.0449C16.2335 18.9201 16.0281 18.8416 15.8131 18.8165C15.5981 18.7914 15.3802 18.8205 15.1793 18.9013L13.6733 19.525C13.4719 19.6089 13.2951 19.7424 13.1594 19.9133C13.0238 20.0841 12.9337 20.2865 12.8977 20.5017L12.7623 21.3224C12.7278 21.5172 12.6241 21.693 12.4702 21.8174C12.3164 21.9418 12.1228 22.0065 11.9251 21.9995ZM21.0967 19.2131C20.7582 19.2131 20.4274 19.1128 20.146 18.9248C19.8646 18.7367 19.6453 18.4695 19.5157 18.1568C19.3862 17.8441 19.3523 17.5 19.4184 17.1681C19.4844 16.8362 19.6474 16.5312 19.8867 16.2919C20.126 16.0526 20.4309 15.8896 20.7629 15.8236C21.0948 15.7576 21.4389 15.7915 21.7515 15.921C22.0642 16.0505 22.3315 16.2698 22.5195 16.5512C22.7075 16.8326 22.8079 17.1635 22.8079 17.5019C22.8079 17.9558 22.6276 18.391 22.3067 18.7119C21.9858 19.0329 21.5505 19.2131 21.0967 19.2131ZM21.0967 16.6156C20.9204 16.6156 20.7481 16.6679 20.6015 16.7659C20.455 16.8639 20.3409 17.0033 20.2736 17.1662C20.2063 17.3292 20.1889 17.5084 20.2236 17.6813C20.2583 17.8541 20.3435 18.0128 20.4685 18.1372C20.5934 18.2615 20.7525 18.346 20.9255 18.3799C21.0985 18.4138 21.2777 18.3956 21.4403 18.3276C21.603 18.2595 21.7417 18.1448 21.8391 17.9978C21.9365 17.8508 21.988 17.6782 21.9872 17.5019C21.9872 17.3852 21.9641 17.2696 21.9193 17.1618C21.8745 17.054 21.8089 16.9561 21.7261 16.8737C21.6434 16.7914 21.5452 16.7261 21.4372 16.6818C21.3291 16.6375 21.2134 16.615 21.0967 16.6156ZM18.7166 17.0259C18.6508 17.0263 18.5859 17.0108 18.5273 16.9808C18.4688 16.9508 18.4183 16.9072 18.3801 16.8536C18.1724 16.5632 18.042 16.2248 18.0011 15.8702C17.9602 15.5156 18.0101 15.1564 18.1462 14.8264L18.3021 14.4406C18.3228 14.3907 18.3531 14.3454 18.3913 14.3072C18.4296 14.269 18.475 14.2388 18.5249 14.2182C18.5748 14.1976 18.6284 14.1871 18.6824 14.1872C18.7364 14.1874 18.7899 14.1982 18.8397 14.2191C18.9395 14.2608 19.0188 14.3403 19.0603 14.4402C19.1018 14.5401 19.1021 14.6523 19.0613 14.7525L18.9054 15.1383C18.8239 15.339 18.7943 15.557 18.8194 15.7722C18.8445 15.9874 18.9235 16.1928 19.049 16.3693C19.1117 16.4576 19.137 16.5671 19.1193 16.674C19.1016 16.7808 19.0424 16.8764 18.9546 16.9397C18.889 17.0002 18.8054 17.0377 18.7166 17.0464V17.0259ZM11.0264 16.0739C10.1137 16.0759 9.21744 15.8306 8.43296 15.364C8.38064 15.3403 8.33386 15.3059 8.29565 15.2631C8.25744 15.2202 8.22865 15.1698 8.21115 15.1151C8.19364 15.0605 8.1878 15.0027 8.19401 14.9456C8.20022 14.8885 8.21835 14.8334 8.24721 14.7838C8.27607 14.7341 8.31502 14.6911 8.36155 14.6574C8.40809 14.6238 8.46116 14.6003 8.51735 14.5885C8.57353 14.5766 8.63158 14.5767 8.68773 14.5887C8.74388 14.6007 8.79689 14.6244 8.84332 14.6581C9.44993 15.0201 10.1374 15.2248 10.8432 15.2535C11.549 15.2822 12.2509 15.1341 12.8849 14.8226C13.5189 14.5111 14.065 14.0461 14.4736 13.4698C14.8822 12.8936 15.1403 12.2244 15.2244 11.523C15.2478 11.3515 15.2615 11.1789 15.2655 11.0059C15.2683 9.90784 14.8446 8.85157 14.0836 8.05994C13.3226 7.26831 12.2838 6.80323 11.1865 6.7628C10.9576 6.75427 10.7285 6.76387 10.5012 6.79152C9.82963 6.87502 9.18779 7.11792 8.62922 7.49997C8.07066 7.88202 7.61158 8.39212 7.29029 8.98771C6.969 9.5833 6.79483 10.2471 6.7823 10.9237C6.76978 11.6003 6.91927 12.2701 7.2183 12.8772C7.24684 12.9258 7.26503 12.9799 7.27174 13.0359C7.27846 13.0919 7.27354 13.1487 7.25731 13.2028C7.24108 13.2568 7.21388 13.3069 7.17741 13.35C7.14094 13.393 7.09598 13.4281 7.04534 13.453C6.99471 13.4779 6.93948 13.4921 6.88312 13.4947C6.82675 13.4972 6.77046 13.4882 6.71775 13.468C6.66505 13.4479 6.61707 13.4171 6.57681 13.3776C6.53654 13.338 6.50486 13.2906 6.48375 13.2383C6.13517 12.5456 5.95253 11.7814 5.95028 11.0059C5.95025 9.76878 6.40312 8.57441 7.22339 7.6483C8.04367 6.72218 9.1746 6.12839 10.4027 5.97901C10.6746 5.94235 10.9493 5.92999 11.2234 5.94208C12.5323 5.99101 13.771 6.54644 14.6783 7.49118C15.5855 8.43593 16.0903 9.69612 16.0862 11.0059C16.0863 11.2118 16.0726 11.4174 16.0452 11.6215C15.9198 12.6867 15.4578 13.6842 14.7264 14.4687C13.995 15.2532 13.0323 15.7839 11.9785 15.9836C11.6648 16.0441 11.3459 16.0744 11.0264 16.0739ZM21.0967 14.8428C20.6413 14.8442 20.2032 14.6687 19.8748 14.3532C19.5464 14.0378 19.3533 13.6072 19.3362 13.1521L19.0121 5.41271C19.0009 5.18194 19.0375 4.95135 19.1194 4.73531C19.2013 4.51927 19.3268 4.32241 19.4881 4.15701C19.647 3.99066 19.8381 3.85832 20.0497 3.76803C20.2613 3.67774 20.4891 3.63137 20.7192 3.63174H21.4742C21.7049 3.63095 21.9334 3.67703 22.1457 3.7672C22.3581 3.85737 22.5499 3.98975 22.7095 4.1563C22.8692 4.32284 22.9933 4.52009 23.0744 4.73607C23.1555 4.95205 23.1919 5.18225 23.1813 5.41271L22.8612 13.1398C22.8422 13.5949 22.6479 14.0249 22.319 14.34C21.9901 14.6552 21.5522 14.8309 21.0967 14.8305V14.8428ZM20.7192 4.44016C20.5998 4.44062 20.4817 4.4651 20.3719 4.51214C20.2621 4.55917 20.163 4.6278 20.0803 4.71394C19.9976 4.80008 19.9331 4.90198 19.8905 5.01356C19.848 5.12514 19.8284 5.24414 19.8328 5.36347L20.157 13.1029C20.1728 13.3419 20.2788 13.566 20.4537 13.7297C20.6286 13.8934 20.8592 13.9845 21.0987 13.9845C21.3383 13.9845 21.5689 13.8934 21.7438 13.7297C21.9186 13.566 22.0247 13.3419 22.0405 13.1029L22.3647 5.36347C22.368 5.24408 22.3474 5.12524 22.3043 5.01389C22.2611 4.90254 22.1961 4.80091 22.1132 4.71494C22.0303 4.62898 21.9311 4.5604 21.8214 4.51322C21.7117 4.46604 21.5937 4.4412 21.4742 4.44016H20.7192Z" fill="#1C1C1C"/>
</svg>
