<svg width="12" height="12" viewBox="0 0 12 12" fill="none" xmlns="http://www.w3.org/2000/svg">
<path d="M1.58594 3.71973L6.00093 6.27472L10.3859 3.73471" stroke="#F0A22E" stroke-linecap="round" stroke-linejoin="round"/>
<path d="M6.00098 10.8045V6.26953" stroke="#F0A22E" stroke-linecap="round" stroke-linejoin="round"/>
<path d="M10.8063 4.585V7.41502C10.8063 7.44002 10.8063 7.45999 10.8013 7.48499C10.4513 7.17999 10.0013 7.00001 9.50128 7.00001C9.03128 7.00001 8.59628 7.16501 8.25128 7.44001C7.79128 7.80501 7.50128 8.37001 7.50128 9.00001C7.50128 9.37501 7.60628 9.73001 7.79128 10.03C7.83628 10.11 7.89128 10.185 7.95128 10.255L7.03629 10.76C6.46629 11.08 5.53628 11.08 4.96628 10.76L2.29628 9.28001C1.69128 8.94501 1.19629 8.10502 1.19629 7.41502V4.585C1.19629 3.895 1.69128 3.05501 2.29628 2.72001L4.96628 1.24C5.53628 0.92 6.46629 0.92 7.03629 1.24L9.70628 2.72001C10.3113 3.05501 10.8063 3.895 10.8063 4.585Z" stroke="#F0A22E" stroke-linecap="round" stroke-linejoin="round"/>
<path d="M11.501 9C11.501 9.6 11.236 10.135 10.821 10.5C10.466 10.81 10.006 11 9.50098 11C8.39598 11 7.50098 10.105 7.50098 9C7.50098 8.37 7.79098 7.805 8.25098 7.44C8.59598 7.165 9.03098 7 9.50098 7C10.606 7 11.501 7.895 11.501 9Z" stroke="#F0A22E" stroke-miterlimit="10" stroke-linecap="round" stroke-linejoin="round"/>
<path d="M9.62598 8.375V9.125L9.00098 9.5" stroke="#F0A22E" stroke-miterlimit="10" stroke-linecap="round" stroke-linejoin="round"/>
</svg>
