<svg width="82" height="74" viewBox="0 0 82 74" fill="none" xmlns="http://www.w3.org/2000/svg">
<g id="RTO">
<path id="Vector" d="M2.18813 72.3386H0.83731C0.3745 72.3386 0 72.7102 0 73.1693C0 73.6285 0.3745 74 0.83731 74H2.18813C2.65094 74 3.02544 73.6285 3.02544 73.1693C3.02544 72.7102 2.65094 72.3386 2.18813 72.3386ZM81.1627 72.3386H79.0032C78.5404 72.3386 78.1659 72.7102 78.1659 73.1693C78.1659 73.6285 78.5404 74 79.0032 74H81.1627C81.6255 74 82 73.6285 82 73.1693C82 72.7102 81.6255 72.3386 81.1627 72.3386ZM5.78922 67.2159C6.25203 67.2159 6.62653 66.8443 6.62653 66.3852V31.0352H26.6835V44.137C26.6835 44.4217 26.8299 44.6862 27.0719 44.8387C27.3148 44.9912 27.6182 45.0091 27.8774 44.889L35.5293 41.3172L43.1804 44.889C43.294 44.9417 43.415 44.9677 43.5369 44.9677C43.6931 44.9677 43.8492 44.9239 43.9858 44.8387C44.2278 44.6862 44.3742 44.4217 44.3742 44.137V31.0352H64.4312V32.9934C64.4312 33.4526 64.8057 33.8241 65.2685 33.8241C65.7313 33.8241 66.1058 33.4526 66.1058 32.9934V30.2045C66.1058 30.1694 66.09 30.1395 66.0857 30.1055C66.0825 30.078 66.0923 30.051 66.0862 30.0236L59.4916 0.649777C59.4057 0.270132 59.0664 0 58.6739 0C31.201 0 38.6492 0 12.3847 0C11.9922 0 11.6528 0.270132 11.567 0.649777L4.97153 30.0236C4.96545 30.051 4.97526 30.0781 4.97199 30.1056C4.96775 30.1396 4.95191 30.1694 4.95191 30.2045V66.3852C4.95191 66.8443 5.32641 67.2159 5.78922 67.2159ZM42.6996 42.8277L35.8858 39.647C35.6601 39.5415 35.3984 39.5415 35.1728 39.647L28.3582 42.8285V31.0352H42.6996V42.8277ZM64.2243 29.3738H44.316L42.3133 1.66135H58.0026L64.2243 29.3738ZM40.6349 1.66135L42.6374 29.3738H28.4203L30.4228 1.66135H40.6349ZM13.056 1.66135H28.7444L26.7418 29.3738H6.8334L13.056 1.66135ZM66.7583 39.0686H66.1058V36.1093C66.1058 35.6502 65.7313 35.2786 65.2685 35.2786C64.8057 35.2786 64.4312 35.6502 64.4312 36.1093V39.8993V43.6381V54.0806C57.38 54.0859 54.4216 54.0909 53.1807 54.0946V50.8343C53.1807 50.1635 52.8062 49.5599 52.2027 49.259C51.6009 48.9588 50.8887 49.0205 50.3515 49.4172L42.0086 55.4777C41.5466 55.8184 41.2833 56.3408 41.2866 56.9111C41.2899 57.4822 41.5589 58.003 42.034 58.3453L50.3695 64.1949C50.6777 64.4123 51.0375 64.5235 51.4006 64.5235C51.6794 64.5235 51.9599 64.4578 52.2182 64.3255C52.8119 64.0213 53.1807 63.4218 53.1807 62.7607V59.464C54.422 59.4676 57.3798 59.4727 64.4312 59.478V72.0572H6.62653V68.6696C6.62653 68.2104 6.25203 67.8389 5.78922 67.8389C5.32641 67.8389 4.95191 68.2104 4.95191 68.6696V72.7909C4.8915 72.9058 4.84888 73.0307 4.84888 73.1693C4.84888 73.6285 5.22338 74 5.68619 74H75.7153C76.1781 74 76.5526 73.6285 76.5526 73.1693C76.5526 72.7102 76.1781 72.3386 75.7153 72.3386H66.1058V59.4792C66.2159 59.4792 66.317 59.4794 66.4288 59.4794C72.0071 59.4794 76.6613 55.3041 77.0244 49.9745C77.4303 43.9433 72.5746 39.0686 66.7583 39.0686ZM66.1058 44.4688H66.7583C69.5893 44.4688 71.9367 46.9162 71.5614 49.8998C71.2622 52.2823 69.1125 54.0792 66.5596 54.0792C66.4025 54.0793 66.2595 54.0794 66.1058 54.0795V44.4688ZM75.353 49.8625C75.0497 54.3233 71.1297 57.818 66.4296 57.818C61.7034 57.8148 52.6827 57.8067 52.4317 57.8042C52.1962 57.7783 51.9599 57.8553 51.7832 58.0127C51.6066 58.1701 51.506 58.3948 51.506 58.63V62.7607C51.506 62.7786 51.506 62.8207 51.4513 62.8491C51.3924 62.8775 51.3556 62.8508 51.3384 62.8402L43.0095 56.9955C42.9776 56.9719 42.9612 56.9411 42.9612 56.9022C42.9612 56.8446 42.9964 56.8186 43.0029 56.8138L51.3458 50.754C51.3572 50.7459 51.376 50.7313 51.4046 50.7313C51.4177 50.7313 51.4333 50.7346 51.4504 50.7435C51.506 50.7711 51.506 50.8157 51.506 50.8343V54.9285C51.506 55.1516 51.6009 55.3657 51.762 55.5223C51.9231 55.6772 52.1348 55.7908 52.3703 55.7584C52.6835 55.7519 61.7901 55.7438 66.5605 55.7405C69.9555 55.7405 72.8198 53.3183 73.223 50.1059C73.7163 46.1887 70.647 42.8074 66.7583 42.8074H66.1058V40.7299H66.7583C71.6278 40.7299 75.6931 44.8124 75.353 49.8625Z" fill="black"/>
<path id="Vector_2" d="M13.2659 68.8342C13.7287 68.8342 14.1032 68.4627 14.1032 68.0035V62.1421L15.1572 63.1874C15.4843 63.5118 16.0142 63.5119 16.3413 63.1874C16.6683 62.8629 16.6683 62.3372 16.3413 62.0127L13.859 59.5509C13.5368 59.2302 13.0015 59.2238 12.6729 59.5509L10.1906 62.0127C9.86354 62.3372 9.86354 62.8629 10.1906 63.1874C10.5177 63.5119 11.0476 63.5119 11.3746 63.1874L12.4286 62.1421V68.0035C12.4286 68.4627 12.8031 68.8342 13.2659 68.8342ZM20.9505 68.8342C21.4134 68.8342 21.7879 68.4627 21.7879 68.0035V62.1425L22.841 63.1874C23.1681 63.5119 23.698 63.5119 24.025 63.1874C24.3521 62.8629 24.3521 62.3372 24.025 62.0127L21.5436 59.5509C21.4662 59.4739 21.3733 59.4128 21.2702 59.3704C21.0657 59.2867 20.8354 59.2867 20.6308 59.3704C20.5279 59.4128 20.4349 59.4739 20.3575 59.5509L17.8752 62.0127C17.5482 62.3372 17.5482 62.8629 17.8752 63.1874C18.2023 63.5118 18.7322 63.5119 19.0592 63.1874L20.1132 62.1421V68.0035C20.1132 68.4627 20.4877 68.8342 20.9505 68.8342Z" fill="black"/>
</g>
</svg>
