<svg width="69" height="36" viewBox="0 0 69 36" fill="none" xmlns="http://www.w3.org/2000/svg">
<path d="M4.93361 14.2134L10.5936 12.3268C13.1336 11.4801 14.5136 12.8668 13.6736 15.4068L11.7869 21.0668C10.5203 24.8734 8.44028 24.8734 7.17361 21.0668L6.61361 19.3868L4.93361 18.8268C1.12695 17.5601 1.12695 15.4868 4.93361 14.2134Z" stroke="#004EFF" stroke-linecap="round" stroke-linejoin="round"/>
<path d="M6.73975 19.1004L9.12641 16.707" stroke="#004EFF" stroke-linecap="round" stroke-linejoin="round"/>
<path d="M31.4609 20.2793C31.4609 20.8717 31.3151 21.3822 31.0234 21.8105C30.7363 22.2389 30.3216 22.5671 29.7793 22.7949C29.2415 23.0228 28.599 23.1367 27.8516 23.1367C27.487 23.1367 27.1383 23.1162 26.8057 23.0752C26.473 23.0342 26.1585 22.9749 25.8623 22.8975C25.5706 22.8154 25.304 22.7174 25.0625 22.6035V21.0586C25.4681 21.2363 25.9215 21.3981 26.4229 21.5439C26.9242 21.6852 27.4346 21.7559 27.9541 21.7559C28.3779 21.7559 28.7288 21.7012 29.0068 21.5918C29.2894 21.4779 29.499 21.3184 29.6357 21.1133C29.7725 20.9036 29.8408 20.6598 29.8408 20.3818C29.8408 20.0856 29.7611 19.835 29.6016 19.6299C29.4421 19.4248 29.2005 19.238 28.877 19.0693C28.5579 18.8962 28.1569 18.7116 27.6738 18.5156C27.3457 18.3835 27.0312 18.2331 26.7305 18.0645C26.4342 17.8958 26.1699 17.6976 25.9375 17.4697C25.7051 17.2419 25.5205 16.973 25.3838 16.6631C25.2516 16.3486 25.1855 15.9795 25.1855 15.5557C25.1855 14.9906 25.32 14.5075 25.5889 14.1064C25.8623 13.7054 26.2451 13.3978 26.7373 13.1836C27.234 12.9694 27.8128 12.8623 28.4736 12.8623C28.9977 12.8623 29.4899 12.917 29.9502 13.0264C30.415 13.1357 30.8708 13.2907 31.3174 13.4912L30.7979 14.8105C30.3877 14.6419 29.9889 14.5075 29.6016 14.4072C29.2188 14.307 28.8268 14.2568 28.4258 14.2568C28.0794 14.2568 27.7855 14.3092 27.5439 14.4141C27.3024 14.5189 27.1178 14.667 26.9902 14.8584C26.8672 15.0452 26.8057 15.2686 26.8057 15.5283C26.8057 15.82 26.8763 16.0661 27.0176 16.2666C27.1634 16.4626 27.3867 16.6426 27.6875 16.8066C27.9928 16.9707 28.3848 17.153 28.8633 17.3535C29.4147 17.5814 29.8818 17.8206 30.2646 18.0713C30.652 18.3219 30.9482 18.6227 31.1533 18.9736C31.3584 19.32 31.4609 19.7552 31.4609 20.2793ZM41.2705 23H39.6367V18.4883H35.0293V23H33.3887V13.0059H35.0293V17.0938H39.6367V13.0059H41.2705V23ZM50.1094 23L49.1318 20.2246H45.3105L44.333 23H42.6035L46.3223 12.9648H48.1406L51.8525 23H50.1094ZM48.708 18.8164L47.7578 16.082C47.7214 15.9635 47.6689 15.7972 47.6006 15.583C47.5322 15.3643 47.4639 15.1432 47.3955 14.9199C47.3271 14.6921 47.2702 14.5007 47.2246 14.3457C47.179 14.5326 47.1221 14.7422 47.0537 14.9746C46.9899 15.2025 46.9261 15.4167 46.8623 15.6172C46.8031 15.8177 46.7575 15.9727 46.7256 16.082L45.7686 18.8164H48.708ZM55.9814 13.0059C56.8428 13.0059 57.5537 13.1107 58.1143 13.3203C58.6794 13.5299 59.0986 13.849 59.3721 14.2773C59.6501 14.7057 59.7891 15.2503 59.7891 15.9111C59.7891 16.4033 59.6979 16.8226 59.5156 17.1689C59.3333 17.5153 59.0941 17.8024 58.7979 18.0303C58.5016 18.2581 58.1849 18.4404 57.8477 18.5771L60.6846 23H58.832L56.4189 18.9941H54.8125V23H53.1719V13.0059H55.9814ZM55.8721 14.373H54.8125V17.6406H55.9473C56.7083 17.6406 57.2598 17.4993 57.6016 17.2168C57.9479 16.9342 58.1211 16.5173 58.1211 15.9658C58.1211 15.387 57.9365 14.9769 57.5674 14.7354C57.2028 14.4938 56.6377 14.373 55.8721 14.373ZM67.7734 23H62.1133V13.0059H67.7734V14.3867H63.7539V17.1006H67.5205V18.4746H63.7539V21.6123H67.7734V23Z" fill="#004EFF"/>
</svg>
