<svg width="67" height="67" viewBox="0 0 67 67" fill="none" xmlns="http://www.w3.org/2000/svg">
<circle cx="33.5" cy="33.5" r="33" fill="#F6F6F6" stroke="#E8E8E8"/>
<path d="M45.2262 33.4934C46.3862 33.9601 47.1062 35.3334 46.8395 36.5467L46.2928 39.0267C45.3462 43.2934 41.9995 46.3334 37.1728 46.3334H30.8262C25.9995 46.3334 22.6528 43.2934 21.7062 39.0267L21.1595 36.5467C20.8928 35.3334 21.6128 33.9601 22.7728 33.4934L24.6662 32.7334L32.0128 29.7867C33.2928 29.2801 34.7062 29.2801 35.9862 29.7867L43.3328 32.7334L45.2262 33.4934Z" stroke="#1C1C1C" stroke-width="2" stroke-linecap="round" stroke-linejoin="round"/>
<path d="M34 46.3335V30.3335" stroke="#1C1C1C" stroke-width="2" stroke-linecap="round" stroke-linejoin="round"/>
<path d="M43.3332 27.6665V32.7332L35.9865 29.7865C34.7065 29.2798 33.2932 29.2798 32.0132 29.7865L24.6665 32.7332V27.6665C24.6665 25.4665 26.4665 23.6665 28.6665 23.6665L39.3332 23.6665C41.5332 23.6665 43.3332 25.4665 43.3332 27.6665Z" stroke="#1C1C1C" stroke-width="2" stroke-linecap="round" stroke-linejoin="round"/>
<path d="M37.3332 23.6665H30.6665V20.9998C30.6665 20.2665 31.2665 19.6665 31.9998 19.6665H35.9998C36.7332 19.6665 37.3332 20.2665 37.3332 20.9998V23.6665Z" stroke="#1C1C1C" stroke-width="2" stroke-linecap="round" stroke-linejoin="round"/>
</svg>
