<?xml version="1.0" encoding="utf-8"?>
<!-- Generator: Adobe Illustrator 24.3.0, SVG Export Plug-In . SVG Version: 6.00 Build 0)  -->
<svg version="1.1" id="Layer_1" xmlns="http://www.w3.org/2000/svg" xmlns:xlink="http://www.w3.org/1999/xlink" x="0px" y="0px"
	 viewBox="0 0 7998.3 2598.6" style="enable-background:new 0 0 7998.3 2598.6;" xml:space="preserve">
<style type="text/css">
	.st0{fill-rule:evenodd;clip-rule:evenodd;fill:#FFFFFF;}
	.st1{fill:#004EFF;}
	.st2{fill:#00AEEF;}
	.st3{fill-rule:evenodd;clip-rule:evenodd;fill:#004EFF;}
</style>
<g>
	<g id="path-3-inside-1_489_1706">
		<path class="st0" d="M5337.8,1772.1c108.7,373.8,499.9,588.6,873.6,479.9c231.5-67.3,412.6-248.4,479.9-479.9H6411
			c-108.7,218.9-374.3,308.3-593.3,199.6c-86.5-43-156.6-113-199.6-199.6H5337.8z"/>
	</g>
	<path class="st1" d="M706.6,1659.4c276.2,0,472.4-145.4,472.4-390.7c0-269-216.3-336.2-408.8-394.3c-198.1-60-229-99.9-229-158.1
		c0-50.9,45.4-96.3,136.3-96.3c116.3,0,176.3,56.3,219.9,147.2l245.3-143.5C1050,436.5,886.5,336.5,677.5,336.5
		c-219.9,0-427,141.9-427,387c0,243.5,185.3,334.4,374.3,387.1c190.8,52.7,263.5,83.6,263.5,161.7c0,49.1-34.7,103.6-172.5,103.6
		c-143.6,0-221.7-70.9-267.1-176.3l-250.9,145.4C268.6,1532.2,439.4,1659.4,706.6,1659.4z M1811.3,700
		c-119.9,0-210.8,43.6-259.8,110.8V362h-272.6v1272h272.6v-496.1c0-129,68.9-187.2,169-187.2c87.2,0,158.1,52.7,158.1,165.3V1634
		h272.6V1076C2151.1,830.8,1994.8,700,1811.3,700z M2438.2,645.5c89.2,0,163.6-74.5,163.6-163.6s-74.5-163.5-163.6-163.5
		c-89.1,0-163.5,74.5-163.5,163.5S2349.3,645.5,2438.2,645.5L2438.2,645.5z M2301.9,1634h272.6V725.4h-272.6V1634z M3280.9,700
		c-121.6,0-210.8,41.8-270.7,110.8v-85.4h-272.6v1272h272.4v-448.8c60,68.9,149,110.9,270.7,110.9c238.1,0,434.3-209,434.3-479.7
		S3519,700,3280.9,700z M3226.4,1401.2c-125.4,0-216.2-85.4-216.2-221.7s90.8-221.7,216.2-221.7c125.4,0,216.3,85.4,216.3,221.7
		s-90.9,221.8-216.3,221.8V1401.2z"/>
	<path class="st2" d="M4353.5,725.4l-170.8,556l-201.7-556h-300l361.6,866.8c-40,110.9-100,150.8-227,150.8v254.4
		c254.4,12.7,416.1-101.8,517.9-390.7l310.7-881.3L4353.5,725.4z M5332.5,725.4v85.4c-60-68.9-149-110.8-270.7-110.8
		c-238.1,0-434.3,209-434.3,479.7s196.2,479.7,434.3,479.7c121.6,0,210.8-41.8,270.7-110.9v85.4h272.6V725.4H5332.5z M5116.2,1401.4
		c-125.4,0-216.3-85.4-216.3-221.7S4990.9,958,5116.2,958c125.4,0,216.2,85.4,216.2,221.7S5241.6,1401.4,5116.2,1401.4
		L5116.2,1401.4z M6428.3,725.4v85.4c-60-68.9-149-110.8-270.8-110.8c-238,0-434.3,209-434.3,479.7s196.3,479.7,434.3,479.7
		c121.6,0,210.8-41.8,270.8-110.9v85.4h272.6V725.4H6428.3z M6212,1401.4c-125.4,0-216.2-85.4-216.2-221.7S6086.7,958,6212,958
		c125.4,0,216.3,85.4,216.3,221.7S6337.4,1401.4,6212,1401.4z M7137,887.1V725.4h-272.6V1634H7137v-410.7
		c0-179.9,159.9-225.3,272.6-207.1v-309C7295.1,707.2,7173.4,765.4,7137,887.1L7137,887.1z M7637,645.5
		c89.2,0,163.5-74.5,163.5-163.6S7726,318.4,7637,318.4c-89,0-163.6,74.5-163.6,163.5S7547.9,645.5,7637,645.5L7637,645.5z
		 M7500.7,1634h272.6V725.4h-272.6V1634z"/>
	<path class="st3" d="M5337.8,1772.1c108.7,373.8,499.9,588.6,873.6,479.9c231.5-67.3,412.6-248.4,479.9-479.9H6411
		c-108.7,218.9-374.3,308.3-593.3,199.6c-86.5-43-156.6-113-199.6-199.6H5337.8z"/>
</g>
</svg>
