<svg width="171" height="200" viewBox="0 0 171 200" fill="none" xmlns="http://www.w3.org/2000/svg">
<line x1="20.5" y1="199.5" x2="41.5" y2="199.5" stroke="#1C1C1C"/>
<line x1="30.5" y1="200" x2="30.5" y2="137" stroke="#1C1C1C"/>
<path d="M30.9855 122.866C31.2888 122.866 31.5665 122.817 31.8185 122.719C32.0705 122.616 32.2851 122.476 32.4625 122.299C32.6445 122.122 32.7845 121.912 32.8825 121.669C32.9805 121.426 33.0295 121.163 33.0295 120.878C33.0295 120.57 32.9805 120.295 32.8825 120.052C32.7891 119.805 32.6538 119.597 32.4765 119.429C32.3038 119.261 32.0938 119.133 31.8465 119.044C31.6038 118.951 31.3355 118.904 31.0415 118.904C30.7381 118.904 30.4628 118.955 30.2155 119.058C29.9728 119.161 29.7651 119.301 29.5925 119.478C29.4198 119.655 29.2868 119.863 29.1935 120.101C29.1001 120.339 29.0535 120.591 29.0535 120.857C29.0535 121.156 29.0955 121.429 29.1795 121.676C29.2635 121.923 29.3871 122.136 29.5505 122.313C29.7138 122.486 29.9145 122.621 30.1525 122.719C30.3951 122.817 30.6728 122.866 30.9855 122.866ZM30.4325 117.63C30.3578 117.723 30.2855 117.812 30.2155 117.896C30.1501 117.98 30.0848 118.064 30.0195 118.148C30.2341 118.027 30.4698 117.931 30.7265 117.861C30.9831 117.791 31.2585 117.756 31.5525 117.756C31.9445 117.756 32.3201 117.821 32.6795 117.952C33.0388 118.078 33.3538 118.269 33.6245 118.526C33.8998 118.778 34.1191 119.093 34.2825 119.471C34.4458 119.844 34.5275 120.276 34.5275 120.766C34.5275 121.233 34.4411 121.669 34.2685 122.075C34.1005 122.481 33.8625 122.836 33.5545 123.139C33.2465 123.438 32.8755 123.676 32.4415 123.853C32.0121 124.026 31.5361 124.112 31.0135 124.112C30.4908 124.112 30.0195 124.028 29.5995 123.86C29.1795 123.692 28.8201 123.456 28.5215 123.153C28.2275 122.845 28.0011 122.476 27.8425 122.047C27.6838 121.618 27.6045 121.139 27.6045 120.612C27.6045 120.155 27.7025 119.676 27.8985 119.177C28.0945 118.678 28.3978 118.153 28.8085 117.602L31.2865 114.277C31.3611 114.179 31.4685 114.095 31.6085 114.025C31.7531 113.955 31.9141 113.92 32.0915 113.92H33.4215L30.4325 117.63Z" fill="#1C1C1C"/>
<line y1="-0.5" x2="21" y2="-0.5" transform="matrix(1 -2.58105e-07 -2.96109e-08 -1 20.5 38)" stroke="#1C1C1C"/>
<line y1="-0.5" x2="63" y2="-0.5" transform="matrix(4.37114e-08 1 1 -4.37114e-08 31 38)" stroke="#1C1C1C"/>
<line x1="54.5" y1="2.18557e-08" x2="54.5" y2="21" stroke="#1C1C1C"/>
<line x1="54" y1="10" x2="100" y2="10" stroke="#1C1C1C"/>
<path d="M113.486 11.776V8.094C113.486 7.8 113.507 7.478 113.549 7.128L110.161 11.776H113.486ZM116.188 11.776V12.644C116.188 12.728 116.16 12.8003 116.104 12.861C116.053 12.9217 115.974 12.952 115.866 12.952H114.795V15.5H113.486V12.952H109.125C109.018 12.952 108.925 12.9217 108.845 12.861C108.771 12.7957 108.722 12.7163 108.698 12.623L108.544 11.853L113.381 5.413H114.795V11.776H116.188Z" fill="#1C1C1C"/>
<line y1="-0.5" x2="21" y2="-0.5" transform="matrix(4.37114e-08 1 1 -4.37114e-08 171 0)" stroke="#1C1C1C"/>
<line y1="-0.5" x2="46" y2="-0.5" transform="matrix(-1 0 0 1 171 10.5)" stroke="#1C1C1C"/>
<rect x="54.5" y="37.5" width="116" height="162" stroke="#1C1C1C"/>
<path d="M103.019 112.128V113.5H97.195V103.42H98.833V112.128H103.019ZM107.962 110.378C107.426 110.397 106.973 110.441 106.604 110.511C106.236 110.576 105.937 110.663 105.708 110.77C105.48 110.873 105.314 110.996 105.211 111.141C105.113 111.286 105.064 111.444 105.064 111.617C105.064 111.785 105.09 111.93 105.141 112.051C105.197 112.168 105.272 112.266 105.365 112.345C105.463 112.42 105.575 112.476 105.701 112.513C105.832 112.546 105.974 112.562 106.128 112.562C106.52 112.562 106.856 112.49 107.136 112.345C107.421 112.196 107.696 111.981 107.962 111.701V110.378ZM103.972 107.354C104.78 106.603 105.741 106.227 106.856 106.227C107.267 106.227 107.631 106.295 107.948 106.43C108.27 106.561 108.539 106.747 108.753 106.99C108.973 107.233 109.138 107.522 109.25 107.858C109.367 108.189 109.425 108.558 109.425 108.964V113.5H108.753C108.609 113.5 108.499 113.479 108.424 113.437C108.35 113.39 108.287 113.299 108.235 113.164L108.088 112.583C107.906 112.746 107.727 112.893 107.549 113.024C107.372 113.15 107.188 113.257 106.996 113.346C106.81 113.435 106.607 113.5 106.387 113.542C106.173 113.589 105.935 113.612 105.673 113.612C105.384 113.612 105.113 113.572 104.861 113.493C104.614 113.414 104.399 113.295 104.217 113.136C104.035 112.973 103.891 112.772 103.783 112.534C103.681 112.296 103.629 112.016 103.629 111.694C103.629 111.419 103.702 111.15 103.846 110.889C103.996 110.628 104.238 110.394 104.574 110.189C104.915 109.979 105.361 109.806 105.911 109.671C106.467 109.536 107.15 109.459 107.962 109.44V108.964C107.962 108.451 107.853 108.068 107.633 107.816C107.414 107.564 107.092 107.438 106.667 107.438C106.378 107.438 106.135 107.475 105.939 107.55C105.743 107.62 105.573 107.697 105.428 107.781C105.284 107.865 105.155 107.944 105.043 108.019C104.931 108.089 104.812 108.124 104.686 108.124C104.584 108.124 104.495 108.098 104.42 108.047C104.35 107.991 104.292 107.923 104.245 107.844L103.972 107.354ZM112.693 111.708C112.903 111.979 113.132 112.17 113.379 112.282C113.631 112.389 113.904 112.443 114.198 112.443C114.791 112.443 115.253 112.228 115.584 111.799C115.916 111.37 116.081 110.705 116.081 109.804C116.081 108.983 115.937 108.383 115.647 108.005C115.363 107.627 114.954 107.438 114.422 107.438C114.054 107.438 113.732 107.522 113.456 107.69C113.186 107.853 112.931 108.089 112.693 108.397V111.708ZM112.693 107.305C112.987 106.983 113.316 106.726 113.68 106.535C114.044 106.344 114.46 106.248 114.926 106.248C115.342 106.248 115.715 106.33 116.046 106.493C116.382 106.652 116.667 106.883 116.9 107.186C117.134 107.489 117.313 107.858 117.439 108.292C117.565 108.721 117.628 109.207 117.628 109.748C117.628 110.327 117.556 110.854 117.411 111.33C117.271 111.801 117.068 112.207 116.802 112.548C116.536 112.884 116.214 113.145 115.836 113.332C115.458 113.514 115.036 113.605 114.569 113.605C114.341 113.605 114.133 113.582 113.946 113.535C113.76 113.493 113.587 113.43 113.428 113.346C113.27 113.262 113.123 113.162 112.987 113.045C112.857 112.928 112.731 112.795 112.609 112.646L112.546 113.199C112.523 113.306 112.481 113.383 112.42 113.43C112.36 113.477 112.276 113.5 112.168 113.5H111.188V103.14H112.693V107.305ZM123.774 109.125C123.774 108.873 123.736 108.64 123.662 108.425C123.592 108.206 123.487 108.017 123.347 107.858C123.207 107.695 123.032 107.569 122.822 107.48C122.616 107.387 122.378 107.34 122.108 107.34C121.562 107.34 121.132 107.496 120.82 107.809C120.507 108.122 120.309 108.56 120.225 109.125H123.774ZM120.183 110.049C120.201 110.455 120.264 110.807 120.372 111.106C120.479 111.4 120.621 111.645 120.799 111.841C120.981 112.037 121.195 112.184 121.443 112.282C121.695 112.375 121.975 112.422 122.283 112.422C122.577 112.422 122.831 112.389 123.046 112.324C123.26 112.254 123.447 112.179 123.606 112.1C123.764 112.016 123.9 111.941 124.012 111.876C124.124 111.806 124.226 111.771 124.32 111.771C124.441 111.771 124.534 111.818 124.6 111.911L125.027 112.464C124.849 112.674 124.649 112.851 124.425 112.996C124.201 113.141 123.963 113.26 123.711 113.353C123.459 113.442 123.2 113.505 122.934 113.542C122.668 113.584 122.409 113.605 122.157 113.605C121.662 113.605 121.202 113.523 120.778 113.36C120.358 113.192 119.991 112.947 119.679 112.625C119.371 112.303 119.128 111.904 118.951 111.428C118.778 110.952 118.692 110.404 118.692 109.783C118.692 109.288 118.769 108.826 118.923 108.397C119.081 107.968 119.305 107.594 119.595 107.277C119.889 106.96 120.243 106.71 120.659 106.528C121.079 106.341 121.552 106.248 122.08 106.248C122.518 106.248 122.924 106.32 123.298 106.465C123.671 106.605 123.993 106.813 124.264 107.088C124.534 107.363 124.744 107.702 124.894 108.103C125.048 108.5 125.125 108.952 125.125 109.461C125.125 109.694 125.099 109.851 125.048 109.93C124.996 110.009 124.903 110.049 124.768 110.049H120.183ZM128.061 103.14V113.5H126.556V103.14H128.061ZM93.4982 129.776V126.094C93.4982 125.8 93.5192 125.478 93.5612 125.128L90.1732 129.776H93.4982ZM96.2002 129.776V130.644C96.2002 130.728 96.1722 130.8 96.1162 130.861C96.0648 130.922 95.9855 130.952 95.8782 130.952H94.8072V133.5H93.4982V130.952H89.1372C89.0298 130.952 88.9365 130.922 88.8572 130.861C88.7825 130.796 88.7335 130.716 88.7102 130.623L88.5562 129.853L93.3932 123.413H94.8072V129.776H96.2002ZM105.728 133.5H104.097C103.985 133.5 103.894 133.47 103.824 133.409C103.754 133.348 103.698 133.281 103.656 133.206L101.15 129.167C101.132 129.223 101.111 129.277 101.087 129.328C101.069 129.379 101.045 129.428 101.017 129.475L98.5953 133.206C98.5439 133.281 98.4856 133.348 98.4203 133.409C98.3596 133.47 98.2779 133.5 98.1753 133.5H96.6493L100.051 128.32L96.7893 123.42H98.4133C98.5299 123.42 98.6139 123.439 98.6653 123.476C98.7213 123.509 98.7703 123.56 98.8123 123.63L101.262 127.48C101.286 127.424 101.309 127.368 101.332 127.312C101.356 127.256 101.386 127.198 101.423 127.137L103.705 123.658C103.752 123.579 103.803 123.52 103.859 123.483C103.915 123.441 103.983 123.42 104.062 123.42H105.623L102.333 128.25L105.728 133.5ZM109.86 132.366C110.164 132.366 110.441 132.317 110.693 132.219C110.945 132.116 111.16 131.976 111.337 131.799C111.519 131.622 111.659 131.412 111.757 131.169C111.855 130.926 111.904 130.663 111.904 130.378C111.904 130.07 111.855 129.795 111.757 129.552C111.664 129.305 111.529 129.097 111.351 128.929C111.179 128.761 110.969 128.633 110.721 128.544C110.479 128.451 110.21 128.404 109.916 128.404C109.613 128.404 109.338 128.455 109.09 128.558C108.848 128.661 108.64 128.801 108.467 128.978C108.295 129.155 108.162 129.363 108.068 129.601C107.975 129.839 107.928 130.091 107.928 130.357C107.928 130.656 107.97 130.929 108.054 131.176C108.138 131.423 108.262 131.636 108.425 131.813C108.589 131.986 108.789 132.121 109.027 132.219C109.27 132.317 109.548 132.366 109.86 132.366ZM109.307 127.13C109.233 127.223 109.16 127.312 109.09 127.396C109.025 127.48 108.96 127.564 108.894 127.648C109.109 127.527 109.345 127.431 109.601 127.361C109.858 127.291 110.133 127.256 110.427 127.256C110.819 127.256 111.195 127.321 111.554 127.452C111.914 127.578 112.229 127.769 112.499 128.026C112.775 128.278 112.994 128.593 113.157 128.971C113.321 129.344 113.402 129.776 113.402 130.266C113.402 130.733 113.316 131.169 113.143 131.575C112.975 131.981 112.737 132.336 112.429 132.639C112.121 132.938 111.75 133.176 111.316 133.353C110.887 133.526 110.411 133.612 109.888 133.612C109.366 133.612 108.894 133.528 108.474 133.36C108.054 133.192 107.695 132.956 107.396 132.653C107.102 132.345 106.876 131.976 106.717 131.547C106.559 131.118 106.479 130.639 106.479 130.112C106.479 129.655 106.577 129.176 106.773 128.677C106.969 128.178 107.273 127.653 107.683 127.102L110.161 123.777C110.236 123.679 110.343 123.595 110.483 123.525C110.628 123.455 110.789 123.42 110.966 123.42H112.296L109.307 127.13ZM119.291 129.104C119.291 130.084 119.412 131.043 119.655 131.981C119.898 132.914 120.25 133.794 120.712 134.62C120.754 134.704 120.78 134.779 120.789 134.844C120.798 134.909 120.794 134.965 120.775 135.012C120.756 135.063 120.728 135.105 120.691 135.138C120.658 135.171 120.621 135.201 120.579 135.229L119.914 135.642C119.564 135.105 119.268 134.571 119.025 134.039C118.782 133.512 118.584 132.98 118.43 132.443C118.276 131.902 118.164 131.356 118.094 130.805C118.024 130.25 117.989 129.683 117.989 129.104C117.989 128.53 118.024 127.968 118.094 127.417C118.164 126.862 118.276 126.316 118.43 125.779C118.584 125.238 118.782 124.701 119.025 124.169C119.268 123.637 119.564 123.103 119.914 122.566L120.579 122.979C120.621 123.007 120.658 123.037 120.691 123.07C120.728 123.103 120.756 123.145 120.775 123.196C120.794 123.243 120.798 123.299 120.789 123.364C120.78 123.429 120.754 123.504 120.712 123.588C120.25 124.419 119.898 125.301 119.655 126.234C119.412 127.167 119.291 128.124 119.291 129.104ZM124.065 133.5H122.42V123.42H124.065V133.5ZM127.47 127.305C127.624 127.146 127.783 127.004 127.946 126.878C128.114 126.747 128.292 126.635 128.478 126.542C128.665 126.449 128.863 126.376 129.073 126.325C129.283 126.274 129.512 126.248 129.759 126.248C130.151 126.248 130.494 126.313 130.788 126.444C131.087 126.575 131.337 126.759 131.537 126.997C131.743 127.235 131.897 127.522 131.999 127.858C132.102 128.189 132.153 128.556 132.153 128.957V133.5H130.655V128.957C130.655 128.476 130.543 128.103 130.319 127.837C130.1 127.571 129.764 127.438 129.311 127.438C128.975 127.438 128.663 127.515 128.373 127.669C128.089 127.823 127.82 128.033 127.568 128.299V133.5H126.063V126.36H126.973C127.179 126.36 127.309 126.456 127.365 126.647L127.47 127.305ZM134.666 129.104C134.666 128.124 134.545 127.167 134.302 126.234C134.059 125.301 133.709 124.419 133.252 123.588C133.21 123.504 133.184 123.429 133.175 123.364C133.166 123.299 133.168 123.243 133.182 123.196C133.201 123.145 133.226 123.103 133.259 123.07C133.296 123.037 133.336 123.007 133.378 122.979L134.05 122.566C134.395 123.103 134.689 123.637 134.932 124.169C135.175 124.701 135.373 125.238 135.527 125.779C135.681 126.316 135.793 126.862 135.863 127.417C135.933 127.968 135.968 128.53 135.968 129.104C135.968 129.683 135.933 130.25 135.863 130.805C135.793 131.356 135.681 131.902 135.527 132.443C135.373 132.98 135.175 133.512 134.932 134.039C134.689 134.571 134.395 135.105 134.05 135.642L133.378 135.229C133.336 135.201 133.296 135.171 133.259 135.138C133.226 135.105 133.201 135.063 133.182 135.012C133.168 134.965 133.166 134.909 133.175 134.844C133.184 134.779 133.21 134.704 133.252 134.62C133.709 133.794 134.059 132.914 134.302 131.981C134.545 131.043 134.666 130.084 134.666 129.104Z" fill="#1C1C1C"/>
</svg>
