<svg width="171" height="200" viewBox="0 0 171 200" fill="none" xmlns="http://www.w3.org/2000/svg">
<line x1="20.5" y1="199.5" x2="41.5" y2="199.5" stroke="#1C1C1C"/>
<line x1="30.5" y1="200" x2="30.5" y2="160.5" stroke="#1C1C1C"/>
<path d="M30.9855 146.366C31.2888 146.366 31.5665 146.317 31.8185 146.219C32.0705 146.116 32.2851 145.976 32.4625 145.799C32.6445 145.622 32.7845 145.412 32.8825 145.169C32.9805 144.926 33.0295 144.663 33.0295 144.378C33.0295 144.07 32.9805 143.795 32.8825 143.552C32.7891 143.305 32.6538 143.097 32.4765 142.929C32.3038 142.761 32.0938 142.633 31.8465 142.544C31.6038 142.451 31.3355 142.404 31.0415 142.404C30.7381 142.404 30.4628 142.455 30.2155 142.558C29.9728 142.661 29.7651 142.801 29.5925 142.978C29.4198 143.155 29.2868 143.363 29.1935 143.601C29.1001 143.839 29.0535 144.091 29.0535 144.357C29.0535 144.656 29.0955 144.929 29.1795 145.176C29.2635 145.423 29.3871 145.636 29.5505 145.813C29.7138 145.986 29.9145 146.121 30.1525 146.219C30.3951 146.317 30.6728 146.366 30.9855 146.366ZM30.4325 141.13C30.3578 141.223 30.2855 141.312 30.2155 141.396C30.1501 141.48 30.0848 141.564 30.0195 141.648C30.2341 141.527 30.4698 141.431 30.7265 141.361C30.9831 141.291 31.2585 141.256 31.5525 141.256C31.9445 141.256 32.3201 141.321 32.6795 141.452C33.0388 141.578 33.3538 141.769 33.6245 142.026C33.8998 142.278 34.1191 142.593 34.2825 142.971C34.4458 143.344 34.5275 143.776 34.5275 144.266C34.5275 144.733 34.4411 145.169 34.2685 145.575C34.1005 145.981 33.8625 146.336 33.5545 146.639C33.2465 146.938 32.8755 147.176 32.4415 147.353C32.0121 147.526 31.5361 147.612 31.0135 147.612C30.4908 147.612 30.0195 147.528 29.5995 147.36C29.1795 147.192 28.8201 146.956 28.5215 146.653C28.2275 146.345 28.0011 145.976 27.8425 145.547C27.6838 145.118 27.6045 144.639 27.6045 144.112C27.6045 143.655 27.7025 143.176 27.8985 142.677C28.0945 142.178 28.3978 141.653 28.8085 141.102L31.2865 137.777C31.3611 137.679 31.4685 137.595 31.6085 137.525C31.7531 137.455 31.9141 137.42 32.0915 137.42H33.4215L30.4325 141.13Z" fill="#1C1C1C"/>
<line y1="-0.5" x2="21" y2="-0.5" transform="matrix(1 -2.58105e-07 -2.96109e-08 -1 20.5 85)" stroke="#1C1C1C"/>
<line y1="-0.5" x2="39.5" y2="-0.5" transform="matrix(4.37114e-08 1 1 -4.37114e-08 31 85)" stroke="#1C1C1C"/>
<line x1="56.5" y1="48" x2="56.5" y2="69" stroke="#1C1C1C"/>
<line x1="56" y1="58" x2="101" y2="58" stroke="#1C1C1C"/>
<path d="M113.485 62.366C113.789 62.366 114.066 62.317 114.318 62.219C114.57 62.1163 114.785 61.9763 114.962 61.799C115.144 61.6217 115.284 61.4117 115.382 61.169C115.48 60.9263 115.529 60.6627 115.529 60.378C115.529 60.07 115.48 59.7947 115.382 59.552C115.289 59.3047 115.154 59.097 114.976 58.929C114.804 58.761 114.594 58.6327 114.346 58.544C114.104 58.4507 113.835 58.404 113.541 58.404C113.238 58.404 112.963 58.4553 112.715 58.558C112.473 58.6607 112.265 58.8007 112.092 58.978C111.92 59.1553 111.787 59.363 111.693 59.601C111.6 59.839 111.553 60.091 111.553 60.357C111.553 60.6557 111.595 60.9287 111.679 61.176C111.763 61.4233 111.887 61.6357 112.05 61.813C112.214 61.9857 112.414 62.121 112.652 62.219C112.895 62.317 113.173 62.366 113.485 62.366ZM112.932 57.13C112.858 57.2233 112.785 57.312 112.715 57.396C112.65 57.48 112.585 57.564 112.519 57.648C112.734 57.5267 112.97 57.431 113.226 57.361C113.483 57.291 113.758 57.256 114.052 57.256C114.444 57.256 114.82 57.3213 115.179 57.452C115.539 57.578 115.854 57.7693 116.124 58.026C116.4 58.278 116.619 58.593 116.782 58.971C116.946 59.3443 117.027 59.776 117.027 60.266C117.027 60.7327 116.941 61.169 116.768 61.575C116.6 61.981 116.362 62.3357 116.054 62.639C115.746 62.9377 115.375 63.1757 114.941 63.353C114.512 63.5257 114.036 63.612 113.513 63.612C112.991 63.612 112.519 63.528 112.099 63.36C111.679 63.192 111.32 62.9563 111.021 62.653C110.727 62.345 110.501 61.9763 110.342 61.547C110.184 61.1177 110.104 60.6393 110.104 60.112C110.104 59.6547 110.202 59.1763 110.398 58.677C110.594 58.1777 110.898 57.6527 111.308 57.102L113.786 53.777C113.861 53.679 113.968 53.595 114.108 53.525C114.253 53.455 114.414 53.42 114.591 53.42H115.921L112.932 57.13Z" fill="#1C1C1C"/>
<line y1="-0.5" x2="21" y2="-0.5" transform="matrix(4.37114e-08 1 1 -4.37114e-08 171 48)" stroke="#1C1C1C"/>
<line y1="-0.5" x2="45" y2="-0.5" transform="matrix(-1 0 0 1 171 58.5)" stroke="#1C1C1C"/>
<rect x="56.5" y="85.5" width="114" height="114" stroke="#1C1C1C"/>
<path d="M104.019 135.628V137H98.195V126.92H99.833V135.628H104.019ZM108.962 133.878C108.426 133.897 107.973 133.941 107.604 134.011C107.236 134.076 106.937 134.163 106.708 134.27C106.48 134.373 106.314 134.496 106.211 134.641C106.113 134.786 106.064 134.944 106.064 135.117C106.064 135.285 106.09 135.43 106.141 135.551C106.197 135.668 106.272 135.766 106.365 135.845C106.463 135.92 106.575 135.976 106.701 136.013C106.832 136.046 106.974 136.062 107.128 136.062C107.52 136.062 107.856 135.99 108.136 135.845C108.421 135.696 108.696 135.481 108.962 135.201V133.878ZM104.972 130.854C105.78 130.103 106.741 129.727 107.856 129.727C108.267 129.727 108.631 129.795 108.948 129.93C109.27 130.061 109.539 130.247 109.753 130.49C109.973 130.733 110.138 131.022 110.25 131.358C110.367 131.689 110.425 132.058 110.425 132.464V137H109.753C109.609 137 109.499 136.979 109.424 136.937C109.35 136.89 109.287 136.799 109.235 136.664L109.088 136.083C108.906 136.246 108.727 136.393 108.549 136.524C108.372 136.65 108.188 136.757 107.996 136.846C107.81 136.935 107.607 137 107.387 137.042C107.173 137.089 106.935 137.112 106.673 137.112C106.384 137.112 106.113 137.072 105.861 136.993C105.614 136.914 105.399 136.795 105.217 136.636C105.035 136.473 104.891 136.272 104.783 136.034C104.681 135.796 104.629 135.516 104.629 135.194C104.629 134.919 104.702 134.65 104.846 134.389C104.996 134.128 105.238 133.894 105.574 133.689C105.915 133.479 106.361 133.306 106.911 133.171C107.467 133.036 108.15 132.959 108.962 132.94V132.464C108.962 131.951 108.853 131.568 108.633 131.316C108.414 131.064 108.092 130.938 107.667 130.938C107.378 130.938 107.135 130.975 106.939 131.05C106.743 131.12 106.573 131.197 106.428 131.281C106.284 131.365 106.155 131.444 106.043 131.519C105.931 131.589 105.812 131.624 105.686 131.624C105.584 131.624 105.495 131.598 105.42 131.547C105.35 131.491 105.292 131.423 105.245 131.344L104.972 130.854ZM113.693 135.208C113.903 135.479 114.132 135.67 114.379 135.782C114.631 135.889 114.904 135.943 115.198 135.943C115.791 135.943 116.253 135.728 116.584 135.299C116.916 134.87 117.081 134.205 117.081 133.304C117.081 132.483 116.937 131.883 116.647 131.505C116.363 131.127 115.954 130.938 115.422 130.938C115.054 130.938 114.732 131.022 114.456 131.19C114.186 131.353 113.931 131.589 113.693 131.897V135.208ZM113.693 130.805C113.987 130.483 114.316 130.226 114.68 130.035C115.044 129.844 115.46 129.748 115.926 129.748C116.342 129.748 116.715 129.83 117.046 129.993C117.382 130.152 117.667 130.383 117.9 130.686C118.134 130.989 118.313 131.358 118.439 131.792C118.565 132.221 118.628 132.707 118.628 133.248C118.628 133.827 118.556 134.354 118.411 134.83C118.271 135.301 118.068 135.707 117.802 136.048C117.536 136.384 117.214 136.645 116.836 136.832C116.458 137.014 116.036 137.105 115.569 137.105C115.341 137.105 115.133 137.082 114.946 137.035C114.76 136.993 114.587 136.93 114.428 136.846C114.27 136.762 114.123 136.662 113.987 136.545C113.857 136.428 113.731 136.295 113.609 136.146L113.546 136.699C113.523 136.806 113.481 136.883 113.42 136.93C113.36 136.977 113.276 137 113.168 137H112.188V126.64H113.693V130.805ZM124.774 132.625C124.774 132.373 124.736 132.14 124.662 131.925C124.592 131.706 124.487 131.517 124.347 131.358C124.207 131.195 124.032 131.069 123.822 130.98C123.616 130.887 123.378 130.84 123.108 130.84C122.562 130.84 122.132 130.996 121.82 131.309C121.507 131.622 121.309 132.06 121.225 132.625H124.774ZM121.183 133.549C121.201 133.955 121.264 134.307 121.372 134.606C121.479 134.9 121.621 135.145 121.799 135.341C121.981 135.537 122.195 135.684 122.443 135.782C122.695 135.875 122.975 135.922 123.283 135.922C123.577 135.922 123.831 135.889 124.046 135.824C124.26 135.754 124.447 135.679 124.606 135.6C124.764 135.516 124.9 135.441 125.012 135.376C125.124 135.306 125.226 135.271 125.32 135.271C125.441 135.271 125.534 135.318 125.6 135.411L126.027 135.964C125.849 136.174 125.649 136.351 125.425 136.496C125.201 136.641 124.963 136.76 124.711 136.853C124.459 136.942 124.2 137.005 123.934 137.042C123.668 137.084 123.409 137.105 123.157 137.105C122.662 137.105 122.202 137.023 121.778 136.86C121.358 136.692 120.991 136.447 120.679 136.125C120.371 135.803 120.128 135.404 119.951 134.928C119.778 134.452 119.692 133.904 119.692 133.283C119.692 132.788 119.769 132.326 119.923 131.897C120.081 131.468 120.305 131.094 120.595 130.777C120.889 130.46 121.243 130.21 121.659 130.028C122.079 129.841 122.552 129.748 123.08 129.748C123.518 129.748 123.924 129.82 124.298 129.965C124.671 130.105 124.993 130.313 125.264 130.588C125.534 130.863 125.744 131.202 125.894 131.603C126.048 132 126.125 132.452 126.125 132.961C126.125 133.194 126.099 133.351 126.048 133.43C125.996 133.509 125.903 133.549 125.768 133.549H121.183ZM129.061 126.64V137H127.556V126.64H129.061ZM93.4972 157.866C93.8005 157.866 94.0782 157.817 94.3302 157.719C94.5822 157.616 94.7968 157.476 94.9742 157.299C95.1562 157.122 95.2962 156.912 95.3942 156.669C95.4922 156.426 95.5412 156.163 95.5412 155.878C95.5412 155.57 95.4922 155.295 95.3942 155.052C95.3008 154.805 95.1655 154.597 94.9882 154.429C94.8155 154.261 94.6055 154.133 94.3582 154.044C94.1155 153.951 93.8472 153.904 93.5532 153.904C93.2498 153.904 92.9745 153.955 92.7272 154.058C92.4845 154.161 92.2768 154.301 92.1042 154.478C91.9315 154.655 91.7985 154.863 91.7052 155.101C91.6118 155.339 91.5652 155.591 91.5652 155.857C91.5652 156.156 91.6072 156.429 91.6912 156.676C91.7752 156.923 91.8988 157.136 92.0622 157.313C92.2255 157.486 92.4262 157.621 92.6642 157.719C92.9068 157.817 93.1845 157.866 93.4972 157.866ZM92.9442 152.63C92.8695 152.723 92.7972 152.812 92.7272 152.896C92.6618 152.98 92.5965 153.064 92.5312 153.148C92.7458 153.027 92.9815 152.931 93.2382 152.861C93.4948 152.791 93.7702 152.756 94.0642 152.756C94.4562 152.756 94.8318 152.821 95.1912 152.952C95.5505 153.078 95.8655 153.269 96.1362 153.526C96.4115 153.778 96.6308 154.093 96.7942 154.471C96.9575 154.844 97.0392 155.276 97.0392 155.766C97.0392 156.233 96.9528 156.669 96.7802 157.075C96.6122 157.481 96.3742 157.836 96.0662 158.139C95.7582 158.438 95.3872 158.676 94.9532 158.853C94.5238 159.026 94.0478 159.112 93.5252 159.112C93.0025 159.112 92.5312 159.028 92.1112 158.86C91.6912 158.692 91.3318 158.456 91.0332 158.153C90.7392 157.845 90.5128 157.476 90.3542 157.047C90.1955 156.618 90.1162 156.139 90.1162 155.612C90.1162 155.155 90.2142 154.676 90.4102 154.177C90.6062 153.678 90.9095 153.153 91.3202 152.602L93.7982 149.277C93.8728 149.179 93.9802 149.095 94.1202 149.025C94.2648 148.955 94.4258 148.92 94.6032 148.92H95.9332L92.9442 152.63ZM106.728 159H105.097C104.985 159 104.894 158.97 104.824 158.909C104.754 158.848 104.698 158.781 104.656 158.706L102.15 154.667C102.132 154.723 102.111 154.777 102.087 154.828C102.069 154.879 102.045 154.928 102.017 154.975L99.5953 158.706C99.5439 158.781 99.4856 158.848 99.4203 158.909C99.3596 158.97 99.2779 159 99.1753 159H97.6493L101.051 153.82L97.7893 148.92H99.4133C99.5299 148.92 99.6139 148.939 99.6653 148.976C99.7213 149.009 99.7703 149.06 99.8123 149.13L102.262 152.98C102.286 152.924 102.309 152.868 102.332 152.812C102.356 152.756 102.386 152.698 102.423 152.637L104.705 149.158C104.752 149.079 104.803 149.02 104.859 148.983C104.915 148.941 104.983 148.92 105.062 148.92H106.623L103.333 153.75L106.728 159ZM110.86 157.866C111.164 157.866 111.441 157.817 111.693 157.719C111.945 157.616 112.16 157.476 112.337 157.299C112.519 157.122 112.659 156.912 112.757 156.669C112.855 156.426 112.904 156.163 112.904 155.878C112.904 155.57 112.855 155.295 112.757 155.052C112.664 154.805 112.529 154.597 112.351 154.429C112.179 154.261 111.969 154.133 111.721 154.044C111.479 153.951 111.21 153.904 110.916 153.904C110.613 153.904 110.338 153.955 110.09 154.058C109.848 154.161 109.64 154.301 109.467 154.478C109.295 154.655 109.162 154.863 109.068 155.101C108.975 155.339 108.928 155.591 108.928 155.857C108.928 156.156 108.97 156.429 109.054 156.676C109.138 156.923 109.262 157.136 109.425 157.313C109.589 157.486 109.789 157.621 110.027 157.719C110.27 157.817 110.548 157.866 110.86 157.866ZM110.307 152.63C110.233 152.723 110.16 152.812 110.09 152.896C110.025 152.98 109.96 153.064 109.894 153.148C110.109 153.027 110.345 152.931 110.601 152.861C110.858 152.791 111.133 152.756 111.427 152.756C111.819 152.756 112.195 152.821 112.554 152.952C112.914 153.078 113.229 153.269 113.499 153.526C113.775 153.778 113.994 154.093 114.157 154.471C114.321 154.844 114.402 155.276 114.402 155.766C114.402 156.233 114.316 156.669 114.143 157.075C113.975 157.481 113.737 157.836 113.429 158.139C113.121 158.438 112.75 158.676 112.316 158.853C111.887 159.026 111.411 159.112 110.888 159.112C110.366 159.112 109.894 159.028 109.474 158.86C109.054 158.692 108.695 158.456 108.396 158.153C108.102 157.845 107.876 157.476 107.717 157.047C107.559 156.618 107.479 156.139 107.479 155.612C107.479 155.155 107.577 154.676 107.773 154.177C107.969 153.678 108.273 153.153 108.683 152.602L111.161 149.277C111.236 149.179 111.343 149.095 111.483 149.025C111.628 148.955 111.789 148.92 111.966 148.92H113.296L110.307 152.63ZM120.291 154.604C120.291 155.584 120.412 156.543 120.655 157.481C120.898 158.414 121.25 159.294 121.712 160.12C121.754 160.204 121.78 160.279 121.789 160.344C121.798 160.409 121.794 160.465 121.775 160.512C121.756 160.563 121.728 160.605 121.691 160.638C121.658 160.671 121.621 160.701 121.579 160.729L120.914 161.142C120.564 160.605 120.268 160.071 120.025 159.539C119.782 159.012 119.584 158.48 119.43 157.943C119.276 157.402 119.164 156.856 119.094 156.305C119.024 155.75 118.989 155.183 118.989 154.604C118.989 154.03 119.024 153.468 119.094 152.917C119.164 152.362 119.276 151.816 119.43 151.279C119.584 150.738 119.782 150.201 120.025 149.669C120.268 149.137 120.564 148.603 120.914 148.066L121.579 148.479C121.621 148.507 121.658 148.537 121.691 148.57C121.728 148.603 121.756 148.645 121.775 148.696C121.794 148.743 121.798 148.799 121.789 148.864C121.78 148.929 121.754 149.004 121.712 149.088C121.25 149.919 120.898 150.801 120.655 151.734C120.412 152.667 120.291 153.624 120.291 154.604ZM125.065 159H123.42V148.92H125.065V159ZM128.47 152.805C128.624 152.646 128.783 152.504 128.946 152.378C129.114 152.247 129.292 152.135 129.478 152.042C129.665 151.949 129.863 151.876 130.073 151.825C130.283 151.774 130.512 151.748 130.759 151.748C131.151 151.748 131.494 151.813 131.788 151.944C132.087 152.075 132.337 152.259 132.537 152.497C132.743 152.735 132.897 153.022 132.999 153.358C133.102 153.689 133.153 154.056 133.153 154.457V159H131.655V154.457C131.655 153.976 131.543 153.603 131.319 153.337C131.1 153.071 130.764 152.938 130.311 152.938C129.975 152.938 129.663 153.015 129.373 153.169C129.089 153.323 128.82 153.533 128.568 153.799V159H127.063V151.86H127.973C128.179 151.86 128.309 151.956 128.365 152.147L128.47 152.805ZM135.666 154.604C135.666 153.624 135.545 152.667 135.302 151.734C135.059 150.801 134.709 149.919 134.252 149.088C134.21 149.004 134.184 148.929 134.175 148.864C134.166 148.799 134.168 148.743 134.182 148.696C134.201 148.645 134.226 148.603 134.259 148.57C134.296 148.537 134.336 148.507 134.378 148.479L135.05 148.066C135.395 148.603 135.689 149.137 135.932 149.669C136.175 150.201 136.373 150.738 136.527 151.279C136.681 151.816 136.793 152.362 136.863 152.917C136.933 153.468 136.968 154.03 136.968 154.604C136.968 155.183 136.933 155.75 136.863 156.305C136.793 156.856 136.681 157.402 136.527 157.943C136.373 158.48 136.175 159.012 135.932 159.539C135.689 160.071 135.395 160.605 135.05 161.142L134.378 160.729C134.336 160.701 134.296 160.671 134.259 160.638C134.226 160.605 134.201 160.563 134.182 160.512C134.168 160.465 134.166 160.409 134.175 160.344C134.184 160.279 134.21 160.204 134.252 160.12C134.709 159.294 135.059 158.414 135.302 157.481C135.545 156.543 135.666 155.584 135.666 154.604Z" fill="#1C1C1C"/>
</svg>
