<svg width="16" height="16" viewBox="0 0 16 16" fill="none" xmlns="http://www.w3.org/2000/svg">
<path d="M3.64669 6.00004C4.93535 6.00004 5.98002 4.95537 5.98002 3.66671C5.98002 2.37804 4.93535 1.33337 3.64669 1.33337C2.35802 1.33337 1.31335 2.37804 1.31335 3.66671C1.31335 4.95537 2.35802 6.00004 3.64669 6.00004Z" stroke="white"/>
<path d="M11.3133 10H13.3133C14.0466 10 14.6466 10.6 14.6466 11.3333V13.3333C14.6466 14.0667 14.0466 14.6667 13.3133 14.6667H11.3133C10.58 14.6667 9.97998 14.0667 9.97998 13.3333V11.3333C9.97998 10.6 10.58 10 11.3133 10Z" stroke="white"/>
<path d="M8 3.33337H9.78667C11.02 3.33337 11.5933 4.86004 10.6667 5.67337L5.34 10.3334C4.41334 11.14 4.98667 12.6667 6.21334 12.6667H8" stroke="white" stroke-linecap="round" stroke-linejoin="round"/>
<path d="M3.65748 3.66671H3.66518" stroke="white" stroke-linecap="round" stroke-linejoin="round"/>
<path d="M12.3241 12.3333H12.3318" stroke="white" stroke-linecap="round" stroke-linejoin="round"/>
</svg>
