<svg width="17" height="16" viewBox="0 0 17 16" fill="none" xmlns="http://www.w3.org/2000/svg">
<path d="M6.49967 14.6667H10.4997C13.833 14.6667 15.1663 13.3334 15.1663 10V6.00004C15.1663 2.66671 13.833 1.33337 10.4997 1.33337H6.49967C3.16634 1.33337 1.83301 2.66671 1.83301 6.00004V10C1.83301 13.3334 3.16634 14.6667 6.49967 14.6667Z" stroke="#777777" stroke-linecap="round" stroke-linejoin="round"/>
<path d="M6.50033 6.66667C7.23671 6.66667 7.83366 6.06971 7.83366 5.33333C7.83366 4.59695 7.23671 4 6.50033 4C5.76395 4 5.16699 4.59695 5.16699 5.33333C5.16699 6.06971 5.76395 6.66667 6.50033 6.66667Z" stroke="#1C1C1C" stroke-linecap="round" stroke-linejoin="round"/>
<path d="M2.28027 12.6334L5.56694 10.4267C6.09361 10.0734 6.85361 10.1134 7.32694 10.5201L7.54694 10.7134C8.06694 11.1601 8.90694 11.1601 9.42694 10.7134L12.2003 8.33341C12.7203 7.88675 13.5603 7.88675 14.0803 8.33341L15.1669 9.26675" stroke="#1C1C1C" stroke-linecap="round" stroke-linejoin="round"/>
</svg>
