<svg width="67" height="67" viewBox="0 0 67 67" fill="none" xmlns="http://www.w3.org/2000/svg">
<circle cx="33.5" cy="33.5" r="33" fill="#F6F6F6" stroke="#E8E8E8"/>
<path d="M25 19C27.76 19 30 21.24 30 24C30 26.76 27.22 28.445 27.22 28.445M27.22 28.445L27.22 26.185M27.22 28.445L29.72 28.445M25 29C22.24 29 20 26.78 20 24C20 20.665 22.78 19 22.78 19M22.78 19L20.28 19M22.78 19L22.78 21.22" stroke="#1C1C1C" stroke-width="2" stroke-linecap="round" stroke-linejoin="round"/>
<path d="M20.667 27.1598V35.6665H35.3337C36.8003 35.6665 38.0003 34.4665 38.0003 32.9998V19.6665H28.187" stroke="#1C1C1C" stroke-width="2" stroke-linecap="round" stroke-linejoin="round"/>
<path d="M47.3337 35.6665V39.6665C47.3337 41.8798 45.547 43.6665 43.3337 43.6665H42.0003C42.0003 42.1998 40.8003 40.9998 39.3337 40.9998C37.867 40.9998 36.667 42.1998 36.667 43.6665H31.3337C31.3337 42.1998 30.1337 40.9998 28.667 40.9998C27.2003 40.9998 26.0003 42.1998 26.0003 43.6665H24.667C22.4537 43.6665 20.667 41.8798 20.667 39.6665V35.6665H35.3337C36.8003 35.6665 38.0003 34.4665 38.0003 32.9998V23.6665H40.4537C41.4137 23.6665 42.2937 24.1865 42.7737 25.0132L45.0536 28.9998H43.3337C42.6003 28.9998 42.0003 29.5998 42.0003 30.3332V34.3332C42.0003 35.0665 42.6003 35.6665 43.3337 35.6665H47.3337Z" stroke="#1C1C1C" stroke-width="2" stroke-linecap="round" stroke-linejoin="round"/>
<path d="M28.6667 46.3333C30.1394 46.3333 31.3333 45.1394 31.3333 43.6667C31.3333 42.1939 30.1394 41 28.6667 41C27.1939 41 26 42.1939 26 43.6667C26 45.1394 27.1939 46.3333 28.6667 46.3333Z" stroke="#1C1C1C" stroke-width="2" stroke-linecap="round" stroke-linejoin="round"/>
<path d="M39.3337 46.3333C40.8064 46.3333 42.0003 45.1394 42.0003 43.6667C42.0003 42.1939 40.8064 41 39.3337 41C37.8609 41 36.667 42.1939 36.667 43.6667C36.667 45.1394 37.8609 46.3333 39.3337 46.3333Z" stroke="#1C1C1C" stroke-width="2" stroke-linecap="round" stroke-linejoin="round"/>
<path d="M47.3333 33V35.6667H43.3333C42.6 35.6667 42 35.0667 42 34.3333V30.3333C42 29.6 42.6 29 43.3333 29H45.0533L47.3333 33Z" stroke="#1C1C1C" stroke-width="2" stroke-linecap="round" stroke-linejoin="round"/>
</svg>
