<svg width="63" height="11" viewBox="0 0 63 11" fill="none" xmlns="http://www.w3.org/2000/svg">
<path d="M9.13281 1.00586L5.63965 11H3.90332L0.410156 1.00586H2.0918L4.19727 7.26758C4.26107 7.44987 4.32943 7.6709 4.40234 7.93066C4.47982 8.19043 4.55046 8.45247 4.61426 8.7168C4.68262 8.98112 4.73503 9.21582 4.77148 9.4209C4.80794 9.21582 4.85807 8.98112 4.92188 8.7168C4.99023 8.45247 5.06087 8.19043 5.13379 7.93066C5.20671 7.6709 5.27507 7.44759 5.33887 7.26074L7.45117 1.00586H9.13281ZM10.4453 11V1.00586H12.0859V11H10.4453ZM20.3848 11H14.7246V1.00586H20.3848V2.38672H16.3652V5.10059H20.1318V6.47461H16.3652V9.6123H20.3848V11ZM34.3643 1.00586L31.7529 11H29.9619L28.2939 5.01172C28.2529 4.86589 28.2074 4.69271 28.1572 4.49219C28.1071 4.29167 28.057 4.08659 28.0068 3.87695C27.9613 3.66732 27.9202 3.47591 27.8838 3.30273C27.8519 3.125 27.8291 2.98828 27.8154 2.89258C27.8063 2.98828 27.7858 3.12272 27.7539 3.2959C27.722 3.46908 27.6833 3.66048 27.6377 3.87012C27.5967 4.0752 27.5511 4.28027 27.501 4.48535C27.4508 4.68587 27.4053 4.86361 27.3643 5.01855L25.7236 11H23.9395L21.335 1.00586H22.9824L24.4248 6.86426C24.4704 7.05111 24.516 7.25391 24.5615 7.47266C24.6117 7.68685 24.6572 7.90332 24.6982 8.12207C24.7438 8.34082 24.7848 8.55501 24.8213 8.76465C24.8577 8.96973 24.8874 9.15658 24.9102 9.3252C24.9329 9.15202 24.9626 8.96061 24.999 8.75098C25.0355 8.53678 25.0742 8.32031 25.1152 8.10156C25.1608 7.87826 25.2064 7.66406 25.252 7.45898C25.3021 7.25391 25.3522 7.06934 25.4023 6.90527L27.0293 1.00586H28.6289L30.29 6.92578C30.3402 7.0944 30.388 7.28353 30.4336 7.49316C30.4837 7.7028 30.5316 7.91699 30.5771 8.13574C30.6227 8.35449 30.6637 8.56641 30.7002 8.77148C30.7367 8.97656 30.7663 9.16113 30.7891 9.3252C30.821 9.10189 30.862 8.84668 30.9121 8.55957C30.9622 8.27246 31.0192 7.98079 31.083 7.68457C31.1468 7.38835 31.2106 7.11491 31.2744 6.86426L32.71 1.00586H34.3643ZM45.6094 11L44.6318 8.22461H40.8105L39.833 11H38.1035L41.8223 0.964844H43.6406L47.3525 11H45.6094ZM44.208 6.81641L43.2578 4.08203C43.2214 3.96354 43.1689 3.7972 43.1006 3.58301C43.0322 3.36426 42.9639 3.14323 42.8955 2.91992C42.8271 2.69206 42.7702 2.50065 42.7246 2.3457C42.679 2.53255 42.6221 2.74219 42.5537 2.97461C42.4899 3.20247 42.4261 3.41667 42.3623 3.61719C42.3031 3.81771 42.2575 3.97266 42.2256 4.08203L41.2686 6.81641H44.208ZM48.6719 11V1.00586H50.3125V9.60547H54.5576V11H48.6719ZM56.2871 11V1.00586H57.9277V9.60547H62.1729V11H56.2871Z" fill="#004EFF"/>
</svg>
