<svg width="117" height="36" viewBox="0 0 117 36" fill="none" xmlns="http://www.w3.org/2000/svg">
<path d="M10.3866 17.9999C10.3866 19.3199 9.31995 20.3866 7.99995 20.3866C6.67995 20.3866 5.61328 19.3199 5.61328 17.9999C5.61328 16.6799 6.67995 15.6133 7.99995 15.6133C9.31995 15.6133 10.3866 16.6799 10.3866 17.9999Z" stroke="#004EFF" stroke-linecap="round" stroke-linejoin="round"/>
<path d="M7.9999 23.5138C10.3532 23.5138 12.5466 22.1271 14.0732 19.7271C14.6732 18.7871 14.6732 17.2071 14.0732 16.2671C12.5466 13.8671 10.3532 12.4805 7.9999 12.4805C5.64656 12.4805 3.45323 13.8671 1.92656 16.2671C1.32656 17.2071 1.32656 18.7871 1.92656 19.7271C3.45323 22.1271 5.64656 23.5138 7.9999 23.5138Z" stroke="#004EFF" stroke-linecap="round" stroke-linejoin="round"/>
<path d="M32.9502 13.0059L29.457 23H27.7207L24.2275 13.0059H25.9092L28.0146 19.2676C28.0785 19.4499 28.1468 19.6709 28.2197 19.9307C28.2972 20.1904 28.3678 20.4525 28.4316 20.7168C28.5 20.9811 28.5524 21.2158 28.5889 21.4209C28.6253 21.2158 28.6755 20.9811 28.7393 20.7168C28.8076 20.4525 28.8783 20.1904 28.9512 19.9307C29.0241 19.6709 29.0924 19.4476 29.1562 19.2607L31.2686 13.0059H32.9502ZM34.2627 23V13.0059H35.9033V23H34.2627ZM44.2021 23H38.542V13.0059H44.2021V14.3867H40.1826V17.1006H43.9492V18.4746H40.1826V21.6123H44.2021V23ZM58.1816 13.0059L55.5703 23H53.7793L52.1113 17.0117C52.0703 16.8659 52.0247 16.6927 51.9746 16.4922C51.9245 16.2917 51.8743 16.0866 51.8242 15.877C51.7786 15.6673 51.7376 15.4759 51.7012 15.3027C51.6693 15.125 51.6465 14.9883 51.6328 14.8926C51.6237 14.9883 51.6032 15.1227 51.5713 15.2959C51.5394 15.4691 51.5007 15.6605 51.4551 15.8701C51.4141 16.0752 51.3685 16.2803 51.3184 16.4854C51.2682 16.6859 51.2227 16.8636 51.1816 17.0186L49.541 23H47.7568L45.1523 13.0059H46.7998L48.2422 18.8643C48.2878 19.0511 48.3333 19.2539 48.3789 19.4727C48.429 19.6868 48.4746 19.9033 48.5156 20.1221C48.5612 20.3408 48.6022 20.555 48.6387 20.7646C48.6751 20.9697 48.7048 21.1566 48.7275 21.3252C48.7503 21.152 48.7799 20.9606 48.8164 20.751C48.8529 20.5368 48.8916 20.3203 48.9326 20.1016C48.9782 19.8783 49.0238 19.6641 49.0693 19.459C49.1195 19.2539 49.1696 19.0693 49.2197 18.9053L50.8467 13.0059H52.4463L54.1074 18.9258C54.1576 19.0944 54.2054 19.2835 54.251 19.4932C54.3011 19.7028 54.349 19.917 54.3945 20.1357C54.4401 20.3545 54.4811 20.5664 54.5176 20.7715C54.554 20.9766 54.5837 21.1611 54.6064 21.3252C54.6383 21.1019 54.6794 20.8467 54.7295 20.5596C54.7796 20.2725 54.8366 19.9808 54.9004 19.6846C54.9642 19.3883 55.028 19.1149 55.0918 18.8643L56.5273 13.0059H58.1816ZM71.3477 17.9072C71.3477 19.0329 71.138 19.974 70.7188 20.7305C70.2995 21.4824 69.6911 22.0498 68.8936 22.4326C68.096 22.8109 67.1344 23 66.0088 23H63.2334V13.0059H66.3096C67.3441 13.0059 68.2373 13.1927 68.9893 13.5664C69.7412 13.9355 70.3223 14.4847 70.7324 15.2139C71.1426 15.9385 71.3477 16.8363 71.3477 17.9072ZM69.6387 17.9551C69.6387 17.1348 69.5088 16.4603 69.249 15.9316C68.9938 15.403 68.6156 15.0111 68.1143 14.7559C67.6175 14.4961 67.0046 14.3662 66.2754 14.3662H64.874V21.626H66.0361C67.2438 21.626 68.1462 21.3184 68.7432 20.7031C69.3402 20.0879 69.6387 19.1719 69.6387 17.9551ZM79.1611 23H73.501V13.0059H79.1611V14.3867H75.1416V17.1006H78.9082V18.4746H75.1416V21.6123H79.1611V23ZM84.7871 23H83.1396V14.4004H80.2139V13.0059H87.7061V14.4004H84.7871V23ZM95.4307 23L94.4531 20.2246H90.6318L89.6543 23H87.9248L91.6436 12.9648H93.4619L97.1738 23H95.4307ZM94.0293 18.8164L93.0791 16.082C93.0426 15.9635 92.9902 15.7972 92.9219 15.583C92.8535 15.3643 92.7852 15.1432 92.7168 14.9199C92.6484 14.6921 92.5915 14.5007 92.5459 14.3457C92.5003 14.5326 92.4434 14.7422 92.375 14.9746C92.3112 15.2025 92.2474 15.4167 92.1836 15.6172C92.1243 15.8177 92.0788 15.9727 92.0469 16.082L91.0898 18.8164H94.0293ZM98.4932 23V13.0059H100.134V23H98.4932ZM102.772 23V13.0059H104.413V21.6055H108.658V23H102.772ZM116.157 20.2793C116.157 20.8717 116.011 21.3822 115.72 21.8105C115.433 22.2389 115.018 22.5671 114.476 22.7949C113.938 23.0228 113.295 23.1367 112.548 23.1367C112.183 23.1367 111.835 23.1162 111.502 23.0752C111.169 23.0342 110.855 22.9749 110.559 22.8975C110.267 22.8154 110 22.7174 109.759 22.6035V21.0586C110.164 21.2363 110.618 21.3981 111.119 21.5439C111.62 21.6852 112.131 21.7559 112.65 21.7559C113.074 21.7559 113.425 21.7012 113.703 21.5918C113.986 21.4779 114.195 21.3184 114.332 21.1133C114.469 20.9036 114.537 20.6598 114.537 20.3818C114.537 20.0856 114.457 19.835 114.298 19.6299C114.138 19.4248 113.897 19.238 113.573 19.0693C113.254 18.8962 112.853 18.7116 112.37 18.5156C112.042 18.3835 111.728 18.2331 111.427 18.0645C111.131 17.8958 110.866 17.6976 110.634 17.4697C110.401 17.2419 110.217 16.973 110.08 16.6631C109.948 16.3486 109.882 15.9795 109.882 15.5557C109.882 14.9906 110.016 14.5075 110.285 14.1064C110.559 13.7054 110.941 13.3978 111.434 13.1836C111.93 12.9694 112.509 12.8623 113.17 12.8623C113.694 12.8623 114.186 12.917 114.646 13.0264C115.111 13.1357 115.567 13.2907 116.014 13.4912L115.494 14.8105C115.084 14.6419 114.685 14.5075 114.298 14.4072C113.915 14.307 113.523 14.2568 113.122 14.2568C112.776 14.2568 112.482 14.3092 112.24 14.4141C111.999 14.5189 111.814 14.667 111.687 14.8584C111.563 15.0452 111.502 15.2686 111.502 15.5283C111.502 15.82 111.573 16.0661 111.714 16.2666C111.86 16.4626 112.083 16.6426 112.384 16.8066C112.689 16.9707 113.081 17.153 113.56 17.3535C114.111 17.5814 114.578 17.8206 114.961 18.0713C115.348 18.3219 115.645 18.6227 115.85 18.9736C116.055 19.32 116.157 19.7552 116.157 20.2793Z" fill="#004EFF"/>
</svg>
