<svg width="23" height="22" viewBox="0 0 23 22" fill="none" xmlns="http://www.w3.org/2000/svg">
<path d="M16.0853 18.7913H6.91866C4.16866 18.7913 2.33533 17.4163 2.33533 14.208V7.79134C2.33533 4.58301 4.16866 3.20801 6.91866 3.20801H16.0853C18.8353 3.20801 20.6687 4.58301 20.6687 7.79134V14.208C20.6687 17.4163 18.8353 18.7913 16.0853 18.7913Z" stroke="#160783" stroke-miterlimit="10" stroke-linecap="round" stroke-linejoin="round"/>
<path d="M11.502 13.75C13.0207 13.75 14.252 12.5188 14.252 11C14.252 9.48122 13.0207 8.25 11.502 8.25C9.98317 8.25 8.75195 9.48122 8.75195 11C8.75195 12.5188 9.98317 13.75 11.502 13.75Z" stroke="#160783" stroke-miterlimit="10" stroke-linecap="round" stroke-linejoin="round"/>
<path d="M5.54358 8.70801V13.2913" stroke="#160783" stroke-miterlimit="10" stroke-linecap="round" stroke-linejoin="round"/>
<path d="M17.4603 8.70801V13.2913" stroke="#160783" stroke-miterlimit="10" stroke-linecap="round" stroke-linejoin="round"/>
</svg>
