<svg width="16" height="16" viewBox="0 0 16 16" fill="none" xmlns="http://www.w3.org/2000/svg">
<path d="M6.66667 14.6667C3.33333 14.6667 2 13.3334 2 10V6.00004C2 2.66671 3.33333 1.33337 6.66667 1.33337H9.33333C12.6667 1.33337 14 2.66671 14 6.00004" stroke="#004EFF" stroke-linecap="round" stroke-linejoin="round"/>
<path d="M11.5 4.52666C9.50667 2.75332 6.49333 2.75332 4.5 4.52666L5.95333 6.85999C7.12 5.81999 8.88 5.81999 10.0467 6.85999L11.5 4.52666Z" stroke="#004EFF" stroke-linecap="round" stroke-linejoin="round"/>
<path d="M10 11.3333V10.6666C10 9.56329 10.3333 8.66663 12 8.66663C13.6667 8.66663 14 9.56329 14 10.6666V11.3333" stroke="#004EFF" stroke-linecap="round" stroke-linejoin="round"/>
<path d="M13.666 15.3334H10.3327C8.99935 15.3334 8.66602 15 8.66602 13.6667V13C8.66602 11.6667 8.99935 11.3334 10.3327 11.3334H13.666C14.9993 11.3334 15.3327 11.6667 15.3327 13V13.6667C15.3327 15 14.9993 15.3334 13.666 15.3334Z" stroke="#004EFF" stroke-linecap="round" stroke-linejoin="round"/>
</svg>
