<svg width="24" height="24" viewBox="0 0 24 24" fill="none" xmlns="http://www.w3.org/2000/svg">
<path d="M22 8.99953V14.9995C22 17.4995 21.5 19.2495 20.38 20.3795L14 13.9995L21.73 6.26953C21.91 7.05953 22 7.95953 22 8.99953Z" stroke="#1C1C1C" stroke-linecap="round" stroke-linejoin="round"/>
<path d="M21.73 6.27L6.26999 21.73C3.25999 21.04 2 18.96 2 15L2 9C2 4 4 2 9 2L15 2C18.96 2 21.04 3.26 21.73 6.27Z" stroke="#1C1C1C" stroke-linecap="round" stroke-linejoin="round"/>
<path d="M20.3835 20.38C19.2535 21.5 17.5034 22 15.0034 22H9.00345C7.96345 22 7.06344 21.91 6.27344 21.73L14.0034 14L20.3835 20.38Z" stroke="#1C1C1C" stroke-linecap="round" stroke-linejoin="round"/>
<path d="M6.24124 7.97973C6.92124 5.04973 11.3212 5.04973 12.0012 7.97973C12.3912 9.69973 11.3112 11.1597 10.3612 12.0597C9.67123 12.7197 8.58125 12.7197 7.88125 12.0597C6.93125 11.1597 5.84124 9.69973 6.24124 7.97973Z" stroke="#1C1C1C"/>
<path d="M9.09607 8.7002H9.10505" stroke="#1C1C1C" stroke-linecap="round" stroke-linejoin="round"/>
</svg>
