<svg width="19" height="19" viewBox="0 0 19 19" fill="none" xmlns="http://www.w3.org/2000/svg">
<path d="M18.5 17.5868H16.89V2.50079C16.8898 2.38815 16.8516 2.27886 16.7815 2.19065C16.7115 2.10244 16.6137 2.04048 16.504 2.01479L7.984 0.0147922C7.91089 -0.00372892 7.83447 -0.00487379 7.76084 0.0114494C7.68721 0.0277725 7.61843 0.0611102 7.56 0.108792C7.50081 0.155565 7.45297 0.215126 7.42007 0.283013C7.38716 0.350899 7.37005 0.425352 7.37 0.500792V4.00779H2.605C2.47239 4.00779 2.34521 4.06047 2.25145 4.15424C2.15768 4.24801 2.105 4.37518 2.105 4.50779V17.5868H0.5C0.367392 17.5868 0.240215 17.6395 0.146447 17.7332C0.0526785 17.827 0 17.9542 0 18.0868C0 18.2194 0.0526785 18.3466 0.146447 18.4403C0.240215 18.5341 0.367392 18.5868 0.5 18.5868H18.5C18.6326 18.5868 18.7598 18.5341 18.8536 18.4403C18.9473 18.3466 19 18.2194 19 18.0868C19 17.9542 18.9473 17.827 18.8536 17.7332C18.7598 17.6395 18.6326 17.5868 18.5 17.5868ZM8.37 1.13179L15.89 2.89379V17.5868H11.632V4.50779C11.632 4.37518 11.5793 4.24801 11.4856 4.15424C11.3918 4.06047 11.2646 4.00779 11.132 4.00779H8.37V1.13179ZM3.105 5.00779H7.851C7.858 5.00779 7.863 5.00779 7.87 5.00779C7.877 5.00779 7.883 5.00779 7.89 5.00779H10.632V17.5868H3.105V5.00779ZM13.073 16.0078C13.073 15.8752 13.1257 15.748 13.2194 15.6542C13.3132 15.5605 13.4404 15.5078 13.573 15.5078H14.424C14.5566 15.5078 14.6838 15.5605 14.7776 15.6542C14.8713 15.748 14.924 15.8752 14.924 16.0078C14.924 16.1404 14.8713 16.2676 14.7776 16.3613C14.6838 16.4551 14.5566 16.5078 14.424 16.5078H13.573C13.5071 16.5078 13.4418 16.4948 13.381 16.4694C13.3201 16.4441 13.2649 16.407 13.2184 16.3603C13.1719 16.3135 13.1351 16.2581 13.1102 16.1971C13.0852 16.136 13.0726 16.0707 13.073 16.0048V16.0078ZM9.661 16.0078C9.661 16.1404 9.60832 16.2676 9.51455 16.3613C9.42078 16.4551 9.29361 16.5078 9.161 16.5078H8.311C8.17839 16.5078 8.05122 16.4551 7.95745 16.3613C7.86368 16.2676 7.811 16.1404 7.811 16.0078C7.811 15.8752 7.86368 15.748 7.95745 15.6542C8.05122 15.5605 8.17839 15.5078 8.311 15.5078H9.161C9.29309 15.5078 9.41982 15.5601 9.5135 15.6532C9.60718 15.7463 9.66021 15.8727 9.661 16.0048V16.0078ZM9.661 13.6998C9.661 13.8324 9.60832 13.9596 9.51455 14.0533C9.42078 14.1471 9.29361 14.1998 9.161 14.1998H8.311C8.17839 14.1998 8.05122 14.1471 7.95745 14.0533C7.86368 13.9596 7.811 13.8324 7.811 13.6998C7.811 13.5672 7.86368 13.44 7.95745 13.3462C8.05122 13.2525 8.17839 13.1998 8.311 13.1998H9.161C9.29258 13.1998 9.41885 13.2516 9.51245 13.3441C9.60605 13.4366 9.65942 13.5622 9.661 13.6938V13.6998ZM9.661 11.3918C9.661 11.5244 9.60832 11.6516 9.51455 11.7453C9.42078 11.8391 9.29361 11.8918 9.161 11.8918H8.311C8.17839 11.8918 8.05122 11.8391 7.95745 11.7453C7.86368 11.6516 7.811 11.5244 7.811 11.3918C7.811 11.2592 7.86368 11.132 7.95745 11.0382C8.05122 10.9445 8.17839 10.8918 8.311 10.8918H9.161C9.22683 10.8918 9.29201 10.9048 9.35281 10.93C9.4136 10.9553 9.46881 10.9923 9.51526 11.0389C9.56172 11.0856 9.59851 11.1409 9.62352 11.2018C9.64852 11.2627 9.66126 11.328 9.661 11.3938V11.3918ZM9.661 9.08379C9.661 9.2164 9.60832 9.34358 9.51455 9.43735C9.42078 9.53111 9.29361 9.58379 9.161 9.58379H8.311C8.17839 9.58379 8.05122 9.53111 7.95745 9.43735C7.86368 9.34358 7.811 9.2164 7.811 9.08379C7.811 8.95118 7.86368 8.82401 7.95745 8.73024C8.05122 8.63647 8.17839 8.58379 8.311 8.58379H9.161C9.29309 8.58379 9.41982 8.63606 9.5135 8.72918C9.60718 8.8223 9.66021 8.9487 9.661 9.08079V9.08379ZM7.811 6.77579C7.811 6.64318 7.86368 6.51601 7.95745 6.42224C8.05122 6.32847 8.17839 6.27579 8.311 6.27579H9.161C9.29361 6.27579 9.42078 6.32847 9.51455 6.42224C9.60832 6.51601 9.661 6.64318 9.661 6.77579C9.661 6.9084 9.60832 7.03558 9.51455 7.12935C9.42078 7.22311 9.29361 7.27579 9.161 7.27579H8.311C8.24509 7.27579 8.17982 7.26276 8.11896 7.23745C8.0581 7.21213 8.00285 7.17503 7.95638 7.12829C7.90991 7.08154 7.87315 7.02606 7.8482 6.96505C7.82325 6.90405 7.8106 6.83871 7.811 6.77279V6.77579ZM5.927 16.0048C5.927 16.1374 5.87432 16.2646 5.78055 16.3583C5.68679 16.4521 5.55961 16.5048 5.427 16.5048H4.576C4.44339 16.5048 4.31621 16.4521 4.22245 16.3583C4.12868 16.2646 4.076 16.1374 4.076 16.0048C4.076 15.8722 4.12868 15.745 4.22245 15.6512C4.31621 15.5575 4.44339 15.5048 4.576 15.5048H5.427C5.55961 15.5048 5.68679 15.5575 5.78055 15.6512C5.87432 15.745 5.927 15.8722 5.927 16.0048ZM5.927 13.6968C5.927 13.8294 5.87432 13.9566 5.78055 14.0503C5.68679 14.1441 5.55961 14.1968 5.427 14.1968H4.576C4.44339 14.1968 4.31621 14.1441 4.22245 14.0503C4.12868 13.9566 4.076 13.8294 4.076 13.6968C4.076 13.5642 4.12868 13.437 4.22245 13.3432C4.31621 13.2495 4.44339 13.1968 4.576 13.1968H5.427C5.55909 13.1968 5.68581 13.2491 5.7795 13.3422C5.87318 13.4353 5.92621 13.5617 5.927 13.6938V13.6968ZM5.927 11.3888C5.927 11.5214 5.87432 11.6486 5.78055 11.7423C5.68679 11.8361 5.55961 11.8888 5.427 11.8888H4.576C4.44339 11.8888 4.31621 11.8361 4.22245 11.7423C4.12868 11.6486 4.076 11.5214 4.076 11.3888C4.076 11.2562 4.12868 11.129 4.22245 11.0352C4.31621 10.9415 4.44339 10.8888 4.576 10.8888H5.427C5.49308 10.8888 5.55851 10.9019 5.6195 10.9273C5.68049 10.9528 5.73584 10.99 5.78233 11.037C5.82883 11.084 5.86555 11.1397 5.89038 11.2009C5.91522 11.2622 5.92766 11.3277 5.927 11.3938V11.3888ZM5.927 9.08079C5.927 9.2134 5.87432 9.34058 5.78055 9.43435C5.68679 9.52811 5.55961 9.58079 5.427 9.58079H4.576C4.44339 9.58079 4.31621 9.52811 4.22245 9.43435C4.12868 9.34058 4.076 9.2134 4.076 9.08079C4.076 8.94818 4.12868 8.82101 4.22245 8.72724C4.31621 8.63347 4.44339 8.58079 4.576 8.58079H5.427C5.49266 8.58079 5.55768 8.59373 5.61834 8.61885C5.679 8.64398 5.73412 8.68081 5.78055 8.72724C5.82698 8.77367 5.86381 8.82879 5.88894 8.88945C5.91407 8.95011 5.927 9.01513 5.927 9.08079ZM5.927 6.77279C5.927 6.9054 5.87432 7.03258 5.78055 7.12635C5.68679 7.22011 5.55961 7.27279 5.427 7.27279H4.576C4.44339 7.27279 4.31621 7.22011 4.22245 7.12635C4.12868 7.03258 4.076 6.9054 4.076 6.77279C4.076 6.64018 4.12868 6.51301 4.22245 6.41924C4.31621 6.32547 4.44339 6.27279 4.576 6.27279H5.427C5.55961 6.27279 5.68679 6.32547 5.78055 6.41924C5.87432 6.51301 5.927 6.64018 5.927 6.77279ZM13.073 13.6938C13.073 13.5612 13.1257 13.434 13.2194 13.3402C13.3132 13.2465 13.4404 13.1938 13.573 13.1938H14.424C14.5566 13.1938 14.6838 13.2465 14.7776 13.3402C14.8713 13.434 14.924 13.5612 14.924 13.6938C14.924 13.8264 14.8713 13.9536 14.7776 14.0473C14.6838 14.1411 14.5566 14.1938 14.424 14.1938H13.573C13.4404 14.1938 13.3132 14.1411 13.2194 14.0473C13.1257 13.9536 13.073 13.8264 13.073 13.6938ZM13.073 11.3858C13.073 11.2532 13.1257 11.126 13.2194 11.0322C13.3132 10.9385 13.4404 10.8858 13.573 10.8858H14.424C14.5566 10.8858 14.6838 10.9385 14.7776 11.0322C14.8713 11.126 14.924 11.2532 14.924 11.3858C14.924 11.5184 14.8713 11.6456 14.7776 11.7393C14.6838 11.8331 14.5566 11.8858 14.424 11.8858H13.573C13.4418 11.8858 13.3158 11.8342 13.2222 11.7422C13.1287 11.6501 13.0751 11.525 13.073 11.3938V11.3858ZM13.073 9.07779C13.073 8.94518 13.1257 8.81801 13.2194 8.72424C13.3132 8.63047 13.4404 8.57779 13.573 8.57779H14.424C14.5566 8.57779 14.6838 8.63047 14.7776 8.72424C14.8713 8.81801 14.924 8.94518 14.924 9.07779C14.924 9.2104 14.8713 9.33758 14.7776 9.43135C14.6838 9.52511 14.5566 9.57779 14.424 9.57779H13.573C13.4409 9.5778 13.3142 9.52553 13.2205 9.43241C13.1268 9.33929 13.0738 9.21288 13.073 9.08079V9.07779ZM13.073 6.76979C13.073 6.63718 13.1257 6.51001 13.2194 6.41624C13.3132 6.32247 13.4404 6.26979 13.573 6.26979H14.424C14.5566 6.26979 14.6838 6.32247 14.7776 6.41624C14.8713 6.51001 14.924 6.63718 14.924 6.76979C14.924 6.9024 14.8713 7.02958 14.7776 7.12335C14.6838 7.21711 14.5566 7.26979 14.424 7.26979H13.573C13.4409 7.26979 13.3142 7.21753 13.2205 7.12441C13.1268 7.03129 13.0738 6.90488 13.073 6.77279V6.76979ZM13.073 4.46179C13.073 4.32918 13.1257 4.20201 13.2194 4.10824C13.3132 4.01447 13.4404 3.96179 13.573 3.96179H14.424C14.5566 3.96179 14.6838 4.01447 14.7776 4.10824C14.8713 4.20201 14.924 4.32918 14.924 4.46179C14.924 4.5944 14.8713 4.72158 14.7776 4.81535C14.6838 4.90911 14.5566 4.96179 14.424 4.96179H13.573C13.4409 4.96179 13.3142 4.90953 13.2205 4.81641C13.1268 4.72329 13.0738 4.59688 13.073 4.46479V4.46179Z" fill="black"/>
</svg>
