<svg width="16" height="16" viewBox="0 0 16 16" fill="none" xmlns="http://www.w3.org/2000/svg">
<path d="M6.0026 14.6693L10.0026 14.6693C13.3359 14.6693 14.6693 13.3359 14.6693 10.0026L14.6693 6.0026C14.6693 2.66927 13.3359 1.33594 10.0026 1.33594L6.0026 1.33594C2.66927 1.33594 1.33594 2.66927 1.33594 6.0026L1.33594 10.0026C1.33594 13.3359 2.66927 14.6693 6.0026 14.6693Z" stroke="#1C1C1C" stroke-linecap="round" stroke-linejoin="round"/>
<path d="M5.9974 6.66667C6.73378 6.66667 7.33073 6.06971 7.33073 5.33333C7.33073 4.59695 6.73378 4 5.9974 4C5.26102 4 4.66406 4.59695 4.66406 5.33333C4.66406 6.06971 5.26102 6.66667 5.9974 6.66667Z" stroke="#1C1C1C" stroke-linecap="round" stroke-linejoin="round"/>
<path d="M1.78125 12.635L5.06792 10.4283C5.59458 10.075 6.35458 10.115 6.82792 10.5217L7.04792 10.715C7.56792 11.1617 8.40792 11.1617 8.92792 10.715L11.7012 8.335C12.2212 7.88833 13.0612 7.88833 13.5812 8.335L14.6679 9.26833" stroke="#1C1C1C" stroke-linecap="round" stroke-linejoin="round"/>
</svg>
