<svg width="16" height="16" viewBox="0 0 16 16" fill="none" xmlns="http://www.w3.org/2000/svg">
<path d="M8.01242 1.9375C5.80575 1.9375 4.01242 3.73083 4.01242 5.9375V7.86417C4.01242 8.27083 3.83908 8.89083 3.63242 9.2375L2.86575 10.5108C2.39242 11.2975 2.71908 12.1708 3.58575 12.4642C6.45908 13.4242 9.55908 13.4242 12.4324 12.4642C13.2391 12.1975 13.5924 11.2442 13.1524 10.5108L12.3857 9.2375C12.1857 8.89083 12.0124 8.27083 12.0124 7.86417V5.9375C12.0124 3.7375 10.2124 1.9375 8.01242 1.9375Z" stroke="#1C1C1C" stroke-miterlimit="10" stroke-linecap="round"/>
<path d="M9.24792 2.13687C9.04125 2.07687 8.82792 2.03021 8.60792 2.00354C7.96792 1.92354 7.35458 1.97021 6.78125 2.13687C6.97458 1.64354 7.45458 1.29688 8.01458 1.29688C8.57458 1.29688 9.05458 1.64354 9.24792 2.13687Z" stroke="#1C1C1C" stroke-miterlimit="10" stroke-linecap="round" stroke-linejoin="round"/>
<path d="M10.0156 12.7031C10.0156 13.8031 9.11563 14.7031 8.01563 14.7031C7.46896 14.7031 6.96229 14.4765 6.60229 14.1165C6.24229 13.7565 6.01562 13.2498 6.01562 12.7031" stroke="#1C1C1C" stroke-miterlimit="10"/>
</svg>
