<svg width="16" height="16" viewBox="0 0 16 16" fill="none" xmlns="http://www.w3.org/2000/svg">
<path d="M14.6493 12.2226C14.6493 12.4626 14.5959 12.7093 14.4826 12.9493C14.3693 13.1893 14.2226 13.4159 14.0293 13.6293C13.7026 13.9893 13.3426 14.2493 12.9359 14.4159C12.5359 14.5826 12.1026 14.6693 11.6359 14.6693C10.9559 14.6693 10.2293 14.5093 9.4626 14.1826C8.69594 13.8559 7.92927 13.4159 7.16927 12.8626C6.4026 12.3026 5.67594 11.6826 4.9826 10.9959C4.29594 10.3026 3.67594 9.57594 3.1226 8.81594C2.57594 8.05594 2.13594 7.29594 1.81594 6.5426C1.49594 5.7826 1.33594 5.05594 1.33594 4.3626C1.33594 3.90927 1.41594 3.47594 1.57594 3.07594C1.73594 2.66927 1.98927 2.29594 2.3426 1.9626C2.76927 1.5426 3.23594 1.33594 3.72927 1.33594C3.91594 1.33594 4.1026 1.37594 4.26927 1.45594C4.4426 1.53594 4.59594 1.65594 4.71594 1.82927L6.2626 4.00927C6.3826 4.17594 6.46927 4.32927 6.52927 4.47594C6.58927 4.61594 6.6226 4.75594 6.6226 4.8826C6.6226 5.0426 6.57594 5.2026 6.4826 5.35594C6.39594 5.50927 6.26927 5.66927 6.10927 5.82927L5.6026 6.35594C5.52927 6.42927 5.49594 6.51594 5.49594 6.6226C5.49594 6.67594 5.5026 6.7226 5.51594 6.77594C5.53594 6.82927 5.55594 6.86927 5.56927 6.90927C5.68927 7.12927 5.89594 7.41594 6.18927 7.7626C6.48927 8.10927 6.80927 8.4626 7.15594 8.81594C7.51594 9.16927 7.8626 9.49594 8.21594 9.79594C8.5626 10.0893 8.84927 10.2893 9.07594 10.4093C9.10927 10.4226 9.14927 10.4426 9.19594 10.4626C9.24927 10.4826 9.3026 10.4893 9.3626 10.4893C9.47594 10.4893 9.5626 10.4493 9.63594 10.3759L10.1426 9.87594C10.3093 9.70927 10.4693 9.5826 10.6226 9.5026C10.7759 9.40927 10.9293 9.3626 11.0959 9.3626C11.2226 9.3626 11.3559 9.38927 11.5026 9.44927C11.6493 9.50927 11.8026 9.59594 11.9693 9.70927L14.1759 11.2759C14.3493 11.3959 14.4693 11.5359 14.5426 11.7026C14.6093 11.8693 14.6493 12.0359 14.6493 12.2226Z" stroke="#1C1C1C" stroke-miterlimit="10"/>
</svg>
