<svg width="80" height="80" viewBox="0 0 80 80" fill="none" xmlns="http://www.w3.org/2000/svg">
<path d="M73.3307 39.9974C73.3307 21.6307 58.3641 6.66406 39.9974 6.66406C21.6307 6.66406 6.66406 21.6307 6.66406 39.9974C6.66406 49.6641 10.8307 58.3641 17.4307 64.4641C17.4307 64.4974 17.4307 64.4974 17.3974 64.5307C17.7307 64.8641 18.1307 65.1307 18.4641 65.4307C18.6641 65.5974 18.8307 65.7641 19.0307 65.8974C19.6307 66.3974 20.2974 66.8641 20.9307 67.3307C21.1641 67.4974 21.3641 67.6307 21.5974 67.7974C22.2307 68.2307 22.8974 68.6307 23.5974 68.9974C23.8307 69.1307 24.0974 69.2974 24.3307 69.4307C24.9974 69.7974 25.6974 70.1307 26.4307 70.4307C26.6974 70.5641 26.9641 70.6974 27.2307 70.7974C27.9641 71.0974 28.6974 71.3641 29.4307 71.5974C29.6974 71.6974 29.9641 71.7974 30.2307 71.8641C31.0307 72.0974 31.8307 72.2974 32.6307 72.4974C32.8641 72.5641 33.0974 72.6307 33.3641 72.6641C34.2974 72.8641 35.2307 72.9974 36.1974 73.0974C36.3307 73.0974 36.4641 73.1307 36.5974 73.1641C37.7307 73.2641 38.8641 73.3307 39.9974 73.3307C41.1307 73.3307 42.2641 73.2641 43.3641 73.1641C43.4974 73.1641 43.6307 73.1307 43.7641 73.0974C44.7307 72.9974 45.6641 72.8641 46.5974 72.6641C46.8307 72.6307 47.0641 72.5307 47.3307 72.4974C48.1307 72.2974 48.9641 72.1307 49.7307 71.8641C49.9974 71.7641 50.2641 71.6641 50.5307 71.5974C51.2641 71.3307 52.0307 71.0974 52.7307 70.7974C52.9974 70.6974 53.2641 70.5641 53.5307 70.4307C54.2307 70.1307 54.9307 69.7974 55.6307 69.4307C55.8974 69.2974 56.1307 69.1307 56.3641 68.9974C57.0307 68.5974 57.6974 68.2307 58.3641 67.7974C58.5974 67.6641 58.7974 67.4974 59.0307 67.3307C59.6974 66.8641 60.3307 66.3974 60.9307 65.8974C61.1307 65.7307 61.2974 65.5641 61.4974 65.4307C61.8641 65.1307 62.2307 64.8307 62.5641 64.5307C62.5641 64.4974 62.5641 64.4974 62.5307 64.4641C69.1641 58.3641 73.3307 49.6641 73.3307 39.9974ZM56.4641 56.5641C47.4307 50.4974 32.6307 50.4974 23.5307 56.5641C22.0641 57.5307 20.8641 58.6641 19.8641 59.8974C14.7974 54.7641 11.6641 47.7307 11.6641 39.9974C11.6641 24.3641 24.3641 11.6641 39.9974 11.6641C55.6307 11.6641 68.3307 24.3641 68.3307 39.9974C68.3307 47.7307 65.1974 54.7641 60.1307 59.8974C59.1641 58.6641 57.9307 57.5307 56.4641 56.5641Z" fill="#D2D2D2"/>
<path d="M40 23.1016C33.1 23.1016 27.5 28.7016 27.5 35.6016C27.5 42.3682 32.8 47.8682 39.8333 48.0682C39.9333 48.0682 40.0667 48.0682 40.1333 48.0682C40.2 48.0682 40.3 48.0682 40.3667 48.0682C40.4 48.0682 40.4333 48.0682 40.4333 48.0682C47.1667 47.8349 52.4667 42.3682 52.5 35.6016C52.5 28.7016 46.9 23.1016 40 23.1016Z" fill="#D2D2D2"/>
</svg>
