<svg width="16" height="14" viewBox="0 0 16 14" fill="none" xmlns="http://www.w3.org/2000/svg">
<path d="M1.33594 7.59021V6.41687C1.33594 5.72354 1.9026 5.15021 2.6026 5.15021C3.80927 5.15021 4.3026 4.29687 3.69594 3.25021C3.34927 2.65021 3.55594 1.87021 4.1626 1.52354L5.31594 0.863538C5.8426 0.550205 6.5226 0.736872 6.83594 1.26354L6.90927 1.39021C7.50927 2.43687 8.49594 2.43687 9.1026 1.39021L9.17594 1.26354C9.48927 0.736872 10.1693 0.550205 10.6959 0.863538L11.8493 1.52354C12.4559 1.87021 12.6626 2.65021 12.3159 3.25021C11.7093 4.29687 12.2026 5.15021 13.4093 5.15021C14.1026 5.15021 14.6759 5.71687 14.6759 6.41687V7.59021C14.6759 8.28354 14.1093 8.85687 13.4093 8.85687C12.2026 8.85687 11.7093 9.7102 12.3159 10.7569C12.6626 11.3635 12.4559 12.1369 11.8493 12.4835L10.6959 13.1435C10.1693 13.4569 9.48927 13.2702 9.17594 12.7435L9.1026 12.6169C8.5026 11.5702 7.51594 11.5702 6.90927 12.6169L6.83594 12.7435C6.5226 13.2702 5.8426 13.4569 5.31594 13.1435L4.1626 12.4835C3.55594 12.1369 3.34927 11.3569 3.69594 10.7569C4.3026 9.7102 3.80927 8.85687 2.6026 8.85687C1.9026 8.85687 1.33594 8.28354 1.33594 7.59021Z" stroke="#1C1C1C" stroke-miterlimit="10" stroke-linecap="round" stroke-linejoin="round"/>
</svg>
