<svg width="16" height="16" viewBox="0 0 16 16" fill="none" xmlns="http://www.w3.org/2000/svg">
<path d="M8 14C11.3137 14 14 11.3137 14 8C14 4.68629 11.3137 2 8 2C4.68629 2 2 4.68629 2 8C2 11.3137 4.68629 14 8 14Z" stroke="#1C1C1C" stroke-miterlimit="10"/>
<path d="M3.10156 11.4643L3.81248 11.0351C3.88864 10.9891 3.94904 10.9211 3.98568 10.84C4.02232 10.7589 4.03346 10.6687 4.01764 10.5811L3.61389 8.34747C3.59616 8.24938 3.61234 8.14817 3.65975 8.0605L4.32759 6.82563C4.35528 6.77443 4.39287 6.72925 4.43817 6.69271L5.46044 5.8683C5.52824 5.81363 5.61076 5.78035 5.69752 5.7727C5.78428 5.76506 5.87136 5.78339 5.94768 5.82536L6.3973 6.07265C6.49018 6.12374 6.56145 6.2067 6.59794 6.30623L6.68381 6.54042C6.71264 6.61904 6.76335 6.68778 6.82996 6.73853C6.89657 6.78928 6.97631 6.81992 7.05976 6.82684C7.14321 6.83376 7.22691 6.81668 7.30097 6.77759C7.37503 6.73851 7.43637 6.67907 7.47776 6.60627L7.77287 6.08719C7.8024 6.03526 7.84221 5.9899 7.88986 5.95389C7.93752 5.91787 7.99202 5.89196 8.05004 5.87774C8.10806 5.86352 8.16837 5.86129 8.22728 5.87118C8.28619 5.88107 8.34246 5.90287 8.39265 5.93526L9.29355 6.51659C9.36798 6.56462 9.45519 6.58901 9.54374 6.58657C9.63228 6.58412 9.71802 6.55496 9.78968 6.50289C9.86135 6.45083 9.91559 6.37831 9.94529 6.29486C9.97499 6.21141 9.97875 6.12093 9.95608 6.0353V6.0353C9.9299 5.93638 9.93908 5.83142 9.98205 5.73856C10.025 5.64569 10.0991 5.57075 10.1914 5.52668L11.433 4.93412C11.5201 4.89252 11.5911 4.82336 11.635 4.73733C11.6789 4.6513 11.6932 4.55321 11.6757 4.45825L11.4198 3.07031" stroke="#1C1C1C" stroke-linecap="round" stroke-linejoin="round"/>
<path d="M11.961 12.505L11.0505 11.5926C11.0097 11.5518 10.9613 11.5194 10.9079 11.4972C10.8546 11.4751 10.7974 11.4637 10.7397 11.4637H10.025C9.96195 11.4637 9.89962 11.4501 9.84228 11.4239C9.78493 11.3976 9.73392 11.3594 9.6927 11.3116C9.65148 11.2639 9.62102 11.2078 9.60341 11.1473C9.5858 11.0867 9.58143 11.0231 9.59062 10.9607L9.73942 9.95013C9.74953 9.88149 9.77576 9.81622 9.81596 9.75967C9.85616 9.70312 9.9092 9.65691 9.97071 9.62481L11.4621 8.84667C11.5412 8.80545 11.6309 8.78924 11.7193 8.80022C11.8078 8.81119 11.8908 8.84882 11.9573 8.90811L13.5348 10.3135" stroke="#1C1C1C" stroke-linecap="round" stroke-linejoin="round"/>
</svg>
